<?xml version="1.0" encoding="UTF-8"?>
<svg xmlns="http://www.w3.org/2000/svg" viewBox="0 0 1024 1024">
  <g id="blush-01">
    <path
      id="blush-01-fill"
      fill="#84C9DF"
      stroke="none"
      d=" M835.219238,424.042999   C829.158264,424.923340 823.432312,425.849091 817.671326,426.199829   C792.282654,427.745514 769.608398,421.054810 751.366028,402.729767   C739.145996,390.454376 732.850525,375.023743 729.932251,358.102844   C727.027588,341.260620 729.721558,325.076111 735.396362,309.198639   C736.112793,307.193970 736.494873,305.069763 737.339722,302.480469   C737.934021,301.557068 738.316833,301.192230 738.493286,300.745819   C749.992432,271.651367 765.202576,244.478790 781.351257,217.785507   C782.143188,216.476456 782.355713,214.816895 782.838074,213.320587   C783.859375,212.311996 785.067871,211.433365 785.872314,210.274323   C792.598267,200.584641 799.229553,190.829239 805.946045,181.132950   C806.963196,179.664444 808.273376,178.398880 810.134705,176.244858   C814.607361,181.240845 818.978271,185.704544 822.875671,190.549164   C839.611938,211.352997 853.575378,234.032257 866.035706,257.536407   C874.579773,273.653412 882.141418,290.378632 888.938721,307.315002   C900.949829,337.242096 898.584717,366.228821 880.368408,393.304657   C871.541199,406.425049 859.196777,415.184937 844.475037,420.695465   C841.519836,421.801636 838.518311,422.784149 835.219238,424.042999  M793.036316,339.407684   C802.241577,322.764587 797.267761,297.795135 781.824951,283.406006   C781.431519,283.626343 780.911499,283.770599 780.611816,284.109589   C778.854736,286.097443 777.051514,288.056152 775.442261,290.161102   C766.406982,301.979919 759.343506,314.565369 759.896606,330.140625   C760.200195,338.688843 764.497437,345.086975 771.710815,347.397827   C779.876892,350.013916 787.414185,347.347839 793.036316,339.407684  z"
    />
    <path
      id="blush-01-highlight"
      fill="#E6F9FA"
      stroke="none"
      d=" M792.820679,339.707458   C787.414185,347.347839 779.876892,350.013916 771.710815,347.397827   C764.497437,345.086975 760.200195,338.688843 759.896606,330.140625   C759.343506,314.565369 766.406982,301.979919 775.442261,290.161102   C777.051514,288.056152 778.854736,286.097443 780.611816,284.109589   C780.911499,283.770599 781.431519,283.626343 781.824951,283.406006   C797.267761,297.795135 802.241577,322.764587 792.820679,339.707458  z"
    />
  </g>
</svg>
