<?xml version="1.0" encoding="UTF-8" standalone="no"?>
<svg
   viewBox="0 0 512 512"
   version="1.1"
   id="svg1"
   xmlns="http://www.w3.org/2000/svg"
   xmlns:svg="http://www.w3.org/2000/svg">
  <defs
     id="defs1" />
  <path
     id="glasses-01"
     fill="#0cc6c2"
     stroke="none"
     d="M494.808,192.041l-9.598-0.161c0,0-8.412-25.989-56.914-27.898c-38.4-1.518-77.883,1.098-112.568,6.744c-27.018,4.386-38.022,22.044-43.646,21.946L256,192.412l-16.083,0.258c-5.625,0.098-16.629-17.559-43.646-21.946c-34.685-5.646-74.168-8.262-112.568-6.744c-48.501,1.91-56.914,27.898-56.914,27.898l-9.598,0.161c-9.651,0.154-17.35,8.108-17.188,17.762l0.301,18.769c0.119,7.227,4.676,13.649,11.466,16.125l6.257,2.287c0,0,10.462,33.419,26.745,61.458c23.159,39.869,65.2,42.954,109.189,38.428c61.286-6.31,74.008-64.459,79.094-81.703c9.913-33.628,22.946-29.83,22.946-29.83s13.033-3.798,22.946,29.83c5.086,17.244,17.808,75.393,79.094,81.703c43.989,4.526,86.029,1.441,109.188-38.428c16.283-28.038,26.744-61.458,26.744-61.458l6.258-2.287c6.789-2.476,11.347-8.898,11.466-16.125l0.301-18.769C512.158,200.149,504.459,192.195,494.808,192.041z M200.335,263.404c-2.938,7.884-6.446,15.559-10.284,23.121c-8.09,15.936-19.955,27.528-39.368,29.438c-8.038,0.791-15.051,1.224-21.438,1.33c-37.189,0.602-49.19-10.536-56.624-22.659c-11.557-18.875-16.863-35.476-18.867-48.851c-5.684-37.938,30.557-44.284,59.173-42.961c23.918,1.106,51.744,0.79,75.036,6.458c10.916,2.658,17.699,10.458,18.755,18.748C208.254,240.059,205.718,248.985,200.335,263.404z M458.246,245.782c-2.004,13.375-7.311,29.976-18.867,48.851c-7.433,12.124-19.434,23.261-56.624,22.659c-6.387-0.106-13.401-0.539-21.438-1.33c-19.413-1.91-31.278-13.502-39.368-29.438c-3.838-7.562-7.346-15.237-10.284-23.121c-5.383-14.418-7.919-23.345-6.384-35.378c1.057-8.29,7.839-16.09,18.756-18.748c23.292-5.667,51.117-5.352,75.036-6.458C427.688,201.499,463.93,207.844,458.246,245.782z" />
  <path
     style="fill:#f6d5ff;fill-opacity:0.42;stroke-width:0.628221"
     d="m 366.88098,316.23145 c -18.66389,-1.65149 -30.0872,-7.75234 -39.20119,-20.93619 -6.68267,-9.66683 -17.57543,-34.64678 -20.69632,-47.46213 -3.63286,-14.91759 -1.79708,-25.71171 5.45913,-32.09888 4.10331,-3.61188 8.54943,-5.51397 16.80845,-7.19081 14.73959,-2.9926 33.3053,-4.4475 64.95754,-5.09041 13.93889,-0.28313 21.4604,-0.17931 25.44294,0.35117 21.4143,2.8524 33.38361,10.85012 37.6232,25.13927 3.18035,10.71911 -0.98142,31.29679 -10.24723,50.667 -11.31391,23.65175 -19.7516,31.2586 -39.31216,35.44119 -5.05338,1.08055 -8.98564,1.38712 -20.10307,1.56729 -7.60147,0.12318 -16.93055,-0.0512 -20.73129,-0.3875 z"
     id="path3" />
  <path
     style="fill:#f6d5ff;fill-opacity:0.42;stroke-width:0.628221"
     d="m 111.89165,316.26996 c -15.009715,-1.74163 -25.9254,-6.48411 -33.328083,-14.4799 -8.959559,-9.67739 -20.021791,-33.73068 -23.560309,-51.22862 -5.554161,-27.46528 6.581524,-42.6595 37.345208,-46.75724 6.231611,-0.83006 37.124664,-0.4477 55.597544,0.68811 21.63526,1.33026 39.24227,4.10647 45.51864,7.17721 12.27626,6.00621 16.03244,17.76509 11.55189,36.16361 -3.12091,12.81535 -14.01366,37.7953 -20.69633,47.46213 -6.7783,9.80516 -16.44684,16.62771 -27.03713,19.0786 -9.75583,2.25778 -33.66655,3.25658 -45.39143,1.8961 z"
     id="path4" />
</svg>
