<?xml version="1.0" encoding="UTF-8"?>
<svg xmlns="http://www.w3.org/2000/svg" viewBox="0 0 1024 1024">
  <g id="leaf-01" transform="rotate(7, 514, 219)">
    <path
      fill="#A4CD7D"
      stroke="none"
      d=" M587.962830,247.452148   C587.176208,248.577194 586.042969,249.148254 585.603149,250.055496   C572.081726,277.946960 548.858521,293.500122 519.541199,299.852875   C485.311951,307.269958 451.771667,302.204224 419.034637,290.809387   C412.145386,288.411407 411.720184,287.042969 414.379456,280.027618   C418.208282,269.926666 422.054016,259.832123 425.921631,249.367004   C432.501862,236.897202 438.416809,224.392319 445.762817,212.793808   C455.258850,197.800674 467.338562,185.011246 483.148712,176.274445   C501.266693,166.262314 520.599426,161.487350 541.151062,165.004272   C552.497437,166.945908 563.582153,170.566879 574.656250,173.862701   C578.244934,174.930740 580.764160,174.862900 582.657104,171.524994   C588.119690,161.892609 593.774963,152.358337 598.870789,142.534592   C600.902100,138.618378 602.898926,135.519104 607.707764,136.162170   C612.347778,136.782684 616.764954,141.598816 617.040283,145.914032   C617.554871,153.978073 612.809937,159.739929 608.069946,165.267761   C602.776917,171.440491 596.862061,177.076675 591.434265,183.140091   C590.312988,184.392731 589.298157,186.709045 589.664551,188.178452   C594.436523,207.315292 594.522461,226.263779 588.143799,245.078049   C587.936401,245.689774 588.001404,246.393875 587.962830,247.452148  z"
    />
  </g>
</svg>
