<?xml version="1.0" encoding="UTF-8" standalone="no"?>
<svg
   viewBox="0 0 1024 1024"
   version="1.1"
   id="svg1"
   xmlns="http://www.w3.org/2000/svg"
   xmlns:svg="http://www.w3.org/2000/svg">
  <defs
     id="defs1" />
  <g
     transform="translate(-18, 85) scale(1.05)"
     id="g1">
    <path
       fill="#2f2a25"
       opacity="1"
       stroke="none"
       d="m 686.97992,319.40607 c 1.40405,-0.25202 3.47274,-1.14109 4.40341,-1.38971 6.05505,-1.61753 6.22311,0.0388 6.64322,6.03082 0.0656,0.93658 0.48279,1.84851 0.89911,3.27191 -0.23187,0.8823 -0.62537,1.26453 -1.01886,1.64673 -4.58856,1.75571 -9.17712,3.51144 -14.21466,5.65115 -4.62122,1.96015 -8.70569,3.85544 -12.98755,5.03302 -5.55975,1.52896 -7.58472,4.68933 -6.81964,10.38636 0.36304,2.70315 -0.41345,5.58847 -0.84455,8.36471 -5.39691,34.75672 -38.27093,58.15756 -74.17919,52.2897 -31.16211,-5.09231 -52.92371,-31.29153 -53.91791,-63.16732 -0.0539,-1.72696 -1.4057,-4.06525 -2.86792,-4.9943 -12.65894,-8.04309 -25.68802,-7.54818 -38.78259,-1.00482 -3.07636,1.53726 -4.74485,3.82154 -4.27079,7.60745 0.34784,2.77765 0.21762,5.69007 -0.1774,8.47458 -5.27844,37.20862 -40.72015,58.66141 -73.56817,53.15146 -32.73279,-5.4906 -56.07172,-32.92908 -54.36713,-64.19183 0.16058,-2.94455 -1.04339,-4.13141 -3.46536,-5.09036 -4.90576,-1.94239 -9.73563,-4.07639 -14.5968,-6.13138 -5.06958,-2.07608 -10.13916,-4.15216 -15.56644,-6.24872 -0.3577,-0.0205 -0.33621,0.044 -0.48242,-0.23233 -0.5286,-0.41437 -0.91101,-0.55243 -1.50394,-0.88104 -0.40436,-1.25534 -0.5982,-2.32013 -0.79205,-3.38492 0,0 0.27096,-0.32706 0.43942,-0.45642 1.1124,-1.77378 2.52754,-5.14576 3.89115,-7.52122 2.76755,0.24249 5.65961,2.92059 9.94135,3.36215 8.35229,3.65503 16.4143,6.56254 24.59823,10.29725 3.38797,-12.28155 10.43182,-20.9447 18.38571,-29.25415 5.36557,-4.64036 9.9665,-6.97502 15.32892,-9.47887 7.63668,-3.8309 16.6179,-6.79911 25.24415,-6.56672 6.68573,0.18018 15.41649,0.32515 21.52727,2.80205 7.46091,3.02416 12.69123,4.92983 19.52667,9.32579 11.64524,8.54989 19.43686,19.59033 24.02451,33.04641 17.04086,-8.25927 33.57385,-8.88669 50.08148,0.46552 0.45056,-0.87082 0.94287,-1.54358 1.16644,-2.29624 3.68109,-12.38986 10.93769,-22.15216 21.21082,-29.72677 5.61615,-4.14091 12.36284,-6.70679 18.62762,-8.86078 20.1648,-6.80048 39.26215,-6.19171 56.94526,5.52957 2.14978,1.42496 4.45184,4.50623 7.09258,5.78091 8.77894,7.86823 14.90351,17.18744 18.72754,28.21653 4.42389,-1.6976 8.44666,-3.17783 12.42084,-4.77838 m -269.93448,69.41052 c 8.90924,3.64908 18.03058,5.1969 27.75055,4.20834 27.71646,-2.81903 48.39215,-29.08984 44.35166,-56.78213 -4.03129,-27.62921 -31.25412,-47.6557 -58.24512,-42.84815 -23.43378,4.17401 -39.93643,20.35648 -43.18308,42.34525 -3.25821,22.06671 7.54297,41.95389 29.32599,53.07669 m 169.93729,-88.82282 c -29.18311,18.63022 -33.34003,55.69632 -8.89508,79.31501 16.88501,16.31433 41.94043,18.79525 62.55328,6.19387 18.60681,-11.37509 27.29596,-34.92953 20.89581,-56.6445 -9.16784,-31.10559 -43.71563,-44.75113 -74.55401,-28.86438 z"
       id="path5"
       style="fill:#2f2a25;fill-opacity:1" />
    <path
       style="fill:#2f2a25;fill-opacity:0.378531;stroke-width:1.25644"
       d="m 412.7411,501.92954 c -24.21303,-4.40571 -42.64137,-23.63185 -44.79911,-46.73854 -3.3446,-35.81663 32.6254,-64.73641 67.79987,-54.51091 24.45723,7.10991 41.81651,34.05944 37.39451,58.05335 -5.21566,28.30038 -33.00942,48.17913 -60.39527,43.1961 z"
       id="path1"
       transform="matrix(0.95238095,0,0,0.95238095,24.380952,-80.952381)" />
    <path
       style="fill:#2f2a25;fill-opacity:0.378531;stroke-width:1.25644"
       d="m 592.98841,501.45232 c -26.93384,-6.54342 -45.74067,-33.70327 -40.81929,-58.94909 3.05333,-15.66307 14.94565,-31.55365 28.36564,-37.90233 21.76019,-10.29421 45.89111,-5.88368 61.99468,11.33109 9.99583,10.68556 13.33314,19.65259 13.33314,35.82484 0,11.32821 -0.26352,12.53537 -4.69246,21.4959 -7.51685,15.20792 -21.18709,25.38306 -38.51761,28.66972 -8.31056,1.57607 -11.56153,1.49834 -19.6641,-0.47013 z"
       id="path2"
       transform="matrix(0.95238095,0,0,0.95238095,24.380952,-80.952381)" />
  </g>
</svg>
