<svg xmlns="http://www.w3.org/2000/svg" viewBox="0 0 1024 1024">
<path fill="#FDFCFB" opacity="1.000000" stroke="none" d=" M365.048767,785.223694   C365.304810,787.176758 365.268036,789.223633 365.859680,791.069092   C380.999390,838.289734 403.234192,882.147827 428.754669,924.503296   C447.938995,956.342957 465.753052,988.911072 477.903687,1024.640869   C475.958344,1025.000000 473.916656,1025.000000 471.426147,1024.738770   C470.811371,1023.993286 470.645477,1023.509216 470.336670,1022.654663   C469.440247,1020.085449 468.751556,1017.861816 467.923492,1015.691406   C455.180573,982.289612 437.377167,951.487488 419.269531,920.831177   C395.535065,880.648560 374.598236,839.151672 360.378052,794.521606   C359.645233,792.221619 358.255798,790.130798 357.172058,787.942627   C356.478699,784.372437 355.852966,780.787598 355.081451,777.234375   C347.074036,740.357117 338.290497,703.628418 331.227783,666.571533   C323.980042,628.543762 318.434784,590.192078 312.006897,552.005310   C311.746735,550.459717 310.036804,549.178467 309.076843,547.724854   C308.090393,546.231140 307.195404,544.677124 306.195801,542.357422   C304.098694,528.718872 302.066132,515.872437 300.020386,502.597870   C299.653595,499.041718 299.101044,495.921173 298.982422,492.784210   C298.570801,481.899445 303.719879,473.641174 313.306488,470.055817   C316.043518,469.032166 319.068329,468.777954 322.003693,468.577271   C322.979584,479.932312 323.912964,490.881073 324.458710,501.813049   C322.653351,501.493500 321.197266,501.309692 319.824799,500.866669   C314.814209,499.249207 312.563507,501.062408 313.453186,506.418610   C314.045929,509.987061 315.148163,513.470886 316.018921,517.410156   C317.249237,524.766541 318.758240,531.673218 319.576202,538.660767   C319.887115,541.316589 318.609192,544.158508 318.044800,547.341187   C318.093750,548.762512 318.063538,549.773071 318.225922,550.751770   C323.453400,582.251770 328.223083,613.837280 334.063812,645.223450   C341.303375,684.126587 349.263855,722.899292 357.315826,761.644592   C358.988342,769.692444 362.425110,777.373535 365.048767,785.223694  z"/>
<path fill="#FCFBFB" opacity="1.000000" stroke="none" d=" M544.444153,1025.000000   C552.311035,1001.278015 564.302673,979.412231 578.068298,958.513489   C596.099487,931.138916 614.962463,904.299805 632.518250,876.627991   C649.409485,850.003845 663.095032,821.661926 673.100952,791.658875   C673.622314,790.095581 673.863647,788.438843 674.483459,786.213928   C675.537598,783.803833 676.518188,782.062256 677.123535,780.198669   C687.464478,748.361206 694.032715,715.620300 699.919983,682.754028   C705.274292,652.863037 710.007019,622.860168 714.945496,592.895386   C716.968384,580.621216 718.953369,568.336487 720.622437,556.011475   C720.974854,553.409119 719.871277,550.609619 719.635376,547.727783   C720.279358,547.148315 721.114929,546.740112 721.112976,546.335999   C721.095947,542.860657 720.524536,539.343018 720.890320,535.920471   C721.605225,529.229065 722.818359,522.590820 723.977051,515.568848   C724.798584,511.681183 725.862976,508.174561 726.036011,504.624512   C726.242065,500.396240 724.223267,499.183624 720.091064,500.204803   C718.039795,500.711761 715.942505,501.032776 713.875000,500.950500   C714.609009,489.770752 715.334106,479.078430 716.469055,468.282166   C730.226990,468.436249 738.456909,475.444946 740.232971,488.531006   C740.739502,492.262909 740.226685,496.133179 740.069092,500.343079   C737.647217,514.302734 735.337524,527.859253 733.027832,541.415833   C731.861206,543.613586 730.651245,545.789734 729.544800,548.017334   C728.923096,549.269226 728.200134,550.562622 727.984619,551.911072   C722.924927,583.563965 718.288940,615.289062 712.832214,646.872681   C705.419495,689.777710 698.274658,732.763855 685.797729,774.608154   C684.471680,779.055359 683.232910,783.528687 681.696045,788.631592   C680.656616,791.103394 679.768921,792.896179 679.108704,794.769165   C667.039001,829.011169 650.622192,861.128967 630.884094,891.501099   C614.657593,916.469727 597.445312,940.796570 581.136230,965.713013   C569.367065,983.693420 559.283447,1002.640137 552.037720,1023.321289   C552.004150,1024.103882 552.002075,1024.551880 552.000000,1025.000000   C549.629456,1025.000000 547.258850,1025.000000 544.444153,1025.000000  z"/>
</svg>
