<svg xmlns="http://www.w3.org/2000/svg" viewBox="0 0 1024 1024">
  <g transform="translate(6, 0)">
  <path fill="#2E3136" opacity="1.000000" stroke="none" d=" M694.021362,547.105469   C693.783142,542.344238 693.693054,537.569580 694.152771,532.848450   C696.974060,503.878998 699.929626,474.922607 702.802307,445.958069   C702.998840,443.976746 702.885193,441.964630 702.984009,439.077637   C703.078308,436.863586 702.969971,435.520111 703.150391,434.216614   C705.820801,414.925629 708.497070,395.635223 711.290833,376.361908   C711.513306,374.826813 712.611511,373.418671 713.701355,372.007416   C718.432312,371.700562 722.764709,371.337830 727.601624,370.932831   C728.054382,341.803955 725.038757,312.455872 716.346069,283.445984   C710.101501,269.487701 704.170105,255.824265 698.164001,242.193710   C691.830872,227.821121 681.662292,216.045792 671.170593,204.801224   C647.204102,179.114883 617.936096,161.629562 584.494812,150.858582   C554.460876,141.185089 523.859314,138.033920 492.467041,140.816055   C469.083740,142.888412 446.798645,148.830353 425.111237,157.620148   C402.539246,166.768478 382.887360,180.306610 365.062317,196.649216   C361.795807,199.644073 359.687866,203.930923 356.346252,206.810349   C345.386475,216.254242 339.105408,228.915756 331.720215,241.249664   C330.717804,242.546585 329.666351,243.477325 329.181427,244.643616   C323.629364,257.996765 318.163483,271.385773 312.537109,285.029755   C311.114258,289.705322 309.659393,294.075012 308.571808,298.534302   C302.680817,322.688049 301.145782,347.228271 302.070801,371.412079   C306.531769,371.608185 310.746796,371.793457 315.214508,372.259521   C316.627136,378.655090 317.965363,384.742615 318.904846,390.891083   C320.282715,399.908325 321.279144,408.983429 322.621063,418.006714   C323.618347,424.712463 324.905853,431.375061 326.064087,438.056885   C326.506683,447.985504 326.509155,457.957275 327.477692,467.834320   C329.984802,493.401276 332.921967,518.926086 335.654999,544.471130   C335.720520,545.083313 335.404968,545.736267 335.066345,546.698364   C331.449646,547.677063 328.046265,548.405273 324.614685,548.958252   C320.427521,549.632996 316.690155,548.683594 313.302734,544.973022   C312.176270,542.255737 311.160187,540.095215 310.775177,537.827454   C306.772766,514.253479 301.988953,490.766815 299.182251,467.047577   C296.159821,441.505402 295.030396,415.739838 293.011688,390.076691   C292.914673,388.843231 292.540710,387.320038 291.723083,386.509125   C288.323914,383.138062 284.705109,379.988495 281.166901,376.757629   C279.691895,341.981140 281.700684,307.667419 292.745209,274.231873   C314.497131,208.381302 357.848053,163.263214 422.226105,138.099747   C456.009552,124.894783 491.124176,118.733788 527.298096,121.085426   C593.766602,125.406494 651.624573,149.099686 695.847351,200.495682   C722.948792,231.993118 738.335510,269.186859 745.095032,310.090271   C748.703796,331.927521 748.979675,353.820862 747.016113,376.423706   C743.777893,380.242950 740.670654,383.390350 737.721680,386.679626   C736.922729,387.570740 736.199097,388.863892 736.122314,390.017792   C734.999390,406.896057 734.237305,423.801697 732.881897,440.660034   C731.740112,454.861023 730.560669,469.109497 728.286072,483.156921   C724.947327,503.775757 720.617554,524.234131 716.710022,544.760864   C709.877502,551.187256 702.205383,549.670715 694.021362,547.105469  z"/>
  <path fill="#3E8937" opacity="1.000000" stroke="none" d=" M716.874512,545.137451   C720.617554,524.234131 724.947327,503.775757 728.286072,483.156921   C730.560669,469.109497 731.740112,454.861023 732.881897,440.660034   C734.237305,423.801697 734.999390,406.896057 736.122314,390.017792   C736.199097,388.863892 736.922729,387.570740 737.721680,386.679626   C740.670654,383.390350 743.777893,380.242950 747.120972,376.804321   C753.780029,378.869141 760.143616,381.171875 766.765564,384.105804   C768.666504,397.348206 771.211487,409.920410 771.758728,422.578979   C772.806946,446.825531 771.051880,471.020752 766.890747,494.961151   C764.028870,511.426300 761.251282,527.970093 753.057922,542.921692   C743.179382,546.860962 732.844849,548.136658 722.315430,547.834106   C720.535889,547.782959 718.796814,546.322998 716.874512,545.137451  z"/>
  <path fill="#BFDA6F" opacity="1.000000" stroke="none" d=" M753.434448,542.934143   C761.251282,527.970093 764.028870,511.426300 766.890747,494.961151   C771.051880,471.020752 772.806946,446.825531 771.758728,422.578979   C771.211487,409.920410 768.666504,397.348206 767.021606,384.335999   C773.335754,388.455444 779.652161,392.975952 786.054810,398.237183   C786.491272,403.114899 786.889954,407.248444 787.183777,411.389465   C788.980774,436.712982 788.365112,461.988800 784.273743,487.042236   C781.870605,501.757355 778.297729,516.281433 775.250977,530.891479   C768.104309,534.909851 760.957642,538.928223 753.434448,542.934143  z"/>
  <path fill="#408A39" opacity="1.000000" stroke="none" d=" M775.526489,530.741089   C778.297729,516.281433 781.870605,501.757355 784.273743,487.042236   C788.365112,461.988800 788.980774,436.712982 787.183777,411.389465   C786.889954,407.248444 786.491272,403.114899 786.193787,398.563629   C796.407654,407.558319 801.087463,419.792480 802.726135,433.006622   C805.451599,454.984558 803.954041,476.862488 797.829102,498.200806   C794.076050,511.276001 787.013123,522.426025 775.526489,530.741089  z"/>
  <path fill="#3E8937" opacity="1.000000" stroke="none" d=" M280.748657,376.792084   C284.705109,379.988495 288.323914,383.138062 291.723083,386.509125   C292.540710,387.320038 292.914673,388.843231 293.011688,390.076691   C295.030396,415.739838 296.159821,441.505402 299.182251,467.047577   C301.988953,490.766815 306.772766,514.253479 310.775177,537.827454   C311.160187,540.095215 312.176270,542.255737 312.989716,544.845459   C308.620728,550.256470 302.662872,548.178345 297.555695,547.716614   C290.526001,547.081116 283.642426,544.829895 276.286621,542.754944   C273.875122,537.707031 271.477448,533.305237 269.936798,528.621521   C261.320984,502.428375 258.444702,475.232391 257.214478,447.917877   C256.251953,426.546906 256.564819,405.100189 261.968262,384.122711   C268.088959,381.690674 274.209686,379.258606 280.748657,376.792084  z"/>
  <path fill="#BFDA6F" opacity="1.000000" stroke="none" d=" M261.641602,384.216705   C256.564819,405.100189 256.251953,426.546906 257.214478,447.917877   C258.444702,475.232391 261.320984,502.428375 269.936798,528.621521   C271.477448,533.305237 273.875122,537.707031 275.956482,542.579102   C268.734924,539.016235 261.433960,535.113281 253.967926,530.536621   C245.102142,502.631287 241.587234,474.558350 241.214767,446.132660   C241.010880,430.571808 242.329269,414.991028 242.961197,399.419220   C245.844757,396.281616 248.453613,392.815460 251.694672,390.105408   C254.532486,387.732574 258.080597,386.209290 261.641602,384.216705  z"/>
  <path fill="#408A39" opacity="1.000000" stroke="none" d=" M242.596039,399.475952   C242.329269,414.991028 241.010880,430.571808 241.214767,446.132660   C241.587234,474.558350 245.102142,502.631287 253.803558,530.209229   C246.554535,525.560608 240.650650,519.254639 236.892105,511.320709   C223.180679,482.377411 221.425766,452.248199 229.115158,421.484314   C231.222305,413.054047 235.719894,405.572510 242.596039,399.475952  z"/>
  </g>
</svg>
