<?xml version="1.0" encoding="UTF-8"?>
<svg xmlns="http://www.w3.org/2000/svg" viewBox="0 0 1553 672">
  <path
    id="bandana-01-base"
    fill="#4C6A43"
    stroke="none"
    d="M1218.006348,230.973709 C1211.973511,238.480881 1205.936401,245.984558 1199.908447,253.495712 C1166.056519,295.676727 1126.694336,332.293671 1085.232178,366.754333 C1015.554077,424.666473 941.474670,476.452362 864.822327,524.638672 C808.421326,560.094238 751.098877,593.957825 691.844971,624.461975 C682.235962,629.408752 672.232422,633.583679 662.546814,638.388611 C653.521851,642.865845 644.622314,642.828979 635.664368,638.517639 C612.137146,627.194214 588.180542,616.666626 565.193848,604.333069 C463.224182,549.621094 365.553131,488.033600 272.616516,419.037354 C213.438919,375.103821 155.956177,329.133179 104.557297,276.053009 C81.891937,252.646271 61.060448,227.766968 45.585884,198.865417 C31.420675,172.409317 23.089977,144.448227 25.065002,114.087540 C25.460264,108.011429 26.731789,101.992317 27.662487,95.506409 C35.063545,98.941551 41.665272,102.055641 48.307549,105.080681 C98.433510,127.909126 150.531525,145.159241 203.525894,159.856628 C272.623016,179.019913 342.794952,192.812103 413.872101,202.188858 C515.195068,215.555756 616.921631,220.516403 719.036133,216.759781 C778.492432,214.572495 837.709412,209.382233 896.678467,201.258911 C978.339050,190.009674 1058.567139,172.556915 1136.949463,146.911407 C1172.574829,135.255280 1207.536865,121.910774 1241.052002,104.997475 C1243.874146,103.573257 1246.608887,101.975624 1249.709961,100.756927 C1250.128174,101.875656 1250.091064,102.736267 1250.331909,103.510437 C1254.972534,118.429062 1256.050781,133.588699 1254.097900,149.095718 C1251.699219,168.141693 1245.047607,185.635956 1235.487915,202.101761 C1229.840088,211.829834 1223.845215,221.356476 1218.006348,230.973709 z"
  />
  <path
    id="bandana-01-accent"
    fill="#3B5334"
    stroke="none"
    d="M1313.806152,105.230789 C1330.231323,116.972626 1340.064697,132.661652 1343.888184,151.929993 C1348.033325,172.819366 1343.435669,192.215363 1331.494019,209.625656 C1323.774292,220.880798 1313.115112,229.050888 1300.861206,235.125015 C1299.048584,236.023560 1297.581909,237.619843 1295.885498,239.293457 C1294.259277,239.429657 1292.515991,238.570663 1291.174194,238.991623 C1272.891968,244.727142 1255.012939,244.078445 1237.220337,236.733139 C1231.299561,234.288864 1224.861694,233.096985 1218.333252,231.153122 C1223.845215,221.356476 1229.840088,211.829834 1235.487915,202.101761 C1245.047607,185.635956 1251.699219,168.141693 1254.097900,149.095718 C1256.050781,133.588699 1254.972534,118.429062 1250.331909,103.510437 C1250.091064,102.736267 1250.128174,101.875656 1250.031982,100.667076 C1265.375366,89.294891 1281.653076,89.825806 1298.223389,96.766434 C1303.541870,98.994194 1308.445190,102.213394 1313.806152,105.230789 z"
  />
</svg>

