<?xml version="1.0" encoding="UTF-8" standalone="no"?>
<svg
   viewBox="0 0 1024 1024"
   version="1.1"
   id="svg1"
   xmlns="http://www.w3.org/2000/svg"
   xmlns:svg="http://www.w3.org/2000/svg">
  <defs
     id="defs1" />
  <path
     id="glasses-02"
     fill="#000000"
     stroke="none"
     d="M285.868469,614.633301 C282.836060,606.002014 286.185120,598.094421 287.263397,590.124939 C289.134186,576.297485 291.339081,562.501160 293.953766,548.796753 C294.756744,544.588196 293.190094,542.170776 290.651550,539.622253 C279.128296,528.053894 267.599396,516.491028 256.116455,504.882690 C254.130936,502.875458 252.179840,500.788605 250.515961,498.516541 C242.700943,487.845001 247.316559,473.925262 260.145416,470.925659 C271.456818,468.280884 283.024200,466.734283 294.473297,464.673676 C302.321655,463.261139 310.155426,461.767151 318.007263,460.374542 C321.042389,459.836273 322.983124,458.208435 324.416046,455.454010 C332.561127,439.797180 340.917175,424.249786 349.020477,408.571655 C352.577667,401.689240 357.606415,397.088257 365.595062,396.773651 C373.902588,396.446503 379.356354,401.002228 383.039062,407.967621 C391.445770,423.867920 399.837219,439.777466 408.047363,455.779480 C409.512848,458.635742 411.462524,460.067474 414.466003,460.574829 C432.325806,463.592010 450.172546,466.686829 468.037323,469.673950 C476.929321,471.160706 483.336304,475.296509 484.659546,484.898773 C485.269684,489.326355 488.240387,488.959869 491.305206,488.519379 C500.049835,487.262421 508.824890,486.593170 517.668579,486.664337 C525.342834,486.726135 532.931091,487.654388 540.537598,488.480499 C542.632874,488.708008 544.742432,489.522644 546.641296,488.900482 C546.987854,488.517883 547.171326,488.409637 547.201355,488.268707 C550.249878,473.968658 552.817383,471.466583 567.681396,468.921753 C584.063477,466.117035 600.455750,463.366241 616.871704,460.769867 C620.322388,460.224121 622.509583,458.834564 624.129944,455.635529 C631.725586,440.639221 639.532043,425.749573 647.297729,410.839783 C648.296387,408.922424 649.409790,407.051483 650.617859,405.258698 C658.313538,393.838196 673.932373,393.681671 680.939941,405.453400 C687.832520,417.031769 693.808838,429.155334 700.194580,441.035736 C702.086060,444.554718 704.574707,447.874939 705.785278,451.611694 C708.117981,458.811676 713.360352,460.674744 720.089355,461.676483 C736.519897,464.122437 752.897888,466.955750 769.243896,469.925507 C784.722656,472.737732 790.381165,487.516724 780.269958,499.648804 C769.600647,512.450500 757.337280,523.828552 745.300781,535.323914 C738.976501,541.364014 736.936890,547.116699 738.879028,555.868469 C742.399902,571.733887 744.583679,587.903442 747.094055,603.982239 C748.187561,610.986328 746.419983,617.476196 740.634705,621.901550 C734.878113,626.305054 728.224243,626.637146 721.736816,623.443054 C704.850891,615.129028 687.992004,606.754211 671.272217,598.113464 C667.498047,596.162964 664.715149,595.935059 660.771790,598.010071 C645.157288,606.226685 629.250793,613.886841 613.500427,621.847839 C605.930359,625.674072 598.472168,626.313965 591.384277,621.082031 C584.431458,615.949768 583.761230,608.455811 585.025940,600.762085 C587.559204,585.351196 590.199524,569.949951 593.254272,554.636169 C594.776550,547.004822 593.233154,541.372498 586.989929,536.218628 C573.274963,524.896912 557.209534,519.696777 540.212769,516.303589 C513.910095,511.052612 488.604828,514.818665 463.983215,524.575134 C456.376953,527.589172 449.604004,532.041382 443.223755,537.283142 C438.031128,541.549316 437.487488,546.618958 438.461639,552.463074 C441.246490,569.169617 444.074493,585.869080 446.845062,602.577942 C448.075745,610.000061 446.488739,616.640015 440.332977,621.374084 C434.344513,625.979553 427.661102,626.083008 421.020416,622.787170 C404.913147,614.793030 388.749359,606.897461 372.866394,598.475586 C367.799194,595.788696 363.965027,596.159607 359.048279,598.731445 C342.527405,607.372803 325.789948,615.608459 309.016846,623.755310 C302.392548,626.972717 296.039948,625.624390 290.359375,621.028076 C288.368134,619.416870 287.016113,617.337463 285.868469,614.633301 M329.050385,482.836823 C315.127289,485.211151 301.086182,486.918915 287.320770,490.183136 C281.725067,491.510071 280.935883,493.853973 284.913574,497.963257 C295.101135,508.487793 305.266815,519.040222 315.718170,529.299316 C319.575531,533.085693 320.895111,537.057739 319.984589,542.286255 C317.676270,555.541321 315.437592,568.814270 313.564667,582.135376 C313.080811,585.576843 311.309479,589.137085 312.896790,592.752808 C315.468384,593.209839 317.250824,591.780823 319.137573,590.839294 C332.835236,584.003906 346.543518,577.187683 360.166046,570.204773 C364.272491,568.099731 367.941467,568.298157 372.005096,570.365417 C385.205872,577.081116 398.508240,583.598022 411.800690,590.131897 C413.933258,591.180176 415.998383,592.852112 418.492401,592.028503 C419.606079,590.541748 419.118408,589.209167 418.932526,587.918518 C417.038849,574.767700 415.351349,561.581787 413.144684,548.483459 C411.706390,539.946106 411.622528,532.804871 419.357605,526.269775 C428.720856,518.359131 436.682495,508.788879 445.243378,499.929749 C447.102661,498.005707 448.726532,496.279175 447.701691,492.992035 C446.667511,489.674988 444.068817,489.813690 441.825134,489.400452 C428.590820,486.963196 415.345520,484.565155 402.055054,482.462708 C396.553680,481.592438 393.265533,478.734650 390.763092,473.883392 C383.897400,460.573456 376.723663,447.420898 369.554321,434.270081 C367.376465,430.275238 365.690247,430.284790 363.127167,434.082123 C361.734100,436.145996 360.555634,438.361633 359.368744,440.556610 C353.274078,451.827789 346.991943,463.005707 341.232422,474.446320 C338.728271,479.420471 335.417633,482.341309 329.050385,482.836823 M642.204773,579.672791 C646.460632,577.388733 650.763550,575.187561 654.961731,572.802124 C662.055176,568.771423 668.731567,567.795227 676.465698,572.234802 C688.152893,578.943420 700.448975,584.595032 712.523865,590.620361 C714.209290,591.461426 716.011047,593.291687 718.000000,591.758240 C719.658752,590.479309 719.012512,588.333435 718.753479,586.568542 C716.726562,572.757080 715.229370,558.828064 712.328918,545.199219 C710.544495,536.814514 713.895325,531.537720 719.195801,526.260254 C728.282837,517.212769 737.287231,508.080811 746.231140,498.891632 C750.894653,494.100220 750.023804,491.065643 743.491333,489.807953 C731.412476,487.482422 719.323120,485.136780 707.154541,483.377747 C698.733032,482.160339 691.752991,479.664185 688.724182,470.794678 C688.035522,468.777985 686.660583,466.999664 685.636841,465.092682 C680.360107,455.263153 675.203369,445.367096 669.775085,435.622162 C667.431641,431.415283 664.483337,431.519379 661.859131,435.524780 C661.222656,436.496307 660.718140,437.555023 660.164307,438.579773 C653.433228,451.033142 646.662659,463.465485 639.999939,475.955292 C637.945557,479.806458 634.921631,481.693604 630.610962,482.410126 C617.984070,484.509125 605.394897,486.846222 592.822388,489.254150 C589.641663,489.863373 585.940063,490.168488 584.827942,494.192383 C583.691467,498.304474 587.194763,500.152771 589.364685,502.410522 C598.138550,511.539551 607.018494,520.570679 616.028076,529.466980 C619.858459,533.249268 621.017883,537.549866 620.024719,542.658875 C619.580505,544.943542 619.154419,547.233521 618.796753,549.533020 C616.982971,561.195435 615.101868,572.848816 613.474487,584.537415 C613.146362,586.894470 611.996399,590.023682 614.079834,591.685303 C616.364197,593.507202 618.703491,590.862061 620.815674,589.913574 C627.797668,586.778076 634.628113,583.305115 642.204773,579.672791 z" />
  <path
     style="fill:#c6afe9;fill-opacity:0.42;stroke-width:1.25644"
     d="m 313.48221,589.15391 c 0,-1.79208 1.71731,-13.80681 3.81625,-26.69938 2.09894,-12.89257 3.47975,-24.80049 3.06847,-26.46205 -0.41128,-1.66156 -8.77203,-11.46024 -18.57944,-21.77485 -9.80741,-10.3146 -18.00843,-19.52504 -18.22449,-20.46764 -0.50607,-2.20784 4.18373,-3.42553 29.29099,-7.60533 11.05668,-1.8407 21.58205,-4.10173 23.3897,-5.02452 2.11146,-1.07788 5.21615,-5.40382 8.6829,-12.09836 9.89148,-19.10112 17.76969,-33.01198 20.0153,-35.34182 2.13772,-2.2179 2.71474,-1.39061 15.21711,21.817 10.68745,19.83865 13.67445,24.42753 16.82052,25.84104 2.10396,0.94529 13.71615,3.40961 25.80486,5.47626 22.70874,3.88223 26.39704,5.4172 23.95129,9.96789 -0.59865,1.11387 -8.44183,9.51212 -17.42932,18.66279 -13.55905,13.80521 -16.47532,17.44143 -17.13052,21.35951 -0.64305,3.84545 2.67255,31.1904 6.1712,50.89616 0.4428,2.49402 0.0942,3.45522 -1.25301,3.45522 -1.02656,0 -12.03175,-5.08859 -24.45598,-11.30798 -14.58194,-7.2995 -24.03976,-11.30797 -26.68069,-11.30797 -2.68472,0 -12.15203,4.10341 -27.53896,11.93619 -12.89628,6.56491 -23.78267,11.9362 -24.19198,11.9362 -0.40931,0 -0.7442,-1.46625 -0.7442,-3.25836 z"
     id="path1" />
  <path
     style="fill:#c6afe9;fill-opacity:0.42;stroke-width:1.25644"
     d="m 613.77178,588.69784 c 0,-1.35189 1.70809,-13.42658 3.79574,-26.83263 2.22015,-14.25683 3.39363,-25.43396 2.827,-26.92663 -0.53281,-1.4036 -8.03624,-9.86625 -16.67427,-18.80589 -19.22234,-19.89349 -19.06238,-19.69868 -18.14294,-22.0947 1.05547,-2.75051 2.32348,-3.11238 27.47202,-7.84007 15.76891,-2.9644 23.19478,-4.91093 24.76649,-6.49197 1.23462,-1.24195 7.11963,-11.30448 13.07781,-22.36116 12.59298,-23.36902 14.05612,-25.37523 16.6295,-22.80185 0.97734,0.97734 6.95182,11.31347 13.27662,22.96917 9.84624,18.14521 12.13191,21.49675 15.89718,23.31049 2.41865,1.16507 12.87853,3.58646 23.24417,5.38086 24.35165,4.21554 28.26994,5.2973 28.26994,7.80476 0,1.10793 -7.87412,10.01023 -17.49803,19.78287 -10.14646,10.30326 -17.85297,19.18261 -18.34283,21.13439 -1.05211,4.19188 -0.50325,10.2023 3.21086,35.16144 1.61768,10.871 2.53883,20.16785 2.04699,20.65969 -0.49182,0.49183 -11.48056,-4.31768 -24.41941,-10.68779 -14.21788,-6.9998 -25.02544,-11.56953 -27.31725,-11.55048 -2.2323,0.0186 -12.99031,4.68276 -26.15469,11.33951 -12.29945,6.21939 -23.17314,11.30798 -24.16377,11.30798 -0.99062,0 -1.80113,-1.1061 -1.80113,-2.45799 z"
     id="path2" />
</svg>
