<?xml version="1.0" encoding="UTF-8"?>
<svg xmlns="http://www.w3.org/2000/svg" viewBox="0 0 1024 1024">
  <path
    id="mouth-01"
    fill="#542C1A"
    stroke="none"
    d="M568.058105,631.053101 C569.299316,630.164795 570.229614,629.459595 571.200867,628.816406 C577.247437,624.812927 582.653259,625.237671 586.294983,629.985718 C589.875244,634.653687 589.046448,641.282349 583.127197,645.152039 C574.132080,651.032715 565.089417,657.561584 555.103027,661.077454 C516.846191,674.546204 479.863647,671.765747 445.264771,649.247498 C442.902649,647.710205 440.645050,645.951599 438.573212,644.041687 C434.392609,640.187805 433.846130,634.962830 436.938660,630.570312 C439.868439,626.408997 445.407104,625.256897 450.337830,627.909424 C451.788910,628.689941 453.095856,629.763123 454.398712,630.791016 C484.145569,654.259827 537.663269,654.489502 568.058105,631.053101 z"
  />
</svg>
