<svg xmlns="http://www.w3.org/2000/svg" viewBox="0 0 1024 1024">
<g transform="translate(-25.6, 75) scale(1.08) rotate(-3, 512, 500)">
<path fill="#4c2f1f" opacity="1" stroke="none" d="m 672.24811,549.48352 c -1.4646,3.81415 -2.84381,7.28986 -4.39362,11.44214 -0.7384,1.48901 -1.38623,2.25732 -1.86242,3.12036 -8.00507,14.51013 -17.74109,27.66907 -29.65326,39.26819 -3.93903,3.83551 -7.02851,8.54352 -10.68854,12.58295 -1.29688,-0.30823 -2.71979,-0.81299 -3.47803,-0.31202 -6.36114,4.20301 -12.3833,8.95301 -18.91217,12.86261 -37.45538,22.42932 -77.81342,30.55054 -120.83185,22.646 -12.73886,-2.34064 -25.01117,-7.22009 -37.83447,-11.0625 -13.60184,-7.97577 -26.85837,-15.83905 -40.14584,-23.64972 -1.10001,-0.64654 -2.40912,-0.93726 -3.86576,-1.6037 -7.41379,-7.94409 -15.13418,-15.24701 -21.60562,-23.52606 -7.27347,-9.30524 -13.41955,-19.49176 -20.05612,-29.29486 -1.79855,-3.83753 -3.59711,-7.67505 -5.65747,-11.73761 -3.9949,-12.72742 -8.95371,-25.01575 -11.18271,-37.78082 -3.62274,-20.7464 -5.49289,-41.80066 -8.02063,-62.73493 -0.51785,-4.28885 -0.6741,-8.6214 -1.07605,-13.78485 -0.71142,-8.18961 -1.34381,-15.52817 -1.87491,-23.33224 -1.01425,-22.52051 -2.12979,-44.57544 -3.16681,-67.08506 -0.30221,-5.76123 -0.68289,-11.06784 -0.68353,-16.37991 5.44968,2.07059 10.51926,4.14667 15.16986,6.15726 -0.77112,1.35531 -1.5253,2.80807 -1.41525,4.19207 1.73715,21.84681 5.12106,43.42536 10.51532,64.68998 4.45547,17.5639 10.77298,34.02975 23.96661,47.23626 9.95597,9.9657 21.08918,17.96198 34.29108,23.85859 9.64169,-19.7797 26.11956,-30.61465 46.17187,-36.37061 13.88605,-3.98595 19.98681,-7.74948 33.0183,-10.37752 16.79805,-1.87697 29.35993,-1.66319 47.22941,-0.0885 8.63653,2.39221 18.05298,5.07828 26.23389,7.72761 14.35779,4.64962 28.93842,9.27334 39.79846,20.54114 5.21033,5.40606 9.4759,11.72277 14.27906,17.76507 24.27227,-10.51791 43.08294,-27.34686 52.05835,-53.2197 4.37207,-12.60302 7.57672,-25.75357 9.83886,-38.9092 2.69056,-15.64722 3.80091,-31.5662 5.6615,-47.72919 4.65406,-2.11753 9.24262,-3.87326 13.89453,-5.16245 0.0292,5.51996 -0.005,10.5734 -0.0999,16.05515 -0.55676,8.72244 -1.11542,17.0133 -1.53485,25.31125 -0.71277,14.10327 -1.33789,28.21099 -2.12872,42.74911 -0.43427,7.77774 -0.73963,15.1232 -1.04505,22.46869 -1.96802,19.61606 -3.84497,39.24182 -5.93018,58.84543 -2.00909,18.88846 -7.56622,36.83768 -14.98333,54.62155 M 468.04565,475.84534 c -1.0043,0.27938 -2.00863,0.55877 -3.78332,1.06637 -3.80441,1.11615 -7.65933,2.08698 -11.3999,3.38687 -4.25696,1.47934 -6.26593,4.54795 -6.00553,9.18821 0.50257,8.95431 3.72382,16.85553 9.61139,23.46176 12.98294,14.56769 23.88098,14.6463 36.91468,0.78174 1.25653,-1.33674 3.26238,-2.58735 5.01446,-2.73102 6.93692,-0.56882 13.9111,-0.68607 20.87186,-0.96143 6.06543,-0.23993 10.71222,1.93311 14.53601,6.95008 6.14844,8.06689 13.12878,9.79443 22.40942,5.77935 12.81323,-5.54333 21.11847,-19.405 22.42914,-33.59216 0.22577,-2.44391 -2.09772,-6.4704 -4.31165,-7.52618 -5.44354,-2.59601 -11.50933,-3.8873 -17.64337,-6.19333 -0.55072,-0.12064 -1.10138,-0.24128 -2.36603,-0.64032 -7.44854,-2.18744 -14.81774,-4.71912 -22.36926,-6.45966 -6.74792,-1.5553 -13.99933,-4.0325 -20.49588,-2.93878 -14.4284,2.42908 -28.52307,6.84073 -43.41202,10.4285 z" id="path3"/>
<path fill="#b95532" opacity="1" stroke="none" d="m 468.37476,475.85315 c 23.09301,11.87933 46.81726,14.14416 71.47161,7.12454 1.43067,-0.40738 15.53165,-8.55368 17.38401,-8.59461 4.4719,7.96416 1.64738,11.05529 -2.57596,14.07908 -9.4476,6.76421 -21.22907,7.97238 -32.51471,8.18783 -11.89127,0.22699 -23.88287,-0.51086 -35.68842,-1.97458 -5.54327,-0.68722 -10.93673,-3.70797 -16.0567,-6.3363 -4.26404,-2.18903 -6.66244,-5.93454 -5.11731,-11.39654 0.75974,-0.53846 1.76407,-0.81785 3.09748,-1.08942 z" id="path30"/>
</g>
</svg>
