<svg xmlns="http://www.w3.org/2000/svg" viewBox="0 0 1024 1024">
  <g transform="translate(-6, 15)">
  <path fill="#0E1012" opacity="1.000000" stroke="none" d=" M603.632080,698.788635   C560.247131,741.321777 492.819336,738.690796 452.694519,706.441162   C450.502930,704.679688 448.591766,702.569397 446.272278,700.472290   C441.584534,691.271790 440.417603,681.591248 441.257904,671.755310   C441.565216,668.158203 442.973480,664.220459 445.133148,661.397095   C446.234131,659.957764 450.110321,660.641174 453.177368,660.797546   C461.557953,679.844543 475.278870,688.919312 494.967560,687.778748   C499.227386,687.531982 503.930725,685.931213 507.439850,683.515930   C516.102478,677.553406 515.769409,667.547852 507.571625,661.080078   C505.753357,659.645386 504.146881,657.359192 503.502411,655.155212   C502.515320,651.779602 504.313934,649.774536 508.016022,649.807129   C519.472595,649.908142 530.929932,649.940125 542.385559,650.101746   C546.008301,650.152893 547.841125,652.162598 546.320557,655.629761   C545.160217,658.275696 543.358582,660.753845 541.410461,662.917969   C536.858276,667.975037 536.067139,672.993347 539.483215,678.843933   C542.873901,684.651123 548.257812,687.210266 554.725586,687.984375   C570.800049,689.908264 589.857117,680.498657 596.390991,663.869263   C596.984070,662.360046 598.000671,661.017151 598.820496,659.596985   C605.657104,660.238953 608.687256,663.229614 609.004639,669.936279   C609.431519,678.959229 608.889771,687.862549 605.026733,696.633057   C604.979004,697.002136 605.011169,697.001282 604.726685,697.102722   C604.172241,697.732300 603.902161,698.260498 603.632080,698.788635  z"/>
  </g>
</svg>
