<svg xmlns="http://www.w3.org/2000/svg" viewBox="0 0 1024 1024">
  <g transform="translate(15, 12)">
  <path fill="#503223" opacity="1.000000" stroke="none" d=" M571.257935,584.738770   C556.788208,581.851135 542.658508,579.496582 528.853760,575.896057   C522.808899,574.319458 517.427979,570.197449 512.088257,567.410156   C484.184204,583.694275 453.746918,588.355408 421.550842,582.298279   C413.108734,580.710022 405.506256,576.698181 399.477692,570.294312   C395.205750,565.756409 392.642548,560.422974 393.065155,554.054443   C393.152924,552.731812 393.913757,550.855591 394.915314,550.369446   C395.817383,549.931519 397.848328,550.668335 398.740112,551.541809   C406.051910,558.703308 414.493866,559.199341 423.201996,555.229309   C429.677734,552.277039 435.851746,548.566772 441.881195,544.752991   C452.481049,538.048279 463.044556,531.313660 475.817688,529.650818   C489.259277,527.900940 501.737946,529.860901 511.683655,540.126587   C528.162415,526.685486 546.021545,525.665955 564.525330,534.565979   C572.890259,538.589417 580.503052,544.150452 588.620605,548.723572   C593.675110,551.571045 598.877319,554.299927 604.297180,556.320557   C611.755676,559.101257 618.669739,557.648071 624.659973,552.081360   C625.808655,551.013916 627.720947,550.768372 629.281006,550.143616   C629.852600,551.798340 630.912048,553.453186 630.911743,555.107788   C630.910217,562.419067 627.513306,568.207336 622.060791,572.835327   C611.582764,581.728882 598.834045,583.962952 585.719543,584.835999   C581.078430,585.145020 576.394348,584.807861 571.257935,584.738770  z"/>  </g>
</svg>
