<svg xmlns="http://www.w3.org/2000/svg" viewBox="0 0 1024 1024">
  <path fill="#6F432E" opacity="1.000000" stroke="none" d=" M452.912018,592.357422   C446.454865,592.783081 440.003296,593.389160 433.539185,593.588440   C425.555115,593.834717 422.821594,590.538818 422.345551,582.501465   C421.868896,574.453979 425.335052,569.776978 432.540680,566.791504   C455.294220,557.363953 479.102905,553.341553 503.550232,552.500122   C509.960480,552.279419 515.000549,555.438049 519.492126,560.430176   C526.304077,551.963501 535.369141,552.000854 544.939636,552.861511   C564.417114,554.613098 583.473694,558.155884 601.900085,564.803650   C603.618042,565.423401 605.312012,566.139160 606.949890,566.946777   C616.011780,571.415100 618.825378,578.425964 615.497131,587.977661   C614.146423,591.854248 611.204224,593.334473 607.401489,593.360107   C603.577332,593.385803 599.751709,593.188354 595.183411,592.883545   C593.585449,592.706909 592.730835,592.735352 591.876160,592.763855   C590.212158,592.527771 588.548157,592.291687 586.061584,591.956177   C574.815125,590.942383 564.391296,590.028137 553.598145,588.942932   C541.424255,587.242615 529.195007,587.076111 519.520020,578.182922   C512.555176,585.367004 503.151947,586.369263 493.581665,588.065430   C479.730713,589.479248 466.321350,590.918396 452.912018,592.357422  z"/>
</svg>
