<svg xmlns="http://www.w3.org/2000/svg" viewBox="0 0 1024 1024">
  <g transform="translate(15, 0)">
    <path fill="#5F3A2A" opacity="1.000000" stroke="none" d=" M478.943726,598.736816   C471.711334,600.633911 464.546661,602.860657 457.232971,604.361816   C440.139099,607.870422 423.167877,608.080872 406.750488,600.977600   C398.452118,597.387085 391.562469,592.004089 386.625732,584.369812   C382.298370,577.677734 381.124481,570.466675 384.202057,562.946716   C387.999603,553.667542 399.749847,549.698792 408.082550,554.728882   C411.704102,556.915100 412.712677,558.767395 412.306213,563.228455   C410.065552,562.416138 407.972351,561.058105 405.866882,561.038879   C402.935760,561.011902 398.997223,561.043152 397.338013,562.797485   C395.656799,564.575073 395.279816,568.732239 395.993103,571.403564   C397.797913,578.163208 406.664185,582.700256 414.352112,580.475464   C419.325531,579.036255 424.314026,576.509521 428.372803,573.302185   C435.405762,567.744629 441.634277,561.181274 448.359619,555.219543   C459.586395,545.267639 472.418335,540.367065 487.495972,544.018188   C497.866852,546.529480 506.230621,552.310364 511.658417,560.213806   C518.145569,555.557983 523.809326,550.146973 530.526611,546.948792   C545.089050,540.015564 559.468933,541.469116 572.259766,551.688660   C578.877380,556.975952 584.824097,563.095886 591.179993,568.719849   C597.044800,573.909302 602.891174,579.254089 611.061951,580.547668   C617.597046,581.582397 623.382446,579.997803 627.610962,574.677002   C630.431824,571.127380 631.268555,567.019470 628.274170,563.170776   C625.464233,559.559265 621.680420,560.081665 617.799805,561.459167   C616.274109,562.000793 614.532288,561.933350 612.888855,562.143250   C613.541870,560.262939 613.666443,557.853821 614.933228,556.587708   C623.400574,548.125061 638.751465,553.012085 641.868652,565.114685   C644.194214,574.143799 641.170227,581.900085 635.345398,588.670166   C625.896423,599.652588 613.292542,604.347229 599.342896,606.055298   C581.565613,608.232178 564.582947,604.381104 547.161133,598.746643   C542.140625,596.617371 537.780579,594.754211 533.158630,592.636597   C524.521057,588.507019 517.149780,583.434998 512.670898,574.195923   C508.055756,584.178711 499.679291,588.413879 491.171692,592.965454   C486.872314,594.939392 482.908020,596.838074 478.943726,598.736816  z"/>
  </g>
</svg>
