<svg xmlns="http://www.w3.org/2000/svg" viewBox="0 0 1024 1024">
  <g transform="translate(5, 18)">
  <path fill="#7D4B37" opacity="1.000000" stroke="none" d=" M528.934875,531.268799   C547.732361,530.024719 566.363953,530.701416 583.704041,538.962891   C589.894226,541.912170 595.552917,546.266846 600.819641,550.729004   C603.082825,552.646423 604.422974,556.350464 604.964294,559.455261   C606.030640,565.570740 601.813843,570.838135 595.882141,569.539062   C581.667236,566.425842 568.147766,571.591797 554.308594,571.580200   C543.719604,571.571289 533.132446,570.028687 522.542908,569.188416   C520.904663,569.058411 519.180908,568.681091 517.626770,569.017944   C499.262726,572.999023 480.974457,572.288879 462.572876,569.017822   C457.658081,568.144165 452.369141,568.934814 447.305786,569.470337   C442.905701,569.935730 438.524780,569.829163 436.054779,566.021484   C433.393036,561.918335 434.049866,556.785583 437.358795,553.473328   C442.216431,548.610840 447.495789,543.683105 453.518280,540.566467   C468.596710,532.763245 485.051086,530.313477 502.859131,530.868713   C506.680908,531.265076 509.856812,530.978638 512.466187,532.059692   C518.229187,534.447266 523.539246,533.379761 528.934875,531.268799  z"/>  </g>
</svg>
