<svg xmlns="http://www.w3.org/2000/svg" viewBox="0 0 1024 1024">
  <g transform="translate(0, 25)">
    <path fill="#CC7F5A" opacity="1.000000" stroke="none" d=" M514.928711,453.947723   C512.883362,468.646881 510.868225,482.911224 508.903320,497.182495   C508.239319,502.005219 510.389404,504.706940 514.940002,506.661774   C523.869019,510.497528 532.332458,510.057617 540.774658,505.602753   C543.266541,504.287811 545.854614,503.086517 547.485229,506.595123   C548.948364,509.743164 547.076050,511.326385 544.430664,512.832336   C535.075867,518.157898 525.402893,519.227112 515.161682,515.872620   C502.798889,511.823212 499.108917,505.799866 501.267456,492.940643   C504.890839,471.355072 508.426666,449.754181 512.239868,428.202301   C512.515259,426.646149 514.744446,425.435699 516.065247,424.064514   C517.023438,425.691223 518.955811,427.434204 518.777893,428.925354   C517.795837,437.156036 516.298950,445.325317 514.928711,453.947723  z"/>
  </g>
</svg>
