<svg xmlns="http://www.w3.org/2000/svg" viewBox="0 0 1024 1024">
  <path fill="#CD7C56" opacity="1.000000" stroke="none" d=" M547.059692,523.996765   C540.294006,529.021667 532.751953,531.395264 524.290710,532.125549   C515.109192,532.917847 507.431671,530.538147 501.501923,523.723694   C499.267792,521.156189 497.083221,517.382507 497.143982,514.202026   C497.317474,505.123322 498.659149,496.067261 499.534363,487.001617   C500.027222,481.896393 500.534332,476.792328 500.981628,471.683075   C501.263611,468.462158 501.219147,465.196899 501.718658,462.013916   C503.020721,453.716797 504.387268,445.421600 506.112061,437.206238   C506.438599,435.650940 508.534119,434.467010 509.813416,433.111725   C510.525452,434.728638 511.909454,436.381226 511.825928,437.955963   C511.554199,443.077545 510.615448,448.159363 510.172180,453.277161   C509.353668,462.727844 508.936981,472.218903 507.892975,481.642212   C507.315948,486.850342 505.674438,491.931885 504.757507,497.113770   C504.006805,501.356262 503.426941,505.648712 503.110260,509.944000   C502.512085,518.057922 507.981812,523.993164 517.017944,524.906799   C524.052368,525.618042 530.810791,524.670776 537.439819,521.713196   C540.052795,520.547424 543.578796,521.427917 546.872253,522.021973   C547.056885,523.110535 547.058289,523.553650 547.059692,523.996765  z"/>
</svg>
