<?xml version="1.0" encoding="UTF-8"?>
<svg xmlns="http://www.w3.org/2000/svg" viewBox="0 0 1024 1024">
  <g id="mouth-03" transform="translate(0, 68)">
    <path
      id="mouth-03-dark"
      fill="#634837"
      opacity="1.000000"
      stroke="none"
      d=" M604.277100,671.292847   C617.402283,669.361572 626.284302,661.668823 633.900818,652.065613   C635.242126,650.374390 636.381287,648.523193 637.623535,646.752747   C641.411926,641.353760 645.190308,639.920471 650.241577,641.958313   C655.193726,643.956116 658.225220,648.964661 656.796875,654.544067   C654.350769,664.098755 652.500000,674.084045 648.255981,682.851013   C631.906494,716.624084 613.177490,749.116943 591.229126,779.590149   C580.184875,794.923950 565.881409,806.881775 547.914246,813.560120   C532.210693,819.397034 516.154236,821.200317 499.265472,818.539062   C471.447174,814.155701 451.265289,798.624878 434.998993,776.991882   C418.896027,755.576233 406.902649,731.643799 394.068298,708.243225   C385.701813,692.988831 377.472565,677.651672 373.818298,660.441284   C372.933624,656.274658 372.717102,651.803345 373.143433,647.567749   C373.556885,643.459961 376.619080,640.815796 380.750122,640.048523   C385.139130,639.233398 388.520844,641.149414 391.040924,644.676575   C393.841370,648.596252 396.311340,652.788269 399.409668,656.451965   C408.873657,667.642700 421.441528,673.356995 435.737122,672.664429   C445.603851,672.186462 455.505981,669.220703 465.056732,666.277710   C476.263702,662.824341 487.103729,658.182068 498.110291,654.075256   C501.132599,652.947510 502.389526,651.005493 502.178802,647.624023   C501.872620,642.711426 502.100281,637.765625 502.100281,632.371826   C496.011688,628.425903 488.961487,624.400391 482.522980,619.561035   C471.958618,611.620544 464.005768,601.601807 459.860382,588.753662   C456.220490,577.472168 460.420319,565.195984 470.482635,558.789368   C479.685699,552.929871 489.849152,550.286865 500.623627,550.006836   C509.782013,549.768738 518.951050,549.867920 528.114685,549.925964   C537.331665,549.984375 546.189758,551.869629 554.565308,555.744263   C568.287964,562.092529 573.893799,573.648071 569.218506,588.815125   C563.905273,606.051514 551.849854,617.811829 536.504700,625.967224   C529.028870,629.940308 526.047485,634.414612 526.784912,642.860535   C527.685852,653.180481 527.164795,653.075623 536.742188,657.157898   C554.269775,664.629089 572.358459,670.175903 591.227356,672.793335   C595.310181,673.359619 599.664673,671.967529 604.277100,671.292847  M454.004456,768.454895   C472.099121,793.086609 500.485291,800.926392 526.249146,797.618225   C551.340515,794.396362 568.933105,779.843811 580.286926,757.487610   C584.082947,750.013123 583.813721,749.322327 576.971985,743.969360   C562.598755,732.723694 545.766296,728.577942 528.119629,728.120117   C515.276794,727.786926 502.355103,728.954163 489.525909,730.096680   C478.309723,731.095581 467.130707,734.061890 458.694366,741.559814   C444.379883,754.282227 443.697235,750.876831 453.290955,767.470154   C453.374176,767.614075 453.471588,767.749817 454.004456,768.454895  z"
    />
    <path
      id="mouth-03-accent"
      fill="#D97D76"
      opacity="1.000000"
      stroke="none"
      d=" M453.783417,768.172119   C453.471588,767.749817 453.374176,767.614075 453.290955,767.470154   C443.697235,750.876831 444.379883,754.282227 458.694366,741.559814   C467.130707,734.061890 478.309723,731.095581 489.525909,730.096680   C502.355103,728.954163 515.276794,727.786926 528.119629,728.120117   C545.766296,728.577942 562.598755,732.723694 576.971985,743.969360   C583.813721,749.322327 584.082947,750.013123 580.286926,757.487610   C568.933105,779.843811 551.340515,794.396362 526.249146,797.618225   C500.485291,800.926392 472.099121,793.086609 453.783417,768.172119  z"
    />
  </g>
</svg>

