<?xml version="1.0" encoding="UTF-8"?>
<svg xmlns="http://www.w3.org/2000/svg" viewBox="0 0 1024 1024">
  <path
    id="mouth-01"
    fill="#534336"
    opacity="1.000000"
    stroke="none"
    d=" M464.964539,719.065491   C475.564697,716.268738 485.731689,713.516602 495.894348,710.748718   C498.924957,709.923340 500.168182,709.005798 499.362366,704.910156   C498.194214,698.972717 498.892761,692.635315 499.087402,686.477722   C499.171143,683.828369 498.556183,682.525452 495.935059,681.288574   C480.798584,674.145752 469.141663,663.251953 461.915070,647.999512   C454.972717,633.347046 459.123260,621.088867 474.110107,614.721802   C481.622559,611.530090 489.888062,609.284241 497.995758,608.499939   C512.843567,607.063721 527.797241,607.611633 542.480896,610.932556   C544.571960,611.405457 546.635803,612.155457 548.592346,613.041992   C564.281250,620.150757 568.644409,635.347412 559.331299,649.878540   C550.453125,663.731201 539.008850,674.650146 524.028259,681.762451   C522.777466,682.356262 521.487000,684.340332 521.431396,685.727295   C521.164368,692.381531 521.145447,699.060303 521.444458,705.712036   C521.514893,707.279602 522.804688,709.619324 524.132019,710.175354   C537.318542,715.699097 551.236938,718.411316 565.369019,720.034668   C571.839661,720.777954 577.735107,718.840210 583.188171,715.303345   C588.572144,711.811096 595.507019,712.834473 598.113770,717.328552   C601.177917,722.611267 598.859802,729.322876 593.227356,732.674133   C579.643311,740.756592 565.388489,741.163269 550.223877,738.163757   C537.783569,735.703064 525.918091,731.873291 513.964294,727.870056   C510.106842,726.578247 504.843781,729.185791 500.297363,730.307861   C489.027222,733.089417 477.845673,736.245422 466.531219,738.824036   C462.249908,739.799805 457.695770,739.543274 453.275604,739.952271   C443.269867,740.877930 434.855713,736.434570 426.642975,731.764771   C423.048645,729.720947 419.898468,726.441345 421.120697,721.670898   C422.131683,717.724915 424.396790,714.126160 428.901276,713.656982   C431.526672,713.383484 434.854980,713.543274 436.882324,714.938660   C445.537872,720.896057 454.654022,722.097351 464.964539,719.065491  z"
  />
</svg>