<?xml version="1.0" encoding="UTF-8"?>
<svg xmlns="http://www.w3.org/2000/svg" viewBox="0 0 1024 1024">
  <g id="mouth-02" transform="translate(0, 68)">
    <path
      id="mouth-02-path"
      fill="#594435"
      opacity="1.000000"
      stroke="none"
      d=" M633.014465,637.798218   C623.651367,659.661743 607.789062,673.385010 584.699768,677.906006   C566.953979,681.380798 549.984314,677.928101 533.813110,670.265381   C527.374817,667.214661 521.105774,663.807007 514.300415,660.327026   C501.704865,668.961365 487.386444,674.876770 471.735748,678.254211   C443.691132,684.306335 412.088593,671.631653 399.013367,644.655273   C397.943115,642.447205 396.846527,640.235718 396.003143,637.937378   C394.277710,633.235291 396.311615,628.095337 400.605072,625.901917   C405.124237,623.593140 410.762177,624.730347 413.540619,628.874207   C415.287811,631.480103 416.523529,634.433777 417.939667,637.256104   C426.771912,654.858521 446.067261,661.788208 463.624878,659.731506   C475.814026,658.303711 487.145386,654.257324 497.181213,646.869202   C500.536133,644.399414 502.472137,641.781494 502.078766,637.356201   C501.682129,632.894409 501.777832,628.354065 502.072693,623.875427   C502.362122,619.479187 500.735962,617.019836 496.725647,614.907288   C483.211487,607.788391 472.173584,598.062378 465.083679,584.090637   C455.861328,565.916687 464.405731,552.163147 479.720215,545.207886   C494.187653,538.637268 509.651794,539.533508 525.126465,540.549255   C534.708313,541.178223 543.741821,543.288086 552.337463,547.261292   C565.553711,553.370361 567.423035,563.479431 563.687439,577.501038   C559.357788,593.752686 548.151794,604.650085 533.872437,612.580444   C527.422852,616.162292 523.622375,620.772522 524.954651,628.540161   C525.204468,629.996399 525.235657,631.581604 524.947571,633.023315   C523.513672,640.198853 527.156067,644.318237 532.904663,647.782532   C544.466675,654.749939 557.016968,659.280640 570.297852,659.759705   C589.591003,660.455811 606.730652,649.886536 614.645630,631.127441   C617.865234,623.496887 624.912231,621.360107 630.572998,626.176880   C634.197021,629.260559 634.819519,633.083130 633.014465,637.798218  z"
    />
  </g>
</svg>