<svg xmlns="http://www.w3.org/2000/svg" viewBox="0 0 1028 1024">
  <g transform="translate(-7,-1) translate(514,512) scale(0.99) translate(-514,-512)">
  <path transform="translate(507,91)" d="m0 0h45l27 3 24 5 24 7 26 11 18 10 18 12 16 13 8 8 8 7 7 8 11 13 13 18 13 21 14 26 12 27 11 30 10 32 7 27 9 42 7 43 4 32 4 43 1 17v66l-3 27-4 23-6 21-6 15-7 14-2 1h-196v-11l2-28 16-12 13-10 15-14 9-9 8-10 9-13 9-16 8-18 7-20 7-2 11-2 11-4 11-7 12-11 9-13 7-14 3-11 1-7v-15l-4-16-5-10-9-10-10-6-7-2h-10l-9 1-4-10-8-18-10-15-9-10-10-10-14-11-14-10-26-16-25-17-14-10-14-11-16-15-10-11-13-17-10-15-7-13-1-1-11 20-10 14-11 13-12 13-8 7-9 8-19 14-22 14-24 15-18 12-14 11-12 11-7 7-11 16-8 16-6 16-2 4-9-2h-10l-9 3-8 5-8 8-6 12-3 10-1 7v16l4 16 8 16 8 10 6 7 14 10 11 5 12 3 8 1 14 35 10 19 11 16 13 15 9 9 11 9 15 12 10 7 2 7 2 25v8h-202l-8-16-7-20-5-18-5-30-2-25v-52l2-34 5-48 6-41 8-43 11-44 9-29 10-28 11-25 10-21 14-24 8-12 12-16 12-14 20-20 11-9 15-11 17-10 16-8 19-8 19-6 22-5 27-4z" fill="#3C2923"/>
<path transform="translate(717,551)" d="m0 0h9l-1 35-3 32-4 26-6 24-7 20-8 16-5 9h-72v-11l2-28 16-12 13-10 15-14 9-9 8-10 9-13 9-16 8-18 7-20z" fill="#2E1E19"/>
<path transform="translate(336,551)" d="m0 0h6l14 35 10 19 11 16 13 15 9 9 11 9 15 12 10 7 2 7 2 25v8h-59l-5-10-10-19-8-18-8-22-6-24-4-24-2-17-1-17z" fill="#2E1E19"/>
<path transform="translate(515,91)" d="m0 0h30v1l-16 1 1 4 2 32 1 32v18l-1 23-1 10-4 1-1-1-2-41v-50l2-28-11-1z" fill="#2E1E19"/>
  </g>
</svg>
