<?xml version="1.0" encoding="UTF-8" standalone="no"?>
<svg
   version="1.1"
   id="Layer_1"
   x="0px"
   y="0px"
   width="100%"
   viewBox="0 0 1028 1024"
   enable-background="new 0 0 1028 1024"
   xml:space="preserve"
   xmlns="http://www.w3.org/2000/svg"
   xmlns:svg="http://www.w3.org/2000/svg"><defs
   id="defs11" />
<g
   transform="translate(-7,-1) translate(514,512) scale(0.99) translate(-514,-512)"
   id="g11">
<path
   fill="#271815"
   opacity="1"
   stroke="none"
   d="m 87.468651,1025 c -3.128449,-6.6774 -6.405914,-13.1817 -8.334534,-20.064 -6.299057,-22.47805 -1.55471,-43.40915 9.719841,-63.33548 3.399132,-6.00756 6.198479,-12.35986 9.168266,-18.60388 5.360806,-11.27105 2.909876,-21.64178 -3.289466,-31.86841 -5.861649,-9.66949 -13.011406,-19.10614 -16.301949,-29.67077 -6.577591,-21.11774 -1.393433,-41.12506 12.817848,-57.85895 8.329811,-9.80841 18.649243,-17.91504 27.937613,-26.92737 3.92532,-3.80865 7.9377,-7.65802 11.15025,-12.04559 8.4944,-11.60132 8.19697,-22.79022 -0.54299,-36.23615 -4.77107,-7.33996 -10.21441,-14.27856 -14.55339,-21.85693 -11.56906,-20.20618 -10.32301,-40.93384 -1.67271,-61.84155 5.13398,-12.40882 13.41856,-22.70313 21.40845,-33.24762 8.64418,-11.40802 14.75908,-23.71942 10.95028,-38.61536 -2.03305,-7.95111 -4.49608,-15.80487 -7.06172,-23.60498 -8.73605,-26.55945 -3.44493,-50.47867 13.56484,-72.10324 7.68664,-9.77206 16.14849,-18.94626 23.61965,-28.87268 7.66053,-10.17792 11.12638,-22.17853 10.80491,-34.81131 -0.31957,-12.55798 -2.1204,-25.07105 -2.74048,-37.63004 -1.40238,-28.40298 4.12506,-54.74871 22.82423,-77.40493 12.23886,-14.82883 27.41718,-26.01691 43.4402,-35.98996 23.33852,-14.52639 38.73076,-34.88805 48.81377,-60.13492 6.09454,-15.26015 12.18387,-30.63837 22.07709,-44.10776 14.13888,-19.24974 32.88436,-32.43457 54.39877,-42.03016 29.2467,-13.04424 59.99655,-18.133245 91.82458,-15.99763 15.14682,1.01634 29.92527,4.46561 43.97562,10.59712 1.4902,0.65031 3.96042,0.63948 5.29593,-0.17697 21.11951,-12.911295 43.99048,-19.491396 68.7171,-20.784944 36.09387,-1.888215 69.09735,7.214828 99.03491,27.033214 22.68299,15.01597 39.93164,35.12652 52.26795,59.43972 4.63379,9.13257 9.52429,18.13958 14.48102,27.10244 6.52221,11.79374 16.54357,20.05168 27.50781,27.55505 11.04809,7.56078 22.1568,15.20833 32.22388,23.98247 12.22552,10.65536 17.61853,25.15616 19.04272,41.17669 0.89435,10.05967 1.60406,20.14731 2.90424,30.15644 1.65918,12.77267 8.39782,22.94464 18.12677,30.95666 20.9367,17.24176 31.39013,40.13007 36.9906,65.96576 5.06543,23.36722 -0.38886,45.52643 -6.51123,67.77573 -2.39252,8.69467 -4.60572,17.61416 -5.31751,26.55728 -1.26758,15.92566 6.38806,28.91931 15.77948,41.04901 11.04474,14.26508 22.63068,28.17108 32.78357,43.05035 10.57184,15.49329 15.18109,33.26673 14.11877,52.10126 -0.83795,14.85645 -6.55383,28.36707 -12.54943,41.81922 -3.79328,8.51092 -6.81098,17.432 -9.42072,26.3894 -3.19464,10.96466 0.18738,20.68781 8.11737,28.51282 6.25134,6.16845 13.20563,11.62256 19.82007,17.42541 11.58044,10.15967 18.83838,22.55884 21.28192,38.02997 2.98969,18.92951 -4.38312,34.80811 -13.0061,50.63202 -4.76587,8.74585 -10.43921,17.11627 -11.37836,27.59723 -0.76874,8.57843 1.66144,16.26581 4.80011,23.94849 4.8429,11.85449 11.12756,23.37481 14.09076,35.68902 6.09235,25.3183 1.57758,49.83893 -9.91071,73.09911 -1.23651,2.5036 -2.56506,4.9617 -3.80468,7.8103 -11.30811,0.3694 -22.6623,0.3694 -34.49604,-0.052 -1.52746,-8.7966 -2.32428,-17.2126 -3.6759,-25.53862 -2.77368,-17.08612 -5.57263,-34.17663 -8.85553,-51.16974 -5.20886,-26.96215 -12.71362,-53.15344 -26.62884,-77.18219 -10.95691,-18.92016 -26.84949,-32.04931 -47.0459,-41.73626 -3.66291,6.89746 -7.63666,13.50775 -10.78455,20.49041 -6.49805,14.41388 -9.10217,29.59589 -4.19244,44.8725 2.84839,8.86267 7.5083,17.22351 11.98639,25.46601 10.79437,19.86834 15.44946,40.67883 10.69879,63.08679 C 830.6969,998.25879 823.70044,1012.0267 815,1025 c -27.02087,0 -120.04181,0 -134.91138,-0.2063 -0.19415,-1.3467 0.37897,-2.5438 1.12689,-3.6193 18.06324,-25.97756 17.5467,-51.94131 -0.12377,-76.16061 -6.82331,-9.35205 -14.95673,-17.73773 -22.26984,-26.74517 -15.51056,-19.10419 -19.20526,-40.59278 -10.88117,-63.54712 4.23938,-11.69056 10.64685,-22.57776 15.67768,-34.00275 5.92596,-13.45783 4.94671,-26.50482 -4.57276,-38.0246 -5.80902,-7.02972 -12.36389,-13.46704 -18.82684,-19.9273 -12.19586,-12.19068 -18.35486,-26.83625 -18.18213,-44.02729 0.12366,-12.30444 0.43292,-24.6167 1.13324,-36.89844 0.16162,-2.83441 1.50934,-6.48223 3.59442,-8.17651 10.15271,-8.25018 21.23236,-15.40369 31.05243,-24.00842 12.61402,-11.05292 24.33911,-23.1073 33.52686,-37.35358 11.14154,-17.27576 20.05133,-35.5722 25.27789,-55.50824 0.94049,-3.58722 2.88135,-4.32306 6.15289,-4.94403 7.38825,-1.40259 15.3042,-2.19116 21.84339,-5.51538 24.97558,-12.69665 40.33764,-33.09723 44.92291,-60.97702 2.88013,-17.51181 0.0493,-33.83273 -11.09161,-48.32678 -8.75647,-11.392 -25.41053,-20.35825 -42.63605,-13.05252 -1.25464,0.5321 -4.33478,-0.39246 -4.87427,-1.47946 -3.76666,-7.58997 -7.88794,-15.15445 -10.36804,-23.19809 -4.00696,-12.99518 -6.31281,-26.54032 -13.48596,-38.40848 -12.05951,-19.95252 -30.99854,-30.59555 -52.08185,-38.2316 -13.70776,-4.96478 -27.83045,-8.93295 -41.18323,-14.69983 -33.73297,-14.56891 -59.25336,-38.2095 -75.55572,-71.41974 -2.0622,-4.20088 -4.27155,-8.3295 -6.85767,-13.35658 -1.91132,2.99193 -3.43988,5.07381 -4.65039,7.32657 -16.20099,30.14982 -39.87512,52.09889 -71.62271,65.0862 -14.86679,6.08178 -30.07712,11.36206 -44.75623,17.85458 -18.57617,8.21622 -32.52374,21.40048 -39.5054,40.99533 -3.19632,8.97082 -5.93536,18.11069 -9.32181,27.00635 -6.50464,17.08648 -17.402,30.74341 -33.16156,40.19235 -1.91635,1.14896 -4.79022,0.94263 -7.22036,0.94305 -5.26276,9.8e-4 -10.73636,-1.29031 -15.7515,-0.25323 -20.46289,4.2316 -32.51514,23.61667 -34.75482,43.3771 -2.48737,21.9455 3.80694,41.43329 17.9986,58.40726 13.35336,15.97132 29.30291,27.12085 50.86975,28.41864 1.36227,0.0819 3.33187,1.52057 3.82449,2.79114 3.90301,10.06708 7.06064,20.44202 11.31088,30.35199 9.59693,22.37646 23.56632,41.90259 41.58533,58.18274 11.54208,10.42828 24.28491,19.51971 36.2995,29.44049 1.97974,1.63464 3.98337,4.33636 4.27026,6.74786 1.89972,15.96869 3.78195,31.97492 1.19886,48.08063 -1.9184,11.96106 -5.93204,22.75818 -14.96702,31.44202 -7.66085,7.3631 -15.28881,14.87591 -22.00924,23.07794 -13.8667,16.92395 -17.4043,35.56311 -6.3486,55.41864 5.43258,9.75677 11.72323,19.03143 17.39334,28.66101 13.13528,22.30774 14.10644,44.9743 0.39627,67.26245 -6.20468,10.08679 -13.89405,19.25678 -20.85202,28.88452 C 377.47971,982.4624 372.85104,1002.9315 386,1025 c -17.35422,0 -147.04179,0 -190.50372,-0.3669 -3.31075,-6.0758 -6.60689,-11.6141 -8.97039,-17.5254 -7.16951,-17.93119 -10.46867,-36.45737 -7.41812,-55.80191 3.49106,-22.13776 14.89774,-40.20032 28.98232,-56.95697 8.71473,-10.36792 17.57298,-20.69648 21.26649,-34.20478 2.482,-9.07745 2.4034,-18.09625 -0.51707,-28.62091 -6.88594,4.75879 -13.30203,8.48627 -18.90038,13.18762 -20.94539,17.58954 -32.10982,41.49543 -39.6087,66.79541 -6.52588,22.01709 -10.77948,44.75885 -15.10608,67.35865 C 152.31099,994.08264 151.01793,1009.6107 149,1025 H 87.468651"
   id="path1" />

<path
   fill="#593D2C"
   opacity="1.000000"
   stroke="none"
   d=" M723.454102,1025.000000   C724.960388,1021.420227 726.613770,1017.626709 728.932678,1014.296509   C740.917664,997.084351 742.612000,978.116455 737.846863,958.456116   C735.118591,947.199402 727.802063,938.032410 721.169861,928.703491   C715.543457,920.789246 709.753052,912.981506 704.399231,904.885864   C695.566650,891.529907 695.491760,877.327515 700.101624,862.352112   C703.905151,849.996155 711.718201,839.985840 717.748474,828.932434   C719.500549,825.720825 721.160583,822.459045 722.909485,819.245605   C730.864136,804.630188 728.147034,790.929626 718.679321,778.307617   C713.578247,771.507080 707.612427,765.310852 701.672913,759.195374   C695.032532,752.357971 690.264893,744.454041 687.313904,735.520630   C683.934692,725.290833 679.926453,715.127991 681.015381,703.974670   C682.291748,690.901184 686.281921,678.686523 692.918823,667.392151   C694.028625,665.503418 696.283081,664.287354 698.008606,662.760498   C698.497314,663.103577 698.985962,663.446716 699.474670,663.789795   C698.162170,667.558044 696.888000,671.340210 695.530945,675.092346   C686.512756,700.027039 687.041321,724.175781 702.786499,746.379883   C708.698608,754.717285 716.330139,761.824585 723.053162,769.600464   C731.497803,779.367676 737.054810,790.467163 735.809387,803.685852   C734.588257,816.646729 728.675659,827.776428 721.777466,838.799255   C714.479797,850.460571 706.119934,862.041199 705.958008,876.912903   C705.791992,892.156921 712.621826,904.285278 721.961548,915.594788   C731.925537,927.660217 741.192932,940.349365 745.308105,955.711792   C751.140381,977.484375 749.466003,998.514648 736.974426,1017.967407   C735.636292,1020.051331 734.374146,1022.184021 733.038330,1024.646973   C729.969421,1025.000000 726.938782,1025.000000 723.454102,1025.000000  z"
   id="path2" />
<path
   fill="#593D2C"
   opacity="1.000000"
   stroke="none"
   d=" M325.444153,1025.000000   C321.893188,1018.403503 318.047638,1012.046570 315.816162,1005.166199   C308.746033,983.366516 307.951965,961.419434 319.423981,940.868591   C324.441437,931.880371 332.136749,924.402832 338.474487,916.130798   C343.896210,909.054443 350.541077,902.447388 354.027161,894.486450   C357.568848,886.398560 357.172546,877.108704 353.294220,868.288513   C348.251404,856.820007 339.656006,847.995483 332.613373,837.990479   C319.192688,818.924805 319.233521,800.790466 334.817810,780.795410   C342.032501,771.538757 349.829254,762.714600 356.696533,753.213318   C367.639343,738.073303 369.401611,720.828491 365.352539,703.166626   C363.195679,693.758606 358.931427,684.843567 355.875916,675.620667   C355.436920,674.295593 356.449554,672.489502 356.790405,670.906006   C358.093384,671.613708 359.935638,671.985168 360.618042,673.079773   C370.095673,688.281921 377.105621,704.517578 375.697021,722.768555   C375.063049,730.983093 372.386871,739.338318 369.098022,746.965942   C365.796906,754.621948 360.898865,761.674194 356.090851,768.565613   C352.918701,773.112366 348.254089,776.605774 344.987213,781.100952   C338.033905,790.668701 331.235809,800.743774 331.328979,813.035095   C331.400635,822.491455 337.344849,830.001221 342.831055,837.439758   C349.290405,846.197815 356.880005,854.592651 361.174561,864.376221   C369.408478,883.134277 364.458496,900.331360 351.001740,915.522644   C342.871948,924.700378 334.615753,933.931396 327.817596,944.077393   C320.828674,954.507812 318.775360,966.872742 319.890228,979.406982   C320.562714,986.967896 321.579437,994.616516 323.603027,1001.903137   C325.354004,1008.208008 328.754974,1014.052795 331.399078,1020.112854   C331.990051,1021.467346 332.466064,1022.872009 332.997498,1024.626709   C330.629425,1025.000000 328.258881,1025.000000 325.444153,1025.000000  z"
   id="path3" />
<path
   fill="#5B3E2C"
   opacity="1.000000"
   stroke="none"
   d=" M194.008484,581.876343   C188.682312,591.817383 182.805618,600.836731 175.043442,608.717285   C156.323669,627.722473 147.467407,657.447998 159.376938,684.474609   C161.215759,688.647522 161.437622,693.532959 162.407257,698.088867   C161.736115,698.369751 161.064987,698.650696 160.393845,698.931580   C158.342636,696.125122 155.347870,693.600952 154.408508,690.461731   C150.905838,678.756531 145.864670,667.392883 146.910629,654.607239   C148.181122,639.077209 151.447403,624.728149 162.544113,612.674133   C170.617523,603.904297 177.891815,594.253052 184.474075,584.301392   C189.928131,576.055420 191.532181,566.316101 189.253128,556.475525   C186.668701,545.316467 183.429825,534.309631 180.807892,523.158447   C178.327042,512.607422 179.691742,502.429108 184.630920,492.693970   C188.996506,484.089386 193.574661,476.013184 201.440842,469.636963   C208.566650,463.860901 214.029358,456.053772 220.358261,449.266083   C224.043671,445.313507 228.697479,442.087433 231.693619,437.700043   C242.939728,421.231873 248.042740,403.126678 245.291458,382.983856   C243.744049,371.654938 242.666641,360.226532 242.107300,348.807190   C241.456131,335.512939 244.786377,322.657135 252.256744,311.906494   C256.350952,306.014465 263.521790,301.752441 270.090393,298.211945   C278.978119,293.421356 288.654480,290.108154 297.931061,286.021698   C317.990662,277.185120 330.178131,262.820587 332.111115,240.076981   C333.691467,221.482849 338.591400,203.475204 350.936554,188.886963   C358.146973,180.366425 366.433380,172.485321 375.286407,165.684189   C392.057770,152.799927 410.839050,143.503494 431.847198,139.688110   C439.079926,138.374542 446.563904,138.349304 453.945862,138.046982   C455.172333,137.996780 456.464447,139.549850 457.726227,140.362030   C456.299652,141.230423 454.970825,142.572067 453.430573,142.890274   C443.555359,144.930511 433.532990,146.335968 423.752441,148.737839   C411.061951,151.854355 399.286316,157.507095 388.696381,165.060440   C379.413544,171.681534 370.200989,178.676941 362.172150,186.719696   C348.022186,200.894196 341.637329,218.829849 339.960144,238.654724   C338.506470,255.837875 332.170441,271.337952 319.231262,282.695984   C312.718292,288.413086 303.554291,291.190155 295.442566,294.983337   C287.332520,298.775726 278.394012,301.175964 270.966187,305.965912   C257.021057,314.958649 249.159302,328.151337 250.083069,345.276123   C250.788589,358.355164 252.170303,371.400726 253.386169,384.448608   C254.948334,401.212952 252.692429,417.312439 244.567902,432.187897   C242.221756,436.483521 238.746750,440.256226 235.365585,443.872528   C229.202271,450.464539 222.558929,456.609100 216.425919,463.227661   C211.491959,468.552307 206.971878,474.264984 202.354034,479.876160   C199.926620,482.825745 197.900436,486.127716 195.316071,488.921844   C187.808533,497.038696 186.711792,506.945435 188.352936,516.976501   C190.350189,529.184021 193.466293,541.218994 196.357742,553.266357   C198.690445,562.985718 198.038605,572.345032 194.008484,581.876343  z"
   id="path4" />
<path
   fill="#5A3E2C"
   opacity="1.000000"
   stroke="none"
   d=" M141.235809,938.177124   C150.002228,925.343506 149.956558,912.067993 144.728729,898.388428   C141.819595,890.776123 138.608475,883.272949 135.902466,875.590576   C129.521652,857.475220 128.810349,839.668030 142.567505,824.498840   C149.306412,817.068176 157.796143,811.214905 165.560089,804.727417   C173.586441,798.020508 181.993958,791.738586 189.701828,784.688171   C205.107758,770.596497 208.712891,753.308594 202.056839,733.758606   C198.681808,723.845459 194.873611,714.078918 191.545441,704.150818   C185.309708,685.549072 191.247299,669.683777 203.753326,655.996338   C210.678665,648.416870 218.750366,641.872864 226.410828,634.979309   C245.286316,617.993408 254.669830,597.350098 250.066666,571.756714   C248.460205,562.824829 245.282227,554.182739 243.070541,545.346069   C242.664520,543.723755 243.456009,541.801636 243.694702,540.017944   C245.418182,540.953857 247.901260,541.443542 248.752014,542.892090   C263.134613,567.379517 265.166656,599.008179 249.006302,622.363586   C242.488281,631.783630 233.332932,639.386230 225.325897,647.766296   C218.674255,654.727844 211.364746,661.153687 205.396896,668.652649   C197.626068,678.417236 196.541138,690.059448 200.184128,701.756348   C203.442505,712.218262 208.092850,722.248108 211.319382,732.718140   C217.948624,754.229919 214.078598,773.948853 197.587799,789.533325   C185.560715,800.899353 172.026703,810.688904 159.006958,820.982056   C141.384094,834.914246 136.068985,850.759583 144.720169,874.005859   C149.228790,886.120850 153.903122,898.258545 157.074402,910.748596   C158.489807,916.323120 157.627487,923.241882 155.622284,928.759583   C151.452835,940.232605 145.288055,950.826782 134.569077,957.711060   C132.955688,958.747192 130.509857,958.487244 128.449097,958.826782   C128.772629,956.598877 128.384598,953.856750 129.553268,952.239685   C133.044479,947.409119 137.145691,943.019287 141.235809,938.177124  z"
   id="path5" />
<path
   fill="#5A3D2C"
   opacity="1.000000"
   stroke="none"
   d=" M753.037170,254.880402   C765.960266,260.772583 777.565125,268.479095 785.421143,279.614777   C790.753174,287.172852 793.884888,296.950012 795.649719,306.184082   C797.718262,317.007141 797.253662,328.316681 797.856567,339.416901   C798.418579,349.764038 803.893311,357.667755 811.024719,364.389160   C818.140015,371.095337 825.260925,378.109955 833.457703,383.279510   C845.372131,390.793610 853.576538,401.036255 859.512634,413.284241   C864.329529,423.223083 867.049500,433.908722 866.940552,445.059784   C866.850342,454.291901 866.500366,463.533508 865.843567,472.740784   C865.646729,475.499786 864.031311,478.157623 863.050110,480.905609   C859.304626,479.755219 858.119629,478.497986 858.723389,474.901978   C862.325317,453.448822 861.168091,432.295044 850.656799,412.870209   C846.983521,406.081909 840.867310,400.298279 834.936279,395.121826   C825.568481,386.945953 814.785583,380.328949 805.827332,371.769348   C800.295471,366.483734 796.612488,359.051056 792.851135,352.171326   C786.283081,340.157990 786.601868,326.792664 787.131226,313.703888   C787.873596,295.347046 779.804260,281.660156 765.044922,272.252228   C753.883667,265.137756 741.719360,259.488159 729.671265,253.898315   C710.038330,244.789398 698.036743,229.946899 692.654785,209.030685   C689.430847,196.501373 685.400391,184.161926 678.149109,173.104935   C668.884277,158.977615 656.032837,149.409607 640.988220,142.374863   C627.505981,136.070694 613.237488,133.256348 598.451721,133.091003   C593.826660,133.039291 589.197571,134.050934 584.557068,134.226471   C583.226562,134.276779 581.849854,133.104156 580.494324,132.492249   C581.311523,131.198929 581.873413,129.119324 582.992676,128.755783   C586.751831,127.534798 590.672058,126.502205 594.597839,126.152786   C615.620544,124.281677 635.166260,129.035004 653.574707,139.309052   C679.570618,153.817825 693.862427,176.589340 701.015808,204.733902   C702.525085,210.671783 704.195923,216.855850 707.294189,222.026520   C710.797668,227.873306 715.112671,234.044449 720.646301,237.687332   C730.708374,244.311356 741.931946,249.170990 753.037170,254.880402  z"
   id="path6" />
<path
   fill="#5A3E2C"
   opacity="1.000000"
   stroke="none"
   d=" M827.376953,522.297852   C830.757751,511.266663 832.755859,500.390045 828.948059,489.620728   C826.538574,482.806274 822.716248,476.486053 819.443237,469.986633   C818.778198,468.665833 817.362915,467.642883 816.970825,466.286774   C816.572083,464.907684 817.009827,463.286682 817.081299,461.771606   C818.596069,461.915009 820.588257,461.500824 821.533020,462.309906   C824.034729,464.452148 826.474976,466.871674 828.246704,469.626495   C837.598328,484.166931 841.934509,499.768433 837.528931,517.052063   C835.190491,526.226196 833.207153,535.501099 830.561646,544.584351   C826.830200,557.396240 830.880432,568.190857 839.710266,576.895630   C847.108704,584.189270 855.812927,590.187073 864.112610,596.531494   C878.390747,607.445984 891.989868,618.854431 896.354492,637.506409   C900.101379,653.518311 897.377502,668.825928 891.107239,683.738464   C885.695801,696.608337 879.715454,709.294006 875.231689,722.484314   C870.169922,737.375305 869.918457,752.744324 874.838501,767.956482   C878.018005,777.787109 885.263550,784.568726 892.716431,790.902954   C911.843689,807.159302 917.917725,827.353760 911.547363,851.287231   C909.814392,857.798035 906.686096,863.971375 903.815979,870.121094   C903.123901,871.603943 900.909729,872.376465 899.395508,873.475586   C898.612061,871.450684 896.971680,869.308289 897.229736,867.426147   C897.717468,863.867859 899.252380,860.444214 900.428955,856.990723   C905.200073,842.986023 908.296509,828.705505 900.885254,814.887085   C897.521484,808.615356 892.663452,802.592468 887.126526,798.146118   C872.653076,786.523132 864.622498,772.121582 862.819946,753.578979   C861.119263,736.083008 865.632568,720.017395 871.962708,704.212830   C876.654724,692.498291 882.668518,681.253601 886.606995,669.309509   C894.094971,646.600708 886.263672,624.336914 867.131531,609.999573   C857.164368,602.530334 847.241516,594.990845 837.527527,587.197876   C826.866760,578.645264 820.309875,567.296692 820.551270,553.690125   C820.709839,544.753479 823.987732,535.868530 825.915588,526.970520   C826.231445,525.512878 826.789856,524.107727 827.376953,522.297852  z"
   id="path7" />
<path
   fill="#5A3E2C"
   opacity="1.000000"
   stroke="none"
   d=" M239.795792,958.220581   C237.396423,943.184143 240.173523,929.385742 248.464020,917.398010   C255.501785,907.221619 263.623383,897.682129 272.088745,888.630920   C286.428131,873.299133 290.332550,853.958313 280.525391,835.395752   C273.806976,822.679565 265.595367,810.748901 257.988739,798.505920   C245.215912,777.948059 243.163818,756.470703 252.843674,734.216736   C257.173706,724.261902 263.857788,715.834290 270.900421,707.531128   C284.520203,691.473511 298.681213,675.256165 300.496246,653.000366   C301.195679,644.423706 299.583191,635.493713 297.918121,626.939941   C296.534973,619.834473 293.490662,613.057190 291.289551,606.100586   C290.968475,605.085754 291.244934,603.881836 291.244934,601.301025   C293.405914,603.445923 294.950653,604.544312 295.931946,606.017944   C311.897919,629.993408 314.658691,661.120544 297.624176,686.748169   C290.574341,697.354309 282.276764,707.149536 274.302338,717.118103   C262.996368,731.251282 254.801483,746.487366 255.986984,765.311157   C256.703827,776.693665 260.864716,786.888000 266.964539,796.381104   C273.967560,807.279907 282.073822,817.634399 287.757477,829.181885   C299.300201,852.632996 298.319885,871.511169 279.798462,892.706055   C272.806213,900.707581 265.644928,908.589172 259.097961,916.946350   C245.752029,933.982300 245.275406,952.969299 251.817703,972.675293   C253.803619,978.657104 256.509979,984.397522 258.580048,990.354980   C259.202301,992.145752 258.790253,994.296082 258.851990,996.281677   C256.955078,995.392029 254.301941,995.019714 253.282562,993.529663   C246.080963,983.002930 240.898849,971.607117 239.795792,958.220581  z"
   id="path8" />
<path
   fill="#5B3E2C"
   opacity="1.000000"
   stroke="none"
   d=" M780.653687,810.614136   C783.750854,805.855408 786.962219,801.566345 789.481567,796.903381   C800.723633,776.095581 797.911865,755.212097 782.023376,737.448181   C774.006531,728.484985 766.090698,719.404175 758.622803,709.985107   C751.634705,701.171082 748.457581,690.565674 747.067871,679.573730   C743.787231,653.624084 751.873840,630.703674 766.602966,609.754761   C768.054016,607.690918 770.393555,606.251770 772.320740,604.522705   C772.946045,604.931946 773.571289,605.341248 774.196594,605.750488   C773.625244,607.956787 773.452515,610.373230 772.418213,612.335571   C765.413208,625.626770 759.208252,639.180664 756.490967,654.115479   C753.699890,669.455505 755.698425,683.937500 761.907104,698.358887   C766.625916,709.319397 775.392761,716.556824 782.673157,725.218750   C787.477417,730.934692 792.815491,736.373901 796.641479,742.706238   C805.926880,758.074585 808.486450,774.398926 801.788208,791.726074   C797.648743,802.433777 790.948364,811.258423 784.227966,820.419861   C775.716431,832.023010 765.786011,843.256836 764.455933,858.900269   C763.581848,869.181030 766.504700,878.314392 771.173767,887.033447   C775.000549,894.179688 779.712830,900.850220 783.570618,907.981567   C791.779175,923.155579 795.719666,938.852173 788.077148,955.601807   C787.464050,956.945312 787.643066,958.783569 786.783203,959.852295   C785.169922,961.857788 782.536133,965.267944 781.268188,964.894836   C777.903076,963.904541 778.793640,960.497559 779.692505,957.691162   C780.806824,954.212036 781.964844,950.741882 782.922424,947.218506   C785.859924,936.409546 782.833862,926.289734 778.217407,916.811707   C774.047119,908.249695 768.325195,900.458252 763.800110,892.051147   C754.313660,874.426453 751.078857,856.424805 762.483948,838.273376   C768.287659,829.036743 774.449402,820.025085 780.653687,810.614136  z"
   id="path9" />
<path
   fill="#5A3D2C"
   opacity="1.000000"
   stroke="none"
   d=" M577.288513,216.571167   C575.793091,211.774414 574.248230,207.371033 573.265869,202.845535   C572.969116,201.478012 574.232117,199.771927 574.780640,198.220947   C575.971558,199.352615 577.770996,200.269669 578.257690,201.649673   C582.390686,213.370499 588.180969,224.110275 595.903381,233.880295   C603.582397,243.595428 612.382996,251.982468 622.381531,259.341187   C641.169800,273.169006 662.366455,280.634583 684.992310,285.110718   C697.723511,287.629333 709.934509,292.034515 721.041077,298.987457   C735.231934,307.871246 742.767700,320.953857 744.991516,337.346558   C746.237793,346.533325 746.643616,355.956848 749.043640,364.837097   C753.226501,380.314087 762.713196,391.459747 778.877258,395.923553   C781.823792,396.737335 786.797852,397.015869 785.554810,401.552490   C784.323303,406.047180 779.329224,404.436615 776.537537,403.446167   C771.394775,401.621582 766.512024,398.823334 761.869507,395.880768   C752.819275,390.144470 744.288513,383.595520 741.809814,372.395233   C739.771851,363.186371 738.143616,353.838257 737.118042,344.466064   C735.801086,332.430573 733.504700,320.576172 723.783020,312.701141   C716.412903,306.730957 707.891846,301.490112 699.036072,298.212891   C686.795166,293.682922 673.677429,291.584229 661.078796,287.946930   C631.287720,279.345978 607.122192,262.510193 589.193420,237.152924   C584.709717,230.811478 581.337830,223.683929 577.288513,216.571167  z"
   id="path10" />
<path
   fill="#5A3D2C"
   opacity="1.000000"
   stroke="none"
   d=" M362.504333,290.502686   C369.905853,287.248901 376.784882,283.147888 384.213715,281.444031   C398.300873,278.213104 412.344391,274.783569 425.111877,268.123260   C439.360229,260.690460 453.886139,252.809036 464.437042,240.531952   C475.041809,228.192139 485.022064,214.973557 489.930603,198.889206   C490.523590,196.946167 491.844482,195.225266 493.583832,191.999847   C494.567383,194.610748 495.579407,195.907990 495.372833,196.967682   C493.650696,205.803238 491.128784,214.324173 485.836578,221.861633   C481.180817,228.492599 477.764740,236.202026 472.282379,241.998688   C462.668793,252.163330 452.862579,262.172119 440.470673,269.465088   C425.240143,278.428650 408.714142,283.309875 391.964783,288.018372   C383.186218,290.486145 373.930237,292.508881 366.163025,296.956177   C358.905914,301.111359 352.969635,307.866455 347.121704,314.105042   C341.591064,320.005157 340.093079,327.498108 339.778992,335.696533   C339.191193,351.038483 335.887848,365.341248 326.790741,378.806915   C319.743103,389.238922 310.566101,393.880951 299.790833,397.448761   C298.799927,397.776855 297.352203,396.725372 296.116577,396.314514   C296.780304,395.163513 297.167236,393.404602 298.151031,392.956635   C306.886536,388.979309 312.550690,381.435974 319.286560,375.143250   C328.315430,366.708374 328.724792,355.123566 329.805115,344.153259   C330.927795,332.752716 333.685486,321.946716 338.335541,311.637756   C340.864929,306.030182 344.606628,301.242310 350.574554,298.368164   C354.722595,296.370514 358.362946,293.318665 362.504333,290.502686  z"
   id="path11" />
</g>
</svg>
