<?xml version="1.0" encoding="UTF-8"?>
<svg version="1.1" viewBox="0 0 1028 1024" width="1028" height="1024" xmlns="http://www.w3.org/2000/svg">
<g transform="translate(0,2)">
<path transform="translate(513,80)" d="m0 0h43l29 4 28 7 23 8 26 12 15 9 16 11 10 8 14 12 12 12 7 8 12 15 14 22 10 18 9 19 10 26 7 24 6 29 7 41 6 15 7 9 6 4 8 2 11-1 8-5 4-5 1-3v-10l-3-8-9-8 4-1 10 4 7 8 4 11v10l-3 10-6 10-7 8-13 9-11 5-8 2 6 11 9 17 6 17 3 13 1 8v15l-3 16-5 13-7 12-9 10-7 7-4 3-2-1 11-14 9-16 5-15 2-11v-21l-3-14-1 20-3 16-7 19-8 14-10 13-9 13-5 12-1 4v11l3 10 6 8 7 4 5 1h7l7-3 3-1 2-5 1-3v-7l-3-7-4-2h-13l1-3 5-3h11l7 5 5 10v11l-5 10-7 6-8 3h-13l-11-4-9-7-3-3 6 11 7 6 11 4 13 1 8-1-1 5-8 11-10 8-13 6-4 1h-21l-18-6 4 6 10 6 6 2 15 2-5 5-16 8-11 3-7 1h-28l-20-4-14-6-8-5-7 1-14 7-18 5-24 3h-7l-1-3 2-28 12-9 11-9 10-9 13-12 10-11 10-14 11-19 8-19 7-20 14-2 14-5 11-7 10-9 7-8 8-14 4-9 3-14v-22l-19 2h-22l-26-4-17-5-16-6-16-8-12-7-17-13-14-12-21-21-9-11-16-21-12-5-20-8-30-15-19-12-19-14-12-11-8-7 7 11 9 10 5 6 11 9 10 7 18 11 23 12 8 4-3 1-17-5-20-8-17-9-16-12-17-17-7-10-8-13-7-14-4-10-1-1-11 28-13 25-14 22-11 14-9 11-12 13-8 8-11 9-9 8-2 10-3 26v43l1 15-2-2-11-31-7-30-1-7-12 6-10 8-9 13-5 13-2 11v13l4 17 6 14 8 11 8 9 13 9 13 6 12 3 7 1 3 8 7 19 10 21 7 11 10 13 11 12 11 11 8 7 13 11 13 9 2 23v8l-14-1-20-4-13-5-15-7-14 8-16 5-13 2h-24l-17-3-15-5-16-8-9-8-7-11 1-3 13 1 12-3 8-5 6-7 3-7 1-12-2-9-3 9-6 12-7 7-8 4-5 1h-11l-9-3-6-5-5-10v-12l4-8 8-5h6l1 2-6 3-4 6-1 3v8l3 5 6 4 3 1h10l8-4 5-6 3-7 1-12-3-15-6-14-8-12-9-11-8-10-8-14-6-15-4-14-2-16v-12l-3 16v16l3 17 5 14 9 16 9 11h-3l-10-8-8-10-8-14-5-13-2-11v-22l3-15 7-19 10-19 9-15-15-2-13-5-11-8-6-8-3-9-1-12 2-9 6-10 8-6 7-3h10l7 4 4 5-1 4-10-4-11 2-5 5-1 3v13l4 8 7 4 4 1h8l8-3 6-5 6-10 5-12 4-17 3-27 5-29 8-28 8-22 12-25 6-11 12-17 12-14 12-11 17-12 21-11 19-7 17-4 12-12 17-13 22-12 15-6 20-6z" fill="#C35521"/>
<path transform="translate(500,233)" d="m0 0 3 3 9 17 14 21 16 21 11 13 14 15 16 16 8 7 14 12 13 10 18 12 13 8 18 10 16 8 17 8 15 6 24 8 24 5 23 2 23-1 17-3v2h2l10 18 8 18 4 14 2 14v15l-3 16-5 13-7 12-9 10-7 7-4 3-2-1 11-14 9-16 5-15 2-11v-21l-3-14-1 20-3 16-7 19-8 14-10 13-9 13-5 12-1 4v11l3 10 6 8 7 4 5 1h7l7-3 3-1 2-5 1-3v-7l-3-7-4-2h-13l1-3 5-3h11l7 5 5 10v11l-5 10-7 6-8 3h-13l-11-4-9-7-3-3 6 11 7 6 11 4 13 1 8-1-1 5-8 11-10 8-13 6-4 1h-21l-18-6 4 6 10 6 6 2 15 2-5 5-16 8-11 3-7 1h-28l-20-4-14-6-8-5-7 1-14 7-18 5-24 3h-7l-1-3 2-28 12-9 11-9 10-9 13-12 10-11 10-14 11-19 8-19 7-20 14-2 14-5 11-7 10-9 7-8 8-14 4-9 3-14v-22l-19 2h-22l-26-4-17-5-16-6-16-8-12-7-17-13-14-12-21-21-9-11-16-21-6-9-9-10-8-7-10-9-8-7-10-11-12-25-6-18-5-22z" fill="#C35420"/>
<path transform="translate(302,409)" d="m0 0h2l2 9-1-2-12 6-10 8-9 13-5 13-2 11v13l4 17 6 14 8 11 8 9 13 9 13 6 12 3 7 1 3 8 7 19 10 21 7 11 10 13 11 12 11 11 8 7 13 11 13 9 2 23v8l-14-1-20-4-13-5-15-7-14 8-16 5-13 2h-24l-17-3-15-5-16-8-9-8-7-11 1-3 13 1 12-3 8-5 6-7 3-7 1-12-2-9-3 9-6 12-7 7-8 4-5 1h-11l-9-3-6-5-5-10v-12l4-8 8-5h6l1 2-6 3-4 6-1 3v8l3 5 6 4 3 1h10l8-4 5-6 3-7 1-12-3-15-6-14-8-12-9-11-8-10-8-14-6-15-4-14-2-16v-12l-3 16v16l3 17 5 14 9 16 9 11h-3l-10-8-8-10-8-14-5-13-2-11v-22l3-15 7-19 10-19 7-11 23-2 17-4 17-6z" fill="#C45521"/>
<path transform="translate(500,233)" d="m0 0 3 3 9 17 14 21 16 21 11 13 14 15 16 16 8 7 14 12 13 10 18 12 13 8 18 10 16 8 17 8 15 6 24 8 24 5 23 2 23-1 17-3v2h2l4 7v3l-20 9-21 6-17 2-2 1-12 1h-22l-26-4-17-5-16-6-16-8-12-7-17-13-14-12-21-21-9-11-16-21-6-9-9-10-8-7-10-9-8-7-10-11-12-25-6-18-5-22z" fill="#A13618"/>
<path transform="translate(755,529)" d="m0 0 3 1-3 17-5 16-11 23-8 11-13 16-8 14-4 11v19l4 10 7 8 9 7 12 5 16 3h9l16-2 13-2-1 3-15 8-14 4-7 1h-28l-20-4-14-6-8-5-7 1-14 7-18 5-24 3h-7l-1-3 2-28 12-9 11-9 10-9 13-12 10-11 10-14 11-19 8-19 7-20 14-2 14-5 11-7z" fill="#A23618"/>
<path transform="translate(289,529)" d="m0 0 4 2 13 9 13 6 12 3 7 1 3 8 7 19 10 21 7 11 10 13 11 12 11 11 8 7 13 11 13 9 2 23v8l-14-1-20-4-13-5-15-7-14 8-16 5-5 1h-19l1-3 9-6 8-9 5-10 3-11v-21l-5-18-7-14-8-12-10-12-11-18-8-17-4-13z" fill="#A23618"/>
<path transform="translate(416,215)" d="m0 0 2 2 6 21 4 11-2 10-10 25-12 23-14 22-11 14-9 11-12 13-8 8-11 9-9 8-2 10-3 26v43l1 15-2-2-11-31-7-30-2-14-23 11-19 6-18 3h-14l1-4-15-2-13-5-11-8-6-8-3-9-1-12 2-9 4-7 2 1-2 6v13l3 10 5 8 8 6 12 5 5 1h18l14-3 17-6 17-8 17-10 11-8 9-7 12-11 9-9 10-13 8-12 11-17 10-18 13-27 10-25z" fill="#A23718"/>
</g>
</svg>
