<?xml version="1.0" encoding="UTF-8" standalone="no"?>
<svg
   version="1.1"
   id="Layer_1"
   x="0px"
   y="0px"
   width="100%"
   viewBox="0 0 1024 1024"
   enable-background="new 0 0 1024 1024"
   xml:space="preserve"
   xmlns="http://www.w3.org/2000/svg"
   xmlns:svg="http://www.w3.org/2000/svg"><defs
   id="defs21" />
<path
   fill="#de491e"
   opacity="1"
   stroke="none"
   d="m 248.51245,392.86158 c -3.18292,-19.26569 -1.95682,-41.18644 0.60651,-60.39741 5.16333,-38.69714 17.68503,-74.80325 39.05172,-107.58648 21.66184,-33.23609 50.228,-58.0112 88.47925,-70.53521 1.26633,-0.41459 2.51728,-1.05644 3.81305,-1.17265 11.96002,-1.07263 20.92352,-7.59641 30.16257,-14.73248 26.10437,-20.16252 56.31598,-30.97528 88.89484,-34.1092 82.13867,-7.901308 153.01019,17.15977 210.93432,76.00171 41.91266,42.57677 66.98713,94.49877 73.7074,153.67786 2.0646,18.18104 2.69429,39.96602 0.81282,57.82604 -38.48099,13.72163 -114.77571,-17.32076 -180.04335,-71.18014 -19.30963,-15.93441 -33.5849,-13.22732 -15.18964,6.11872 44.82868,47.1456 97.12885,81.54297 164.03247,91.88544 -46.19291,19.49284 -127.75248,-5.64466 -200.24019,-86.49237 -19.07422,-21.27414 -35.54913,-19.38664 -17.21765,7.04961 -35.16226,-14.28387 -73.84049,-41.36892 -96.05039,-71.89294 -22.30191,-30.65043 -34.63805,-58.82325 -34.19826,-97.559 -2.27853,7.71897 -1.37582,9.53782 -1.93065,17.2346 -1.23566,17.14014 1.6972,33.38041 7.46783,49.61192 0.92902,2.61313 -1.08902,6.45308 -1.89697,9.07154 -4.26474,13.82179 -6.29242,28.4439 -11.64502,41.85705 -11.8067,29.58679 -28.95512,56.62198 -54.18629,76.84338 -7.54938,6.05039 -17.55211,9.53683 -25.85326,14.65255 -0.0242,-0.0268 -0.0775,-0.0756 0.0685,-0.3819 11.5372,-14.71405 21.10239,-30.23303 28.58814,-47.01907 8.42697,-18.89667 13.91903,-38.73328 17.77642,-59.10617 0.29563,-1.56137 0.27448,-2.12794 0.82417,-3.98086 -1.30155,1.61311 -1.71528,2.5741 -2.50196,4.017 -7.96079,14.60135 -15.92295,29.24791 -24.45225,43.50915 -14.48639,24.22171 -32.25394,45.61596 -56.58899,60.74307 -10.21301,6.34851 -16.83025,12.92811 -29.00511,14.49147"
   id="path2" />
<path
   fill="#bd2e15"
   opacity="1"
   stroke="none"
   d="m 248.04932,388.83048 c 12.19378,-1.97445 23.31825,-6.76602 33.53126,-13.11453 24.33505,-15.12711 41.14911,-35.42197 55.6355,-59.64368 8.5293,-14.26124 17.13084,-29.14338 25.09163,-43.74473 0.78668,-1.4429 1.92621,-3.98561 3.77746,-5.36314 0,1.61734 -0.0764,4.39385 -0.37206,5.95522 -3.85739,20.37289 -9.49534,39.81686 -17.92231,58.71353 -7.48575,16.78604 -17.94553,32.63876 -29.72396,47.40823 -0.66212,0.71516 -2.53195,1.27597 -2.53195,1.27597 8.27695,-5.14251 19.68201,-10.77383 27.23139,-16.82422 25.23117,-20.2214 40.15849,-47.03448 51.96519,-76.62127 5.3526,-13.41315 9.37927,-27.36893 13.64401,-41.19072 0.80795,-2.61846 1.93755,-6.01419 1.00853,-8.62732 -5.77063,-16.23151 -8.48138,-32.916 -7.24572,-50.05614 0.55483,-7.69678 2.53955,-15.29048 4.81808,-23.00945 -0.43979,38.73575 12.78479,72.68342 35.0867,103.33385 22.2099,30.52402 51.1153,52.72266 86.27756,67.00653 C 509.98914,307.89236 499.3934,278.62729 493.7789,247.4397 l 1.47116,-0.73178 c 3.26328,5.47938 6.54404,10.94842 9.7868,16.43991 14.51142,24.57428 31.20002,47.52133 50.27424,68.79547 24.30242,27.10522 51.66711,50.46786 83.22839,68.63858 25.27313,14.55044 53.67318,22.99012 83.37807,22.43897 9.38343,-0.1741 15.18098,-1.59212 24.52571,-3.05828 1.52612,-0.23941 4.05214,-0.0739 6.4427,-1.08268 -66.90362,-10.34247 -118.75957,-44.51773 -163.58825,-91.66333 -18.39526,-19.34604 -33.52508,-41.4069 -44.47057,-65.90781 0.50366,-0.38437 1.00738,-0.76877 1.51111,-1.15314 2.08532,2.41046 4.30987,4.71521 6.23395,7.24814 15.18316,19.98773 34.82662,36.20491 54.13625,52.13932 23.74683,19.59607 47.38877,36.88158 75.21701,50.07735 21.7992,10.33679 44.73878,18.39698 68.76533,21.0394 11.18774,1.23047 23.26896,1.26804 34.65348,-2.47006 -0.73608,5.33233 -2.46623,10.78998 -3.97758,16.72427 -2.914,2.09329 -6.63751,3.1362 -7.71466,5.42468 -4.99811,10.61872 -8.47711,21.73986 -13.00415,32.58031 -37.04297,16.41233 -74.21979,12.51976 -109.93555,-4.21739 -28.68988,-13.44464 -53.03229,-33.07901 -75.63989,-54.97507 -6.81824,-6.60357 -13.31067,-13.5426 -20.06268,-20.21628 -1.09021,-1.07754 -2.68122,-1.99551 -4.17261,-2.26956 -48.26926,-8.86999 -85.98132,-34.3573 -115.20337,-73.15863 -4.17328,-5.54132 -7.83676,-11.46661 -12.00778,-17.61453 -2.12094,6.49802 -3.99128,12.77386 -6.20578,18.92584 -16.33701,45.3851 -42.98822,83.18134 -82.2125,111.77097 -1.39343,1.01562 -2.3392,3.50604 -2.40527,5.34811 -0.6152,17.15061 -0.99393,34.30969 -1.43298,51.46655 -0.0335,1.31098 -0.004,2.62351 -0.67395,4.2378 -10.28547,-12.7378 -16.29868,-28.08063 -25.70426,-41.54587 -7.31854,3.53311 -17.3573,8.31816 -25.16534,11.77175 -9.16446,-6.28732 -13.45219,-12.88303 -19.11964,-19.89417 -3.14889,-3.89548 -3.38928,-2.41015 -8.20632,-0.50872 -1.34179,-5.45236 -3.12777,-17.3459 -4.45065,-23.20934 z"
   id="path3" />
<path
   fill="#bd2e16"
   opacity="1"
   stroke="none"
   d="m 845.0124,564.18401 c -3.47071,1.54749 -6.80458,3.77259 -10.43836,4.46925 -3.57728,0.68573 -5.01862,2.54956 -6.17737,5.50519 -5.29895,13.51507 1.10095,26.9516 14.2575,28.10248 5.24286,0.45861 10.7392,-1.97919 15.99237,-3.07178 -1.1798,4.91266 -5.32086,8.77411 -10.59136,11.36364 -13.67524,6.71924 -27.61133,6.3017 -41.63672,0.96314 -1.80927,-0.68878 -3.86817,-1.55878 -5.66748,-1.30878 -21.13086,2.93647 -40.77857,-17.30322 -33.04431,-43.81732 1.51293,-5.18664 3.82385,-10.46179 7.00018,-14.79114 25.53698,-34.80767 23.85342,-71.25038 0.42123,-107.26778 6.73224,-6.7373 11.77324,-14.57945 14.83239,-22.63197 1.78479,1.67356 3.54899,3.22003 5.36192,4.28049 21.73425,12.71237 33.94732,33.07886 39.3023,57.38068 4.98926,22.64181 1.95856,43.97662 -10.25085,63.81579 -2.09564,3.40528 -4.62006,6.54663 -6.94635,9.80988 22.37543,-6.54382 34.79627,-27.5047 41.66261,-48.45092 0.9317,12.20593 -1.3011,28.50231 -5.29164,39.70769 -1.81409,5.09369 -4.48572,9.88196 -6.76843,14.80878 6e-5,0 0.0488,0.0122 -0.23196,0.0525 m -64.40775,-9.75572 c -5.57904,8.81274 -8.6416,18.25427 -7.37402,28.83331 1.40655,11.73883 9.38678,20.97736 20.30102,22.75342 -9.10681,-9.38117 -12.54522,-20.6333 -13.01214,-32.86737 -0.24506,-6.42078 0.26477,-12.8703 0.63708,-19.24182 l 0.16614,-0.03 c 0,0 -0.28559,0.0262 -0.71808,0.55249 z"
   id="path4" />
<path
   fill="#bd2e15"
   opacity="1"
   stroke="none"
   d="m 185.1758,598.81268 c 0.58642,0.30249 1.18214,0.58838 1.75787,0.90998 8.81599,4.92498 17.46497,4.22894 23.44566,-1.89197 5.74398,-5.8786 6.90232,-17.89978 2.194,-25.19696 -0.77174,-1.19611 -2.52,-1.91242 -3.96016,-2.49829 -3.99234,-1.6239 -12.35413,-4.21932 -12.48802,-4.90323 -4.30095,-8.95215 -9.41161,-17.33725 -12.57726,-26.00058 -3.69382,-10.10871 -4.70751,-22.46921 -3.83358,-32.27848 4.75732,8.61542 9.7729,19.78922 15.46435,28.62571 5.9116,9.17822 14.55794,15.33471 25.13036,18.60089 -0.31885,-1.49524 -0.947,-2.63617 -1.67593,-3.70862 -13.99387,-20.5896 -18.59,-43.12665 -13.53467,-67.46844 5.54736,-26.711 18.64207,-47.86277 45.01897,-58.77045 5.40661,6.77771 11.24691,13.07617 16.42086,19.59671 -10.65549,14.06121 -17.97241,29.90076 -19.76707,47.59418 -1.93175,19.04504 3.36833,36.09756 13.38653,51.99954 2.91672,4.62976 6.30736,10.39634 8.98631,15.59708 -2.59735,1.54377 -6.29145,0.3688 -6.51658,3.95242 -1.70962,-3.12415 -3.12875,-6.03534 -4.54791,-8.94654 0.95688,18.48487 1.64151,36.33863 -13.04633,51.34137 7.66059,-1.28979 12.27493,-6.27681 16.92089,-11.04201 2.86856,0.0867 5.8952,0.26218 8.4114,0.20199 -5.74792,10.84857 -15.40313,15.86161 -27.43722,15.72111 -2.8414,-0.0332 -5.81961,0.64496 -8.52237,1.59833 -13.57227,4.78753 -27.12274,5.90405 -39.99608,-1.4917 -3.92177,-2.25299 -6.56317,-6.7625 -9.69241,-10.72411 -0.082,-0.55614 -0.0691,-1.17888 -0.0691,-1.17888 z"
   id="path5" />
<path
   fill="#dd4b20"
   opacity="1"
   stroke="none"
   d="m 847.21745,562.80316 c 1.26239,-5.34498 4.1006,-9.24481 5.91468,-14.3385 3.99054,-11.20538 6.66756,-26.1691 5.73586,-38.37503 -5.31157,22.05677 -20.84195,42.35131 -43.21738,48.89514 2.3263,-3.26325 5.84231,-8.56065 7.93795,-11.96593 12.20941,-19.83917 14.69274,-40.5727 9.70348,-63.21451 -5.35498,-24.30182 -21.96792,-39.14443 -38.36229,-56.56846 -1.43926,-1.52965 -3.34155,-2.60693 -5.07318,-4.66101 0.79211,-5.03677 -0.38669,-9.81126 0.47622,-14.1146 26.71436,0.94885 52.29941,11.0156 73.14432,27.29069 16.69812,13.03744 28.66492,29.52661 33.79413,50.42273 3.63696,14.81689 1.11017,28.72531 -6.80115,41.64785 -3.94098,6.43732 -9.09857,12.57443 -16.49455,14.22026 -2.69183,0.599 -5.15423,3.49219 -7.57757,5.5393 -6.17969,5.2201 -12.99691,10.1955 -19.45816,15.52747 m 27.04713,-105.44593 -0.57404,-0.42407 c -0.0315,0.13012 -0.12201,0.35119 -0.0847,0.37542 0.22027,0.14304 0.47021,0.2403 0.57293,1.12744 9.55262,24.68229 9.88941,49.46894 0.22058,74.9766 6.10663,-3.63867 9.48633,-8.48731 11.80927,-14.07007 6.55505,-15.75342 5.00415,-31.31134 -2.14105,-46.3519 -2.57453,-5.41922 -6.50794,-10.19284 -9.80298,-15.63342 z"
   id="path6" />
<path
   fill="#dd4b20"
   opacity="1"
   stroke="none"
   d="m 250.05131,424.41932 c -26.14424,11.16482 -38.07287,31.87237 -43.62023,58.58337 -5.05533,24.34179 -1.59554,46.80031 12.39833,67.38991 0.72893,1.07245 1.25892,2.44897 1.57777,3.94421 -10.57242,-3.26618 -19.5525,-9.54047 -25.4641,-18.71869 -5.69145,-8.83649 -10.07881,-18.40047 -14.83613,-27.01589 -0.87393,9.80927 0.29681,20.52069 3.99063,30.6294 3.16565,8.66333 8.4056,17.71395 12.45985,26.42721 -6.89694,-5.19983 -14.473,-11.66732 -21.43029,-17.22757 -1.2659,-1.01171 -2.31841,-2.66339 -3.73624,-3.0559 -19.56241,-5.41535 -29.96179,-26.33741 -28.88603,-45.85398 0.90658,-16.44711 7.50609,-30.71054 17.65927,-43.24215 21.7036,-26.78772 52.81841,-41.95468 87.44814,-44.95541 1.96412,4.05661 1.28642,9.56998 2.71667,13.3176 m -86.73552,98.13665 c -5.56372,-18.99891 -4.46407,-38.00339 -0.4315,-57.27436 -3.78441,6.86774 -7.51461,13.78757 -9.47228,21.17698 -3.68379,13.90478 -3.44986,27.85513 4.54266,40.50063 2.38297,3.77033 6.20548,6.63074 9.36843,9.90809 0.22954,-0.30036 0.45909,-0.60065 0.68863,-0.901 -1.48102,-4.21527 -2.96205,-8.43055 -4.69594,-13.41034 z"
   id="path7" />
<path
   fill="#1545b1"
   opacity="1"
   stroke="none"
   d="m 792.07979,408.5977 c -0.52893,4.48001 -0.64583,9.56861 -1.56197,14.25251 -2.98828,8.78591 -6.96916,17.17776 -13.88157,23.60748 -5.32776,-0.68939 -11.05591,-2.34354 -16.56287,-3.33631 4.13226,-10.91272 8.58055,-22.16395 13.57866,-32.78267 1.07715,-2.28848 4.87918,-3.80256 7.7236,-5.48676 3.69641,1.03998 7.01366,2.4616 10.70415,3.74575 z"
   id="path8" />
<path
   fill="#1545b1"
   opacity="1"
   stroke="none"
   d="m 250.11739,424.23224 c -1.66291,-4.00476 -3.64284,-8.53769 -5.15683,-12.63068 2.13803,-1.78204 4.90953,-2.43341 7.44642,-4.04803 5.13214,-2.07944 7.81574,-0.011 10.96463,3.88446 5.66745,7.01114 12.39838,13.16263 18.97922,19.83056 1.33878,7.87232 -7.80731,15.0206 -16.14008,12.75977 -5.51278,-6.4978 -10.68675,-13.01837 -16.09336,-19.79608 z"
   id="path9" />
<path
   fill="#bd2e16"
   opacity="1"
   stroke="none"
   d="m 262.6038,562.75322 c -0.0653,-3.79657 3.27538,-3.79952 5.91338,-4.99074 6.66812,11.69928 6.98411,27.76469 1.47229,37.28692 -2.7684,0.323 -8.34728,-0.0303 -8.18206,-0.6903 0.72455,-2.13409 2.76287,-5.74989 3.22744,-7.56489 2.07394,-8.10248 0.16399,-16.91073 -2.66663,-24.59066 z"
   id="path10" />


<path
   fill="#BD2E15"
   opacity="1.000000"
   stroke="none"
   d=" M544.485107,258.482361   C544.516968,258.466980 544.453308,258.497742 544.485107,258.482361  z"
   id="path13" />

</svg>
