<?xml version="1.0" encoding="UTF-8" standalone="no"?>
<svg
   version="1.1"
   id="Layer_1"
   x="0px"
   y="0px"
   width="100%"
   viewBox="0 0 1028 1024"
   enable-background="new 0 0 1028 1024"
   xml:space="preserve"
   xmlns="http://www.w3.org/2000/svg"
   xmlns:svg="http://www.w3.org/2000/svg"><defs
   id="defs24" />
<g
transform="translate(-7,-1) translate(514,512) scale(0.99) translate(-514,-512)"
id="g11">
<path
   fill="#3e2b24"
   opacity="1"
   stroke="none"
   d="m 529.67527,105.05505 c 10.81272,-3.16898 20.92239,-5.200077 31.35171,-5.840794 44.98437,-2.763511 85.88153,10.243954 123.00519,35.000724 48.81939,32.55638 81.56085,77.17662 97.25769,133.89809 7.80474,28.203 10.41351,56.96652 9.03216,86.23947 -1.30005,27.55078 -5.2334,54.58545 -12.8291,81.51181 -1.58728,-1.46692 -2.96295,-2.84906 -4.45166,-4.09631 -10.01465,-8.39039 -21.2146,-12.20505 -34.16437,-8.32114 -2.88116,0.86417 -4.2312,0.47616 -5.08185,-2.55139 -8.98773,-31.98822 -30.01434,-54.89932 -56.49133,-73.26703 -22.9762,-15.93912 -46.69848,-30.79962 -69.76416,-46.61371 -31.48871,-21.58905 -56.43707,-49.16638 -74.06061,-83.18694 -0.8316,-1.60539 -1.86346,-3.10707 -2.9162,-5.05426 0.40564,-1.56536 1.28406,-2.70265 1.38782,-3.90666 0.76703,-8.90494 1.6944,-17.81303 1.98145,-26.73912 0.82776,-25.73747 -1.73534,-49.62699 -4.57085,-75.18807"
   id="path2" />
<path
   fill="#3e2b24"
   opacity="1"
   stroke="none"
   d="m 528.89728,214.9659 c -11.06598,22.41687 -26.34622,41.59556 -44.12427,59.08683 -24.06528,23.67707 -53.29529,39.90406 -81.427,57.72779 -19.59354,12.41415 -38.22882,25.99719 -52.83441,44.18713 -10.23145,12.74234 -17.55286,27.29431 -22.38807,42.95657 -1.20996,3.91938 -2.28372,5.61795 -7.08886,4.28367 -14.07364,-3.9079 -25.64481,1.49035 -35.6568,11.16854 -0.93659,0.90534 -1.53192,2.16373 -2.28568,3.25818 -0.57568,-0.12353 -1.15133,-0.24704 -1.72699,-0.37057 -2.45688,-8.45242 -5.23468,-16.82682 -7.31182,-25.37152 -6.8696,-28.25934 -9.46036,-57.01538 -7.95594,-86.00119 2.83835,-54.68561 19.76483,-104.18027 55.68833,-146.36007 29.44702,-34.57542 65.49386,-59.27278 109.01995,-72.73099 21.80887,-6.74328 44.22254,-9.182671 66.8866,-7.559822 9.6225,0.689026 19.38925,3.279812 29.28329,5.853792 -0.3031,11.98292 -1.92465,23.85249 -1.81875,35.23776 0.22186,23.8448 1.16486,47.68343 1.92487,71.52098 0.0336,1.05588 1.18487,2.0761 1.81555,3.11292"
   id="path3" />
<path
   fill="#3f2c24"
   opacity="1"
   stroke="none"
   d="m 365.30986,885.0033 c -5.40283,7.46637 -10.18574,14.74841 -16.55223,21.27471 -8.98737,9.21284 -21.5388,18.44681 -31.56959,26.64951 0.94275,-2.21112 3.34009,-7.45085 4.80994,-9.18364 4.51184,-5.31836 9.61149,-9.63022 13.52235,-15.34427 13.2851,-19.41034 19.02518,-40.45729 21.93589,-63.77132 1.98938,-15.93499 1.844,-31.36966 -0.29565,-47.25498 -2.27932,-16.92218 -6.37329,-32.67843 -12.22238,-48.60799 -2.21597,-6.03503 -3.42742,-11.71708 -5.90462,-17.65623 -0.35755,0.40155 -0.1524,0.84723 -0.94744,0.59247 2.42643,10.30213 5.4446,19.82696 8.1972,30.04119 4.77081,17.70331 8.9272,36.21416 9.14418,54.57482 0.12903,10.91961 -0.71543,22.04731 -1.80284,32.93562 -1.97335,19.75916 -10.14391,37.86587 -19.77214,54.9349 -2.70102,4.78833 -7.4471,8.74929 -10.48998,13.34481 -0.37787,-0.21155 -3.03236,4.18561 -3.41023,3.97406 0.80005,-1.72412 2.07205,-9.51128 2.96128,-11.1881 7.2622,-13.69415 9.52098,-27.08528 10.23787,-42.35926 0.72364,-15.41742 -2.85902,-30.15711 -7.66945,-44.52314 -6.07034,-18.12884 -12.81569,-35.66526 -19.38597,-53.62607 -7.08224,-19.36048 -11.10218,-39.52259 -12.23417,-59.93818 -1.18783,-21.42217 -3.49384,-12.88784 -2.56791,8.2252 0.47037,10.72455 0.4834,21.7461 3.53931,31.9654 6.66031,22.27307 16.26382,43.82431 23.84625,65.81815 6.19696,17.97522 11.77126,36.24294 11.25655,55.72359 -0.49338,18.67237 -6.14495,36.20543 -15.20577,52.22233 -2.21384,3.91346 -7.80642,9.27284 -10.68169,12.81208 9.26281,-28.40771 2.50326,-57.26573 -9.70902,-82.66868 -7.58984,-15.78778 -16.35406,-31.00922 -24.52258,-46.52094 -13.62812,-25.87946 -24.33593,-53.99105 -27.93241,-83.29482 -5.48385,-44.68217 1.37693,-115.91369 69.25183,-164.02481 2.7587,2.91113 4.80783,9.04274 6.72864,12.06239 -4.84107,5.02625 -8.65499,10.20867 -12.791,15.38402 -32.17406,39.95084 -46.74455,84.799 -43.22353,135.25005 1.70868,21.27228 9.29603,40.86131 18.8231,59.74376 0.74813,1.48273 0.85378,2.32082 1.88869,3.65883 l 0.79204,-0.22094 c -1.15,-3.89221 -3.22983,-7.5537 -4.59778,-11.36773 -7.35687,-20.51135 -10.46939,-42.09073 -11.81314,-63.72836 -2.18459,-35.17795 9.28144,-83.65165 36.33947,-119.54936 4.88205,-6.47705 10.69255,-12.45238 16.12153,-18.59521 2.43531,1.78968 8.65509,3.43213 10.77746,5.43689 0.96903,-1.54816 1.87511,-3.42245 1.50922,3.89141 -2.11144,42.20613 -15.11531,74.88757 3.68012,117.00339 10.42089,23.35077 21.07953,46.52782 30.63574,70.23613 4.12342,10.22986 7.02832,21.38857 8.55155,32.30953 1.63428,11.71753 2.24101,23.95289 1.57551,35.792 -0.54355,9.66949 -4.11744,19.38594 -5.9264,28.97462 -1.11353,5.90216 -3.6774,12.71015 -4.8978,18.59217 z"
   id="path4" />
<path
   fill="#3f2c25"
   opacity="1"
   stroke="none"
   d="m 751.37854,560.63605 c 32.44672,23.09051 53.46246,55.22961 63.54138,93.67651 5.47638,20.89026 6.04999,42.15845 4.27942,63.67944 -3.06415,37.24366 -16.83545,70.69306 -34.8006,102.81287 -10.58184,18.91913 -21.48529,37.66516 -27.70514,58.68097 -5.20196,17.57648 -5.04828,40.08551 0.58362,58.12537 -2.90015,-2.60505 -11.01434,-9.48847 -12.88916,-12.81958 -14.21075,-25.24933 -18.30048,-53.31879 -10.71246,-81.37165 5.67431,-20.97796 13.79718,-41.56231 21.2077,-62.04657 7.17316,-19.82812 13.8248,-39.74421 15.06388,-60.7317 0.86639,-14.67645 -1.09745,-29.47124 -2.50828,-44.11614 -1.09057,-11.32098 -2.25287,-22.42199 -4.7265,-33.60009 -0.23846,-1.07776 -1.13971,-2.00879 -1.73327,-3.00794 -0.74823,1.63593 1.36279,2.90985 1.54895,4.17273 1.47699,10.02112 1.88946,20.00812 2.23846,30.06726 0.51843,14.93811 2.5533,30.20581 1.64233,45.13684 -1.17102,19.19391 -6.63031,37.75281 -13.09197,55.82923 -6.10151,17.06878 -12.86408,33.66064 -18.60462,50.84662 -7.86804,23.55529 -9.58288,47.01061 -2.00879,71.07299 1.86731,5.93225 3.15297,12.75092 5.33729,18.68055 -0.64339,0.48563 -1.87699,0.17668 -2.01011,0.0148 -0.84235,-1.02484 -2.06937,-2.61579 -2.67557,-3.77741 -5.60254,-10.73584 -13.3103,-21.36329 -18.23138,-32.40608 -6.7749,-15.20275 -9.16339,-32.1358 -10.19666,-48.55737 -1.18573,-18.84534 1.26844,-37.7395 5.65015,-56.09747 2.005,-8.40052 5.67255,-16.48365 7.59869,-24.90131 1.43793,-6.28424 3.18032,-11.51427 4.40828,-17.84654 -1.5874,0.89135 -1.40223,2.41215 -1.80293,3.62858 -4.93677,14.98871 -8.91156,28.77008 -13.08533,43.9704 -6.77874,24.68701 -8.59332,50.0036 -3.51825,75.08112 5.87299,29.02014 18.61066,55.16009 42.22089,74.87634 0.98944,0.82636 -2.00049,3.02625 -1.40057,4.31915 -18.01288,-10.88653 -32.45923,-25.50976 -44.57453,-42.56976 -1.81732,-2.55896 -3.94745,-4.41217 -5.57574,-7.60895 -2.20978,-8.45697 -4.6413,-13.97223 -6.41968,-19.73547 -5.44934,-17.66052 -4.35754,-36.54944 -2.84448,-54.60156 2.12079,-25.30323 8.54254,-49.19934 18.67651,-72.21955 8.63873,-19.62341 18.47644,-38.45111 26.67053,-58.25494 8.78107,-21.22241 11.82087,-41.78072 9.46265,-64.875 -1.19482,-11.70099 -3.08063,-23.2666 -9.92578,-33.74579 3.03259,-2.08429 8.83398,-7.43603 11.75238,-8.95807 6.43713,8.64234 14.06714,18.73999 20.01166,27.31305 11.84265,17.07947 20.85907,36.2898 26.12225,56.33191 3.14258,11.96735 4.28607,24.71436 6.2453,36.98651 2.41754,15.14313 1.51858,29.85315 -1.32456,44.625 -3.00512,15.61334 -10.27966,31.28907 -14.52886,46.66529 -0.25586,0.92596 -0.56468,1.86858 -0.65989,2.83892 l 0.66296,0.228 c 1.81538,-5.26042 4.0798,-7.68755 5.86136,-11.6588 7.18194,-16.00903 10.61106,-33.75499 12.77396,-51.26298 2.10077,-17.00495 1.23719,-32.36096 -1.61438,-49.06366 -4.23608,-24.81299 -12.78466,-48.20508 -26.28991,-69.58136 -7.92188,-12.539 -16.71851,-23.219 -27.60724,-33.4939 2.45312,-3.10443 7.22955,-7.92761 9.50604,-10.75079 z"
   id="path5" />
<path
   fill="#2c1d15"
   opacity="1"
   stroke="none"
   d="m 365.45471,883.89911 c 0.91849,-5.72016 2.22592,-11.58582 3.33945,-17.48798 1.80896,-9.58868 4.44052,-19.14807 4.98407,-28.81756 0.6655,-11.83911 0.52994,-23.91742 -1.10434,-35.63495 -1.52323,-10.92096 -4.42813,-21.92261 -8.55155,-32.15247 -9.55621,-23.70831 -20.0578,-47.04242 -30.47869,-70.39319 -8.439,-18.90966 -15.38501,-38.28009 -17.35892,-58.9696 -1.85047,-19.39575 1.86682,-38.06061 9.90948,-55.83502 0.68,-1.50281 1.18741,-4.49724 2.13858,-6.37834 7.50342,1.88714 15.42853,4.73893 22.56833,6.96251 -7.55728,22.17083 -5.43149,44.77606 2.47022,66.01434 7.84564,21.08752 17.20208,41.61365 25.01779,62.7113 4.17853,11.27954 6.35846,23.28748 9.7052,34.89032 3.9885,13.8277 5.07257,27.97009 4.88263,42.23419 -0.23319,17.51245 -2.16675,34.78162 -8.64804,51.26722 -4.13202,10.51007 -8.02985,21.11669 -12.39731,31.52716 -1.48532,3.54046 -4.08472,6.61352 -6.4769,10.06207 z"
   id="path6" />
<path
   fill="#2c1c15"
   opacity="1"
   stroke="none"
   d="m 731.98621,579.89948 c 7.07641,10.24664 9.96222,22.06225 11.90704,34.01324 3.7287,22.91296 0.0684,45.15259 -8.71265,66.375 -8.19409,19.80383 -17.5318,39.13153 -26.17053,58.75494 -10.13397,23.02021 -19.55572,46.41632 -21.67651,71.71955 -1.51306,18.05212 -0.85486,36.19104 4.59448,53.85156 1.77838,5.76324 3.3349,16.0285 4.57721,22.02557 -11.2132,-16.48919 -20.28937,-38.35571 -24.54743,-57.99444 -3.42364,-15.79004 -4.07037,-31.85291 -3.69574,-47.82239 0.18268,-7.78552 2.3017,-15.52521 3.53834,-23.28656 1.15661,-7.25922 1.61334,-14.71802 3.62426,-21.73175 2.82837,-9.86493 6.5868,-19.48651 10.33869,-29.05878 8.70123,-22.19983 17.85077,-44.22656 26.31945,-66.51312 1.98395,-5.22089 2.53028,-11.17041 2.78687,-16.82788 0.56067,-12.35883 -0.7915,-28.54358 -5.21747,-40.76074 7.10431,-2.41742 15.59412,-0.70581 22.33399,-2.7442 z"
   id="path7" />
<path
   fill="#2d1d16"
   opacity="1"
   stroke="none"
   d="m 304.90881,934.34369 c 3.0701,-3.85376 6.50827,-7.07452 8.72211,-10.98798 9.06082,-16.0169 14.08417,-33.07879 14.57755,-51.75116 0.51471,-19.48065 -4.90253,-37.43426 -11.09949,-55.40948 -7.58243,-21.99384 -16.49927,-43.68241 -23.15958,-65.95548 -3.05591,-10.2193 -3.28445,-21.41763 -3.75482,-32.14218 -0.92593,-21.11304 -0.68594,-42.27264 4.75766,-62.95123 1.3374,-5.08038 3.05441,-10.06073 5.6676,-14.99768 0,1.80316 0.349,3.68841 -0.0531,5.39685 -4.96637,21.10376 -5.53689,42.59058 -4.34906,64.01275 1.13199,20.41559 4.68076,40.5777 11.763,59.93818 6.57028,17.96081 13.47269,35.81134 19.54303,53.94018 4.81043,14.36603 8.23603,29.10572 7.51239,44.52314 -0.71689,15.27398 -3.13272,30.07861 -10.39492,43.77276 -0.88923,1.67682 -2.24044,5.32637 -3.04049,7.0505 0.37787,0.21154 -0.81481,0.73726 -0.43694,0.94881 3.04288,-4.59552 8.57423,-11.22642 11.27525,-16.01475 9.62823,-17.06903 17.48468,-34.86163 19.45803,-54.62079 1.08741,-10.88831 2.08893,-21.85895 1.9599,-32.77856 -0.21698,-18.36066 -4.05926,-36.24329 -8.83007,-53.9466 -2.7526,-10.21423 -4.91208,-20.58825 -7.33851,-30.89038 0.52942,-0.18274 1.05884,-0.36548 1.58826,-0.54828 2.4772,5.93915 5.17319,11.79798 7.38916,17.83301 5.84909,15.92956 10.41422,32.15698 12.69354,49.07916 2.13965,15.88532 2.7562,31.6341 0.76682,47.56909 -2.91071,23.31403 -10.22134,44.9892 -23.50644,64.39954 -3.91086,5.71405 -9.16757,10.49707 -13.67941,15.81543 -1.30318,4.69174 -5.02225,6.49205 -5.40955,7.02772 -4.67197,2.87451 -8.89975,6.02666 -13.57174,8.90111 -0.37088,-0.35675 -0.7418,-0.71356 -1.11271,-1.07037 0.62256,-1.94293 1.24512,-3.88587 2.0625,-6.14331 z"
   id="path8" />
<path
   fill="#2d1d16"
   opacity="1"
   stroke="none"
   d="m 745.21222,934.29816 c -0.81415,-1.56311 -1.07422,-3.263 -2.06366,-4.08936 -23.61023,-19.71625 -34.8479,-46.3562 -40.72089,-75.37634 -5.07507,-25.07752 -3.51049,-50.39411 3.26825,-75.08112 4.17377,-15.20032 9.64856,-30.04419 14.58533,-45.0329 0.4007,-1.21643 1.15747,-2.31555 2.74487,-3.2069 -1.22796,6.33227 -2.28729,12.70312 -3.72522,18.98736 -1.92614,8.41766 -4.21869,16.75079 -6.22369,25.15131 -4.38171,18.35797 -7.08588,37.00213 -5.90015,55.84747 1.03327,16.42157 3.42176,32.85462 10.19666,48.05737 4.92108,11.04279 10.97546,21.58185 16.578,32.31769 0.6062,1.16162 1.54596,2.15595 2.38831,3.18079 0.13312,0.16192 0.57122,0.0731 1.05993,0.1178 -2.18432,-5.92963 -4.57916,-11.69587 -6.44647,-17.62812 -7.57409,-24.06238 -5.85925,-48.0177 2.00879,-71.57299 5.74054,-17.18598 12.50311,-34.02784 18.60462,-51.09662 15.88131,-43.07281 15.90238,-86.22354 8.96118,-130.78333 -0.18616,-1.26288 -0.57843,-4.38055 0.1698,-6.01648 0.59356,0.99915 1.77606,0.77393 2.01452,1.85175 2.47363,11.1781 5.88593,25.27911 6.9765,36.60009 1.41083,14.6449 1.92017,29.52808 1.05378,44.20453 -1.23908,20.98749 -6.43622,41.31519 -13.60938,61.14331 -7.41052,20.48426 -15.53339,40.81861 -21.2077,61.79657 -7.58802,28.05286 -2.49829,55.12232 11.71246,80.37165 1.87482,3.33111 4.98901,5.96453 7.87476,8.95721 0.84173,1.8092 1.33783,3.5824 1.83398,5.35553 l -1.26269,1.4903 c -3.55255,-1.75879 -7.10511,-3.51752 -10.87189,-5.54651 m -6.71619,-16.7674 c 0,0 -0.0187,-0.0474 0,0 z"
   id="path9" />
<path
   fill="#854A29"
   opacity="1.000000"
   stroke="none"
   d=" M350.487122,585.937134   C342.976044,583.754211 335.836212,581.530640 328.346771,579.281128   C325.860779,577.612793 323.724426,575.970337 321.091766,573.935791   C319.414001,572.664673 318.232513,571.785583 317.051056,570.906433   C314.844879,568.073059 312.638702,565.239624 310.182465,562.179443   C310.072235,557.583435 309.636932,553.092285 310.529388,548.882629   C311.276642,545.357727 313.847351,544.696350 317.802856,546.161255   C324.653503,548.698486 331.971466,549.946350 338.990356,552.074951   C340.864807,552.643433 343.211914,554.093750 343.894928,555.739746   C347.347748,564.060303 350.191284,572.631653 353.533478,581.001221   C354.792450,584.153992 353.359253,585.147705 350.487122,585.937134  z"
   id="path10" />
<path
   fill="#854A29"
   opacity="1.000000"
   stroke="none"
   d=" M732.217468,579.666931   C725.246338,581.937866 718.506531,583.976257 711.333191,586.005249   C709.563782,585.515198 708.227844,585.034424 706.460938,584.398682   C709.037781,578.153442 711.489502,572.437378 713.748962,566.646301   C714.998657,563.443420 716.182617,560.171936 716.927124,556.826965   C717.660767,553.530457 719.516541,552.477356 722.670898,551.861694   C730.033875,550.424683 737.445801,548.915222 744.531189,546.525513   C747.729736,545.446838 749.722168,545.910278 750.241760,548.518311   C751.053772,552.593933 750.818787,556.878113 751.078003,561.479980   C748.852051,564.709229 746.575623,567.532410 743.855591,570.792114   C742.558899,572.112122 741.705872,572.995667 740.852783,573.879150   C738.051453,575.730896 735.250061,577.582642 732.217468,579.666931  z"
   id="path11" />
<path
   fill="#2c1c16"
   opacity="1"
   stroke="none"
   d="m 528.56112,215.49722 c -0.76569,-0.78286 -1.91693,-2.90247 -1.95056,-3.95835 -0.76001,-23.83755 -2.01712,-47.36207 -2.23898,-71.20687 -0.1059,-11.38527 -0.52607,-23.56895 0.60794,-35.25185 0.73731,-0.47127 4.30613,-0.18095 5.42154,-0.19344 2.58089,13.63617 4.82988,51.50361 4.00212,77.24108 -0.28705,8.92609 -0.90031,17.83418 -1.66734,26.73912 -0.10376,1.20401 -1.76746,2.3413 -2.50842,3.8051 -0.50092,0.79242 -1.25169,2.0745 -1.6663,2.82521 z"
   id="path12" />

<path
   fill="#2D1D17"
   opacity="1.000000"
   stroke="none"
   d=" M743.847717,379.273743   C745.709106,387.085480 747.672668,394.477356 747.843628,402.103607   C747.269409,402.242462 746.695190,402.381348 746.120972,402.520233   C745.562744,400.960876 744.892151,399.431763 744.462952,397.837677   C736.752808,369.197388 721.317078,345.527161 697.531433,327.907837   C680.455261,315.258484 662.561523,303.694550 644.823242,291.962677   C629.384766,281.751862 615.040405,270.277740 601.202454,257.975159   C585.750000,244.237335 573.046265,228.388535 561.626404,211.350220   C559.776733,208.590485 558.091797,205.695206 556.615417,202.721222   C555.898926,201.278046 555.840942,199.507950 555.484924,197.885849   C555.996399,197.601135 556.507874,197.316437 557.019348,197.031738   C559.762695,200.323135 562.704712,203.470154 565.217773,206.928833   C584.469543,233.425186 607.669983,255.909210 634.494568,274.589325   C648.964600,284.665955 663.956604,293.989685 678.589783,303.836273   C703.990784,320.928375 726.955933,340.374847 740.010742,369.095062   C741.453247,372.268524 742.518616,375.613434 743.847717,379.273743  z"
   id="path14" />
<path
   fill="#2D1D17"
   opacity="1.000000"
   stroke="none"
   d=" M656.003906,154.993668   C678.718872,167.358414 698.260803,182.673218 711.316528,205.180939   C691.844116,186.452957 670.524292,170.494431 646.366028,158.240860   C622.205261,145.986038 596.107849,140.612167 569.986023,134.961334   C600.389771,133.643188 628.857849,140.633438 656.003906,154.993668  z"
   id="path15" />
<path
   fill="#2D1D17"
   opacity="1.000000"
   stroke="none"
   d=" M717.025818,240.328033   C725.090393,249.656723 733.925720,258.235657 740.357117,268.344086   C752.957825,288.148956 761.075562,310.057129 765.144165,333.220581   C767.396240,346.042145 769.200867,359.046387 766.524414,372.087891   C765.985413,372.211731 765.446411,372.335571 764.907471,372.459381   C764.293213,369.539978 763.452820,366.647644 763.099731,363.696991   C759.555420,334.080505 751.933289,305.545959 738.662720,278.845184   C732.779297,267.007477 724.672607,256.280273 717.712341,244.964645   C716.922241,243.680115 717.022583,241.847855 717.025818,240.328033  z"
   id="path16" />
<path
   fill="#2D1D17"
   opacity="1.000000"
   stroke="none"
   d=" M639.008057,223.999100   C626.245422,215.597626 613.886597,207.224655 601.292908,199.221252   C593.315002,194.151276 584.969238,189.662018 576.839294,184.826874   C575.834839,184.229477 575.143860,183.105042 574.915771,181.467926   C620.260925,198.101456 658.582336,224.487656 689.131042,262.939911   C685.018982,264.761871 683.098267,262.326508 680.958496,260.460541   C667.083130,248.360748 653.195862,236.274643 639.008057,223.999100  z"
   id="path17" />
<path
   fill="#2C1C16"
   opacity="1.000000"
   stroke="none"
   d=" M507.820435,194.721085   C507.387787,196.782135 507.171722,198.674423 506.317261,200.211899   C492.765259,224.596069 475.193329,245.732849 453.881317,263.655731   C443.593414,272.307587 432.956848,280.608551 421.972107,288.350403   C410.985748,296.093353 399.286407,302.816254 388.044220,310.206238   C364.232422,325.858734 342.027802,343.402588 328.298340,369.059265   C322.951508,379.051086 319.994324,390.320526 315.922729,400.998138   C315.596863,401.852661 315.068756,402.630096 314.634583,403.443329   C314.159485,403.372559 313.684418,403.301788 313.209320,403.231049   C313.520630,399.675568 313.604492,396.082733 314.181122,392.570831   C317.338287,373.343628 326.151520,356.856750 338.473755,341.952942   C356.041077,320.705231 378.804626,306.201935 401.607330,291.446198   C418.577789,280.464539 434.910217,268.341064 450.621857,255.609360   C470.340424,239.630585 486.791595,220.415787 501.372101,199.613297   C502.890137,197.447510 505.588989,196.109390 507.820435,194.721085  z"
   id="path18" />
<path
   fill="#2c1c16"
   opacity="1"
   stroke="none"
   d="m 298.00183,384.72537 c -0.49622,-17.83276 2.27704,-34.75183 9.30304,-50.57837 5.86298,-13.20672 13.56876,-25.39172 23.25983,-36.41906 18.40561,-20.94355 41.63208,-35.4408 64.6344,-50.37273 25.08224,-16.28211 50.73114,-31.90434 72.26324,-52.9265 8.6329,-8.42845 15.8374,-18.32721 23.59045,-27.64128 1.10688,-1.32971 1.63795,-3.13867 2.43546,-4.72583 0.76892,0.69061 3.10839,-5.21508 3.87731,-4.52447 -3.40689,5.18098 -8.18154,17.10604 -11.82851,22.1121 -11.82758,16.23529 -25.52677,30.78328 -41.88678,42.43864 -22.05469,15.71242 -44.73059,30.5508 -66.85898,46.16253 -19.19711,13.5437 -37.79315,27.91693 -51.07919,47.78326 -11.12833,16.63989 -18.85169,34.78955 -22.70166,54.49548 -1.26538,6.47678 -2.3367,12.99146 -4.59455,19.56858 -0.13784,-1.63874 -0.27566,-3.2775 -0.41406,-5.37235 z"
   id="path19" />
<path
   fill="#2C1C16"
   opacity="1.000000"
   stroke="none"
   d=" M419.587372,146.618073   C399.014740,155.286789 380.618500,166.793228 363.756439,180.777115   C360.178467,183.744354 356.859985,187.022675 353.355499,190.081528   C352.454102,190.868286 351.300140,191.365646 349.886078,192.224350   C350.730103,184.230499 376.061829,160.850769 393.979401,150.692932   C424.116028,133.607864 456.436523,125.833076 491.013580,127.458374   C467.045135,132.787964 442.620728,136.331161 419.587372,146.618073  z"
   id="path20" />
<path
   fill="#2C1C16"
   opacity="1.000000"
   stroke="none"
   d=" M290.660339,290.770508   C296.200470,274.681366 303.571381,259.923706 314.138550,247.098709   C319.858246,240.156906 326.904114,234.307816 333.585663,228.282944   C323.752899,244.606491 312.552399,260.285645 304.472198,277.434937   C296.401947,294.563232 291.455383,313.163269 284.684601,332.411102   C282.355835,317.196350 286.748627,304.207367 290.660339,290.770508  z"
   id="path21" />
<path
   fill="#2d1d16"
   opacity="1"
   stroke="none"
   d="m 316.76569,570.7786 c 1.46682,0.69287 4.06181,2.98546 5.44065,4.10936 -4.93271,6.53492 -11.68553,11.56791 -16.56758,18.04496 -15.34204,20.35419 -25.67425,43.26898 -32.08023,67.73694 -4.28918,16.38275 -6.57696,33.30939 -5.51568,50.39893 1.34375,21.63763 4.77038,42.90289 12.12725,63.41424 1.36795,3.81403 2.33115,7.7732 3.48115,11.66541 l -1.16703,0.61157 c -1.03491,-1.33801 -2.31888,-2.55029 -3.06701,-4.03302 -9.52707,-18.88245 -16.17209,-39.41382 -17.88077,-60.6861 -1.70477,-21.22308 -0.93256,-41.38287 4.45956,-62.08911 7.10718,-27.29236 19.27625,-52.07654 36.87931,-74.10327 4.13601,-5.17535 9.04931,-10.04366 13.89038,-15.06991 z"
   id="path22" />
<path
   fill="#2d1d16"
   opacity="1"
   stroke="none"
   d="m 740.96985,574.20886 c 0.73602,-1.21319 1.58905,-2.09674 2.70904,-3.13556 11.33234,9.83844 20.37897,21.51844 28.30085,34.05744 13.50525,21.37628 22.05383,44.76837 26.28991,69.58136 2.85157,16.7027 3.21515,33.55871 1.11438,50.56366 -2.1629,17.50799 -6.61975,34.21106 -13.80169,50.22009 -1.78156,3.97125 -5.15084,8.60808 -7.40816,12.3659 l -0.61876,-1.57592 c 0.0952,-0.97034 0.0505,-1.97925 0.30634,-2.90521 4.2492,-15.37622 9.52374,-30.55195 12.52886,-46.16529 2.84314,-14.77185 4.12598,-29.98187 1.70844,-45.125 -1.95923,-12.27215 -3.10272,-24.76916 -6.2453,-36.73651 -5.26318,-20.04211 -14.0296,-38.75244 -25.87225,-55.83191 -5.94452,-8.57306 -12.57453,-16.67071 -19.01166,-25.31305 z"
   id="path23" />
<path
   fill="#3F2C25"
   opacity="1.000000"
   stroke="none"
   d=" M738.486694,917.507080   C738.477356,917.483337 738.496033,917.530762 738.486694,917.507080  z"
   id="path24" />
</g>
</svg>
