<?xml version="1.0" encoding="UTF-8" standalone="no"?>
<svg
   version="1.1"
   id="Layer_1"
   x="0px"
   y="0px"
   width="100%"
   viewBox="0 0 1028 1024"
   enable-background="new 0 0 1028 1024"
   xml:space="preserve"
   xmlns="http://www.w3.org/2000/svg"
   xmlns:svg="http://www.w3.org/2000/svg"><defs
   id="defs14" />
<g
   transform="translate(-7,-1) translate(514,512) scale(0.99) translate(-514,-512)"
   id="g14">
<path
   fill="#251613"
   opacity="1"
   stroke="none"
   d="m 725.36987,551.3053 c 16.02545,-0.61927 28.11627,-8.6388 38.81629,-18.89948 18.04547,-17.3045 27.72216,-38.48108 25.90655,-63.72687 -1.38684,-19.28451 -9.5014,-35.31317 -27.88257,-43.83468 -5.13208,-2.37924 -11.90014,-3.64615 -17.2901,-2.4921 -8.2929,1.77567 -13.88964,-1.12866 -19.03943,-6.40838 -13.6408,-13.98475 -18.5614,-30.92203 -16.38171,-50.12583 0.2392,-2.10815 0.54681,-4.20855 0.87793,-6.73385 -13.54034,1.82388 -25.98077,-0.1496 -36.1496,-9.82096 -10.08923,-9.59564 -13.02478,-21.94989 -13.06097,-35.9671 -13.698,4.55185 -27.48517,8.71002 -40.65027,0.31906 -12.91443,-8.2312 -16.15857,-21.8674 -17.76953,-36.56085 -17.11145,2.58411 -32.35559,-1.86981 -46.15839,-11.50635 -13.96924,-9.75276 -21.75769,-23.81122 -27.18994,-41.20776 -1.24658,3.17052 -1.97571,5.01114 -2.69482,6.85567 -7.99604,20.50976 -20.35343,37.10707 -42.39698,43.56691 -6.72164,1.96975 -14.32171,0.99407 -21.52383,1.23751 -1.92859,0.0652 -3.87332,-0.34817 -6.31711,-0.5924 0.64383,14.7127 -3.74988,27.21191 -14.82855,36.62332 -11.18967,9.50564 -24.10309,11.15512 -38.50629,6.38412 -0.66403,12.99488 -4.36734,24.27399 -13.93417,32.80454 -9.57526,8.53808 -21.24707,10.98724 -34.32001,10.64013 0.45929,3.97852 0.85511,7.52015 1.27875,11.05848 2.42133,20.22259 -9.60614,42.31634 -27.58664,50.42242 -1.49618,0.6745 -3.53979,1.11163 -5.03287,0.66617 -16.37423,-4.88513 -30.75927,-0.42972 -41.08047,13.20804 -12.80325,16.91751 -15.08756,36.09253 -9.51956,55.81015 7.71795,27.3313 24.90933,46.80969 52.07226,56.5346 4.30381,1.54084 9.05478,2.07624 13.65113,2.47315 3.18954,0.27545 4.34429,1.39728 5.31015,4.49579 7.89532,25.32885 18.87713,49.16455 35.99667,69.70386 14.69617,17.63183 32.19846,32.24096 51.00616,45.26129 3.31772,2.29681 5.241,4.88617 5.60855,8.64306 0.9198,9.40198 1.74631,18.81519 2.40607,28.23822 0.10452,1.49311 -0.38827,3.52295 -1.38711,4.52448 -15.68448,15.72723 -42.27967,17.57214 -60.44394,4.17053 -3.18558,-2.35028 -6.48404,-4.97076 -8.63385,-8.19714 -2.83823,-4.25946 -4.78748,-2.72449 -7.89402,-0.56763 -5.53952,3.84601 -11.10022,7.99078 -17.25799,10.55621 -19.36984,8.07001 -40.30222,-2.7622 -49.72214,-16.1355 -2.64383,-3.75341 -5.19086,-7.78582 -6.69321,-12.07208 -1.44339,-4.11804 -2.80267,-5.19726 -7.32135,-4.07208 -20.31216,5.05768 -37.73391,-0.43323 -50.60228,-16.91492 -12.36174,-15.83276 -14.05775,-33.95196 -7.46754,-52.70642 1.50084,-4.27118 0.9429,-5.9367 -3.24313,-7.82532 -39.79868,-17.95587 -53.88811,-70.33837 -20.87302,-107.33712 2.60832,-2.9231 2.38136,-4.50852 -0.36273,-6.78693 -13.32697,-11.06506 -21.90029,-25.14987 -25.41942,-42.05487 -6.5063,-31.25436 8.2623,-63.44806 36.26399,-79.04376 3.93596,-2.19217 4.3608,-3.98078 2.35636,-7.68204 -15.87535,-29.31461 -10.53554,-63.23553 13.66174,-86.04126 9.70016,-9.1423 21.28613,-15.10501 34.16928,-18.53073 2.86829,-0.7627 5.72989,-1.55051 8.52353,-2.30753 0,-8.74121 -0.75717,-17.39143 0.12836,-25.87007 4.31448,-41.30971 34.44424,-78.22883 78.42355,-84.74403 9.63058,-1.42671 19.53918,-1.3121 29.31433,-1.23285 3.1181,0.0253 4.40131,-0.88559 5.65613,-3.26939 10.88809,-20.68418 27.31344,-35.46716 49.23535,-43.21242 27.65363,-9.770342 54.63361,-6.831644 80.15515,7.59475 3.94599,2.23053 6.2522,2.30128 9.97931,-0.59747 26.7937,-20.838873 55.79236,-25.956472 87.07886,-10.809385 10.99438,5.322835 19.77606,13.547055 26.66009,23.512665 2.86835,4.15227 5.43671,4.70604 9.80066,2.92686 28.21887,-11.50471 57.79364,-5.01813 78.0307,17.60801 10.99018,12.28758 17.34864,27.04727 19.13019,43.49063 0.51563,4.75895 1.74957,6.28425 6.90741,6.11963 39.07227,-1.24718 68.81506,32.33331 63.55957,71.42552 -0.79022,5.87774 -1.86658,11.71704 -2.56262,16.03549 10.28717,5.27624 20.43439,8.94376 28.79272,15.05704 24.64801,18.02758 32.46387,49.40765 20.55945,77.95382 -4.83258,11.58826 -4.49298,11.14695 5.29956,18.681 22.04651,16.9618 31.75952,39.84156 29.96094,67.41248 -1.06183,16.27795 -6.51056,31.09878 -17.70312,43.35733 -1.85523,2.03183 -1.78193,3.28558 -0.15113,5.42554 7.31305,9.59616 12.61951,20.13345 15.01325,32.11404 5.61358,28.09558 -10.75501,59.74286 -37.16785,70.74158 -4.87128,2.02844 -5.67273,3.99237 -4.22345,9.12048 8.00592,28.32929 -6.94098,64.10187 -35.69812,72.5744 -10.56042,3.11139 -20.59113,2.03717 -30.55286,-2.00537 -1.22863,-0.49866 -2.4375,-1.05084 -3.68426,-1.49798 -0.44135,-0.15833 -0.96857,-0.077 -1.35407,-0.0992 -2.32135,4.83918 -4.16253,9.85077 -6.94091,14.27375 -15.15693,24.12927 -43.99219,29.20074 -66.86786,11.96289 -1.06006,-0.79889 -2.13416,-1.58759 -3.12641,-2.46613 -2.28778,-2.02588 -4.23468,-1.55542 -5.86236,0.7909 -14.9942,21.61456 -45.76062,25.37518 -67.40131,8.64593 -3.65619,-2.82642 -5.1322,-5.29059 -4.86932,-9.69281 0.58453,-9.78809 0.83868,-19.59772 1.11438,-29.40173 0.12585,-4.47345 2.02423,-7.26075 5.90539,-9.87049 34.28675,-23.05572 62.45563,-51.56952 78.61469,-90.40356 2.91076,-6.99536 5.50439,-14.16712 7.5979,-21.44336 1.48511,-5.16162 3.7193,-8.53503 9.97784,-8.25427"
   id="path1" />
<path
   fill="#5C3D29"
   opacity="1.000000"
   stroke="none"
   d=" M822.679993,578.502014   C829.095886,593.410767 827.631897,607.627563 821.546082,621.915894   C814.127686,639.333069 794.055176,649.417603 774.559998,645.640564   C771.355225,645.019714 767.435181,643.998291 768.477661,639.388489   C769.392029,635.345093 772.341614,635.198425 776.276978,635.695679   C787.889587,637.163208 799.140015,636.102295 807.166443,626.056763   C816.890625,613.886414 820.222534,600.201050 814.422241,585.381470   C812.221191,579.757751 808.141113,574.889526 805.172363,569.535645   C804.127319,567.650940 802.981262,565.101257 803.487122,563.308228   C803.884888,561.898743 806.636414,560.772156 808.542969,560.244080   C813.471497,558.879089 818.777161,558.571655 823.459534,556.674988   C842.458679,548.979309 845.826965,523.893616 829.747314,510.944275   C826.915588,508.663757 823.546082,507.055206 820.684631,504.805939   C818.879822,503.387207 816.214661,501.238190 816.354187,499.626099   C816.534485,497.542938 818.873779,495.372650 820.738159,493.768188   C824.244995,490.750366 828.724731,488.661926 831.658264,485.215271   C842.181702,472.851227 840.271912,456.485016 827.337585,446.055237   C824.640991,443.880768 822.494141,441.467224 825.085022,438.800812   C826.384094,437.463867 830.528442,437.361877 832.448303,438.413391   C842.702637,444.029877 846.729248,453.628601 848.005249,464.745026   C849.664307,479.199219 842.170593,489.460175 832.066650,499.236786   C844.106934,509.701263 852.221252,522.104492 849.171753,539.005798   C846.073059,556.179749 834.485657,565.074524 818.125488,569.708496   C819.667908,572.660767 821.100952,575.403809 822.679993,578.502014  z"
   id="path2" />
<path
   fill="#5B3D29"
   opacity="1.000000"
   stroke="none"
   d=" M691.588501,303.375916   C685.104919,295.402527 683.670044,286.426788 684.491028,276.191345   C655.114441,280.781281 638.989258,267.411133 634.076355,238.612381   C633.229858,238.862900 632.155823,239.108032 631.134827,239.493790   C615.763672,245.301849 600.634277,245.129242 586.687988,235.994644   C572.771423,226.879578 566.473938,213.001328 565.221558,196.742569   C564.964844,193.410187 566.302551,190.200623 570.376953,190.089050   C574.419983,189.978333 574.899231,192.954071 575.110352,196.270004   C576.426514,216.935532 587.914185,229.968842 608.218140,233.478546   C618.207581,235.205292 626.671448,230.899460 634.890503,225.800003   C637.061340,224.453094 640.361328,223.151947 642.372559,223.900253   C643.899048,224.468201 644.530457,228.263336 644.959473,230.727081   C645.381897,233.153091 645.136353,235.714417 645.032471,238.210083   C644.160950,259.140808 664.308777,272.252991 685.085999,265.573975   C688.034241,264.626221 691.299316,264.664429 694.417786,264.246338   C694.618530,267.539795 695.493896,270.961456 694.896851,274.103302   C692.890808,284.658844 694.432739,294.036285 702.816345,301.374084   C711.419312,308.903809 721.274292,309.776764 731.787598,306.098450   C732.258484,305.933746 732.693909,305.654266 733.172058,305.526093   C736.060181,304.751984 738.871521,304.354065 740.360718,307.842529   C741.866211,311.368896 739.703979,313.023560 736.971069,314.469910   C722.039185,322.372223 702.802124,317.790527 691.588501,303.375916  z"
   id="path3" />
<path
   fill="#5B3D29"
   opacity="1.000000"
   stroke="none"
   d=" M381.949402,292.785095   C374.684052,314.180939 352.180267,324.111359 332.150909,314.933624   C330.224243,314.050842 327.942719,312.277466 327.372009,310.437897   C326.080627,306.275330 330.442047,303.798828 335.469299,305.850342   C343.487366,309.122284 351.449005,308.961151 359.201416,305.415405   C369.219757,300.833252 375.658112,287.664337 373.636261,276.635132   C373.336426,274.999634 372.728973,273.368042 372.745270,271.739471   C372.768616,269.403473 372.423889,266.023071 373.726440,265.016144   C375.200562,263.876587 378.500458,264.316010 380.697510,265.025482   C392.311127,268.775726 402.849243,266.873535 410.547943,257.504639   C414.075104,253.212280 415.358917,246.811020 416.774384,241.144897   C417.675385,237.538132 416.735382,233.507507 417.047577,229.701935   C417.196533,227.886047 417.956329,225.032410 419.118561,224.634995   C420.998657,223.992142 423.840088,224.338257 425.571198,225.407318   C432.027191,229.394211 438.655853,232.295547 446.350006,233.229385   C462.567261,235.197662 476.158417,225.651688 481.303833,215.128021   C483.783905,210.055649 484.566742,204.145233 486.040070,198.593552   C486.505890,196.838348 486.211761,194.643127 487.182220,193.323456   C488.274933,191.837540 490.543365,190.124115 492.040894,190.336807   C493.523560,190.547409 495.715271,192.960510 495.829071,194.535202   C497.516632,217.893448 479.652527,242.280914 454.382477,242.791229   C445.596680,242.968658 436.764404,240.846939 427.454163,239.714569   C427.162231,241.261093 426.607452,243.943863 426.154175,246.643692   C423.549835,262.154449 410.204041,277.695099 390.428040,276.081055   C389.102753,275.972931 387.764679,276.024475 386.432770,275.993195   C383.826019,275.931946 383.268188,277.057404 383.291199,279.704590   C383.328003,283.933441 382.516235,288.169678 381.949402,292.785095  z"
   id="path4" />
<path
   fill="#5B3C29"
   opacity="1.000000"
   stroke="none"
   d=" M702.385498,199.725418   C696.651306,175.642181 675.284363,173.658188 661.354919,183.034729   C660.249817,183.778595 659.185181,184.610062 658.004700,185.209732   C652.852478,187.827026 649.436768,185.543320 648.913025,179.787140   C648.467651,174.891327 648.216248,169.617371 646.199646,165.294022   C640.614319,153.319366 626.571960,149.640182 615.365234,157.667160   C606.783142,163.814209 604.210144,162.954071 601.239136,152.291306   C597.666260,139.467972 588.169312,133.122818 575.844543,131.364410   C565.025146,129.820770 556.089844,134.518356 549.291504,143.050507   C547.036255,145.880875 544.208557,147.370255 541.114380,145.110382   C537.870605,142.741226 539.528198,139.893051 541.447327,137.307571   C553.440308,121.150345 576.749939,116.018120 593.536865,127.176140   C599.749023,131.305283 603.961304,138.554169 608.756836,144.639404   C610.306213,146.605484 610.982483,148.637634 614.038635,146.979050   C629.588257,138.540192 655.902954,149.045547 658.435669,169.649307   C658.552673,170.601135 659.089722,171.501312 659.375488,172.274826   C664.191101,171.094772 668.749512,169.751648 673.396118,168.878647   C692.483032,165.292648 709.941650,180.116714 711.939453,199.588760   C712.074097,200.901505 712.377258,202.609695 711.730225,203.501160   C710.504700,205.189575 708.808228,207.134186 706.984497,207.547455   C706.019104,207.766235 704.190796,205.114563 703.110657,203.516418   C702.520874,202.643875 702.679260,201.265717 702.385498,199.725418  z"
   id="path5" />
<path
   fill="#5A3C29"
   opacity="1.000000"
   stroke="none"
   d=" M357.932007,223.816895   C357.841339,227.573898 355.843140,229.567047 352.854553,228.754333   C350.977509,228.243896 348.688873,225.976440 348.212585,224.086960   C342.971588,203.295151 355.336273,174.135071 385.472687,170.199646   C392.874512,169.233047 400.510040,170.055557 407.942566,170.055557   C410.131378,164.197769 412.215637,157.038605 415.411041,150.415527   C421.083435,138.658615 431.662994,133.622116 443.978760,132.185349   C453.380676,131.088486 462.589081,132.073502 470.756104,137.779739   C473.679565,139.822327 475.028503,142.234573 473.128998,145.337158   C471.272461,148.369553 468.478394,147.866776 465.712524,146.287689   C458.134369,141.961151 450.289246,139.460663 441.384186,141.836395   C427.009369,145.671356 416.837616,161.302811 419.081696,175.999481   C419.484955,178.640503 419.230164,183.218140 417.835815,183.885391   C415.497620,185.004303 411.735321,184.360703 409.038849,183.287018   C401.340210,180.221634 393.531677,177.688568 385.278534,179.466125   C368.401306,183.101089 352.168549,200.413361 357.932007,223.816895  z"
   id="path6" />
<path
   fill="#5C3E2A"
   opacity="1.000000"
   stroke="none"
   d=" M280.984619,288.260681   C286.920380,272.466431 299.492096,266.855438 314.557526,265.150330   C316.907227,264.884369 319.765564,265.439331 321.735413,266.664795   C323.281738,267.626801 325.062836,270.813843 324.518890,271.933990   C323.666046,273.690308 320.866577,275.700836 319.020447,275.583099   C305.840057,274.742584 296.850616,279.267944 290.909454,290.940643   C287.508514,297.622528 288.493103,304.599640 291.313568,311.215912   C292.866119,314.857880 295.143921,318.203339 297.218414,321.607117   C300.192261,326.486481 298.360901,330.764893 292.598083,330.969635   C281.783447,331.353760 274.167419,337.109009 267.840973,344.996399   C258.846222,356.210480 262.342224,376.452972 274.615143,385.658356   C275.542999,386.354279 277.034241,386.922638 277.261871,387.807892   C277.866211,390.158020 277.921783,392.649261 278.195648,395.084351   C275.937103,395.332672 273.135132,396.567017 271.507751,395.670135   C260.512146,389.610168 255.185654,379.382874 253.014832,367.561432   C249.329163,347.490845 261.812927,329.758240 278.851013,323.780457   C280.393433,323.239288 281.831329,322.400360 283.928802,321.411682   C277.971802,310.817383 277.299194,299.878326 280.984619,288.260681  z"
   id="path7" />
<path
   fill="#5B3D29"
   opacity="1.000000"
   stroke="none"
   d=" M748.177246,270.440796   C750.097595,269.094360 751.884827,267.410095 753.763367,267.301117   C769.402771,266.393707 785.325134,276.547729 791.597290,290.966644   C797.205383,303.858978 794.207275,315.955078 788.439819,327.834198   C787.800659,329.150696 786.981995,330.380096 786.210022,331.713013   C790.578186,334.545013 794.847351,337.001129 798.777161,339.914948   C814.991577,351.937500 815.180542,379.644348 799.173340,391.856476   C796.285828,394.059357 793.349854,396.433929 790.047363,397.762054   C788.299255,398.465027 784.737305,397.826508 783.721802,396.485443   C781.917786,394.103180 782.780701,391.240082 785.574829,389.200256   C789.430054,386.385773 793.843567,383.879608 796.678589,380.207397   C806.334290,367.700470 800.686829,349.146881 785.664917,342.897217   C782.457581,341.562866 778.956299,340.950409 775.695496,339.725708   C771.651001,338.206757 770.691650,334.961670 773.162842,331.385529   C775.237732,328.382965 777.817932,325.700775 779.669800,322.577545   C792.211853,301.425537 779.266602,277.806183 754.698669,277.058350   C750.308472,276.924683 747.444763,275.942230 748.177246,270.440796  z"
   id="path8" />
<path
   fill="#5A3C29"
   opacity="1.000000"
   stroke="none"
   d=" M227.490021,508.351868   C230.643326,506.425171 233.831268,504.746277 235.886398,508.713837   C237.838379,512.482178 234.829514,514.733337 232.187714,516.894714   C216.287033,529.903748 216.869537,552.467957 234.186874,562.131836   C239.857330,565.296265 247.162827,565.872925 253.836304,566.800354   C260.377716,567.709412 262.049255,570.139832 258.308228,575.866699   C254.966278,580.982666 254.123871,586.426025 253.803192,592.408813   C253.201385,603.636047 264.453400,612.326416 273.096069,613.085327   C275.151337,613.265747 277.516785,613.809631 279.017853,615.055664   C280.043060,615.906799 280.455811,618.493591 279.962738,619.886963   C279.497284,621.202454 277.579285,622.693176 276.147034,622.870605   C261.640747,624.668396 244.341248,609.607300 244.066925,594.810059   C243.957291,588.896545 244.760040,582.966064 245.193924,576.333496   C243.965836,575.957520 242.138916,575.318359 240.271088,574.838623   C221.405029,569.992432 210.131729,555.997009 211.139343,537.788391   C211.810181,525.665466 217.476410,515.903748 227.490021,508.351868  z"
   id="path9" />
<path
   fill="#5B3D29"
   opacity="1.000000"
   stroke="none"
   d=" M240.504150,426.035614   C244.438416,426.020416 247.933594,425.909485 251.416245,426.070068   C254.983643,426.234589 256.406677,428.479095 255.976868,431.812683   C255.555481,435.080811 253.550903,435.984894 250.289093,435.693909   C241.780045,434.934845 233.868668,436.618958 228.893631,444.264435   C223.991302,451.798157 225.001968,459.743652 229.014908,467.426331   C229.775833,468.883087 231.444733,470.044647 231.731888,471.528748   C232.187119,473.881500 232.808228,477.197235 231.603714,478.658752   C229.424316,481.303101 225.841049,479.990570 224.363861,477.499298   C221.205978,472.173523 217.308426,466.648071 216.352081,460.774841   C213.482941,443.154236 222.602509,430.574097 240.504150,426.035614  z"
   id="path10" />
<path
   fill="#5B3D29"
   opacity="1.000000"
   stroke="none"
   d=" M707.181274,676.637024   C707.494690,678.369629 708.300049,679.911316 707.867859,680.925781   C706.985535,682.996826 705.729614,685.922180 704.075562,686.347290   C702.613403,686.723022 699.234192,684.552185 698.702759,682.872437   C693.612000,666.782715 701.568848,649.577942 719.644104,645.082642   C726.136475,643.467896 732.482544,644.492004 738.616455,646.896667   C741.456543,648.010193 743.802429,649.902100 742.547241,653.305725   C741.290039,656.715210 738.688599,657.168701 735.235840,655.954529   C719.118042,650.286682 706.792236,659.236267 707.181274,676.637024  z"
   id="path11" />
<path
   fill="#5A3C29"
   opacity="1.000000"
   stroke="none"
   d=" M354.938171,640.010254   C366.492401,650.895935 368.880096,664.563416 361.684937,677.682617   C360.744751,679.396912 359.594696,681.416565 357.998169,682.237427   C356.249268,683.136658 353.169891,683.706543 351.962006,682.764282   C350.755249,681.822693 350.472900,678.647888 350.985504,676.781860   C351.890381,673.487732 354.203064,670.571716 355.051910,667.272400   C358.031311,655.691711 351.495453,646.007751 339.668213,643.945068   C338.360657,643.717041 337.065430,643.386169 335.749268,643.245972   C333.025574,642.955933 330.193634,642.075378 331.287781,638.880798   C331.967438,636.896545 334.512085,634.493713 336.498230,634.206787   C343.238037,633.232971 349.100403,636.243774 354.938171,640.010254  z"
   id="path12" />
<path
   fill="#5A3C29"
   opacity="1.000000"
   stroke="none"
   d=" M771.741699,599.722900   C765.954956,605.430786 759.128296,608.292419 751.645020,609.784485   C750.519714,610.008789 749.295898,610.054993 748.165527,609.877808   C745.066223,609.391846 741.940796,608.471252 742.199890,604.550842   C742.430664,601.058594 745.095215,599.966492 748.287537,600.067261   C760.822510,600.463074 768.289307,591.233887 769.252441,582.052063   C769.695618,577.826965 768.041565,573.349915 767.143677,569.027527   C766.561218,566.223328 764.224854,562.986450 768.340759,561.321106   C772.020264,559.832397 774.674377,561.568665 776.147583,565.315735   C780.927124,577.472656 780.861389,588.994080 771.741699,599.722900  z"
   id="path13" />
<path
   fill="#5A3C29"
   opacity="1.000000"
   stroke="none"
   d=" M315.971069,580.149780   C321.743713,590.585571 321.232849,600.519775 315.306244,610.304443   C313.513519,613.264221 311.478394,616.454407 307.502838,614.231934   C303.534882,612.013855 304.824219,608.672729 306.889465,605.671021   C314.414581,594.733582 308.325226,577.317932 293.386780,575.581299   C292.235107,575.447388 290.817474,575.498535 290.022552,574.851013   C288.526581,573.632446 286.171539,571.725952 286.403931,570.544006   C286.736908,568.850525 288.975555,566.399963 290.564026,566.269958   C300.390472,565.465271 308.439301,569.058105 314.162933,577.313599   C314.731720,578.134033 315.258636,578.983398 315.971069,580.149780  z"
   id="path14" />
</g>
</svg>
