<svg xmlns="http://www.w3.org/2000/svg" viewBox="0 0 748 736">
  <path fill="#815643" opacity="1" stroke="none" d="m 378.59048,409.52707 c 8.93702,-1.81049 17.74006,-3.36832 26.09812,-7.18503 1.07413,-0.49051 4.5925,1.35126 4.57934,2.0686 -0.0389,2.11914 -0.70422,5.38263 -2.16082,6.10312 -4.36216,2.1575 -9.12015,3.78257 -13.89789,4.78492 -19.41413,4.07293 -38.71805,3.46606 -57.77149,-2.29761 -1.40939,-0.42636 -2.71066,-1.19962 -4.08371,-1.7587 -2.97509,-1.21146 -5.58953,-2.58453 -3.78088,-6.56345 1.76761,-3.88864 4.53354,-2.79608 7.50912,-1.72702 5.24912,1.8859 11.15173,3.67936 16.49469,5.27527 0.35798,0.10693 13.23488,4.09122 27.01352,1.2999 z" id="path70"/>
</svg>
