<svg xmlns="http://www.w3.org/2000/svg" viewBox="0 0 1024 1024">
  <path fill="#AA482C" opacity="1.000000" stroke="none" d=" M541.393250,633.936646   C525.122925,635.976196 509.533417,635.279236 494.367371,629.536621   C480.126007,624.144043 468.408020,615.711060 460.256592,602.223145   C459.546204,598.932007 456.243073,595.608887 459.699127,592.883362   C461.844940,591.191162 465.014465,590.000488 467.742645,589.964722   C500.184448,589.538208 532.629517,589.258606 565.073975,589.226807   C571.998657,589.220032 578.952332,590.159851 585.829773,591.115967   C587.530579,591.352417 588.985352,593.358459 590.874756,595.103027   C591.198242,596.130737 591.200195,596.606506 590.913940,597.285156   C588.788452,601.337097 586.951111,605.186096 584.800415,609.162842   C581.222778,612.789856 577.958496,616.289246 574.694214,619.788635   C564.703979,626.773071 553.565002,631.079102 541.393250,633.936646  M547.500000,598.978149   C522.487122,598.978149 497.474213,598.978149 471.879547,598.978149   C485.228485,619.128906 515.755005,629.174866 542.213257,622.568481   C556.369934,619.033752 568.814819,612.704651 577.827087,598.984985   C567.127136,598.984985 557.813538,598.984985 547.500000,598.978149  z"/>
  <path fill="#FCF9F6" opacity="1.000000" stroke="none" d=" M548.000000,598.981567   C557.813538,598.984985 567.127136,598.984985 577.827087,598.984985   C568.814819,612.704651 556.369934,619.033752 542.213257,622.568481   C515.755005,629.174866 485.228485,619.128906 471.879547,598.978149   C497.474213,598.978149 522.487122,598.978149 548.000000,598.981567  z"/>
</svg>
