<svg xmlns="http://www.w3.org/2000/svg" viewBox="0 0 1024 1024">
  <path fill="#924C2F" opacity="1.000000" stroke="none" d=" M478.828796,587.211792   C501.332886,591.481934 523.571655,592.315857 545.818420,589.325745   C557.631897,587.737915 569.295959,585.012451 581.005127,582.687683   C585.704346,581.754578 588.900635,582.997559 589.741516,586.710632   C590.714478,591.006653 588.293213,593.665894 584.525146,594.425598   C571.032837,597.145935 557.551697,600.227844 543.908142,601.799377   C532.051636,603.165161 519.966492,603.202576 508.008301,602.876587   C490.010681,602.385864 472.317657,599.289490 454.976044,594.398254   C449.778717,592.932373 447.946655,590.183655 449.071625,586.237915   C450.134979,582.508240 453.354553,581.225464 458.523499,582.445984   C465.150024,584.010498 471.780334,585.558777 478.828796,587.211792  z"/>
  <path fill="#CB7D5D" opacity="1.000000" stroke="none" d=" M534.788574,638.923462   C523.990784,638.923157 513.664795,638.967590 503.339783,638.883423   C501.206116,638.865967 499.036438,638.541687 496.953857,638.056213   C493.514771,637.254517 492.189697,634.461731 493.248810,631.591125   C493.930695,629.742981 496.482605,627.375427 498.250977,627.329163   C512.231140,626.963257 526.229187,626.918396 540.208069,627.290894   C542.147766,627.342590 544.803955,629.856079 545.720520,631.870483   C546.999878,634.682190 545.048340,637.028931 542.078735,637.833740   C539.869873,638.432251 537.537781,638.576233 534.788574,638.923462  z"/>
</svg>
