<svg xmlns="http://www.w3.org/2000/svg" viewBox="0 0 1024 1024">
  <path fill="#8C4126" opacity="1.000000" stroke="none" transform="translate(0 60)" d=" M563.845459,538.977112   C545.468079,546.234680 526.819519,550.373047 507.403137,550.019226   C494.985748,549.792908 482.583344,548.765442 470.173065,548.119629   C466.761322,547.942139 463.727234,546.317932 464.226959,542.928284   C464.752563,539.362915 467.727509,538.998779 471.563904,539.564697   C503.919189,544.337524 535.629578,542.903076 565.602722,528.064087   C569.578430,526.095825 573.051270,523.107117 577.036743,521.165100   C578.778381,520.316467 581.225037,520.914917 583.351562,520.856140   C582.975159,523.068909 583.387634,526.344604 582.085938,527.310730   C576.400574,531.530518 570.217712,535.079895 563.845459,538.977112  z"/>
  <path fill="#C97551" opacity="1.000000" stroke="none" transform="translate(0 60)" d=" M585.460510,501.519501   C597.882751,502.246246 607.052368,513.997986 606.833374,523.527344   C606.790894,525.374573 604.783997,528.273865 603.125122,528.752136   C599.930908,529.673096 599.271606,526.789795 598.938232,524.096375   C597.986206,516.405762 593.721558,511.513855 586.326233,509.092804   C584.847900,508.608856 583.010071,507.070801 582.731384,505.729340   C582.491699,504.575348 584.239685,503.008453 585.460510,501.519501  z"/>
</svg>
