<svg xmlns="http://www.w3.org/2000/svg" viewBox="0 0 1024 1024">
  <path fill="#953D28" opacity="1.000000" stroke="none" d=" M472.038330,639.011658   C459.045502,629.838379 450.921783,617.193115 446.449463,602.183167   C445.601135,599.336121 446.625610,595.931091 446.785950,592.783569   C449.871613,593.212158 452.957306,593.640747 456.399261,594.675537   C456.829346,596.979980 456.903229,598.678284 456.566559,600.298218   C455.687836,601.079407 454.806000,601.943665 454.816132,602.797363   C454.906677,610.440308 459.529755,614.815369 465.940338,617.858276   C478.239502,623.696411 491.272156,626.620667 504.783295,627.512512   C523.273132,628.732910 541.677429,628.229431 559.451782,622.400391   C565.360168,620.462830 571.109741,617.565002 576.350952,614.200989   C581.753235,610.733582 583.387024,604.104370 581.005859,599.462402   C581.014587,597.379456 581.028687,595.713196 581.042847,594.046936   C584.146912,593.613281 587.250916,593.179626 590.354980,592.745972   C590.366943,595.916687 591.095276,599.288513 590.270691,602.224304   C586.023438,617.346191 577.857239,629.906494 564.135620,639.014893   C558.970215,637.332092 554.602966,634.800293 549.971191,634.148926   C540.884644,632.870972 531.657227,632.526001 522.475830,632.015381   C516.218018,631.667297 509.940033,631.623047 503.669983,631.567932   C492.530121,631.470093 482.122955,634.577576 472.038330,639.011658  z"/>
  <path fill="#C0795F" opacity="1.000000" stroke="none" d=" M580.648987,594.040283   C581.028687,595.713196 581.014587,597.379456 580.759399,599.731323   C580.072693,600.633301 579.642761,600.893066 579.179443,601.059753   C549.301575,611.808960 518.598267,613.615540 487.515991,608.556396   C477.166748,606.871887 467.147308,603.161072 456.977112,600.376526   C456.903229,598.678284 456.829346,596.979980 456.713074,594.868652   C464.853638,596.434631 472.970612,598.761902 481.232025,600.327026   C505.368164,604.899475 529.603455,605.612366 553.776611,600.648865   C562.680176,598.820679 571.433350,596.260193 580.648987,594.040283  z"/>
  <path fill="#EFEAE7" opacity="1.000000" stroke="none" d=" M456.566559,600.298218   C467.147308,603.161072 477.166748,606.871887 487.515991,608.556396   C518.598267,613.615540 549.301575,611.808960 579.179443,601.059753   C579.642761,600.893066 580.072693,600.633301 580.764771,600.148071   C583.387024,604.104370 581.753235,610.733582 576.350952,614.200989   C571.109741,617.565002 565.360168,620.462830 559.451782,622.400391   C541.677429,628.229431 523.273132,628.732910 504.783295,627.512512   C491.272156,626.620667 478.239502,623.696411 465.940338,617.858276   C459.529755,614.815369 454.906677,610.440308 454.816132,602.797363   C454.806000,601.943665 455.687836,601.079407 456.566559,600.298218  z"/>
  <path fill="#D26042" opacity="1.000000" stroke="none" d=" M472.246460,639.273254   C482.122955,634.577576 492.530121,631.470093 503.669983,631.567932   C509.940033,631.623047 516.218018,631.667297 522.475830,632.015381   C531.657227,632.526001 540.884644,632.870972 549.971191,634.148926   C554.602966,634.800293 558.970215,637.332092 563.818542,639.145142   C551.023010,649.015564 535.868591,653.048218 519.885559,653.672668   C504.453186,654.275513 490.061249,649.854126 476.714386,642.101013   C475.281219,641.268433 473.873932,640.391296 472.246460,639.273254  z"/>
</svg>
