<svg xmlns="http://www.w3.org/2000/svg" viewBox="0 0 1024 1024">
  <path fill="#C57858" opacity="1.000000" stroke="none" d=" M485.133118,512.239624   C487.805267,494.400940 490.440460,477.004578 493.079346,459.608826   C494.323792,451.405304 495.400604,443.171082 496.885223,435.011139   C497.874359,429.574463 500.090149,428.071106 504.660400,429.036438   C509.442322,430.046417 509.218872,433.858551 508.749359,437.344269   C507.197479,448.864380 505.422089,460.354401 503.736420,471.856506   C501.497589,487.133057 499.146729,502.395294 497.179016,517.706726   C496.945679,519.522339 498.276398,522.392029 499.799622,523.442078   C509.755554,530.304993 520.374817,532.593994 531.746094,526.748962   C534.114807,525.531311 536.511353,524.360413 538.941467,523.271545   C542.441895,521.702881 545.741150,522.078064 547.452454,525.727661   C549.028687,529.089294 548.136536,532.407959 544.734497,534.370789   C532.924316,541.185059 520.432495,544.582520 506.966858,540.305664   C501.944153,538.710266 497.117035,536.291565 492.478973,533.742065   C485.795288,530.068176 482.621674,524.512939 484.796997,516.655396   C485.144653,515.399475 485.009552,514.009949 485.133118,512.239624  z"/>
</svg>
