<svg xmlns="http://www.w3.org/2000/svg" viewBox="0 0 1024 1024">
<g transform="translate(8, 100)">
<path fill="#E08A5B" opacity="1.000000" stroke="none" d=" M543.015869,415.561493   C537.770996,413.703705 533.791870,414.626648 529.305420,418.788300   C518.916870,428.424713 508.149048,428.293457 496.812561,419.149933   C492.525574,415.692200 488.320251,413.586273 482.486755,416.036316   C485.211639,401.080536 488.190369,386.039673 491.520996,371.077179   C493.311035,363.035583 495.663818,355.117004 497.870087,347.172760   C498.205963,345.963379 498.886719,344.640686 499.812866,343.836884   C508.403229,336.380951 524.008057,341.348816 527.078369,352.255005   C531.247986,367.066132 535.909668,381.741028 539.924622,396.592163   C541.551392,402.609863 542.030457,408.937836 543.015869,415.561493  z" id="path40"/>
<path fill="#A35036" opacity="1.000000" stroke="none" d=" M543.000000,415.998352   C544.084229,421.589447 540.155579,424.815430 536.986389,428.791595   C535.305664,429.522461 533.485168,429.531433 532.252502,430.387115   C520.510437,438.538300 508.621124,439.109741 496.329132,431.654755   C494.403870,430.487091 492.098663,429.945923 489.604309,429.135742   C485.521301,425.835541 481.755920,422.542419 482.447266,416.433167   C488.320251,413.586273 492.525574,415.692200 496.812561,419.149933   C508.149048,428.293457 518.916870,428.424713 529.305420,418.788300   C533.791870,414.626648 537.770996,413.703705 543.000000,415.998352  z" id="path31"/>
</g>
</svg>
