<svg xmlns="http://www.w3.org/2000/svg" viewBox="0 0 1024 1024">
  <path fill="#CD7C56" opacity="1.000000" stroke="none" transform="translate(8 30)" d=" M492.112152,429.247894   C493.289062,421.156921 494.563416,413.519897 495.394226,405.834900   C495.760376,402.448425 497.290100,400.248322 500.405884,400.395447   C501.367126,400.440796 503.054260,403.940704 502.894806,405.723450   C502.084991,414.778625 500.767731,423.788086 499.646820,432.815857   C498.097107,445.296844 496.554352,457.778687 495.030884,470.262909   C494.649658,473.386871 494.112701,476.517944 494.070038,479.651489   C493.990784,485.477570 496.268311,488.564697 501.674774,490.437744   C511.214508,493.742737 520.318054,492.709686 529.330688,488.191986   C531.226990,487.241394 535.210083,487.315857 536.308777,488.583984   C538.412781,491.012390 536.422546,493.329498 533.710693,494.785522   C518.702881,502.843353 502.057098,504.429138 490.134460,491.122864   C486.183990,486.713928 485.469574,481.489197 486.159515,475.934143   C488.075073,460.511810 490.067352,445.098969 492.112152,429.247894  z"/>
</svg>
