<?xml version="1.0" encoding="UTF-8"?>
<svg xmlns="http://www.w3.org/2000/svg" viewBox="0 0 50 30">
  <path
    id="mouth-01"
    fill="#36322f"
    stroke="none"
    stroke-width="0.264583"
    d="m 14.387301,10.756221 c 7.538708,5.043701 17.919398,4.953058 24.797208,-0.200877 0.83897,-0.6286741 1.59331,-1.3877211 2.31099,-2.1571511 1.37798,-1.477349 2.995,-1.703951 4.29019,-0.528005 1.21978,1.107474 1.1521,2.9182831 -0.19026,4.3409661 -4.10119,4.346651 -9.20711,6.762959 -15.0705,7.476206 -8.26975,1.005949 -15.746275,-0.864465 -22.0139496,-6.622608 -0.420597,-0.38641 -0.826039,-0.799353 -1.180063,-1.246274 -0.961826,-1.214202 -0.855302,-2.8532171 0.214451,-3.8218111 1.095613,-0.992011 2.7007946,-0.985486 3.8427866,0.03716 0.98245,0.879776 1.946256,1.780349 2.999147,2.7223961 z"
  />
</svg>
