<?xml version="1.0" encoding="UTF-8"?>
<svg xmlns="http://www.w3.org/2000/svg" viewBox="0 0 1024 1024">
  <g id="mouth-03">
    <path
      id="mouth-03-dark"
      fill="#36302C"
      stroke="none"
      d=" M454.128448,673.873596   C438.522736,661.960022 429.731598,645.980225 427.135773,626.770691   C425.814514,616.993225 430.793976,611.808289 440.623230,610.876587   C442.112762,610.735474 443.615112,610.669922 445.111542,610.669739   C487.909790,610.663269 530.708069,610.664551 573.506287,610.689392   C575.665344,610.690613 577.861145,610.702881 579.976562,611.072327   C587.522095,612.390015 591.655579,616.943665 591.048462,624.576172   C589.416992,645.086426 580.068970,661.547302 563.472168,673.833374   C561.633057,671.399231 560.449219,668.894104 558.569519,667.130676   C537.446045,647.313721 512.706543,642.838562 485.491272,650.895203   C472.475555,654.748291 461.071960,661.427673 454.128448,673.873596  z"
    />
    <path
      id="mouth-03-accent"
      fill="#ED6B5E"
      stroke="none"
      d=" M454.275879,674.169617   C461.071960,661.427673 472.475555,654.748291 485.491272,650.895203   C512.706543,642.838562 537.446045,647.313721 558.569519,667.130676   C560.449219,668.894104 561.633057,671.399231 563.139465,673.941284   C555.801147,681.465637 546.666199,685.516357 537.138611,688.402161   C507.346344,697.425964 479.585114,693.411194 454.275879,674.169617  z"
    />
  </g>
</svg>
