<?xml version="1.0" encoding="UTF-8"?>
<svg xmlns="http://www.w3.org/2000/svg" viewBox="0 0 1024 1024">
  <path
    id="mouth-04"
    fill="#373530"
    stroke="none"
    d=" M577.552002,642.459961   C579.856262,637.333618 582.258179,632.607361 583.964844,627.642151   C585.559692,623.002258 588.257507,620.298401 591.969604,621.212036   C596.425964,622.308838 597.247253,625.716919 596.972839,629.744568   C596.004578,643.955261 582.423096,660.268188 567.532288,665.046204   C544.836975,672.328369 523.312195,664.911560 509.879364,645.181274   C509.331604,644.376709 508.779694,643.575012 507.912933,642.309448   C506.373077,644.599060 505.119354,646.629944 503.704498,648.541626   C484.835175,674.037231 441.504852,676.468933 423.463379,643.232910   C421.006927,638.707642 420.155792,633.216187 419.091461,628.062561   C418.354980,624.496521 420.251129,621.807739 423.984863,621.210449   C427.870880,620.588806 430.357605,622.521301 431.314178,626.319702   C433.378143,634.515686 436.542816,642.072571 443.398773,647.535217   C463.821655,663.807678 495.931000,651.569946 499.997345,625.692322   C501.253662,617.697449 501.014008,609.467529 501.487000,600.839111   C505.407318,600.559021 509.494263,600.267029 514.330261,599.921570   C514.330261,605.468628 514.224121,610.564270 514.351074,615.654053   C514.669250,628.408630 518.775513,639.415649 529.257080,647.441956   C544.248718,658.921814 564.297791,656.985229 577.552002,642.459961  z"
  />
</svg>
