<svg xmlns="http://www.w3.org/2000/svg" viewBox="0 0 1024 1024">
<path xmlns="http://www.w3.org/2000/svg" fill="#5D3B27" opacity="1.000000" stroke="none" d=" M440.807953,427.164001   C450.229462,438.184662 450.243774,450.222076 441.102631,459.066589   C432.408752,467.478424 418.842743,467.770844 409.869934,459.739838   C401.704895,452.431854 400.084747,440.171967 406.098541,431.201080   C412.258148,422.012604 424.521423,418.356049 434.241913,422.953247   C436.470825,424.007385 438.454437,425.580200 440.807953,427.164001  z"/>
<path xmlns="http://www.w3.org/2000/svg" fill="#734B37" opacity="1.000000" stroke="none" d=" M637.844604,457.105896   C621.560242,448.822968 605.999207,450.433380 590.737183,458.824219   C586.975037,460.892578 583.122375,463.188782 579.640991,458.783600   C577.167236,455.653473 578.943970,451.730347 584.371216,448.435608   C603.338623,436.920990 622.825134,435.704773 642.773987,445.879425   C643.217346,446.105591 643.619202,446.411896 644.055664,446.653168   C647.614502,448.620331 649.949463,451.254303 648.129944,455.557861   C646.705933,458.925690 643.105225,459.450317 637.844604,457.105896  z"/>
</svg>