<svg xmlns="http://www.w3.org/2000/svg" viewBox="0 0 1024 1024">
  <path fill="#52301D" opacity="1.000000" stroke="none" d=" M437.289734,462.439667   C422.863098,470.521820 408.741669,462.228973 404.335205,451.868591   C400.098419,441.907013 404.369598,429.420410 413.675964,424.157318   C424.165039,418.225342 436.424988,420.656952 443.470825,430.066742   C450.317413,439.210449 449.326508,451.636932 441.086426,459.452271   C440.011627,460.471680 438.761658,461.306366 437.289734,462.439667  z"/>
  <path fill="#52301D" opacity="1.000000" stroke="none" d=" M590.105713,442.230408   C592.150146,425.524933 607.140076,417.748627 620.225220,422.233429   C630.901489,425.892670 637.035400,436.771729 634.906250,448.018524   C632.974304,458.223572 622.158569,466.439056 611.482300,465.811127   C600.053589,465.138947 591.173828,456.353668 590.110718,444.652039   C590.050720,443.991669 590.095032,443.321777 590.105713,442.230408  z"/>
</svg>
