<svg xmlns="http://www.w3.org/2000/svg" viewBox="0 0 1024 1024">
<g transform="translate(15, 0)">
<path xmlns="http://www.w3.org/2000/svg" fill="#734B37" opacity="1.000000" stroke="none" d=" M386.155396,457.105896   C402.439758,448.822968 417.000793,450.433380 432.262817,458.824219   C436.024963,460.892578 439.877625,463.188782 443.359009,458.783600   C445.832764,455.653473 444.056030,451.730347 438.628784,448.435608   C419.661377,436.920990 400.174866,435.704773 380.226013,445.879425   C379.782654,446.105591 379.380798,446.411896 378.944336,446.653168   C375.385498,448.620331 373.050537,451.254303 374.870056,455.557861   C376.294067,458.925690 379.894775,459.450317 386.155396,457.105896  z"/>
<path xmlns="http://www.w3.org/2000/svg" fill="#5D3B27" opacity="1.000000" stroke="none" d=" M583.192047,427.164001   C573.770538,438.184662 573.756226,450.222076 582.897369,459.066589   C591.591248,467.478424 605.157257,467.770844 614.130066,459.739838   C622.295105,452.431854 623.915253,440.171967 617.901459,431.201080   C611.741852,422.012604 599.478577,418.356049 589.758087,422.953247   C587.529175,424.007385 585.545563,425.580200 583.192047,427.164001  z"/>
</g>
</svg>