<?xml version="1.0" encoding="UTF-8" standalone="no"?>
<svg
   version="1.1"
   id="Layer_1"
   x="0px"
   y="0px"
   width="100%"
   viewBox="0 0 985 958"
   enable-background="new 0 0 985 958"
   xml:space="preserve"
   xmlns="http://www.w3.org/2000/svg"
   xmlns:svg="http://www.w3.org/2000/svg"><defs
   id="defs23" />



<path
   fill="#fdfcfc"
   opacity="1"
   stroke="none"
   d="m 189.9864,557.99524 c -1.99575,-9.71002 -3.99151,-19.41998 -5.68675,-29.85156 4.89931,-0.64808 9.52191,-0.84107 14.09082,-0.43293 5.57527,0.49799 11.08922,1.74671 16.66637,2.11493 1.41827,0.0936 3.63574,-1.62976 4.25381,-3.05316 0.46991,-1.08227 -0.59037,-3.53491 -1.72084,-4.44659 -1.86686,-1.50556 -4.25369,-2.9104 -6.57219,-3.21692 -9.63418,-1.2735 -19.32478,-2.12024 -28.99467,-3.12366 0.52179,-27.88104 4.66366,-55.12402 14.92187,-81.54065 13.73009,5.1832 27.31955,8.47052 41.50324,9.84827 23.46884,2.27966 46.44638,0.55835 68.86819,-6.89356 38.43714,-12.7745 67.5549,-37.18151 88.09751,-71.80331 14.24499,-24.00803 21.94238,-49.96967 21.85562,-78.15289 -0.0443,-14.40439 -2.15378,-28.41956 -5.57318,-42.32013 19.6141,-5.17838 39.53286,-8.42527 59.81982,-9.1256 13.28119,-0.45848 26.59238,-1.2755 39.85291,-0.82805 21.73343,0.73334 43.1727,4.13913 64.24551,9.59857 7.54303,1.95421 15.02002,4.1633 23.16718,6.53745 17.30084,7.67923 33.95684,15.08807 50.62957,22.45914 1.79743,0.79461 3.6919,1.36975 5.67353,2.38006 0.47985,0.68824 0.77093,1.13718 1.18304,1.38455 27.64301,16.59217 53.05628,35.95887 74.7887,59.93119 3.55853,3.92532 7.27142,7.7106 10.96698,11.90381 10.16388,15.31671 20.2691,30.29333 30.41522,45.24228 0.21503,0.3168 0.90112,0.31387 1.36749,0.46011 3.06214,6.96719 6.06037,13.96329 9.198,20.89627 10.66913,23.57471 17.63751,48.15216 20.03528,73.95496 0.77972,8.3912 1.28686,16.80777 1.46582,25.64212 -4.27075,0.43286 -8.16278,-0.0393 -11.89069,0.54162 -7.15143,1.11432 -14.30273,2.50379 -21.24389,4.50763 -1.83185,0.52881 -3.96027,3.66107 -4.0708,5.69977 -0.18067,3.33343 2.95349,3.85053 5.8258,3.68793 0.99225,-0.0562 1.99579,-0.0507 2.97357,-0.20459 5.6897,-0.89563 11.34626,-2.14179 17.06885,-2.63697 3.539,-0.30621 7.17511,0.50983 10.76764,0.82203 -1.66522,10.05767 -3.33044,20.11529 -5.41675,30.59051 -1.55292,0.22028 -2.68408,0.0194 -3.81659,-0.17364 -8.59265,-1.46485 -17.17523,-2.99347 -25.78314,-4.36225 -3.85522,-0.61304 -6.57581,1.73145 -6.41675,5.08679 0.0817,1.72358 3.31934,4.07666 5.55957,4.78064 8.57544,2.69465 17.32477,4.83576 26.00922,7.18348 -3.87586,12.84472 -10.51618,24.29943 -18.25519,35.08911 -11.86908,16.54767 -25.89221,30.96771 -43.30884,41.81799 -5.04876,3.14526 -10.11432,6.26373 -15.69464,9.73743 -24.1355,12.5047 -49.00281,21.42035 -75.99304,28.15448 5.28137,5.51336 10.71912,6.85247 16.17413,7.00396 12.74634,0.35395 25.52039,0.75422 38.03766,-2.86828 11.73425,-3.39588 23.87488,-5.61878 34.03327,-13.0741 8.6344,15.94898 17.26879,31.89789 25.57367,48.33826 -53.43921,27.64587 -78.59943,72.28619 -81.60578,130.68292 -1.00561,19.53381 2.93775,38.34442 9.12604,56.75855 -2.94562,1.71099 -5.73657,3.80175 -8.86066,5.07452 -32.25,13.13861 -65.71826,22.1795 -99.98041,27.93585 -16.76373,2.81653 -33.83789,4.1507 -50.83068,5.138 -17.50626,1.01721 -35.1323,1.77118 -52.62088,0.91089 -34.12772,-1.67859 -67.75153,-7.01813 -100.79987,-16.1405 -36.35385,-10.03485 -71.03192,-24.00556 -104.08542,-42.05646 -21.12939,-11.53894 -41.72883,-23.93549 -60.68545,-39.4483 3.59141,-21.61225 6.2053,-43.40167 11.66975,-64.45105 8.35938,-32.20075 21.45657,-62.77491 36.89206,-92.28241 1.76808,-3.38007 3.73293,-6.65723 6.17625,-10.04096 11.08335,8.93537 24.02613,10.24775 36.90781,10.456 11.36526,0.18377 22.79251,-0.82898 34.11856,-2.01722 5.33511,-0.55975 10.56897,-2.56481 15.69382,-4.35766 1.55002,-0.54224 2.58066,-2.56909 3.84918,-3.9159 -1.48782,-0.85089 -2.89639,-1.91662 -4.4823,-2.50164 -2.31149,-0.8526 -4.75055,-1.35926 -7.54443,-2.0163 -11.45252,-3.33405 -22.66641,-6.1961 -33.48975,-10.13226 -10.22589,-3.71881 -20.04126,-8.56647 -30.0372,-12.91761 -9.30859,-6.07763 -18.95027,-11.70721 -27.85542,-18.32745 -17.72879,-13.17987 -31.25151,-30.17071 -41.98323,-49.3565 -3.71889,-6.6485 -6.63927,-13.74372 -9.82996,-21.24927 1.31828,-1.09381 2.50639,-1.72003 3.77194,-2.02838 7.08042,-1.72516 14.23937,-3.16687 21.23107,-5.1905 1.7942,-0.5194 4.50811,-3.07519 4.28569,-4.19689 -0.39031,-1.96814 -2.4131,-4.31983 -4.32437,-5.08918 -2.10305,-0.84655 -4.88566,-0.33044 -7.31246,0.0136 -7.3641,1.04388 -14.69932,2.29138 -22.04581,3.45959 m 460.18322,-0.79651 c 2.08081,2.3443 3.85461,5.08551 6.29113,6.96979 18.95435,14.65881 46.45234,16.21551 67.14753,3.99762 18.27044,-10.78626 20.53863,-30.65796 5.12616,-44.90937 -17.34021,-16.03399 -54.87403,-16.15066 -72.27076,-0.22467 -11.17541,10.23059 -13.23748,20.65149 -6.29406,34.16663 m -312.22751,-24.4022 c -4.25101,-4.54785 -7.71713,-10.49188 -12.88999,-13.39997 -21.4656,-12.06747 -43.28488,-11.64355 -64.11706,1.72822 -17.7408,11.38745 -17.97569,33.37152 -0.41181,45.04797 20.18952,13.422 41.6944,13.73993 62.94907,2.85217 14.88406,-7.62439 19.93027,-21.2207 14.46979,-36.22839"
   id="path4" />
<path
   fill="#D6975A"
   opacity="1.000000"
   stroke="none"
   d=" M682.441101,912.921936   C675.970276,894.309082 672.026917,875.498474 673.032532,855.964661   C676.038879,797.567932 701.199097,752.927612 754.657104,725.626282   C757.753052,730.879883 760.855347,736.131775 763.190430,741.705200   C777.541504,775.958191 788.365051,811.221802 793.133667,848.617981   C792.443787,850.050781 791.828430,851.287720 790.843872,852.043823   C759.023621,876.483093 724.478394,896.287476 687.773865,912.380859   C686.271179,913.039673 684.415100,912.892395 682.441101,912.921936  z"
   id="path5" />
<path
   fill="#EEA45B"
   opacity="1.000000"
   stroke="none"
   d=" M411.320099,245.094574   C415.115601,259.023651 417.225037,273.038818 417.269379,287.443207   C417.356140,315.626434 409.658752,341.588074 395.413757,365.596100   C374.871155,400.217896 345.753387,424.624908 307.316254,437.399414   C284.894440,444.851318 261.916901,446.572632 238.448059,444.292969   C224.264374,442.915222 210.674911,439.627899 197.167068,434.170349   C200.152573,425.221954 202.648270,415.945221 207.069962,407.701569   C211.462296,399.512695 211.700638,392.664856 208.153351,383.955841   C199.358932,362.364349 196.005341,339.579620 195.669037,316.210938   C195.163361,281.070374 200.003952,246.937042 213.157562,214.233139   C215.560013,208.259888 218.819077,202.499680 222.478638,197.189682   C231.372498,184.284744 244.358017,181.838211 258.773010,184.478180   C282.891235,188.895248 304.670990,199.396881 325.090393,212.325211   C344.174377,224.408051 362.215973,238.132996 380.830322,250.969986   C382.276917,251.967621 384.780334,252.292801 386.522522,251.855270   C394.714691,249.797928 402.812500,247.364975 411.320099,245.094574  M322.974884,271.473724   C321.376831,269.568665 319.931641,267.505463 318.153198,265.787079   C311.824219,259.671844 305.492767,253.550919 298.957642,247.659103   C287.709686,237.518311 275.803925,228.256744 262.078094,221.609268   C252.633377,217.035156 247.611160,219.217987 243.907257,228.900955   C238.594299,242.790329 237.628693,257.463623 237.315445,271.933502   C236.910446,290.642487 238.235992,309.403442 239.219818,328.120789   C239.605942,335.466675 241.083359,342.755157 242.209915,351.160004   C266.692139,320.501648 296.127747,297.297241 329.448029,277.054138   C326.988556,275.003815 325.200714,273.513367 322.974884,271.473724  z"
   id="path6" />
<path
   fill="#F7B370"
   opacity="1.000000"
   stroke="none"
   d=" M773.902100,394.692017   C773.339783,394.920349 772.653687,394.923279 772.438660,394.606476   C762.292542,379.657532 752.187317,364.680908 742.210999,349.004517   C743.886780,335.494415 746.371887,322.716583 746.772522,309.873749   C747.574585,284.160431 748.139160,258.322388 741.881104,233.049713   C739.306396,222.651840 734.727112,214.450241 721.054443,221.002365   C713.773254,224.491623 706.383728,228.388458 700.269348,233.553024   C685.438599,246.079926 671.311951,259.441681 656.956787,272.527557   C656.046936,273.356934 655.609680,274.704712 654.952515,275.811310   C653.103088,275.134338 651.208618,274.559204 649.411194,273.764587   C632.738464,266.393524 616.082458,258.984680 599.169067,251.337372   C607.112061,244.859985 614.898743,237.978745 623.588074,232.539505   C641.913330,221.068466 660.467896,209.911270 679.396484,199.474152   C693.106873,191.914307 707.853577,186.286011 723.409180,183.800400   C744.122986,180.490585 753.751221,183.645309 765.370483,203.224411   C776.579163,222.111816 782.044922,243.147629 784.797668,264.705048   C786.982666,281.816559 788.609924,299.120514 788.708191,316.349182   C788.861023,343.151154 784.092529,369.307587 773.902100,394.692017  z"
   id="path7" />
<path
   fill="#F4EFE9"
   opacity="1.000000"
   stroke="none"
   d=" M729.006897,676.595581   C718.906250,684.398804 706.765625,686.621704 695.031372,690.017578   C682.514099,693.640076 669.740051,693.239807 656.993713,692.885864   C651.538696,692.734375 646.100952,691.395264 640.819580,685.881897   C667.809814,679.147766 692.677124,670.232117 716.651733,658.027710   C720.991882,664.072693 724.970520,670.160217 729.006897,676.595581  z"
   id="path8" />
<path
   fill="#F3EDE6"
   opacity="1.000000"
   stroke="none"
   d=" M273.899780,660.280884   C284.044891,664.311340 293.860260,669.158997 304.086151,672.877808   C314.909485,676.813965 326.123383,679.676025 337.579590,683.402466   C336.564972,685.497620 335.332031,688.412598 333.674866,688.677917   C327.846497,689.611084 321.876801,689.754700 315.952484,689.974976   C305.784668,690.353210 295.888824,688.907898 286.437286,684.979492   C279.294647,682.010742 272.168365,679.002747 265.034821,676.012207   C267.940094,670.875366 270.845337,665.738464 273.899780,660.280884  z"
   id="path9" />
<path
   fill="#FAF6F1"
   opacity="1.000000"
   stroke="none"
   d=" M264.865479,676.308838   C272.168365,679.002747 279.294647,682.010742 286.437286,684.979492   C295.888824,688.907898 305.784668,690.353210 315.952484,689.974976   C321.876801,689.754700 327.846497,689.611084 333.674866,688.677917   C335.332031,688.412598 336.564972,685.497620 337.988770,683.405334   C340.369781,683.667114 342.808838,684.173767 345.120331,685.026367   C346.706238,685.611389 348.114807,686.677124 349.602631,687.528015   C348.334106,688.874817 347.303467,690.901672 345.753448,691.443909   C340.628601,693.236755 335.394745,695.241821 330.059631,695.801575   C318.733582,696.989807 307.306335,698.002563 295.941071,697.818787   C283.059387,697.610535 270.116608,696.298157 259.297394,687.149536   C260.893250,683.531860 262.794708,680.068604 264.865479,676.308838  z"
   id="path10" />
<path
   fill="#FAF5E9"
   opacity="1.000000"
   stroke="none"
   d=" M181.572388,515.988525   C191.692841,516.988770 201.383438,517.835510 211.017624,519.109009   C213.336121,519.415527 215.722946,520.820374 217.589813,522.325928   C218.720276,523.237610 219.780563,525.690247 219.310654,526.772522   C218.692581,528.195923 216.475113,529.919312 215.056839,529.825684   C209.479691,529.457458 203.965744,528.208740 198.390472,527.710754   C193.821564,527.302612 189.198959,527.495605 184.299530,527.708252   C177.095291,528.796387 170.191895,529.600098 163.287979,530.399292   C161.481476,530.608398 159.580231,531.238403 157.893417,530.877136   C156.352341,530.546997 154.259537,529.400635 153.833160,528.134644   C153.323547,526.621460 153.831909,524.240967 154.807358,522.893372   C155.873703,521.420349 157.858826,520.120728 159.650879,519.751221   C166.763840,518.284546 173.957855,517.210938 181.572388,515.988525  z"
   id="path11" />
<path
   fill="#FAF4E9"
   opacity="1.000000"
   stroke="none"
   d=" M804.394104,527.971680   C800.343201,527.665161 796.707092,526.849121 793.168091,527.155334   C787.445496,527.650513 781.788940,528.896667 776.099243,529.792297   C775.121460,529.946228 774.117920,529.940674 773.125671,529.996887   C770.253357,530.159485 767.119202,529.642395 767.299866,526.308960   C767.410400,524.270264 769.538818,521.138000 771.370667,520.609192   C778.311829,518.605347 785.463135,517.215881 792.614563,516.101562   C796.342468,515.520630 800.234497,515.992798 804.518433,515.986084   C812.698486,517.506958 820.479614,518.764648 828.093506,520.685425   C831.163574,521.459900 833.869507,523.922485 832.782898,527.770325   C831.616211,531.901917 827.915222,531.257446 824.881226,530.895813   C818.183716,530.097595 811.526245,528.963257 804.394104,527.971680  z"
   id="path12" />
<path
   fill="#FAF5E8"
   opacity="1.000000"
   stroke="none"
   d=" M189.752716,558.262329   C197.332886,556.827026 204.668106,555.579529 212.032211,554.535645   C214.459015,554.191589 217.241623,553.675476 219.344666,554.522034   C221.255936,555.291382 223.278732,557.643066 223.669037,559.611206   C223.891464,560.732910 221.177551,563.288696 219.383347,563.808105   C212.391647,565.831726 205.232697,567.273438 198.152283,568.998596   C196.886734,569.306946 195.698624,569.933167 194.250443,570.690552   C188.483002,572.585388 182.941544,574.207886 177.396027,575.816467   C174.859787,576.552063 172.283569,577.906372 169.784698,577.782776   C167.656342,577.677551 164.805862,576.329590 163.811249,574.631409   C163.130951,573.470032 164.513824,569.932861 165.983963,568.912354   C169.471451,566.491577 173.490311,564.775452 177.424652,563.076111   C181.373962,561.370361 185.481079,560.029968 189.752716,558.262329  z"
   id="path13" />
<path
   fill="#FBF5E9"
   opacity="1.000000"
   stroke="none"
   d=" M794.447021,571.069824   C785.386841,568.735168 776.637512,566.594055 768.062073,563.899414   C765.821838,563.195435 762.584229,560.842346 762.502502,559.118774   C762.343445,555.763428 765.064026,553.418945 768.919250,554.031982   C777.527161,555.400757 786.109741,556.929382 794.702393,558.394226   C795.834900,558.587280 796.966064,558.788147 798.499023,558.978821   C805.302063,561.665955 811.695435,564.379822 818.108887,567.045349   C821.753357,568.559998 824.244263,570.988220 822.711243,575.093018   C821.155029,579.260071 817.085999,578.535461 814.078369,577.697449   C808.341309,576.099182 802.829773,573.694763 797.214661,571.652466   C796.446716,571.373230 795.621460,571.251465 794.447021,571.069824  z"
   id="path14" />

<path
   fill="#FCC5BA"
   opacity="1.000000"
   stroke="none"
   d=" M655.084717,276.144653   C655.609680,274.704712 656.046936,273.356934 656.956787,272.527557   C671.311951,259.441681 685.438599,246.079926 700.269348,233.553024   C706.383728,228.388458 713.773254,224.491623 721.054443,221.002365   C734.727112,214.450241 739.306396,222.651840 741.881104,233.049713   C748.139160,258.322388 747.574585,284.160431 746.772522,309.873749   C746.371887,322.716583 743.886780,335.494415 742.156982,348.661316   C738.327881,345.170990 734.614990,341.385712 731.056458,337.460388   C709.324036,313.488068 683.910767,294.121368 656.267761,277.529205   C655.855652,277.281830 655.564575,276.832886 655.084717,276.144653  z"
   id="path16" />

<path
   fill="#FDBBB6"
   opacity="1.000000"
   stroke="none"
   d=" M650.000977,556.871216   C643.226196,543.683594 645.288269,533.262695 656.463684,523.032104   C673.860413,507.106110 711.394226,507.222778 728.734436,523.256775   C744.146912,537.508179 741.878723,557.379883 723.608276,568.166138   C702.913086,580.384033 675.415100,578.827332 656.460754,564.168518   C654.024231,562.284241 652.250427,559.543030 650.000977,556.871216  z"
   id="path18" />
<path
   fill="#FDBAB6"
   opacity="1.000000"
   stroke="none"
   d=" M338.102295,533.153564   C343.402588,547.804199 338.356384,561.400513 323.472321,569.024902   C302.217651,579.912659 280.712769,579.594727 260.523254,566.172729   C242.959366,554.496277 243.194260,532.512207 260.935059,521.124756   C281.767242,507.752991 303.586517,507.329071 325.052124,519.396545   C330.224976,522.304626 333.691101,528.248657 338.102295,533.153564  z"
   id="path19" />

<path
   fill="#FCC5B9"
   opacity="1.000000"
   stroke="none"
   d=" M323.193848,271.748291   C325.200714,273.513367 326.988556,275.003815 329.448029,277.054138   C296.127747,297.297241 266.692139,320.501648 242.209915,351.160004   C241.083359,342.755157 239.605942,335.466675 239.219818,328.120789   C238.235992,309.403442 236.910446,290.642487 237.315445,271.933502   C237.628693,257.463623 238.594299,242.790329 243.907257,228.900955   C247.611160,219.217987 252.633377,217.035156 262.078094,221.609268   C275.803925,228.256744 287.709686,237.518311 298.957642,247.659103   C305.492767,253.550919 311.824219,259.671844 318.153198,265.787079   C319.931641,267.505463 321.376831,269.568665 323.193848,271.748291  z"
   id="path21" />


</svg>
