<svg xmlns="http://www.w3.org/2000/svg" viewBox="0 0 1024 1024">
<g transform="translate(5, 40) scale(0.94) translate(25.6, 25.6)">
<path fill="#F5E7D6" opacity="1.000000" stroke="none" d="M706.800720,751.930359 C730.904480,761.261658 755.082092,770.407654 779.089172,779.981262 C799.290527,788.037292 819.356689,796.442566 839.361938,804.976379 C852.709595,810.670166 865.940613,816.661560 879.029541,822.925903 C884.344666,825.469727 889.144165,829.090942 894.055420,832.704407 C892.959961,836.847168 891.819824,840.472229 891.040710,844.173279 C883.394775,880.493164 875.597595,916.783203 868.281189,953.169678 C863.481750,977.038269 859.402039,1001.051514 855.000000,1025.000000 C769.645752,1025.000000 684.291565,1025.000000 598.458862,1024.537598 C598.332825,1014.661682 598.650269,1005.246643 599.048401,995.834900 C599.383545,987.912720 599.803833,979.994141 600.201904,972.074707 C600.706848,962.030579 601.227478,951.987244 601.805786,941.565796 C601.370789,939.526184 600.871277,937.864319 600.651978,937.134827 C601.564453,934.576355 602.719055,932.754150 602.803162,930.883789 C603.646912,912.140808 604.237183,893.386475 605.066162,874.642700 C605.454224,865.870117 606.093750,857.102844 606.922668,848.362000 C607.042969,847.094299 608.632874,845.462402 609.934875,844.888611 C622.221008,839.473450 635.042908,835.094971 646.842529,828.792725 C669.390198,816.750000 688.875244,800.783142 702.570068,778.780945 C707.631775,770.648804 710.897827,761.741882 706.800720,751.930359 z"/>
<path fill="#F5E7D6" opacity="1.000000" stroke="none" d="M150.811371,832.804688 C158.560028,828.466003 166.061371,823.587280 174.109207,819.901855 C190.448944,812.419312 207.056351,805.516541 223.604996,798.496399 C242.427750,790.511658 261.267120,782.563354 280.172180,774.776184 C300.748077,766.300903 321.407745,758.028931 342.209686,749.894409 C342.023529,751.402649 341.658569,752.684692 340.978821,754.225830 C338.852509,760.389709 341.139374,765.710693 343.545715,770.743958 C350.839233,785.999634 361.587250,798.520752 374.940216,808.833374 C391.760712,821.823914 409.894470,832.429260 430.189697,839.065796 C432.951477,839.968872 434.153534,841.605957 434.032410,844.610352 C433.880524,848.378784 434.162415,852.164795 434.192017,856.406738 C434.763855,867.459961 435.379669,878.050903 436.043610,888.638855 C436.728180,899.556335 437.377197,910.476990 438.189911,921.385193 C439.421204,937.911560 440.804382,954.426514 442.073120,970.950195 C442.530334,976.904602 442.793091,982.873840 443.232910,988.829773 C444.123322,1000.888855 445.074097,1012.943542 446.000000,1025.000000 C365.979095,1025.000000 285.958221,1025.000000 205.477737,1024.583740 C204.733032,1022.545837 204.580765,1020.887329 204.143036,1019.307861 C196.286819,990.960693 188.465347,962.603638 180.481033,934.292480 C176.925552,921.685303 173.067764,909.162476 169.271439,896.624329 C166.256287,886.666016 162.971863,876.786987 160.087463,866.791870 C156.831741,855.510010 153.889771,844.137695 150.811371,832.804688 z"/>
<path fill="#F4EEE8" opacity="1.000000" stroke="none" d="M566.000000,1025.000000 C537.645752,1025.000000 509.291534,1025.000000 480.365265,1024.582520 C479.529175,1021.686157 479.209320,1019.211609 479.009705,1016.727478 C476.919769,990.715515 474.931183,964.695129 472.752411,938.690674 C470.018341,906.059387 467.132782,873.440735 464.797577,840.863708 C478.527222,842.673645 491.729858,845.357727 505.027283,845.964172 C521.337524,846.708008 537.740906,846.037109 554.076477,845.336304 C562.277649,844.984436 570.417908,843.211731 578.581482,842.543091 C577.616577,857.429504 576.653931,871.854370 575.695496,886.279419 C573.448242,920.103210 571.245117,953.929993 568.934814,987.749451 C568.085999,1000.175110 566.985657,1012.583679 566.000000,1025.000000 z"/>
<path fill="#F4E5D3" opacity="1.000000" stroke="none" d="M87.468666,1025.000000 C88.748856,1013.405579 90.078461,1001.729004 92.332253,990.233582 C97.298172,964.905212 102.192429,939.540955 108.132858,914.431946 C113.422150,892.075134 118.899605,869.560913 132.657318,850.394897 C135.823792,845.983582 139.764587,842.128113 143.797333,838.217163 C160.177414,882.565979 169.535645,928.433044 179.248276,974.337524 C170.540482,957.076904 161.832672,939.816345 153.124863,922.555786 C152.174911,923.649536 152.034897,924.333252 152.195053,924.937378 C158.792755,949.823730 165.402100,974.706909 172.047119,999.580627 C174.314301,1008.067200 176.679550,1016.527649 179.000000,1025.000000 C148.645767,1025.000000 118.291542,1025.000000 87.468666,1025.000000 z"/>
<path fill="#F4E5D4" opacity="1.000000" stroke="none" d="M901.068848,837.871826 C905.159485,842.015991 909.867615,845.716064 913.226318,850.386597 C923.807922,865.101196 930.220459,881.955139 934.967712,899.189026 C944.584717,934.101868 953.235535,969.281250 962.245056,1004.360901 C963.937073,1010.948730 965.444824,1017.583862 967.018799,1024.598633 C939.312439,1025.000000 911.624878,1025.000000 883.530029,1024.603149 C887.080017,1001.518677 891.207825,978.859009 894.942139,956.134766 C898.111694,936.847473 900.928589,917.500061 903.692139,898.149353 C904.777466,890.549988 905.293457,882.869263 906.068665,875.225647 C905.695618,875.141602 905.322571,875.057556 904.949524,874.973511 C897.323181,898.025208 889.696777,921.076965 882.070374,944.128662 C881.084290,943.336548 880.944702,942.829956 881.028442,942.363403 C885.185242,919.200439 889.234253,896.017029 893.588074,872.891052 C895.795837,861.164185 898.557556,849.541565 901.068848,837.871826 z"/>
<path fill="#C7BBAE" opacity="1.000000" stroke="none" d="M900.919434,837.577942 C898.557556,849.541565 895.795837,861.164185 893.588074,872.891052 C889.234253,896.017029 885.185242,919.200439 881.028442,942.363403 C880.944702,942.829956 881.084290,943.336548 882.070374,944.128662 C889.696777,921.076965 897.323181,898.025208 904.949524,874.973511 C905.322571,875.057556 905.695618,875.141602 906.068665,875.225647 C905.293457,882.869263 904.777466,890.549988 903.692139,898.149353 C900.928589,917.500061 898.111694,936.847473 894.942139,956.134766 C891.207825,978.859009 887.080017,1001.518677 883.061401,1024.603149 C873.979126,1025.000000 864.958191,1025.000000 855.468628,1025.000000 C859.402039,1001.051514 863.481750,977.038269 868.281189,953.169678 C875.597595,916.783203 883.394775,880.493164 891.040710,844.173279 C891.819824,840.472229 892.959961,836.847168 894.308838,832.961121 C896.713379,834.251587 898.741699,835.767822 900.919434,837.577942 z"/>
<path fill="#C7BBAE" opacity="1.000000" stroke="none" d="M179.468658,1025.000000 C176.679550,1016.527649 174.314301,1008.067200 172.047119,999.580627 C165.402100,974.706909 158.792755,949.823730 152.195053,924.937378 C152.034897,924.333252 152.174911,923.649536 153.124863,922.555786 C161.832672,939.816345 170.540482,957.076904 179.248276,974.337524 C169.535645,928.433044 160.177414,882.565979 144.104980,838.053528 C146.024612,836.101990 148.084900,834.514465 150.478271,832.865845 C153.889771,844.137695 156.831741,855.510010 160.087463,866.791870 C162.971863,876.786987 166.256287,886.666016 169.271439,896.624329 C173.067764,909.162476 176.925552,921.685303 180.481033,934.292480 C188.465347,962.603638 196.286819,990.960693 204.143036,1019.307861 C204.580765,1020.887329 204.733032,1022.545837 205.009079,1024.583740 C196.645767,1025.000000 188.291534,1025.000000 179.468658,1025.000000 z"/>
<path fill="#F3E5D2" opacity="1.000000" stroke="none" d="M470.000000,1025.000000 C465.310760,1025.000000 460.621490,1025.000000 455.470703,1024.539673 C453.704163,1006.729187 452.407990,989.378296 451.091736,972.028992 C449.763000,954.515320 448.337280,937.008728 447.094482,919.489014 C445.616577,898.654907 444.288330,877.810181 442.920105,856.508972 C442.945038,851.868042 442.945038,847.688232 442.945038,843.881470 C447.262115,843.881470 450.701721,843.881470 454.364014,844.235229 C455.878662,861.004272 457.070557,877.428101 458.486359,893.832642 C460.544525,917.679504 462.801941,941.509033 464.903320,965.352295 C466.655273,985.230225 468.304993,1005.117065 470.000000,1025.000000 z"/>
<path fill="#5E6062" opacity="1.000000" stroke="none" d="M566.458069,1025.000000 C566.985657,1012.583679 568.085999,1000.175110 568.934814,987.749451 C571.245117,953.929993 573.448242,920.103210 575.695496,886.279419 C576.653931,871.854370 577.616577,857.429504 578.787170,842.289795 C581.402649,840.724548 583.808228,839.874207 586.508789,839.026001 C587.523132,839.344421 588.242493,839.660645 588.893677,840.367188 C588.693665,842.567688 588.561829,844.377808 588.346558,846.636047 C586.611633,874.306885 584.960205,901.529602 583.203613,929.153442 C582.280518,942.970581 581.497375,956.388855 580.636292,969.802185 C579.455078,988.203491 578.214905,1006.600891 577.000000,1025.000000 C573.638733,1025.000000 570.277405,1025.000000 566.458069,1025.000000 z"/>
<path fill="#5E6062" opacity="1.000000" stroke="none" d="M470.454102,1025.000000 C468.304993,1005.117065 466.655273,985.230225 464.903320,965.352295 C462.801941,941.509033 460.544525,917.679504 458.486359,893.832642 C457.070557,877.428101 455.878662,861.004272 454.386688,843.870972 C454.384918,841.495422 454.583191,839.837830 455.122437,838.126343 C455.922241,838.035217 456.381012,837.997925 457.029480,838.297974 C459.583649,839.362427 461.948120,840.089539 464.312592,840.816650 C467.132782,873.440735 470.018341,906.059387 472.752411,938.690674 C474.931183,964.695129 476.919769,990.715515 479.009705,1016.727478 C479.209320,1019.211609 479.529175,1021.686157 479.896606,1024.582520 C476.969391,1025.000000 473.938812,1025.000000 470.454102,1025.000000 z"/>
<path fill="#C7BBAE" opacity="1.000000" stroke="none" d="M442.895203,856.970093 C444.288330,877.810181 445.616577,898.654907 447.094482,919.489014 C448.337280,937.008728 449.763000,954.515320 451.091736,972.028992 C452.407990,989.378296 453.704163,1006.729187 455.004578,1024.539673 C452.299988,1025.000000 449.599976,1025.000000 446.449951,1025.000000 C445.074097,1012.943542 444.123322,1000.888855 443.232910,988.829773 C442.793091,982.873840 442.530334,976.904602 442.073120,970.950195 C440.804382,954.426514 439.421204,937.911560 438.189911,921.385193 C437.377197,910.476990 436.728180,899.556335 436.043610,888.638855 C435.379669,878.050903 434.763855,867.459961 434.581604,856.421387 C437.655945,856.304993 440.275574,856.637512 442.895203,856.970093 z"/>
<path fill="#F5E7D6" opacity="1.000000" stroke="none" d="M577.460632,1025.000000 C578.214905,1006.600891 579.455078,988.203491 580.636292,969.802185 C581.497375,956.388855 582.280518,942.970581 583.602783,929.233765 C585.569275,930.270447 586.970459,931.702148 588.511658,932.962891 C589.872192,934.075806 591.388855,934.998047 592.875610,936.430542 C592.929016,938.568298 592.943298,940.280029 592.697571,942.313354 C591.291687,970.090027 590.145874,997.544983 589.000000,1025.000000 C585.307068,1025.000000 581.614197,1025.000000 577.460632,1025.000000 z"/>
<path fill="#C7BBAE" opacity="1.000000" stroke="none" d="M589.449951,1025.000000 C590.145874,997.544983 591.291687,970.090027 593.066284,942.274841 C596.377136,941.924316 599.059204,941.933960 601.741333,941.943604 C601.227478,951.987244 600.706848,962.030579 600.201904,972.074707 C599.803833,979.994141 599.383545,987.912720 599.048401,995.834900 C598.650269,1005.246643 598.332825,1014.661682 597.990234,1024.537598 C595.299988,1025.000000 592.599976,1025.000000 589.449951,1025.000000 z"/>
<path fill="#39393F" opacity="1.000000" stroke="none" d="M588.961853,839.976868 C588.242493,839.660645 587.523132,839.344421 586.493591,838.658813 C583.418152,833.707092 588.144531,831.481812 589.677002,827.987183 C590.908203,826.126709 592.343750,824.528015 592.674255,822.726624 C594.308899,813.815308 595.651489,804.850281 597.097107,795.904236 C602.930420,777.321838 615.836487,763.347656 627.767944,748.724243 C631.964722,743.580688 636.289856,738.481567 639.870728,732.920715 C641.704895,730.072144 642.026794,726.249756 643.307007,722.671143 C643.922119,723.432983 644.262451,724.391113 645.093933,726.731812 C650.662720,718.160278 655.708252,710.685181 660.432922,703.012451 C663.244507,698.446472 665.551453,693.569763 668.085266,688.832703 C670.804260,691.049866 674.645813,692.715759 676.051392,695.577942 C682.759949,709.238770 688.832764,723.212891 695.074524,737.101196 C697.032959,741.458801 698.813293,745.896484 700.817383,751.068970 C702.328918,761.140869 699.255981,769.313232 693.992004,776.633667 C680.895508,794.846313 664.331604,809.342285 644.873535,820.376831 C627.462097,830.250793 609.399963,838.587280 588.961853,839.976868 z"/>
<path fill="#39393F" opacity="1.000000" stroke="none" d="M456.839813,837.960632 C456.381012,837.997925 455.922241,838.035217 454.686218,838.090698 C449.156372,837.467224 444.256165,837.359314 439.676331,836.092834 C418.278900,830.175781 398.787018,820.201782 381.102661,806.880432 C362.815948,793.105408 346.241516,777.860596 341.293610,753.966797 C341.658569,752.684692 342.023529,751.402649 342.621094,749.766968 C349.886780,732.991455 356.650879,716.445374 364.135162,700.231812 C366.094177,695.987976 370.290527,692.776978 374.101074,689.244019 C378.774902,696.028625 382.645996,702.765808 386.884949,709.263062 C391.022949,715.605652 395.536621,721.703125 399.885345,727.908203 C409.494171,740.334167 419.477722,752.493286 428.580414,765.279541 C434.672913,773.837524 439.514221,783.286194 445.040802,793.066406 C446.449097,801.139832 447.632385,808.502502 449.056061,815.818359 C449.791779,819.599182 450.954163,823.296997 452.061035,827.341064 C453.431549,829.135864 455.036224,830.455872 455.794952,832.153870 C456.573792,833.897095 456.525879,836.009705 456.839813,837.960632 z"/>
<path fill="#F1EBE5" opacity="1.000000" stroke="none" d="M451.923767,827.032288 C450.954163,823.296997 449.791779,819.599182 449.056061,815.818359 C447.632385,808.502502 446.449097,801.139832 445.168762,793.409302 C467.535706,804.145203 491.369171,808.434570 516.176697,809.302124 C543.871582,810.270569 570.584045,806.329224 596.725525,796.010803 C595.651489,804.850281 594.308899,813.815308 592.674255,822.726624 C592.343750,824.528015 590.908203,826.126709 589.256348,827.950134 C568.674194,834.393066 550.595825,836.365356 532.376343,836.889648 C522.123657,837.184753 511.750854,837.061340 501.589417,835.829529 C488.512604,834.244202 475.592346,831.364380 462.607056,829.028992 C459.041595,828.387756 455.484619,827.699158 451.923767,827.032288 z"/>
<path fill="#BBB0A6" opacity="1.000000" stroke="none" d="M588.893677,840.367188 C609.399963,838.587280 627.462097,830.250793 644.873535,820.376831 C664.331604,809.342285 680.895508,794.846313 693.992004,776.633667 C699.255981,769.313232 702.328918,761.140869 700.994751,751.371521 C702.711304,751.238586 704.392761,751.574585 706.437500,751.920532 C710.897827,761.741882 707.631775,770.648804 702.570068,778.780945 C688.875244,800.783142 669.390198,816.750000 646.842529,828.792725 C635.042908,835.094971 622.221008,839.473450 609.934875,844.888611 C608.632874,845.462402 607.042969,847.094299 606.922668,848.362000 C606.093750,857.102844 605.454224,865.870117 605.066162,874.642700 C604.237183,893.386475 603.646912,912.140808 602.803162,930.883789 C602.719055,932.754150 601.564453,934.576355 600.651978,937.134827 C600.871277,937.864319 601.370789,939.526184 601.805786,941.565796 C599.059204,941.933960 596.377136,941.924316 593.326294,941.953247 C592.943298,940.280029 592.929016,938.568298 592.946655,936.186279 C593.928528,934.596985 594.227783,934.281006 594.527039,933.964966 C594.048157,933.636536 593.569214,933.308167 593.076050,932.538330 C593.218018,927.398865 593.991333,911.167114 594.208557,905.754272 C594.944519,887.413208 595.958862,869.082764 596.949036,850.752747 C597.132629,847.353882 595.905151,845.733704 592.402893,846.057373 C591.085815,846.179138 589.754700,846.148926 588.429993,846.187988 C588.561829,844.377808 588.693665,842.567688 588.893677,840.367188 z"/>
<path fill="#2A2B2F" opacity="1.000000" stroke="none" d="M400.060760,727.550659 C395.536621,721.703125 391.022949,715.605652 386.884949,709.263062 C382.645996,702.765808 378.774902,696.028625 374.454956,689.225220 C382.943878,685.465271 391.720673,681.876465 400.497437,678.287659 C401.166107,678.752197 401.834778,679.216736 402.503448,679.681213 C401.747681,695.518555 400.991913,711.355835 400.060760,727.550659 z"/>
<path fill="#2A2B2F" opacity="1.000000" stroke="none" d="M667.929688,688.523621 C665.551453,693.569763 663.244507,698.446472 660.432922,703.012451 C655.708252,710.685181 650.662720,718.160278 645.093933,726.731812 C644.262451,724.391113 643.922119,723.432983 643.369385,722.246826 C642.372742,707.927551 641.588562,693.836304 640.804321,679.745056 C641.433350,679.300659 642.062439,678.856323 642.691467,678.411926 C651.052368,681.679443 659.413208,684.946960 667.929688,688.523621 z"/>
<path fill="#BBB0A6" opacity="1.000000" stroke="none" d="M340.978821,754.225830 C346.241516,777.860596 362.815948,793.105408 381.102661,806.880432 C398.787018,820.201782 418.278900,830.175781 439.676331,836.092834 C444.256165,837.359314 449.156372,837.467224 454.345215,838.144653 C454.583191,839.837830 454.384918,841.495422 454.164001,843.517212 C450.701721,843.881470 447.262115,843.881470 442.945038,843.881470 C442.945038,847.688232 442.945038,851.868042 442.920105,856.508911 C440.275574,856.637512 437.655945,856.304993 434.646667,855.957825 C434.162415,852.164795 433.880524,848.378784 434.032410,844.610352 C434.153534,841.605957 432.951477,839.968872 430.189697,839.065796 C409.894470,832.429260 391.760712,821.823914 374.940216,808.833374 C361.587250,798.520752 350.839233,785.999634 343.545715,770.743958 C341.139374,765.710693 338.852509,760.389709 340.978821,754.225830 z"/>
<path fill="#E1DEDC" opacity="1.000000" stroke="none" d="M452.061035,827.341064 C455.484619,827.699158 459.041595,828.387756 462.607056,829.028992 C475.592346,831.364380 488.512604,834.244202 501.589417,835.829529 C511.750854,837.061340 522.123657,837.184753 532.376343,836.889648 C550.595825,836.365356 568.674194,834.393066 586.094727,828.486084 C586.863953,828.225220 587.716736,828.210693 588.951172,828.118530 C588.144531,831.481812 583.418152,833.707092 586.198608,838.656616 C583.808228,839.874207 581.402649,840.724548 578.791382,841.828247 C570.417908,843.211731 562.277649,844.984436 554.076477,845.336304 C537.740906,846.037109 521.337524,846.708008 505.027283,845.964172 C491.729858,845.357727 478.527222,842.673645 464.797577,840.863708 C461.948120,840.089539 459.583649,839.362427 457.029480,838.297974 C456.525879,836.009705 456.573792,833.897095 455.794952,832.153870 C455.036224,830.455872 453.431549,829.135864 452.061035,827.341064 z"/>
<path fill="#F4E5D4" opacity="1.000000" stroke="none" d="M593.067993,935.015991 C593.038147,935.182739 593.008362,935.349426 592.907532,935.760254 C591.388855,934.998047 589.872192,934.075806 588.511658,932.962891 C586.970459,931.702148 585.569275,930.270447 583.708008,928.832764 C584.960205,901.529602 586.611633,874.306885 588.346558,846.636047 C589.754700,846.148926 591.085815,846.179138 592.402893,846.057373 C595.905151,845.733704 597.132629,847.353882 596.949036,850.752747 C595.958862,869.082764 594.944519,887.413208 594.208557,905.754272 C593.991333,911.167114 594.652649,916.615234 594.615112,922.544861 C593.978027,923.711670 593.637085,924.380798 593.296143,925.049866 C593.218018,927.398865 593.139954,929.747925 593.036987,932.876831 C593.030762,934.109802 593.049377,934.562866 593.067993,935.015991 z"/>
</g>
</svg>
