<svg xmlns="http://www.w3.org/2000/svg" viewBox="0 0 1024 1024">
<g transform="translate(-59.44, -10) scale(1.12)">
<path fill="#A2C5E7" opacity="1.000000" stroke="none" d=" M509.156982,805.891846   C510.072754,807.412598 510.988495,808.933411 511.980042,811.166443   C511.848602,813.018677 511.692413,814.170837 511.425659,815.296753   C509.945343,821.544373 507.177612,827.777710 507.138672,834.030212   C506.814453,886.117126 506.991455,938.207031 507.017090,990.296082   C502.895569,990.487854 498.771454,990.887512 494.653015,990.835571   C476.695557,990.609009 458.737518,990.346619 440.783966,989.918030   C415.861633,989.323181 390.936371,988.750427 366.025299,987.820496   C347.788422,987.139709 329.555573,986.137329 311.351288,984.849304   C287.541656,983.164795 263.762787,981.047058 239.968323,979.145264   C237.155823,978.920532 234.328461,978.881714 231.602539,978.423706   C235.401611,978.370605 234.986237,975.784546 234.931900,973.445007   C234.592834,958.844421 234.292038,944.242737 233.883301,929.644165   C233.809479,927.007446 233.577835,924.302612 232.864944,921.786255   C232.499588,920.496765 230.909439,919.554138 229.872833,918.454773   C229.245819,919.652222 228.095657,920.838623 228.070114,922.048767   C227.677719,940.637451 227.431793,959.229309 227.151794,977.820374   C219.061356,977.183350 210.948700,976.748474 202.885437,975.863586   C189.543900,974.399475 176.187714,972.948669 162.925766,970.917297   C152.315979,969.292175 141.832672,966.834229 131.302750,964.698975   C128.167770,964.063293 127.645897,962.207886 128.361603,959.164551   C137.736816,919.299255 146.936127,879.392517 156.335571,839.533020   C158.463303,830.510132 160.659821,821.441650 163.739334,812.717041   C171.734711,790.065430 189.300385,777.098511 210.762527,769.022095   C238.283371,758.665710 266.098572,749.093140 293.759766,739.107483   C311.105591,732.845642 328.385651,726.401733 345.729584,720.134583   C350.722412,718.330505 355.910065,717.051392 360.854156,715.133789   C362.772003,714.390015 365.015717,712.896851 365.832031,711.148071   C374.196533,693.229370 382.370453,675.220337 390.423615,657.158936   C392.542175,652.407471 394.841431,648.172607 400.775543,647.603699   C400.424927,650.380493 398.662262,653.199768 399.399017,654.990845   C403.309509,664.497803 408.693237,673.144897 416.793823,679.794250   C419.711029,683.553955 422.284271,687.653015 425.602905,691.016663   C443.209717,708.862366 461.003632,726.523499 478.500732,744.571350   C475.702881,746.223816 472.414520,746.941895 470.687653,748.981812   C458.892120,762.915405 447.428284,777.129761 435.849884,791.247314   C430.106567,798.250122 424.347076,805.239807 417.556549,813.498291   C399.451752,780.751160 382.025116,749.230652 364.598450,717.710144   C365.140594,721.419739 365.825317,725.261475 367.401428,728.693909   C373.843262,742.722717 380.363190,756.722900 387.221893,770.551270   C395.201080,786.638672 403.508789,802.564575 411.788666,818.500916   C415.188995,825.045532 417.733124,825.604675 422.391602,820.069885   C433.073822,807.378601 443.436768,794.413452 453.707611,781.384705   C456.012573,778.460815 457.991302,777.751526 461.222687,779.598206   C470.888428,785.122009 480.604767,790.559387 490.358917,795.925781   C496.571991,799.344116 502.887451,802.576233 509.156982,805.891846  z"/>
<path fill="#5788B7" opacity="1.000000" stroke="none" d=" M416.858826,679.347595   C408.693237,673.144897 403.309509,664.497803 399.399017,654.990845   C398.662262,653.199768 400.424927,650.380493 401.135437,647.694641   C405.861969,646.170654 410.487305,644.987671 415.533325,643.736145   C416.284882,645.246887 416.889771,646.824036 416.902191,648.405823   C416.981750,658.570312 416.931427,668.735779 416.858826,679.347595  z"/>
<path fill="#5788B7" opacity="1.000000" stroke="none" d=" M509.098083,805.538818   C502.887451,802.576233 496.571991,799.344116 490.358917,795.925781   C480.604767,790.559387 470.888428,785.122009 461.222687,779.598206   C457.991302,777.751526 456.012573,778.460815 453.707611,781.384705   C443.436768,794.413452 433.073822,807.378601 422.391602,820.069885   C417.733124,825.604675 415.188995,825.045532 411.788666,818.500916   C403.508789,802.564575 395.201080,786.638672 387.221893,770.551270   C380.363190,756.722900 373.843262,742.722717 367.401428,728.693909   C365.825317,725.261475 365.140594,721.419739 364.598450,717.710144   C382.025116,749.230652 399.451752,780.751160 417.556549,813.498291   C424.347076,805.239807 430.106567,798.250122 435.849884,791.247314   C447.428284,777.129761 458.892120,762.915405 470.687653,748.981812   C472.414520,746.941895 475.702881,746.223816 478.661194,744.856079   C482.711670,751.645569 486.573669,758.372925 489.983917,765.322021   C496.472076,778.542969 502.701965,791.890686 509.098083,805.538818  z"/>
<path fill="#5788B7" opacity="1.000000" stroke="none" d=" M227.513596,977.903076   C227.431793,959.229309 227.677719,940.637451 228.070114,922.048767   C228.095657,920.838623 229.245819,919.652222 229.872833,918.454773   C230.909439,919.554138 232.499588,920.496765 232.864944,921.786255   C233.577835,924.302612 233.809479,927.007446 233.883301,929.644165   C234.292038,944.242737 234.592834,958.844421 234.931900,973.445007   C234.986237,975.784546 235.401611,978.370605 231.265228,978.172668   C229.847366,978.165039 228.861389,978.075378 227.513596,977.903076  z"/>
<path fill="#5587B6" opacity="1.000000" stroke="none" d=" M518.628296,808.213379   C517.973816,814.602356 516.563477,821.105042 516.163147,827.669373   C515.465515,839.108582 515.138489,850.584961 515.099304,862.047302   C514.954468,904.371704 514.991150,946.696838 514.951904,989.486450   C512.596313,990.058716 510.248260,990.166077 507.458679,990.284790   C506.991455,938.207031 506.814453,886.117126 507.138672,834.030212   C507.177612,827.777710 509.945343,821.544373 511.425659,815.296753   C511.692413,814.170837 511.848602,813.018677 512.120483,811.475952   C514.232422,810.167175 516.279724,809.261047 518.628296,808.213379  z"/>
<path fill="#5788B7" opacity="1.000000" stroke="none" d=" M548.827148,745.125854   C555.013184,744.682739 557.369080,749.632019 560.280640,753.123474   C576.226624,772.245300 591.866211,791.622437 607.632141,810.894653   C608.026489,811.376709 608.664795,811.659241 609.981384,812.601990   C612.278931,808.587830 614.492554,804.826904 616.605835,801.010376   C630.294495,776.289246 644.026245,751.591431 657.568054,726.789978   C659.695007,722.894653 660.928284,718.511353 662.841919,714.086792   C663.622681,714.058228 664.136353,714.296631 664.841309,714.746338   C665.531860,723.646179 661.888000,731.244324 658.116943,738.574768   C644.132996,765.757996 629.830383,792.777527 615.600037,819.833618   C613.014709,824.749023 611.173889,825.491272 607.258606,821.683167   C601.592651,816.172424 596.638000,809.913391 591.544861,803.835266   C585.371094,796.467529 579.323547,788.992188 573.319946,781.484680   C571.442688,779.137085 569.473389,778.580688 566.842651,780.073914   C553.583923,787.599854 540.315186,795.108398 527.032532,802.591858   C524.880432,803.804382 522.640320,804.860657 520.046753,805.993103   C529.276062,785.766479 538.899597,765.535950 548.827148,745.125854  z"/>
<path fill="#A2C5E7" opacity="1.000000" stroke="none" d=" M518.929443,808.071899   C519.042786,807.519348 519.156128,806.966797 519.855225,806.201660   C522.640320,804.860657 524.880432,803.804382 527.032532,802.591858   C540.315186,795.108398 553.583923,787.599854 566.842651,780.073914   C569.473389,778.580688 571.442688,779.137085 573.319946,781.484680   C579.323547,788.992188 585.371094,796.467529 591.544861,803.835266   C596.638000,809.913391 601.592651,816.172424 607.258606,821.683167   C611.173889,825.491272 613.014709,824.749023 615.600037,819.833618   C629.830383,792.777527 644.132996,765.757996 658.116943,738.574768   C661.888000,731.244324 665.531860,723.646179 665.032593,714.957703   C677.473633,719.047729 689.996155,722.907715 702.338379,727.276978   C726.130493,735.699707 749.846313,744.340515 773.544922,753.024170   C791.467285,759.591309 809.678284,765.540527 827.107178,773.243835   C852.255615,784.358948 867.421936,803.773743 873.063904,831.217224   C881.337036,871.458374 891.092163,911.393982 899.470093,951.615112   C902.000122,963.761169 904.650452,963.204590 890.615112,965.625854   C876.741760,968.019226 862.804260,970.075806 848.853638,971.977234   C835.565308,973.788391 822.226624,975.234253 808.902588,976.775635   C806.596130,977.042419 804.252075,976.984985 801.484436,976.581787   C801.044983,962.446167 801.129272,948.805237 801.000854,935.166321   C800.958923,930.707886 800.561523,926.224731 799.895630,921.817932   C799.705994,920.562744 798.000183,919.536560 796.989624,918.405396   C796.311951,919.580078 795.191406,920.702942 795.046509,921.940063   C794.719238,924.733521 794.871338,927.583496 794.833435,930.410522   C794.621887,946.176941 794.411865,961.943359 794.201294,977.709839   C781.146118,978.818115 768.099792,980.047485 755.033752,981.008118   C731.696167,982.723999 708.348694,984.309265 685.000732,985.879883   C678.039673,986.348145 671.066406,986.694397 664.092957,986.906006   C648.795166,987.370239 633.495117,987.781067 618.193420,988.090881   C584.091431,988.781250 549.987976,989.396240 515.422302,989.531738   C514.991150,946.696838 514.954468,904.371704 515.099304,862.047302   C515.138489,850.584961 515.465515,839.108582 516.163147,827.669373   C516.563477,821.105042 517.973816,814.602356 518.929443,808.071899  z"/>
<path fill="#5788B7" opacity="1.000000" stroke="none" d=" M548.827148,745.125854   C555.013184,744.682739 557.369080,749.632019 560.280640,753.123474   C576.226624,772.245300 591.866211,791.622437 607.632141,810.894653   C608.026489,811.376709 608.664795,811.659241 609.981384,812.601990   C612.278931,808.587830 614.492554,804.826904 616.605835,801.010376   C630.294495,776.289246 644.026245,751.591431 657.568054,726.789978   C659.695007,722.894653 660.928284,718.511353 662.841919,714.086792   C663.622681,714.058228 664.136353,714.296631 664.841309,714.746338   C665.531860,723.646179 661.888000,731.244324 658.116943,738.574768   C644.132996,765.757996 629.830383,792.777527 615.600037,819.833618   C613.014709,824.749023 611.173889,825.491272 607.258606,821.683167   C601.592651,816.172424 596.638000,809.913391 591.544861,803.835266   C585.371094,796.467529 579.323547,788.992188 573.319946,781.484680   C571.442688,779.137085 569.473389,778.580688 566.842651,780.073914   C553.583923,787.599854 540.315186,795.108398 527.032532,802.591858   C524.880432,803.804382 522.640320,804.860657 520.046753,805.993103   C529.276062,785.766479 538.899597,765.535950 548.827148,745.125854  z"/>
<path fill="#A1C4E5" opacity="1.000000" stroke="none" d=" M549.131226,744.946228   C555.401428,738.661499 561.640259,732.345093 567.950439,726.100769   C574.533752,719.586243 581.185913,713.141235 588.228149,706.202637   C597.161743,696.489929 605.675110,687.240295 614.514954,677.943604   C617.967224,674.347717 621.399414,671.019043 624.145081,667.197144   C628.025452,661.795776 632.694885,656.450195 630.178345,648.861145   C632.179749,650.380676 635.080994,651.470947 636.042603,653.486572   C645.159851,672.597473 653.951965,691.863647 662.808105,711.098694   C663.072937,711.673767 663.012817,712.398499 662.839478,713.703613   C660.928284,718.511353 659.695007,722.894653 657.568054,726.789978   C644.026245,751.591431 630.294495,776.289246 616.605835,801.010376   C614.492554,804.826904 612.278931,808.587830 609.981384,812.601990   C608.664795,811.659241 608.026489,811.376709 607.632141,810.894653   C591.866211,791.622437 576.226624,772.245300 560.280640,753.123474   C557.369080,749.632019 555.013184,744.682739 549.131226,744.946228  z"/>
<path fill="#5788B7" opacity="1.000000" stroke="none" d=" M614.514954,677.943604   C614.212585,666.937378 614.236755,655.884094 614.371582,644.364990   C619.527405,645.400696 624.572693,646.902222 629.898132,648.632446   C632.694885,656.450195 628.025452,661.795776 624.145081,667.197144   C621.399414,671.019043 617.967224,674.347717 614.514954,677.943604  z"/>
<path fill="#5788B7" opacity="1.000000" stroke="none" d=" M794.591675,977.760437   C794.411865,961.943359 794.621887,946.176941 794.833435,930.410522   C794.871338,927.583496 794.719238,924.733521 795.046509,921.940063   C795.191406,920.702942 796.311951,919.580078 796.989624,918.405396   C798.000183,919.536560 799.705994,920.562744 799.895630,921.817932   C800.561523,926.224731 800.958923,930.707886 801.000854,935.166321   C801.129272,948.805237 801.044983,962.446167 801.032898,976.557251   C799.008911,977.289185 796.995544,977.550110 794.591675,977.760437  z"/>
</g>
</svg>