<?xml version="1.0" encoding="UTF-8" standalone="no"?>
<svg
   viewBox="0 0 1024 1024"
   version="1.1"
   id="svg16"
   xmlns="http://www.w3.org/2000/svg"
   xmlns:svg="http://www.w3.org/2000/svg"><defs
   id="defs16" />
<g transform="translate(0, 8)">

<path
   fill="#F36925"
   opacity="1.000000"
   stroke="none"
   d=" M635.266418,682.762268   C659.303162,683.829956 682.662598,688.838501 705.835571,694.915100   C722.851440,699.377136 735.117310,709.397827 741.926331,725.810852   C743.136108,728.726807 744.711426,731.498230 745.815125,734.449646   C749.725769,744.907837 755.941589,753.829224 763.466736,761.979004   C772.013428,771.234863 777.670410,781.908569 779.452393,794.589600   C780.524414,802.218872 778.841980,809.042236 774.630554,815.835144   C785.448242,820.310669 796.164612,824.311951 806.508850,829.114685   C827.438354,838.832031 848.232727,848.847656 868.958801,858.993713   C891.484924,870.020996 907.073303,887.573059 918.184631,909.998108   C935.851746,945.653931 947.943726,983.119019 956.965637,1021.710205   C957.153687,1022.514526 957.157471,1023.361816 957.123535,1024.594482   C924.979126,1025.000000 892.958191,1025.000000 860.448364,1024.579834   C862.827148,1010.370422 865.192566,996.452515 868.682617,982.822632   C873.704590,963.210022 879.610840,943.825012 884.923584,924.284058   C885.405518,922.511658 884.315063,920.311890 883.954834,918.310547   C882.188477,919.471741 879.781799,920.246155 878.795654,921.878601   C877.017822,924.821533 876.039185,928.258911 874.815979,931.523193   C863.381226,962.037903 854.148254,993.209106 847.000000,1025.000000   C628.645752,1025.000000 410.291534,1025.000000 191.484802,1024.580200   C190.777908,1022.526306 190.703003,1020.839600 190.241943,1019.266052   C184.260391,998.851746 178.530228,978.356079 172.085617,958.088013   C168.262009,946.062805 163.378708,934.367554 158.718430,922.624512   C158.159836,921.217041 156.008087,920.441833 154.594757,919.373596   C154.455261,920.994324 153.836746,922.749390 154.247971,924.215698   C160.662735,947.089600 167.485947,969.852783 173.604767,992.804199   C176.417496,1003.354614 177.909241,1014.257141 180.000000,1025.000000   C145.979111,1025.000000 111.958214,1025.000000 77.468658,1025.000000   C80.647255,1010.863831 83.868332,996.600891 88.030502,982.617981   C96.679405,953.562073 107.433426,925.387207 122.507225,898.874512   C131.566513,882.940430 144.301819,871.396179 159.725983,862.308105   C189.743744,844.621338 221.721085,831.077026 253.887253,817.940063   C255.554535,817.259094 257.184052,816.485718 258.848145,815.747803   C249.245941,795.475281 256.566895,778.820923 269.675842,763.920044   C277.022064,755.569641 283.559265,746.996094 287.565430,736.571594   C288.934814,733.008362 290.915588,729.682861 292.338715,726.137085   C299.450989,708.416443 312.963531,698.352661 331.061707,694.062683   C354.367798,688.538330 377.878204,684.141602 402.614014,682.778076   C403.934662,683.208313 404.492249,683.563110 404.999573,684.369385   C405.218628,688.916809 405.487946,693.012756 405.394287,697.252197   C390.728851,698.902832 376.358826,699.953247 362.144287,702.055115   C349.767303,703.885193 337.132690,705.115112 325.807495,711.425903   C319.074188,715.177917 317.934357,718.994141 323.152954,724.644653   C334.001160,736.390625 347.385986,744.557129 362.030182,751.361328   C370.927460,756.293091 379.559021,761.119263 388.415100,765.490417   C394.020172,768.256958 399.960114,770.345154 405.982117,773.023071   C408.418335,774.465576 410.581757,775.708923 412.832886,776.765442   C428.804626,784.261230 445.018341,791.280640 460.717712,799.307007   C477.757904,808.018921 494.424591,817.482788 511.028046,827.012695   C515.204773,829.409912 518.167419,829.288818 522.237488,826.937073   C537.370056,818.193298 552.638306,809.669617 568.057251,801.441040   C578.902710,795.653320 590.074951,790.477905 601.456970,784.967407   C612.861572,779.897461 623.910522,774.889038 635.325745,769.861694   C646.790955,764.855042 657.919800,759.931946 668.955994,754.809082   C670.591125,754.050171 671.788635,752.348328 673.539062,751.036011   C684.165466,744.614807 694.624512,738.509827 704.619934,731.722046   C708.208252,729.285339 710.879089,725.357178 713.601440,721.826477   C716.114197,718.567566 715.264465,715.346802 711.739197,713.428833   C707.533508,711.140686 703.242310,708.704041 698.681519,707.426636   C676.869934,701.317627 654.525757,698.310486 631.936890,696.390991   C631.883057,692.246094 631.848694,688.552673 631.963013,684.524963   C633.163208,683.714478 634.214844,683.238342 635.266418,682.762268  M428.938232,850.057312   C428.999298,842.388000 429.060364,834.718689 429.835724,826.969727   C437.267822,823.636658 438.530945,814.619995 432.034821,809.820068   C425.751160,805.177063 418.967560,806.478638 412.196472,808.851746   C407.408295,810.529968 406.216248,814.640991 406.290619,818.771667   C406.360931,822.677917 408.244202,826.177124 413.077820,827.814270   C413.012512,834.866577 412.947174,841.918884 412.080048,848.840332   C410.946411,848.587036 409.822083,848.277405 408.677765,848.089050   C389.047424,844.857849 369.259827,842.370117 349.820831,838.240784   C324.555878,832.873901 300.226776,824.291809 276.777649,813.347961   C270.497833,810.417175 265.625702,811.471558 260.862091,816.996460   C262.999573,818.543213 264.922333,820.461975 267.238220,821.520630   C278.269684,826.563232 289.160431,832.067749 300.558258,836.123596   C326.920166,845.504456 354.219666,851.389832 381.808746,855.846191   C392.109436,857.509949 402.510254,858.553894 413.053772,860.816650   C413.056458,888.401062 413.009430,915.985657 413.107239,943.569702   C413.125031,948.579285 411.737762,953.999878 416.154144,958.181396   C416.477661,958.487793 416.247528,959.399902 416.241547,960.030151   C416.165924,967.986694 416.084198,975.943237 415.522308,984.434326   C416.430573,986.254028 416.867371,988.962341 418.329498,989.738220   C424.352631,992.934143 430.606384,988.980408 430.945526,981.983521   C431.162811,977.500305 430.947601,972.997620 431.034241,968.505737   C431.062500,967.042175 430.918976,965.145813 431.730560,964.198120   C436.161530,959.024109 435.802704,952.712097 435.874664,946.704041   C436.114410,926.685669 435.967010,906.662720 435.969086,886.641479   C435.969757,880.151001 436.039429,873.659546 435.948669,867.170349   C435.903259,863.920288 436.804688,862.951782 440.392181,863.476257   C448.572113,864.672058 456.843933,865.293518 465.095490,865.924866   C470.103088,866.307922 472.430511,864.176453 472.910461,859.228027   C458.317383,856.480530 443.708893,853.730103 428.938232,850.057312  M597.533203,827.944092   C597.368469,835.967346 597.203735,843.990662 596.137573,852.023560   C574.413147,854.532410 552.679016,856.960938 530.971069,859.604980   C525.342407,860.290588 519.795898,861.650513 514.211670,862.700745   C514.159729,863.336426 514.107788,863.972107 514.055786,864.607788   C515.829407,865.057617 517.607788,865.915527 519.375916,865.894775   C539.825012,865.654724 560.272644,865.290710 580.719971,864.920349   C581.860168,864.899719 583.035278,864.661926 584.124207,864.309204   C591.226990,862.008362 591.989685,862.509827 591.993591,869.801819   C592.008179,897.441223 591.941040,925.080994 592.111084,952.719360   C592.129578,955.735596 593.434692,958.756592 594.231262,961.751953   C595.099426,965.016541 596.462036,968.203125 596.890991,971.516663   C597.357361,975.119385 596.982849,978.829163 597.001709,982.492126   C597.035889,989.118103 598.910156,990.937988 605.699341,990.978210   C611.757568,991.014099 613.820801,988.845886 614.016113,982.501038   C614.261108,974.539734 614.703247,966.583313 614.848572,958.620911   C614.879456,956.928772 613.997620,955.220032 613.334595,952.662292   C613.310425,923.354004 613.280273,894.045776 613.279541,864.737488   C613.279541,863.257385 613.533630,861.777222 614.583496,860.148438   C627.240295,858.440552 639.931091,856.950256 652.547424,854.982727   C686.922241,849.621948 720.880066,842.509216 753.030273,828.705322   C759.931946,825.742004 766.343628,821.637512 773.644104,817.701172   C768.074463,813.168762 763.483765,812.510925 757.952271,814.941956   C727.693848,828.240234 696.278870,837.942200 663.702209,843.486511   C647.044922,846.321533 630.181763,847.946777 613.201172,849.314636   C613.252869,841.881042 613.304504,834.447388 614.003479,826.817017   C618.017456,825.544861 619.914246,822.694580 619.965881,818.592651   C620.020447,814.256958 618.404785,810.617554 614.369202,808.779907   C608.303284,806.017883 602.043274,806.139282 596.057007,809.080627   C592.252075,810.950134 590.670959,814.400818 590.917542,818.586670   C591.163879,822.766541 592.947876,825.891357 597.533203,827.944092  z"
   id="path1" />
<path
   fill="#C44E1A"
   opacity="1.000000"
   stroke="none"
   d=" M180.458069,1025.000000   C177.909241,1014.257141 176.417496,1003.354614 173.604767,992.804199   C167.485947,969.852783 160.662735,947.089600 154.247971,924.215698   C153.836746,922.749390 154.455261,920.994324 154.594757,919.373596   C156.008087,920.441833 158.159836,921.217041 158.718430,922.624512   C163.378708,934.367554 168.262009,946.062805 172.085617,958.088013   C178.530228,978.356079 184.260391,998.851746 190.241943,1019.266052   C190.703003,1020.839600 190.777908,1022.526306 191.016144,1024.580200   C187.638718,1025.000000 184.277420,1025.000000 180.458069,1025.000000  z"
   id="path2" />
<path
   fill="#C24A16"
   opacity="1.000000"
   stroke="none"
   d=" M847.463196,1025.000000   C854.148254,993.209106 863.381226,962.037903 874.815979,931.523193   C876.039185,928.258911 877.017822,924.821533 878.795654,921.878601   C879.781799,920.246155 882.188477,919.471741 883.954834,918.310547   C884.315063,920.311890 885.405518,922.511658 884.923584,924.284058   C879.610840,943.825012 873.704590,963.210022 868.682617,982.822632   C865.192566,996.452515 862.827148,1010.370422 859.979675,1024.579834   C855.975464,1025.000000 851.950928,1025.000000 847.463196,1025.000000  z"
   id="path4" />
<path
   fill="#C14915"
   opacity="1.000000"
   stroke="none"
   d=" M412.480957,848.905762   C412.929382,852.314453 412.976868,855.657776 412.944885,859.440796   C402.510254,858.553894 392.109436,857.509949 381.808746,855.846191   C354.219666,851.389832 326.920166,845.504456 300.558258,836.123596   C289.160431,832.067749 278.269684,826.563232 267.238220,821.520630   C264.922333,820.461975 262.999573,818.543213 260.862091,816.996460   C265.625702,811.471558 270.497833,810.417175 276.777649,813.347961   C300.226776,824.291809 324.555878,832.873901 349.820831,838.240784   C369.259827,842.370117 389.047424,844.857849 408.677765,848.089050   C409.822083,848.277405 410.946411,848.587036 412.480957,848.905762  z"
   id="path5" />
<path
   fill="#A43F15"
   opacity="1.000000"
   stroke="none"
   d=" M429.478546,827.009521   C429.060120,825.403625 428.957794,823.758240 428.944702,822.112122   C428.890228,815.257996 427.009918,813.217773 420.754211,813.279419   C414.823029,813.337891 413.060852,815.346130 413.055695,822.048279   C413.054688,823.368103 413.044098,824.687988 412.966858,826.442261   C408.244202,826.177124 406.360931,822.677917 406.290619,818.771667   C406.216248,814.640991 407.408295,810.529968 412.196472,808.851746   C418.967560,806.478638 425.751160,805.177063 432.034821,809.820068   C438.530945,814.619995 437.267822,823.636658 429.478546,827.009521  z"
   id="path6" />
<path
   fill="#F3EEEC"
   opacity="1.000000"
   stroke="none"
   d=" M416.004028,983.899780   C416.084198,975.943237 416.165924,967.986694 416.241547,960.030151   C416.247528,959.399902 416.477661,958.487793 416.154144,958.181396   C411.737762,953.999878 413.125031,948.579285 413.107239,943.569702   C413.009430,915.985657 413.056458,888.401062 413.039062,859.908813   C412.976868,855.657776 412.929382,852.314453 412.881866,848.971191   C412.947174,841.918884 413.012512,834.866577 413.057861,826.911011   C413.044098,824.687988 413.054688,823.368103 413.055695,822.048279   C413.060852,815.346130 414.823029,813.337891 420.754211,813.279419   C427.009918,813.217773 428.890228,815.257996 428.944702,822.112122   C428.957794,823.758240 429.060120,825.403625 429.121399,827.049377   C429.060364,834.718689 428.999298,842.388000 428.940125,850.984375   C428.944061,884.509949 429.017120,917.108887 428.834503,949.706421   C428.816925,952.846069 427.210938,955.976807 426.584900,958.236267   C426.584900,965.017578 426.645508,971.225647 426.569855,977.432068   C426.471161,985.531860 423.727142,987.180176 416.004028,983.899780  z"
   id="path7" />
<path
   fill="#C24A16"
   opacity="1.000000"
   stroke="none"
   d=" M415.763184,984.167053   C423.727142,987.180176 426.471161,985.531860 426.569855,977.432068   C426.645508,971.225647 426.584900,965.017578 426.584900,958.236267   C427.210938,955.976807 428.816925,952.846069 428.834503,949.706421   C429.017120,917.108887 428.944061,884.509949 429.021210,851.445557   C443.708893,853.730103 458.317383,856.480530 472.910461,859.228027   C472.430511,864.176453 470.103088,866.307922 465.095490,865.924866   C456.843933,865.293518 448.572113,864.672058 440.392181,863.476257   C436.804688,862.951782 435.903259,863.920288 435.948669,867.170349   C436.039429,873.659546 435.969757,880.151001 435.969086,886.641479   C435.967010,906.662720 436.114410,926.685669 435.874664,946.704041   C435.802704,952.712097 436.161530,959.024109 431.730560,964.198120   C430.918976,965.145813 431.062500,967.042175 431.034241,968.505737   C430.947601,972.997620 431.162811,977.500305 430.945526,981.983521   C430.606384,988.980408 424.352631,992.934143 418.329498,989.738220   C416.867371,988.962341 416.430573,986.254028 415.763184,984.167053  z"
   id="path8" />
<path
   fill="#A43F15"
   opacity="1.000000"
   stroke="none"
   d=" M613.679810,826.915405   C613.274109,824.854431 613.195801,822.694946 613.109009,820.535828   C612.902222,815.394043 610.576294,813.243591 605.202759,813.220032   C599.927490,813.196899 597.520935,815.462952 597.384521,820.662476   C597.336548,822.491760 597.424561,824.324707 597.368774,826.596497   C592.947876,825.891357 591.163879,822.766541 590.917542,818.586670   C590.670959,814.400818 592.252075,810.950134 596.057007,809.080627   C602.043274,806.139282 608.303284,806.017883 614.369202,808.779907   C618.404785,810.617554 620.020447,814.256958 619.965881,818.592651   C619.914246,822.694580 618.017456,825.544861 613.679810,826.915405  z"
   id="path9" />
<path
   fill="#F3EFED"
   opacity="1.000000"
   stroke="none"
   d=" M597.038940,852.013916   C597.203735,843.990662 597.368469,835.967346 597.491821,827.050049   C597.424561,824.324707 597.336548,822.491760 597.384521,820.662476   C597.520935,815.462952 599.927490,813.196899 605.202759,813.220032   C610.576294,813.243591 612.902222,815.394043 613.109009,820.535828   C613.195801,822.694946 613.274109,824.854431 613.356201,827.013794   C613.304504,834.447388 613.252869,841.881042 613.249023,850.164307   C613.421021,854.108398 613.545227,857.202759 613.669373,860.297119   C613.533630,861.777222 613.279541,863.257385 613.279541,864.737488   C613.280273,894.045776 613.310425,923.354004 613.228516,953.392456   C612.020020,955.746094 610.917480,957.369446 609.815002,958.992859   C610.813171,966.146301 610.771240,973.395142 610.828796,980.643188   C610.864014,985.081177 607.862732,985.073059 604.695312,985.166870   C601.277344,985.268066 599.851135,983.797791 600.039368,980.372009   C600.418884,973.464050 600.678650,966.548706 600.889099,959.633423   C600.909180,958.972168 600.148010,958.320129 599.897278,957.611572   C598.991394,955.051147 597.435852,952.478516 597.399292,949.892456   C597.185303,934.743835 597.384155,919.589966 597.343323,904.438171   C597.296265,886.963257 597.145020,869.488647 597.038940,852.013916  z"
   id="path10" />
<path
   fill="#C24A16"
   opacity="1.000000"
   stroke="none"
   d=" M596.588257,852.018738   C597.145020,869.488647 597.296265,886.963257 597.343323,904.438171   C597.384155,919.589966 597.185303,934.743835 597.399292,949.892456   C597.435852,952.478516 598.991394,955.051147 599.897278,957.611572   C600.148010,958.320129 600.909180,958.972168 600.889099,959.633423   C600.678650,966.548706 600.418884,973.464050 600.039368,980.372009   C599.851135,983.797791 601.277344,985.268066 604.695312,985.166870   C607.862732,985.073059 610.864014,985.081177 610.828796,980.643188   C610.771240,973.395142 610.813171,966.146301 609.815002,958.992859   C610.917480,957.369446 612.020020,955.746094 613.329407,953.820801   C613.997620,955.220032 614.879456,956.928772 614.848572,958.620911   C614.703247,966.583313 614.261108,974.539734 614.016113,982.501038   C613.820801,988.845886 611.757568,991.014099 605.699341,990.978210   C598.910156,990.937988 597.035889,989.118103 597.001709,982.492126   C596.982849,978.829163 597.357361,975.119385 596.890991,971.516663   C596.462036,968.203125 595.099426,965.016541 594.231262,961.751953   C593.434692,958.756592 592.129578,955.735596 592.111084,952.719360   C591.941040,925.080994 592.008179,897.441223 591.993591,869.801819   C591.989685,862.509827 591.226990,862.008362 584.124207,864.309204   C583.035278,864.661926 581.860168,864.899719 580.719971,864.920349   C560.272644,865.290710 539.825012,865.654724 519.375916,865.894775   C517.607788,865.915527 515.829407,865.057617 514.055786,864.607788   C514.107788,863.972107 514.159729,863.336426 514.211670,862.700745   C519.795898,861.650513 525.342407,860.290588 530.971069,859.604980   C552.679016,856.960938 574.413147,854.532410 596.588257,852.018738  z"
   id="path11" />
<path
   fill="#C14915"
   opacity="1.000000"
   stroke="none"
   d=" M614.126465,860.222778   C613.545227,857.202759 613.421021,854.108398 613.354248,850.566406   C630.181763,847.946777 647.044922,846.321533 663.702209,843.486511   C696.278870,837.942200 727.693848,828.240234 757.952271,814.941956   C763.483765,812.510925 768.074463,813.168762 773.644104,817.701172   C766.343628,821.637512 759.931946,825.742004 753.030273,828.705322   C720.880066,842.509216 686.922241,849.621948 652.547424,854.982727   C639.931091,856.950256 627.240295,858.440552 614.126465,860.222778  z"
   id="path12" />
<path
   fill="#B14214"
   opacity="1.000000"
   stroke="none"
   d=" M406.009186,699.672058   C406.078247,709.382629 406.085358,718.730347 405.639526,728.606934   C388.975830,732.950684 373.611908,738.438965 361.859436,751.063232   C347.385986,744.557129 334.001160,736.390625 323.152954,724.644653   C317.934357,718.994141 319.074188,715.177917 325.807495,711.425903   C337.132690,705.115112 349.767303,703.885193 362.144287,702.055115   C376.358826,699.953247 390.728851,698.902832 405.394287,697.252197   C405.820587,697.842285 405.883911,698.575745 406.009186,699.672058  z"
   id="path13" />
<path
   fill="#B14214"
   opacity="1.000000"
   stroke="none"
   d=" M632.780029,731.063721   C632.490967,719.979858 632.201965,708.895935 631.934570,697.327271   C654.525757,698.310486 676.869934,701.317627 698.681519,707.426636   C703.242310,708.704041 707.533508,711.140686 711.739197,713.428833   C715.264465,715.346802 716.114197,718.567566 713.601440,721.826477   C710.879089,725.357178 708.208252,729.285339 704.619934,731.722046   C694.624512,738.509827 684.165466,744.614807 673.226257,750.870178   C661.350586,740.049011 647.601868,734.472107 632.780029,731.063721  z"
   id="path14" />
<path
   fill="#A03C13"
   opacity="1.000000"
   stroke="none"
   d=" M362.030182,751.361328   C373.611908,738.438965 388.975830,732.950684 405.563660,729.070740   C405.911713,743.288513 405.882721,757.571289 405.801819,772.295776   C399.960114,770.345154 394.020172,768.256958 388.415100,765.490417   C379.559021,761.119263 370.927460,756.293091 362.030182,751.361328  z"
   id="path15" />
<path
   fill="#A03C13"
   opacity="1.000000"
   stroke="none"
   d=" M632.763916,731.525879   C647.601868,734.472107 661.350586,740.049011 672.875854,750.916809   C671.788635,752.348328 670.591125,754.050171 668.955994,754.809082   C657.919800,759.931946 646.790955,764.855042 635.325806,769.861694   C634.222290,757.249756 633.485046,744.618835 632.763916,731.525879  z"
   id="path16" />
</g>
</svg>
