<svg xmlns="http://www.w3.org/2000/svg" viewBox="0 0 1024 1024">
  <g transform="translate(0, -2)">
  <path fill="#C34132" opacity="1.000000" stroke="none" d=" M633.088501,762.970642   C634.837646,763.136902 636.906677,762.753967 638.285156,763.556641   C649.038635,769.818665 660.728577,775.063171 670.039490,783.056213   C680.710144,792.216492 693.758179,794.204712 705.870544,798.634766   C750.206421,814.850464 794.606873,830.877808 837.114380,851.531311   C851.874756,858.703247 866.636719,866.379944 879.991089,875.816956   C899.331238,889.484009 912.010559,908.629272 919.532959,931.291565   C929.580505,961.561096 935.771118,992.627747 940.064819,1024.564697   C905.645752,1025.000000 871.291565,1025.000000 836.467651,1024.573364   C837.716736,1011.202209 839.502258,998.265747 841.052063,985.301025   C841.208801,983.989502 839.943054,982.507935 839.337463,981.105225   C837.889099,982.255798 835.450745,983.190918 835.146240,984.590393   C832.225159,998.015503 829.664185,1011.518982 827.000000,1025.000000   C623.312439,1025.000000 419.624878,1025.000000 215.445526,1024.600342   C212.932465,1014.658997 210.913589,1005.116943 208.888779,995.576111   C208.065979,991.699219 207.502060,987.734009 206.249649,984.000366   C205.823715,982.730713 203.708374,981.913879 202.208099,981.238831   C201.978149,981.135315 200.265854,982.959534 200.317413,983.828186   C200.570969,988.099609 201.084122,992.364563 201.698502,996.603821   C203.071564,1006.078003 204.559097,1015.535645 206.000000,1025.000000   C171.645767,1025.000000 137.291550,1025.000000 102.468666,1025.000000   C107.766716,997.511353 112.953270,969.884155 119.472015,942.575012   C125.360390,917.906677 137.424744,896.290833 157.358780,880.062927   C165.407196,873.510803 174.517776,868.095886 183.639221,863.058350   C224.393356,840.550781 267.673126,823.816406 311.334076,808.011597   C327.592163,802.126465 343.918945,796.431335 360.187897,790.575867   C363.205048,789.489929 365.476593,787.940430 367.683197,784.963867   C370.794434,780.767090 375.867676,777.741211 380.592438,775.087891   C388.510559,770.641113 396.815613,766.883301 405.543823,763.099243   C410.416199,768.915527 414.702667,774.468140 418.619934,780.005493   C416.053192,779.860413 412.815765,778.727173 411.820801,779.758118   C403.057922,788.837524 394.460754,798.105713 386.338470,807.758850   C383.495300,811.137817 381.961609,810.876526 379.453552,808.004883   C375.275726,803.221375 370.971191,798.548584 366.305542,793.369019   C365.724731,800.186218 369.268433,804.916870 372.887817,809.238708   C381.773407,819.848877 393.031769,827.521484 405.337921,833.642517   C435.466919,848.628418 467.834900,854.844666 501.044708,856.792419   C515.266541,857.626526 529.615906,856.453613 543.901306,856.000610   C568.872375,855.208740 593.027222,849.994568 616.334900,841.258789   C634.351196,834.506348 651.377930,825.759033 664.413818,810.997803   C668.836975,805.989441 673.313965,800.768066 672.889771,792.999512   C667.632690,798.932312 662.662720,804.541016 657.409546,810.469421   C650.671875,802.562317 644.912842,795.260864 638.547546,788.533081   C634.606628,784.367737 631.919922,778.224915 624.954468,777.594971   C627.716309,772.493347 630.402405,767.731995 633.088501,762.970642  z"/>
  <path fill="#A9392B" opacity="1.000000" stroke="none" d=" M206.449982,1025.000000   C204.559097,1015.535645 203.071564,1006.078003 201.698502,996.603821   C201.084122,992.364563 200.570969,988.099609 200.317413,983.828186   C200.265854,982.959534 201.978149,981.135315 202.208099,981.238831   C203.708374,981.913879 205.823715,982.730713 206.249649,984.000366   C207.502060,987.734009 208.065979,991.699219 208.888779,995.576111   C210.913589,1005.116943 212.932465,1014.658997 214.976868,1024.600342   C212.299988,1025.000000 209.599976,1025.000000 206.449982,1025.000000  z"/>
  <path fill="#A9392B" opacity="1.000000" stroke="none" d=" M827.450012,1025.000000   C829.664185,1011.518982 832.225159,998.015503 835.146240,984.590393   C835.450745,983.190918 837.889099,982.255798 839.337463,981.105225   C839.943054,982.507935 841.208801,983.989502 841.052063,985.301025   C839.502258,998.265747 837.716736,1011.202209 835.998962,1024.573364   C833.299988,1025.000000 830.599976,1025.000000 827.450012,1025.000000  z"/>
  <path fill="#A9392B" opacity="1.000000" stroke="none" d=" M418.619934,780.005493   C419.303314,780.109863 419.567505,780.277649 419.759827,781.038757   C416.373871,785.652039 413.130280,789.857361 409.619568,793.826294   C403.256348,801.020020 396.733978,808.072937 390.448242,814.997131   C390.834076,815.872681 390.881561,816.318176 391.111664,816.453857   C398.967590,821.084778 406.804626,825.752075 414.790314,830.149109   C415.341675,830.452576 417.548035,828.971497 418.091461,827.876953   C422.818390,818.355774 427.373535,808.748474 431.913116,799.135376   C434.855530,792.904480 434.805603,792.880920 441.043030,797.625244   C436.221649,808.026611 431.462158,818.638489 426.372162,829.089355   C424.577942,832.773376 425.275421,834.482971 429.144867,835.606567   C436.789093,837.826294 444.357056,840.308716 452.590485,842.880615   C456.463562,829.360352 460.248627,816.147217 464.033722,802.934082   C464.466095,802.986938 464.898499,803.039856 465.768738,803.501099   C470.794983,805.552979 470.997711,808.596252 469.630463,812.799072   C466.757477,821.630432 464.366730,830.617554 461.653503,839.502747   C460.647369,842.797546 460.720337,844.709167 465.005890,845.178894   C473.548157,846.115173 482.033752,847.577454 490.535461,848.870544   C493.772125,849.362793 494.980957,848.108215 495.037506,844.809753   C495.242065,832.877747 495.666870,820.949463 496.008545,809.019775   C498.421204,809.246521 500.833832,809.473267 503.625824,810.248535   C503.665924,822.252930 503.414795,833.712463 502.937164,845.162537   C502.781281,848.899902 504.183899,850.167664 507.853638,850.036560   C513.947449,849.818970 520.055054,849.944336 526.156372,849.987366   C536.909241,850.063171 537.432922,849.158508 535.624329,838.202515   C534.087341,828.892212 533.205811,819.473694 532.034302,810.103027   C534.391418,810.078918 536.748535,810.054810 539.559692,810.492371   C540.344055,813.751038 540.672852,816.548218 541.004944,819.345032   C542.020813,827.900513 543.017151,836.458374 544.065674,845.009888   C544.439026,848.054626 545.875183,849.221558 549.202698,848.539978   C553.407227,847.678772 557.766785,847.607849 562.022644,846.955627   C568.302979,845.993164 574.550842,844.818665 581.625000,843.593811   C577.195435,831.783569 573.268616,821.038391 569.100647,810.387573   C568.010315,807.601501 568.716858,806.427002 571.388733,805.683228   C573.815369,805.007629 575.921692,804.455261 576.967834,807.702332   C578.646790,812.913879 580.427551,818.095459 582.297363,823.241821   C584.543701,829.424255 586.928345,835.556580 589.476746,842.302612   C600.043884,838.793945 609.970276,835.498047 620.875183,831.877197   C614.784241,822.315430 609.337219,814.000061 604.160156,805.519958   C602.122559,802.182373 600.687805,798.476807 598.978516,794.938782   C600.763245,794.019226 602.547913,793.099609 604.952515,792.261963   C606.177856,792.907654 606.959717,793.367615 607.362244,794.051025   C613.421814,804.339050 619.568848,814.580444 625.357117,825.020264   C626.816467,827.652405 628.102905,828.663391 630.686829,827.093811   C636.364929,823.644958 642.003662,820.130432 647.627747,816.593811   C649.672424,815.308167 650.235291,813.863953 648.317261,811.770813   C642.714600,805.656555 637.174683,799.480408 631.763367,793.196594   C628.312195,789.188782 625.132874,784.946777 621.831665,780.809814   C622.674316,779.950989 623.516968,779.092163 624.619202,778.084290   C631.919922,778.224915 634.606628,784.367737 638.547546,788.533081   C644.912842,795.260864 650.671875,802.562317 657.409546,810.469421   C662.662720,804.541016 667.632690,798.932312 672.889771,792.999512   C673.313965,800.768066 668.836975,805.989441 664.413818,810.997803   C651.377930,825.759033 634.351196,834.506348 616.334900,841.258789   C593.027222,849.994568 568.872375,855.208740 543.901306,856.000610   C529.615906,856.453613 515.266541,857.626526 501.044708,856.792419   C467.834900,854.844666 435.466919,848.628418 405.337921,833.642517   C393.031769,827.521484 381.773407,819.848877 372.887817,809.238708   C369.268433,804.916870 365.724731,800.186218 366.305542,793.369019   C370.971191,798.548584 375.275726,803.221375 379.453552,808.004883   C381.961609,810.876526 383.495300,811.137817 386.338470,807.758850   C394.460754,798.105713 403.057922,788.837524 411.820801,779.758118   C412.815765,778.727173 416.053192,779.860413 418.619934,780.005493  z"/>
  <path fill="#C34334" opacity="1.000000" stroke="none" d=" M463.762695,802.695129   C460.248627,816.147217 456.463562,829.360352 452.590485,842.880615   C444.357056,840.308716 436.789093,837.826294 429.144867,835.606567   C425.275421,834.482971 424.577942,832.773376 426.372162,829.089355   C431.462158,818.638489 436.221649,808.026611 441.043030,797.625244   C434.805603,792.880920 434.855530,792.904480 431.913116,799.135376   C427.373535,808.748474 422.818390,818.355774 418.091461,827.876953   C417.548035,828.971497 415.341675,830.452576 414.790314,830.149109   C406.804626,825.752075 398.967590,821.084778 391.111664,816.453857   C390.881561,816.318176 390.834076,815.872681 390.448242,814.997131   C396.733978,808.072937 403.256348,801.020020 409.619568,793.826294   C413.130280,789.857361 416.373871,785.652039 419.884857,781.240723   C432.717896,791.738953 447.802551,797.707703 463.762695,802.695129  z"/>
  <path fill="#C34334" opacity="1.000000" stroke="none" d=" M495.639008,808.855286   C495.666870,820.949463 495.242065,832.877747 495.037506,844.809753   C494.980957,848.108215 493.772125,849.362793 490.535461,848.870544   C482.033752,847.577454 473.548157,846.115173 465.005890,845.178894   C460.720337,844.709167 460.647369,842.797546 461.653503,839.502747   C464.366730,830.617554 466.757477,821.630432 469.630463,812.799072   C470.997711,808.596252 470.794983,805.552979 466.079285,803.606079   C475.724457,805.098816 485.496948,806.894836 495.639008,808.855286  z"/>
  <path fill="#C34334" opacity="1.000000" stroke="none" d=" M531.574585,809.985779   C533.205811,819.473694 534.087341,828.892212 535.624329,838.202515   C537.432922,849.158508 536.909241,850.063171 526.156372,849.987366   C520.055054,849.944336 513.947449,849.818970 507.853638,850.036560   C504.183899,850.167664 502.781281,848.899902 502.937164,845.162537   C503.414795,833.712463 503.665924,822.252930 504.007568,810.356934   C513.044922,809.900696 522.079895,809.884644 531.574585,809.985779  z"/>
  <path fill="#C34334" opacity="1.000000" stroke="none" d=" M598.606628,794.977173   C600.687805,798.476807 602.122559,802.182373 604.160156,805.519958   C609.337219,814.000061 614.784241,822.315430 620.875183,831.877197   C609.970276,835.498047 600.043884,838.793945 589.476746,842.302612   C586.928345,835.556580 584.543701,829.424255 582.297363,823.241821   C580.427551,818.095459 578.646790,812.913879 576.967834,807.702332   C575.921692,804.455261 573.815369,805.007629 571.388733,805.683228   C568.716858,806.427002 568.010315,807.601501 569.100647,810.387573   C573.268616,821.038391 577.195435,831.783569 581.625000,843.593811   C574.550842,844.818665 568.302979,845.993164 562.022644,846.955627   C557.766785,847.607849 553.407227,847.678772 549.202698,848.539978   C545.875183,849.221558 544.439026,848.054626 544.065674,845.009888   C543.017151,836.458374 542.020813,827.900513 541.004944,819.345032   C540.672852,816.548218 540.344055,813.751038 539.999268,810.537598   C545.660461,808.991150 551.419922,808.172546 556.994934,806.669617   C570.786560,802.951843 584.493713,798.920715 598.606628,794.977173  z"/>
  <path fill="#C34334" opacity="1.000000" stroke="none" d=" M621.536743,780.923096   C625.132874,784.946777 628.312195,789.188782 631.763367,793.196594   C637.174683,799.480408 642.714600,805.656555 648.317261,811.770813   C650.235291,813.863953 649.672424,815.308167 647.627747,816.593811   C642.003662,820.130432 636.364929,823.644958 630.686829,827.093811   C628.102905,828.663391 626.816467,827.652405 625.357117,825.020264   C619.568848,814.580444 613.421814,804.339050 607.362244,794.051025   C606.959717,793.367615 606.177856,792.907654 605.279053,792.169678   C609.001099,789.262573 613.016541,786.529541 617.295776,783.559448   C618.786987,782.560364 620.014404,781.798401 621.536743,780.923096  z"/>
  </g>
</svg>
