<svg version="1.1" id="Layer_1" xmlns="http://www.w3.org/2000/svg" xmlns:xlink="http://www.w3.org/1999/xlink" x="0px" y="0px"
	 width="100%" viewBox="0 0 1024 1024" enable-background="new 0 0 1024 1024" xml:space="preserve">

<path fill="#303F5E" opacity="1.000000" stroke="none" 
	d="
M719.990295,793.062927 
	C729.236206,797.069214 738.604309,800.817566 747.706604,805.127197 
	C783.950317,822.287720 820.184937,839.471191 856.262146,856.977478 
	C868.605896,862.967163 880.753418,869.474182 892.483826,876.581238 
	C902.981384,882.941345 907.746338,893.863342 911.332031,905.046814 
	C922.075317,938.554688 930.391846,972.693848 937.284485,1007.188049 
	C938.421692,1012.879089 939.597534,1018.562561 940.877747,1024.624756 
	C856.312439,1025.000000 771.624878,1025.000000 686.480591,1024.623901 
	C686.362061,1023.143372 686.571106,1021.978271 687.057434,1020.943481 
	C698.013123,997.634460 709.035217,974.356628 719.965515,951.035645 
	C726.168823,937.800171 732.267883,924.515198 738.320190,911.209961 
	C739.304626,909.045654 740.692566,906.767639 737.905212,904.531555 
	C729.241272,897.580994 720.669434,890.514404 712.121521,883.420959 
	C707.193298,879.331238 702.380127,875.102844 696.992004,870.488831 
	C711.010559,863.847229 724.332458,857.535706 738.230530,850.951172 
	C735.439880,842.507324 732.589600,834.223022 729.968262,825.867004 
	C726.547363,814.962097 723.307861,804.000244 719.990295,793.062927 
z"/>
<path fill="#303F5E" opacity="1.000000" stroke="none" 
	d="
M101.468658,1025.000000 
	C102.221741,1018.015625 103.263504,1010.994019 104.695839,1004.053101 
	C111.559563,970.792236 119.305725,937.746460 129.673813,905.374695 
	C134.038742,891.746155 140.768143,879.685547 153.987991,872.674500 
	C165.839966,866.388855 177.823273,860.346741 189.818588,854.336792 
	C203.438766,847.512695 217.136093,840.842590 230.800842,834.107422 
	C251.889297,823.713196 272.972015,813.307190 294.071838,802.936035 
	C299.719604,800.160034 305.420654,797.492432 311.484802,795.088684 
	C311.708313,796.380066 311.669373,797.399292 311.361633,798.329529 
	C306.196838,813.942505 301.170410,829.605103 295.697083,845.109741 
	C294.164886,849.450073 295.212677,851.458191 299.159912,853.144104 
	C305.569946,855.881897 311.852356,858.923401 318.151001,861.915955 
	C323.742401,864.572510 329.282532,867.336853 335.716614,870.479126 
	C322.250916,881.806274 309.879822,892.539490 297.099945,902.761719 
	C293.315063,905.789062 292.784393,908.330994 294.693939,912.425293 
	C312.183624,949.924866 329.577881,987.468933 347.000000,1025.000000 
	C265.312439,1025.000000 183.624878,1025.000000 101.468658,1025.000000 
z"/>
<path fill="#303F5E" opacity="1.000000" stroke="none" 
	d="
M642.685791,726.992920 
	C647.865173,726.870667 651.936096,729.119568 655.464478,732.749146 
	C669.622192,747.312744 683.820618,761.836853 698.013428,776.366333 
	C701.595581,780.033386 705.212646,783.666260 708.704041,787.779419 
	C708.335205,789.236816 707.618774,790.377014 707.884155,791.200806 
	C713.277161,807.938110 718.729431,824.656921 724.312500,841.331726 
	C725.372314,844.497070 724.627686,846.346802 721.639404,847.709961 
	C714.387329,851.018372 707.211426,854.493225 699.978394,857.843994 
	C692.807068,861.166138 685.603516,864.418579 678.004639,867.888550 
	C679.153442,869.314209 679.642944,870.204163 680.375793,870.789429 
	C694.369202,881.966248 708.307495,893.215271 722.461609,904.185669 
	C726.396057,907.235107 727.585327,910.155212 725.191650,914.711121 
	C721.643982,921.463623 718.345703,928.352844 715.115723,935.265381 
	C705.191284,956.504822 695.305481,977.762695 685.497803,999.056213 
	C681.540955,1007.646912 677.825378,1016.348755 674.000000,1025.000000 
	C644.645752,1025.000000 615.291565,1025.000000 585.536804,1024.611084 
	C591.156982,997.331421 597.201294,970.445862 603.192200,943.548401 
	C610.157227,912.278198 617.103027,881.003662 624.001953,849.718872 
	C627.430115,834.172791 630.735107,818.599609 634.352783,802.758057 
	C637.334290,790.416565 640.157104,778.376831 642.754272,766.288635 
	C645.102539,755.359009 648.424622,744.441162 643.983459,733.206787 
	C643.216797,731.267639 643.101807,729.070740 642.685791,726.992920 
z"/>
<path fill="#303F5E" opacity="1.000000" stroke="none" 
	d="
M323.899902,787.943726 
	C335.928345,775.650574 347.969391,763.369690 359.980011,751.059143 
	C366.106384,744.779663 372.081421,738.349304 378.313568,732.177795 
	C381.619446,728.904114 385.320068,726.015747 390.611450,728.004333 
	C389.275421,734.915466 385.946228,741.460510 386.842133,747.364319 
	C390.035919,768.410706 394.666077,789.239136 398.802551,810.559448 
	C409.436340,860.396423 419.989960,909.830383 430.617615,959.248474 
	C435.334595,981.182251 440.201263,1003.083801 445.000000,1025.000000 
	C416.312439,1025.000000 387.624878,1025.000000 358.411011,1024.634521 
	C349.576294,1006.151550 341.252655,988.040833 332.963654,969.914368 
	C324.325287,951.023865 315.755676,932.101807 307.065369,913.235291 
	C305.645142,910.151978 306.136963,908.189941 308.869934,905.989746 
	C322.951080,894.654114 336.875336,883.123230 350.811127,871.608093 
	C351.996124,870.628906 352.863708,869.265442 354.173767,867.736267 
	C351.913666,866.546021 350.345001,865.628174 348.702728,864.869690 
	C336.339630,859.160400 323.984436,853.433044 311.573944,847.828247 
	C308.315948,846.356812 307.137970,844.659668 308.445953,840.894043 
	C313.629028,825.972046 318.582397,810.967773 323.383148,795.918152 
	C324.168671,793.455627 323.757843,790.611511 323.899902,787.943726 
z"/>
<path fill="#64213A" opacity="1.000000" stroke="none" 
	d="
M569.000000,1025.000000 
	C533.979126,1025.000000 498.958221,1025.000000 463.492126,1024.591309 
	C469.219391,993.254028 475.358398,962.318542 481.576569,931.398987 
	C485.503174,911.874146 489.548065,892.373108 493.924286,872.844299 
	C499.144257,869.573120 504.435120,868.483459 510.245361,868.944275 
	C515.320374,869.346802 520.488464,869.721069 525.518372,869.189514 
	C529.704285,868.747131 532.444824,869.779114 534.841003,873.139954 
	C536.193115,875.036377 538.290588,876.401306 540.290649,878.304077 
	C540.778076,879.564941 541.075073,880.517944 541.269470,881.491333 
	C549.163330,921.013916 557.096497,960.528809 564.893860,1000.070374 
	C566.522400,1008.329041 567.644531,1016.687500 569.000000,1025.000000 
z"/>
<path fill="#E5E8EC" opacity="1.000000" stroke="none" 
	d="
M493.539948,872.861389 
	C489.548065,892.373108 485.503174,911.874146 481.576569,931.398987 
	C475.358398,962.318542 469.219391,993.254028 463.023438,1024.591309 
	C457.311951,1025.000000 451.623932,1025.000000 445.467926,1025.000000 
	C440.201263,1003.083801 435.334595,981.182251 430.617615,959.248474 
	C419.989960,909.830383 409.436340,860.396423 399.067566,810.289978 
	C399.747101,807.966125 400.211670,806.321228 400.888428,803.924988 
	C412.869812,826.447327 424.450500,848.216492 436.220215,870.340942 
	C437.770020,869.267700 438.692291,868.848389 439.320984,868.160706 
	C447.955902,858.714966 456.490479,849.176636 465.194794,839.795715 
	C467.514008,837.296204 470.322876,835.250977 473.100433,833.285156 
	C479.796265,844.629639 486.386139,855.636536 492.705231,866.796692 
	C493.639557,868.446777 493.293610,870.821777 493.539948,872.861389 
z"/>
<path fill="#E5E8EC" opacity="1.000000" stroke="none" 
	d="
M569.466858,1025.000000 
	C567.644531,1016.687500 566.522400,1008.329041 564.893860,1000.070374 
	C557.096497,960.528809 549.163330,921.013916 541.269470,881.491333 
	C541.075073,880.517944 540.778076,879.564941 540.312988,877.886597 
	C538.371155,871.807373 539.248352,867.066711 542.343079,862.200867 
	C548.198669,852.994141 553.486572,843.426392 559.372131,834.021362 
	C561.011963,834.719055 562.578308,835.131958 563.522034,836.132385 
	C570.590088,843.624207 577.520874,851.245239 584.524902,858.797729 
	C588.093872,862.646118 591.725281,866.436646 595.742676,870.692017 
	C597.406006,868.180603 598.531982,866.756714 599.366333,865.178528 
	C609.543640,845.927856 619.638672,826.633484 629.890808,807.422913 
	C630.808472,805.703247 632.671692,804.488159 634.095764,803.038696 
	C630.735107,818.599609 627.430115,834.172791 624.001953,849.718872 
	C617.103027,881.003662 610.157227,912.278198 603.192200,943.548401 
	C597.201294,970.445862 591.156982,997.331421 585.068115,1024.611084 
	C579.977905,1025.000000 574.955811,1025.000000 569.466858,1025.000000 
z"/>
<path fill="#21314C" opacity="1.000000" stroke="none" 
	d="
M674.460632,1025.000000 
	C677.825378,1016.348755 681.540955,1007.646912 685.497803,999.056213 
	C695.305481,977.762695 705.191284,956.504822 715.115723,935.265381 
	C718.345703,928.352844 721.643982,921.463623 725.191650,914.711121 
	C727.585327,910.155212 726.396057,907.235107 722.461609,904.185669 
	C708.307495,893.215271 694.369202,881.966248 680.375793,870.789429 
	C679.642944,870.204163 679.153442,869.314209 678.004639,867.888550 
	C685.603516,864.418579 692.807068,861.166138 699.978394,857.843994 
	C707.211426,854.493225 714.387329,851.018372 721.639404,847.709961 
	C724.627686,846.346802 725.372314,844.497070 724.312500,841.331726 
	C718.729431,824.656921 713.277161,807.938110 707.884155,791.200806 
	C707.618774,790.377014 708.335205,789.236816 708.882690,788.067017 
	C712.592468,789.469055 716.013916,791.048096 719.712891,792.844971 
	C723.307861,804.000244 726.547363,814.962097 729.968262,825.867004 
	C732.589600,834.223022 735.439880,842.507324 738.230530,850.951172 
	C724.332458,857.535706 711.010559,863.847229 696.992004,870.488831 
	C702.380127,875.102844 707.193298,879.331238 712.121521,883.420959 
	C720.669434,890.514404 729.241272,897.580994 737.905212,904.531555 
	C740.692566,906.767639 739.304626,909.045654 738.320190,911.209961 
	C732.267883,924.515198 726.168823,937.800171 719.965515,951.035645 
	C709.035217,974.356628 698.013123,997.634460 687.057434,1020.943481 
	C686.571106,1021.978271 686.362061,1023.143372 686.011963,1024.623901 
	C682.307068,1025.000000 678.614197,1025.000000 674.460632,1025.000000 
z"/>
<path fill="#21314C" opacity="1.000000" stroke="none" 
	d="
M323.569427,788.049561 
	C323.757843,790.611511 324.168671,793.455627 323.383148,795.918152 
	C318.582397,810.967773 313.629028,825.972046 308.445953,840.894043 
	C307.137970,844.659668 308.315948,846.356812 311.573944,847.828247 
	C323.984436,853.433044 336.339630,859.160400 348.702728,864.869690 
	C350.345001,865.628174 351.913666,866.546021 354.173767,867.736267 
	C352.863708,869.265442 351.996124,870.628906 350.811127,871.608093 
	C336.875336,883.123230 322.951080,894.654114 308.869934,905.989746 
	C306.136963,908.189941 305.645142,910.151978 307.065369,913.235291 
	C315.755676,932.101807 324.325287,951.023865 332.963654,969.914368 
	C341.252655,988.040833 349.576294,1006.151550 357.942352,1024.634521 
	C354.638702,1025.000000 351.277435,1025.000000 347.458069,1025.000000 
	C329.577881,987.468933 312.183624,949.924866 294.693939,912.425293 
	C292.784393,908.330994 293.315063,905.789062 297.099945,902.761719 
	C309.879822,892.539490 322.250916,881.806274 335.716614,870.479126 
	C329.282532,867.336853 323.742401,864.572510 318.151001,861.915955 
	C311.852356,858.923401 305.569946,855.881897 299.159912,853.144104 
	C295.212677,851.458191 294.164886,849.450073 295.697083,845.109741 
	C301.170410,829.605103 306.196838,813.942505 311.361633,798.329529 
	C311.669373,797.399292 311.708313,796.380066 311.839050,794.976379 
	C315.616821,792.418762 319.427856,790.287109 323.569427,788.049561 
z"/>
<path fill="#FEFEFE" opacity="1.000000" stroke="none" 
	d="
M472.906952,832.997192 
	C470.322876,835.250977 467.514008,837.296204 465.194794,839.795715 
	C456.490479,849.176636 447.955902,858.714966 439.320984,868.160706 
	C438.692291,868.848389 437.770020,869.267700 436.220215,870.340942 
	C424.450500,848.216492 412.869812,826.447327 400.888428,803.924988 
	C400.211670,806.321228 399.747101,807.966125 399.017517,809.880554 
	C394.666077,789.239136 390.035919,768.410706 386.842133,747.364319 
	C385.946228,741.460510 389.275421,734.915466 390.826843,728.325806 
	C392.659302,723.678223 394.199158,719.310730 396.067780,715.088806 
	C396.832855,713.360291 398.308685,711.946350 399.461212,710.389282 
	C400.780518,711.490784 402.133514,712.554565 403.413727,713.699768 
	C413.161682,722.420105 422.163055,732.201721 432.798553,739.652039 
	C450.476807,752.035950 469.089722,763.109314 487.538666,774.357971 
	C495.182556,779.018555 503.418518,782.708130 511.596375,787.282471 
	C511.510132,788.309937 511.329132,789.003479 510.898315,789.462585 
	C500.767029,800.258972 490.487000,810.919434 480.529694,821.873291 
	C477.534363,825.168213 475.423187,829.266846 472.906952,832.997192 
z"/>
<path fill="#FEFEFE" opacity="1.000000" stroke="none" 
	d="
M634.352783,802.758057 
	C632.671692,804.488159 630.808472,805.703247 629.890808,807.422913 
	C619.638672,826.633484 609.543640,845.927856 599.366333,865.178528 
	C598.531982,866.756714 597.406006,868.180603 595.742676,870.692017 
	C591.725281,866.436646 588.093872,862.646118 584.524902,858.797729 
	C577.520874,851.245239 570.590088,843.624207 563.522034,836.132385 
	C562.578308,835.131958 561.011963,834.719055 559.395020,833.618042 
	C558.163330,831.033569 557.743042,828.460693 556.294067,826.768677 
	C550.727478,820.268616 544.791565,814.086548 539.069031,807.717957 
	C532.948792,800.906921 526.914001,794.019104 520.841919,787.164795 
	C533.756897,780.291504 547.001282,773.962646 559.499146,766.400024 
	C573.537720,757.905273 587.258057,748.778076 600.453552,739.028259 
	C612.253235,730.309509 623.150452,720.369263 634.710999,710.747314 
	C637.020935,715.753418 639.550293,721.235046 642.382690,726.854736 
	C643.101807,729.070740 643.216797,731.267639 643.983459,733.206787 
	C648.424622,744.441162 645.102539,755.359009 642.754272,766.288635 
	C640.157104,778.376831 637.334290,790.416565 634.352783,802.758057 
z"/>
<path fill="#551932" opacity="1.000000" stroke="none" 
	d="
M520.405029,787.164307 
	C526.914001,794.019104 532.948792,800.906921 539.069031,807.717957 
	C544.791565,814.086548 550.727478,820.268616 556.294067,826.768677 
	C557.743042,828.460693 558.163330,831.033569 559.033203,833.605286 
	C553.486572,843.426392 548.198669,852.994141 542.343079,862.200867 
	C539.248352,867.066711 538.371155,871.807373 540.074707,877.588196 
	C538.290588,876.401306 536.193115,875.036377 534.841003,873.139954 
	C532.444824,869.779114 529.704285,868.747131 525.518372,869.189514 
	C520.488464,869.721069 515.320374,869.346802 510.245361,868.944275 
	C504.435120,868.483459 499.144257,869.573120 493.924286,872.844299 
	C493.293610,870.821777 493.639557,868.446777 492.705231,866.796692 
	C486.386139,855.636536 479.796265,844.629639 473.100464,833.285217 
	C475.423187,829.266846 477.534363,825.168213 480.529694,821.873291 
	C490.487000,810.919434 500.767029,800.258972 510.898315,789.462585 
	C511.329132,789.003479 511.510132,788.309937 511.920990,787.408997 
	C514.679016,787.116211 517.323608,787.140015 520.405029,787.164307 
z"/>
</svg>