<svg xmlns="http://www.w3.org/2000/svg" viewBox="0 0 748 736">
  <path transform="translate(8,0)" fill="#423130" opacity="1.000000" stroke="none" d="
M474.421539,290.065613
C472.017914,290.532593 469.599060,291.495514 467.840302,290.796783
C452.274689,284.613251 436.252502,282.741943 419.696350,284.893829
C418.546783,285.043243 417.367767,285.006592 416.203247,284.992493
C412.324829,284.945526 409.371735,283.357941 408.470215,279.414673
C407.557678,275.423187 409.804626,272.631836 413.119751,271.063690
C416.036987,269.683746 419.261261,268.400116 422.424805,268.187378
C437.945953,267.143738 453.234467,268.166168 466.703430,277.056366
C471.027924,279.910736 476.458832,282.794098 474.421539,290.065613
z"/>
  <g transform="translate(748,0) scale(-1,1)">
    <path fill="#423130" opacity="1.000000" stroke="none" d="
M474.421539,290.065613
C472.017914,290.532593 469.599060,291.495514 467.840302,290.796783
C452.274689,284.613251 436.252502,282.741943 419.696350,284.893829
C418.546783,285.043243 417.367767,285.006592 416.203247,284.992493
C412.324829,284.945526 409.371735,283.357941 408.470215,279.414673
C407.557678,275.423187 409.804626,272.631836 413.119751,271.063690
C416.036987,269.683746 419.261261,268.400116 422.424805,268.187378
C437.945953,267.143738 453.234467,268.166168 466.703430,277.056366
C471.027924,279.910736 476.458832,282.794098 474.421539,290.065613
z"/>
  </g>
</svg>
