<svg xmlns="http://www.w3.org/2000/svg" viewBox="0 0 748 736">
  <!-- left brow: centered ~X310 -->
  <path fill="#C48E41" opacity="1.000000" stroke="none" d="
M330.5,270.5
C338.0,272.0 345.2,273.3 352.3,275.3
C357.8,276.8 359.4,279.5 358.1,283.8
C356.1,290.5 353.1,292.4 347.2,291.1
C330.2,287.5 313.3,283.6 296.2,280.7
C289.5,279.6 282.4,280.8 275.5,281.0
C274.1,281.0 272.7,281.2 270.0,281.4
C278.5,272.8 285.2,263.9 297.8,265.2
C309.1,266.3 320.3,268.2 330.5,270.5
z"/>
  <!-- right brow: centered ~X469 -->
  <path fill="#C48E41" opacity="1.000000" stroke="none" d="
M489.5,276.5
C490.9,277.6 492.1,278.5 493.3,279.4
C493.1,279.8 492.9,280.2 492.7,280.6
C491.6,280.7 490.5,281.0 489.4,280.8
C475.0,278.3 461.1,280.9 447.2,284.0
C435.7,286.6 424.1,288.9 412.5,291.2
C407.7,292.1 405.2,290.1 403.7,284.3
C402.3,278.8 403.2,275.5 407.5,274.6
C425.5,271.0 443.5,267.6 461.6,264.6
C473.1,262.7 482.3,267.5 489.5,276.5
z"/>
</svg>
