<?xml version="1.0" encoding="UTF-8" standalone="no"?>
<svg
   version="1.1"
   id="Layer_1"
   x="0px"
   y="0px"
   width="100%"
   viewBox="0 0 1024 1024"
   enable-background="new 0 0 1024 1024"
   xml:space="preserve"
   sodipodi:docname="base.svg"
   inkscape:version="1.4.3 (0d15f75, 2025-12-25)"
   xmlns:inkscape="http://www.inkscape.org/namespaces/inkscape"
   xmlns:sodipodi="http://sodipodi.sourceforge.net/DTD/sodipodi-0.dtd"
   xmlns="http://www.w3.org/2000/svg"
   xmlns:svg="http://www.w3.org/2000/svg"><defs
   id="defs16" /><sodipodi:namedview
   id="namedview16"
   pagecolor="#ffffff"
   bordercolor="#000000"
   borderopacity="0.25"
   inkscape:showpageshadow="2"
   inkscape:pageopacity="0.0"
   inkscape:pagecheckerboard="0"
   inkscape:deskcolor="#d1d1d1"
   inkscape:zoom="0.56278518"
   inkscape:cx="236.32463"
   inkscape:cy="571.26593"
   inkscape:window-width="1920"
   inkscape:window-height="1017"
   inkscape:window-x="-8"
   inkscape:window-y="-8"
   inkscape:window-maximized="1"
   inkscape:current-layer="Layer_1" />


<path
   fill="#f4e4ba"
   opacity="1"
   stroke="none"
   d="m 899.02795,609.51379 c -4.05468,4.84742 -7.93286,9.85956 -12.2395,14.47168 -2.10608,2.25538 -5.00915,3.76636 -8.31244,6.16736 4.44532,3.26447 8.49286,6.2417 12.54706,9.20978 0.80377,0.58844 1.66681,1.09961 2.44574,1.7179 8.76709,6.95837 9.04401,11.87158 0.84839,20.05426 -19.23254,19.20208 -40.79633,35.57873 -62.94128,51.20764 -25.17774,17.76935 -51.47644,33.6936 -79.28791,47.01074 -12.43933,5.95636 -25.11041,11.42877 -38.2951,17.42712 -2.05731,0.69849 -3.51703,1.02619 -4.93097,1.49256 -15.16046,5.00128 -30.24945,10.2315 -45.49298,14.96393 -9.1449,2.83911 -18.5282,4.91009 -28.17255,7.42224 0.53375,1.01715 0.91785,1.70855 1.26563,2.41772 7.61676,15.53223 15.96203,30.75617 22.69867,46.66138 16.77099,39.59668 25.41229,81.09741 26.88934,124.08032 -8.98346,3.33063 -17.77637,7.37012 -26.98963,9.84558 -19.67102,5.28534 -39.43335,10.39771 -59.40069,14.35895 -15.05634,2.98675 -30.44141,4.75095 -45.76672,5.83655 -19.20777,1.3607 -38.5232,2.3076 -57.75623,1.8664 -16.50504,-0.3787 -33.07715,-2.2086 -49.40683,-4.759 -20.91739,-3.26683 -41.80335,-7.15495 -62.35977,-12.17912 -16.2464,-3.97076 -31.97492,-10.06024 -48.11859,-15.9079 0.0823,-3.17425 0.35803,-5.6485 0.61584,-8.12463 1.46137,-14.03565 2.19879,-28.19171 4.51493,-42.0846 6.372,-38.22131 19.41274,-74.19836 38.22863,-108.07721 2.39429,-4.31103 4.74188,-8.64801 7.26892,-13.26117 -1.78024,-0.57916 -3.01928,-1.00585 -4.27234,-1.38641 -20.98251,-6.37329 -41.96795,-12.73694 -62.94967,-19.11279 -4.11026,-1.24896 -8.20783,-2.53998 -12.31125,-3.81159 -3.09046,-1.51568 -6.12476,-3.16101 -9.27982,-4.52752 -43.68058,-18.91767 -84.80755,-42.33734 -122.71209,-71.112 -16.11701,-12.23505 -31.12737,-25.9328 -46.54966,-39.0727 -2.24964,-1.91668 -4.31508,-4.22363 -5.89972,-6.71069 -3.34872,-5.25561 -3.01734,-8.75378 1.74733,-12.65594 5.6243,-4.6062 11.73078,-8.62366 17.2305,-12.60828 -7.22297,-6.61267 -14.48424,-13.26044 -21.41545,-20.27869 4.90779,-1.17889 9.56946,-1.6679 14.05013,-2.84552 39.51875,-10.38671 78.40202,-23.76123 119.54265,-26.6264 13.07006,-0.91028 26.42251,-1.31262 39.35946,0.3205 15.75009,1.98828 31.3794,5.70111 46.73749,9.86187 29.2464,7.92328 56.08347,4.54377 79.94455,-14.95611 7.98431,-6.52503 15.48254,-13.65039 23.12485,-20.58741 16.22326,-14.72601 35.3771,-23.02984 57.0328,-25.06463 31.19114,-2.93073 57.76487,7.71722 80.94394,28.32825 9.67517,8.60321 19.64551,17.05597 30.36975,24.2539 14.95075,10.03467 31.85895,14.55487 49.90155,11.32666 14.70044,-2.63031 29.20539,-6.35626 43.79224,-9.61798 23.633,-5.28461 47.6261,-6.70441 71.42114,-2.94971 21.94226,3.46235 43.56861,9.01752 65.24952,14.0174 19.09082,4.40246 38.06463,9.31183 57.09014,13.99731 m -133.03936,58.01673 c 6.39178,-3.41199 13.53351,-5.91547 19.00976,-10.43646 9.62183,-7.94343 13.05585,-19.73456 6.10169,-32.10468 -3.52637,-6.27246 -8.92395,-10.20325 -14.98841,-13.40698 -14.87384,-7.85755 -30.69281,-9.53534 -47.30987,-7.90656 -13.45008,1.31848 -25.52094,5.31873 -36.26251,13.54438 -9.84821,7.5415 -13.59546,21.25347 -8.0716,30.55926 5.01917,8.45569 12.38135,14.34912 21.33215,17.94495 19.49219,7.83062 39.38697,8.12701 60.18879,1.80609 M 332.45004,620.12457 c -3.97543,-2.9635 -7.66223,-6.46057 -11.97781,-8.79528 -16.01407,-8.66327 -33.22479,-10.98554 -51.0903,-8.14619 -11.06287,1.75824 -21.51477,5.21802 -30.76267,11.96723 -15.89981,11.60382 -15.72081,32.37915 0.4068,43.539 10.27471,7.1098 21.74668,10.14197 33.97128,11.57971 18.59662,2.1872 36.19199,-0.4375 51.97373,-10.75665 12.80221,-8.37103 19.96298,-22.62238 7.47897,-39.38782 m 163.71799,-12.76184 c 7.06268,3.57703 14.47101,5.39227 22.13141,2.58631 12.61664,-4.62159 23.625,-11.83246 30.61578,-23.53797 2.67804,-4.48419 4.42938,-10.28851 4.3819,-15.47095 -0.0933,-10.16717 -7.95404,-14.53497 -16.49384,-16.76806 -18.19934,-4.75897 -36.54281,-4.62805 -54.67813,0.52679 -14.58539,4.14588 -19.41116,15.54108 -12.53283,29.05927 1.2694,2.49475 2.65213,5.23852 4.73397,6.95703 6.86655,5.66785 14.07773,10.91809 21.84174,16.64758"
   id="path3"
   sodipodi:nodetypes="cscscsssccsccscsssssscsssccsccsssscccssssssssssssccssssssscccsssssccsssssscc" />
<path
   fill="#EB843D"
   opacity="1.000000"
   stroke="none"
   d=" M686.422363,973.853516   C684.572998,930.835510 675.931702,889.334778 659.160706,849.738098   C652.424072,833.832886 644.078796,818.608948 636.462036,803.076721   C636.114258,802.367554 635.730164,801.676147 635.196411,800.658997   C644.840759,798.146851 654.224060,796.075867 663.368958,793.236755   C678.612488,788.504333 693.701477,783.274109 708.861938,778.272827   C710.275879,777.806458 711.735596,777.478760 713.546753,777.027832   C724.422485,792.919678 735.534058,808.508423 745.284058,824.906677   C759.457092,848.743896 769.123779,874.626648 776.898254,901.194275   C779.134583,908.836609 780.896790,916.617676 782.976685,924.723267   C770.540466,932.630554 758.422302,940.992859 745.368530,947.469543   C726.194580,956.982727 706.352234,965.148621 686.422363,973.853516  z"
   id="path4" />
<path
   fill="#EB843C"
   opacity="1.000000"
   stroke="none"
   d=" M307.245270,777.372803   C311.450073,778.293091 315.547638,779.584106 319.657898,780.833069   C340.639618,787.208923 361.625061,793.572571 382.607574,799.945862   C383.860626,800.326416 385.099670,800.753113 386.879913,801.332275   C384.352875,805.945435 382.005280,810.282410 379.610992,814.593445   C360.795105,848.472290 347.754364,884.449341 341.382355,922.670654   C339.066223,936.563538 338.328796,950.719604 336.867432,964.755249   C336.609619,967.231384 336.333862,969.705627 336.027802,972.601013   C315.728638,963.802795 295.209717,955.102539 275.302032,945.176453   C262.865356,938.975464 251.350311,930.926086 239.198883,923.473633   C242.832443,910.199097 246.350098,897.045349 250.609482,884.136353   C262.787903,847.227173 280.680786,813.277893 304.268738,782.353088   C305.365265,780.915466 306.191681,779.271851 307.245270,777.372803  z"
   id="path5" />
<path
   fill="#ed833b"
   opacity="1"
   stroke="none"
   d="m 899.38794,609.41028 c -19.3855,-4.58197 -38.35931,-9.49134 -57.45013,-13.8938 -21.68091,-4.99988 -43.30726,-10.55505 -65.24952,-14.0174 -23.79504,-3.7547 -47.78814,-2.3349 -71.42114,2.94971 -14.58685,3.26172 -29.0918,6.98767 -43.79224,9.61798 -18.0426,3.22821 -34.9508,-1.29199 -49.90155,-11.32666 -10.72424,-7.19793 -20.69458,-15.65069 -30.36975,-24.2539 -23.17907,-20.61103 -49.7528,-31.25898 -80.94394,-28.32825 -21.6557,2.03479 -40.80954,10.33862 -57.0328,25.06463 -7.64231,6.93702 -15.14054,14.06238 -23.12485,20.58741 -23.86108,19.49988 -50.69815,22.87939 -79.94455,14.95611 -15.35809,-4.16076 -30.9874,-7.87359 -46.73749,-9.86187 -12.93695,-1.63312 -26.2894,-1.23078 -39.35946,-0.3205 -41.14063,2.86517 -80.0239,16.23969 -119.54265,26.6264 -4.48067,1.17762 -9.14234,1.66663 -14.12625,2.50397 -10.23559,-7.31903 -11.07631,-15.8219 -2.43379,-24.2633 19.31935,-18.86982 37.53335,-38.62909 51.84931,-61.70581 11.26142,-18.15287 20.68669,-37.19288 27.77829,-57.33503 0.89084,-2.53027 0.66848,-5.88681 -0.14962,-8.51446 -5.67426,-18.22519 -13.03292,-36.05048 -17.14689,-54.60376 -4.61555,-20.81525 -6.90635,-42.20578 -9.19265,-63.45529 -1.36479,-12.68479 -0.83774,-25.57859 -1.02434,-38.38041 -0.0409,-2.80304 0.49966,-5.61453 1.22119,-8.92193 7.44385,-3.43494 14.26506,-6.93357 21.47897,-9.15955 8.59549,-2.65234 17.52779,-4.21319 26.33616,-5.80975 -0.68241,7.88125 -1.94124,15.32278 -1.97602,22.77002 -0.0729,15.60824 0.0372,31.24585 0.92587,46.82266 1.03624,18.16236 4.64271,35.93823 10.97121,53.05856 1.2766,3.45359 3.24869,6.65006 5.50601,11.18128 26.00728,-39.00409 58.71968,-69.13519 96.67214,-93.97138 -9.71439,-17.59823 -21.93582,-32.2366 -36.11325,-45.2279 -8.43094,-7.72556 -17.37775,-14.88815 -26.0582,-22.64169 12.8967,-9.04064 25.75897,-17.74341 38.62125,-26.4462 8.37292,6.75413 17.3583,12.88569 24.98956,20.39364 15.27469,15.02781 29.85992,30.76004 44.59735,46.32682 2.48456,2.62436 4.65994,3.4107 8.27271,2.26992 29.57833,-9.33956 59.81454,-15.44265 90.82223,-17.15454 16.42764,-0.90692 32.9578,-2.37979 49.31934,-1.44793 20.50409,1.16772 41.01861,3.74652 61.27246,7.21316 16.29022,2.78821 32.17627,7.90088 48.31024,11.69022 1.76361,0.41421 4.73944,-0.46509 5.87427,-1.81744 19.63269,-23.39673 41.3916,-44.60888 64.974,-63.97787 1.26812,-1.04151 2.77148,-1.79663 4.87066,-2.63578 4.24915,2.42439 7.94141,4.60757 11.30774,7.21212 8.67737,6.71386 17.21051,13.61411 25.6897,20.71673 -23.68127,18.43934 -45.1565,38.52207 -60.23175,65.4188 38.14746,25.26905 70.92834,55.68494 96.79748,93.82938 0.9795,-1.58011 1.56666,-2.37326 1.99189,-3.24533 0.87378,-1.7919 1.76056,-3.58808 2.46862,-5.44846 9.04639,-23.7687 11.87073,-48.72986 12.65497,-73.81048 0.53333,-17.05509 -1.23132,-34.18201 -1.53589,-51.35218 3.69342,0.39539 7.11225,0.39301 10.18781,1.41938 12.86322,4.29257 25.62329,8.89386 38.4212,13.38202 1.81342,20.29336 1.37195,40.58157 -1.51251,60.7063 -2.89477,20.1965 -5.95117,40.42501 -10.31866,60.33639 -3.05017,13.90616 -8.16767,27.39291 -12.89142,40.88156 -1.93585,5.52793 -2.01813,10.40036 0.0109,15.87726 13.54212,36.55417 33.1319,69.2381 60.93891,96.80206 6.73602,6.67725 13.1173,13.71192 19.83905,20.40406 6.27063,6.24292 2.82507,20.01733 -5.39014,22.3103"
   id="path6"
   sodipodi:nodetypes="cssssssssssssscssssssscscsssccsccsscsssscscscccssscscssssssc" />
<path
   fill="#AD5421"
   opacity="1.000000"
   stroke="none"
   d=" M748.069092,251.622375   C739.478333,244.796600 730.945190,237.896347 722.267822,231.182495   C718.901489,228.577942 715.209229,226.394760 711.314941,223.946671   C714.953613,220.472214 718.737488,216.788010 722.966431,213.716675   C744.700073,197.932327 767.287231,183.555923 792.293213,173.408417   C812.486755,165.213806 821.050110,168.542633 829.589355,188.661682   C837.171631,206.525711 841.142578,225.471252 843.834167,244.600906   C846.009766,260.063751 847.260681,275.656708 848.816772,291.642151   C835.913940,287.604187 823.153870,283.002899 810.290649,278.710327   C807.215088,277.683960 803.796265,277.686340 799.895142,276.935455   C797.588013,268.535767 796.491150,260.246765 794.138123,252.331177   C788.906799,234.733337 781.920593,231.943466 765.867126,240.637268   C759.746521,243.951904 753.990967,247.940765 748.069092,251.622375  z"
   id="path7" />
<path
   fill="#AD5421"
   opacity="1.000000"
   stroke="none"
   d=" M219.086273,277.127625   C210.299881,279.161377 201.367584,280.722229 192.772095,283.374573   C185.558182,285.600555 178.736969,289.099182 171.385162,292.138550   C172.030090,280.003235 172.643311,267.716766 174.118011,255.534576   C176.799423,233.383987 180.659927,211.413788 189.135025,190.624619   C191.416763,185.027557 194.913223,179.787582 198.573578,174.927002   C202.774963,169.348007 208.774612,168.137970 215.610046,169.679199   C229.937546,172.909698 243.078125,179.106491 255.271576,186.861359   C273.060211,198.174667 290.180786,210.538361 307.621704,222.782227   C294.794983,231.812958 281.932709,240.515732 268.700989,249.490768   C260.756134,245.647614 253.436371,240.930099 245.537552,237.576355   C236.608521,233.785217 232.057159,235.944107 227.681549,244.565689   C226.114700,247.652985 224.783249,250.954361 223.968597,254.309601   C222.134064,261.865326 220.689514,269.515747 219.086273,277.127625  z"
   id="path8" />
<path
   fill="#EDA9A6"
   opacity="1.000000"
   stroke="none"
   d=" M765.613159,667.677917   C745.186768,673.851440 725.291992,673.555054 705.799805,665.724426   C696.848999,662.128601 689.486816,656.235168 684.467651,647.779480   C678.943787,638.473694 682.691040,624.761719 692.539246,617.220215   C703.280823,608.994568 715.351685,604.994324 728.801758,603.675842   C745.418823,602.047058 761.237793,603.724854 776.111633,611.582397   C782.176086,614.786133 787.573669,618.716919 791.100037,624.989380   C798.054199,637.359497 794.620178,649.150635 784.998352,657.094055   C779.522095,661.615051 772.380371,664.118530 765.613159,667.677917  z"
   id="path9" />
<path
   fill="#EEA9A6"
   opacity="1.000000"
   stroke="none"
   d=" M332.648407,620.426086   C344.934052,636.890015 337.773285,651.141357 324.971069,659.512390   C309.189331,669.831543 291.593964,672.456238 272.997345,670.269043   C260.772736,668.831299 249.300766,665.799133 239.026062,658.689331   C222.898453,647.529480 222.719452,626.754150 238.619263,615.150330   C247.867157,608.401123 258.319061,604.941345 269.381927,603.183105   C287.247437,600.343750 304.458160,602.666016 320.472229,611.329285   C324.787811,613.664001 328.474609,617.161072 332.648407,620.426086  z"
   id="path10" />
<path
   fill="#532B1A"
   opacity="1.000000"
   stroke="none"
   d=" M495.825439,607.203247   C488.404022,601.633240 481.192841,596.382996 474.326294,590.715149   C472.244446,588.996643 470.861725,586.252869 469.592316,583.758118   C462.713989,570.239929 467.539764,558.844727 482.125153,554.698853   C500.260468,549.544006 518.603943,549.413086 536.803284,554.172058   C545.343079,556.405151 553.203857,560.772949 553.297119,570.940125   C553.344604,576.122559 551.593262,581.926880 548.915222,586.411072   C541.924438,598.116577 530.916077,605.327454 518.299438,609.949036   C510.639038,612.755005 503.230713,610.939758 495.825439,607.203247  z"
   id="path11" />

<path
   fill="#F5E4B9"
   opacity="1.000000"
   stroke="none"
   d=" M219.108246,277.564819   C220.689514,269.515747 222.134064,261.865326 223.968597,254.309601   C224.783249,250.954361 226.114700,247.652985 227.681549,244.565689   C232.057159,235.944107 236.608521,233.785217 245.537552,237.576355   C253.436371,240.930099 260.756134,245.647614 268.666565,249.828613   C277.716461,257.309906 286.663269,264.472504 295.094208,272.198059   C309.271637,285.189362 321.493073,299.827728 331.207458,317.425964   C293.255005,342.262146 260.542603,372.393250 234.535324,411.397339   C232.278000,406.866119 230.305908,403.669647 229.029312,400.216064   C222.700806,383.095734 219.094345,365.319855 218.058105,347.157501   C217.169388,331.580688 217.059341,315.943085 217.132233,300.334839   C217.167007,292.887604 218.425842,285.446075 219.108246,277.564819  z"
   id="path13" />
<path
   fill="#F5E4B9"
   opacity="1.000000"
   stroke="none"
   d=" M747.957520,251.899200   C753.990967,247.940765 759.746521,243.951904 765.867126,240.637268   C781.920593,231.943466 788.906799,234.733337 794.138123,252.331177   C796.491150,260.246765 797.588013,268.535767 799.462646,277.010803   C800.407410,294.461121 802.172058,311.588043 801.638733,328.643127   C800.854492,353.723755 798.030151,378.684906 788.983765,402.453613   C788.275696,404.313995 787.388916,406.110168 786.515137,407.902069   C786.089905,408.774139 785.502747,409.567291 784.523254,411.147400   C758.654114,373.002960 725.873230,342.587067 687.725769,317.318024   C702.801025,290.421295 724.276245,270.338562 747.957520,251.899200  z"
   id="path14" />


</svg>
