<?xml version="1.0" encoding="UTF-8"?>
<svg xmlns="http://www.w3.org/2000/svg" viewBox="0 0 1024 1024">
  <path
    id="sclera-02"
    fill="#562A18"
    stroke="none"
    d=" M336.989136,494.038483   C346.252167,480.560089 358.763031,474.001801 374.727844,475.573151   C390.854675,477.160492 402.108978,485.956360 408.297760,500.970062   C409.294556,503.388245 409.910248,506.069946 410.131775,508.678284   C410.544739,513.540283 407.934479,516.960022 403.593170,517.910583   C398.415955,519.044189 394.725586,517.109070 392.839722,512.223694   C392.482025,511.297028 392.275757,510.311157 392.011353,509.349396   C389.359650,499.703857 381.149780,493.266632 371.193298,493.029327   C361.390472,492.795654 352.894836,499.032867 349.872162,508.682465   C347.398071,516.580933 345.178162,518.562927 339.265472,518.152283   C333.934174,517.782043 330.176910,513.459045 331.514313,508.231232   C332.733551,503.465363 335.002716,498.968048 336.989136,494.038483  z"
  />
</svg>
