<?xml version="1.0" encoding="UTF-8" standalone="no"?>
<svg
   version="1.1"
   id="Layer_1"
   x="0px"
   y="0px"
   width="100%"
   viewBox="0 0 1024 1024"
   enable-background="new 0 0 1024 1024"
   xml:space="preserve"
   sodipodi:docname="16 (1).svg"
   inkscape:version="1.4.3 (0d15f75, 2025-12-25)"
   xmlns:inkscape="http://www.inkscape.org/namespaces/inkscape"
   xmlns:sodipodi="http://sodipodi.sourceforge.net/DTD/sodipodi-0.dtd"
   xmlns="http://www.w3.org/2000/svg"
   xmlns:svg="http://www.w3.org/2000/svg"><defs
   id="defs435" /><sodipodi:namedview
   id="namedview435"
   pagecolor="#ffffff"
   bordercolor="#000000"
   borderopacity="0.25"
   inkscape:showpageshadow="2"
   inkscape:pageopacity="0.0"
   inkscape:pagecheckerboard="0"
   inkscape:deskcolor="#d1d1d1"
   inkscape:zoom="0.79589844"
   inkscape:cx="511.37178"
   inkscape:cy="512"
   inkscape:window-width="1920"
   inkscape:window-height="1017"
   inkscape:window-x="-8"
   inkscape:window-y="-8"
   inkscape:window-maximized="1"
   inkscape:current-layer="Layer_1" />

<g transform="translate(4, 8) translate(512, 512) scale(1.005) translate(-512, -512)">
<path
   fill="#FCF6ED"
   opacity="1.000000"
   stroke="none"
   d=" M135.468658,1025.000000   C136.705978,1015.201416 137.995575,1005.308228 140.194672,995.621582   C147.289154,964.371765 154.295715,933.090332 162.201828,902.041504   C166.004501,887.107727 171.320374,872.508850 176.705215,858.039062   C186.877869,830.703796 206.803391,813.454773 234.411179,805.126526   C264.158905,796.152771 294.052155,787.659485 323.910675,779.056458   C330.282288,777.220642 336.777771,775.814819 343.679443,774.576782   C351.023041,782.774902 357.284760,791.275635 364.895355,798.318726   C391.633911,823.063232 424.231232,838.168213 457.275208,853.096069   C463.214630,854.718933 464.300140,860.199829 467.140167,864.389771   C467.406219,865.140625 467.691559,865.602905 467.974243,866.030762   C467.971619,865.996399 467.902679,865.996399 467.927063,866.373657   C481.436401,893.809875 494.844757,920.907532 508.464142,947.898743   C511.583008,954.079773 515.428833,959.894043 519.548218,966.913330   C521.201538,963.002930 522.398804,960.171265 523.884766,957.184509   C527.107422,951.862244 530.293030,946.820068 532.929993,941.505554   C542.495911,922.226013 551.877930,902.855164 561.563843,883.231445   C565.560608,874.310669 569.322876,865.677307 573.433350,856.969482   C578.190857,854.822388 582.600220,852.749695 587.333130,850.576172   C591.704407,848.600342 595.845886,846.902344 599.782776,844.817993   C612.610291,838.026672 625.363098,831.094238 638.418823,824.138184   C639.134094,823.720642 639.575073,823.381042 640.336426,822.968994   C641.866028,821.964355 643.075256,821.032104 644.614258,820.025818   C648.002014,817.807434 651.059998,815.663147 654.359009,813.415588   C654.735352,813.201721 654.870605,813.091003 655.244995,812.886719   C655.712769,812.541931 655.941589,812.290833 656.499023,811.965088   C666.080078,803.850708 675.603943,796.095154 684.458801,787.639038   C688.305176,783.965820 690.775269,778.851440 693.870422,774.391602   C703.671387,776.884216 713.537292,779.148376 723.260742,781.913696   C749.153137,789.277344 774.975098,796.888245 800.841919,804.342102   C831.283875,813.114441 851.659119,832.431702 862.960144,862.041016   C876.156311,896.616028 885.084961,932.393555 893.948181,968.196777   C898.255249,985.595398 901.816956,1003.178833 905.684387,1020.685547   C905.932861,1021.810303 905.907349,1022.995483 906.004639,1024.576294   C876.645752,1025.000000 847.291565,1025.000000 817.612793,1024.652588   C820.392395,1012.407288 823.696838,1000.556519 826.521729,988.592468   C828.083374,981.978882 829.008667,975.196106 829.840332,968.442749   C830.039062,966.829346 828.718262,965.028748 828.096375,963.314270   C826.696472,964.464417 824.939636,965.379456 823.988098,966.824768   C822.825684,968.590515 822.322327,970.794861 821.563110,972.820435   C816.356018,986.712891 810.102234,1000.097656 801.876892,1012.476929   C800.072632,1015.192566 797.623901,1017.480103 795.472046,1019.964844   C794.741821,1019.718506 794.011658,1019.472168 793.281433,1019.225830   C793.065674,1011.024841 791.413635,1002.549011 792.920044,994.677612   C796.537537,975.775757 802.182190,957.268311 806.016357,938.400024   C812.393311,907.018494 818.015625,875.483154 823.881958,843.998840   C824.446045,840.971191 824.490540,837.846863 824.776245,834.767395   C824.116943,834.670532 823.457703,834.573669 822.798401,834.476807   C811.524414,883.205505 800.250366,931.934204 788.976379,980.662964   C787.817688,978.256958 787.575317,975.919495 786.869873,973.731384   C783.989502,964.796875 780.967468,955.908081 777.961426,946.895630   C777.925293,946.788757 777.643860,946.771057 777.643860,946.771057   C777.643860,946.771057 778.002441,946.997559 777.991699,947.423706   C777.808716,950.488770 777.410278,953.135437 777.499573,955.765503   C778.283630,978.845337 779.154663,1001.922241 780.000000,1025.000000   C606.312439,1025.000000 432.624878,1025.000000 258.491791,1024.531738   C258.601959,998.144409 259.157623,972.225281 259.713318,946.306091   C259.204712,946.286621 258.696136,946.267090 258.187561,946.247620   C251.771408,956.610901 251.380966,968.640991 249.020660,980.250183   C234.753906,930.373413 225.604370,879.300049 210.226730,829.845947   C209.979141,832.775940 210.488358,835.517822 211.007431,838.257935   C216.629623,867.936340 221.688904,897.736267 228.059799,927.253113   C232.931732,949.825134 239.407379,972.053589 245.290314,994.403137   C247.032959,1001.023499 246.574783,1007.451111 245.226608,1014.438782   C242.921707,1011.876282 240.980133,1010.059326 239.438705,1007.949890   C227.176285,991.169556 218.026291,972.821960 211.847855,952.971069   C211.394562,951.514587 210.036118,950.339844 209.098511,949.034119   C208.531433,949.174927 207.964340,949.315674 207.397263,949.456421   C207.243484,951.219116 206.714127,953.044922 206.998184,954.733948   C208.584625,964.167236 210.170700,973.609192 212.152542,982.964355   C213.488983,989.273010 215.192612,995.539490 217.247803,1001.651306   C219.895401,1009.524963 223.058777,1017.225098 226.000000,1025.000000   C195.979111,1025.000000 165.958206,1025.000000 135.468658,1025.000000  M318.093414,794.437134   C317.891876,794.269409 317.690369,794.101685 317.488861,793.933899   C317.619568,794.319885 317.750275,794.705933 318.015594,795.785828   C318.819397,797.235229 319.557312,798.726013 320.436981,800.127808   C331.752869,818.160217 347.128906,832.275818 363.937134,844.968140   C385.068420,860.924927 408.582947,872.602539 432.719330,883.182861   C435.465881,884.386780 438.700409,886.149963 440.058044,888.577087   C448.503815,903.675842 456.376526,919.093445 464.632843,934.300232   C478.442474,959.735352 492.377167,985.102661 506.314514,1010.468201   C508.240723,1013.973755 510.482666,1017.305847 512.578430,1020.718262   C512.957031,1020.504822 513.335693,1020.291321 513.714355,1020.077881   C513.178467,1018.778809 512.728088,1017.436401 512.093933,1016.187256   C502.524658,997.337830 493.058319,978.434692 483.312439,959.676819   C470.194550,934.428833 456.889282,909.277832 443.536713,884.153015   C442.689758,882.559387 440.936035,881.161316 439.274933,880.330505   C421.284302,871.332458 402.777008,863.261841 385.302917,853.363037   C363.334381,840.918335 344.075531,824.777344 327.730682,805.349121   C324.685333,801.729370 321.378235,798.329712 318.093414,794.437134  M653.486145,853.980896   C635.620483,864.696960 617.233215,874.330933 597.548523,881.350708   C595.875244,881.947388 594.059387,883.419250 593.251648,884.973938   C583.739807,903.281250 574.514343,921.737305 564.998291,940.042419   C555.632324,958.058899 545.996521,975.934998 536.557068,993.913513   C535.749573,995.451477 535.527954,997.296997 535.034180,998.999695   C535.547363,999.226074 536.060608,999.452515 536.573792,999.678955   C539.226135,995.761169 542.235046,992.036194 544.474121,987.894958   C561.730774,955.978821 578.901672,924.015686 595.898438,891.960693   C597.696533,888.569641 600.028442,886.653015 603.430542,885.358276   C626.380676,876.624146 648.063782,865.538635 668.325073,851.534607   C691.651550,835.412048 710.775391,815.429871 725.936646,791.561523   C726.691345,790.373291 727.042236,788.928589 727.581238,787.603394   C726.718201,786.924072 725.855164,786.244751 724.992126,785.565491   C724.561768,786.860413 724.483704,788.472046 723.647705,789.402405   C712.561523,801.739502 702.103760,814.773254 689.985779,826.012085   C678.973022,836.225952 666.125916,844.461853 653.486145,853.980896  z"
   id="path2" />
<path
   fill="#DCCEC0"
   opacity="1.000000"
   stroke="none"
   d=" M226.468658,1025.000000   C223.058777,1017.225098 219.895401,1009.524963 217.247803,1001.651306   C215.192612,995.539490 213.488983,989.273010 212.152542,982.964355   C210.170700,973.609192 208.584625,964.167236 206.998184,954.733948   C206.714127,953.044922 207.243484,951.219116 207.397263,949.456421   C207.964340,949.315674 208.531433,949.174927 209.098511,949.034119   C210.036118,950.339844 211.394562,951.514587 211.847855,952.971069   C218.026291,972.821960 227.176285,991.169556 239.438705,1007.949890   C240.980133,1010.059326 242.921707,1011.876282 245.226608,1014.438782   C246.574783,1007.451111 247.032959,1001.023499 245.290314,994.403137   C239.407379,972.053589 232.931732,949.825134 228.059799,927.253113   C221.688904,897.736267 216.629623,867.936340 211.007431,838.257935   C210.488358,835.517822 209.979141,832.775940 210.226730,829.845947   C225.604370,879.300049 234.753906,930.373413 249.020660,980.250183   C251.380966,968.640991 251.771408,956.610901 258.187561,946.247620   C258.696136,946.267090 259.204712,946.286621 259.713318,946.306091   C259.157623,972.225281 258.601959,998.144409 258.023132,1024.531738   C247.645767,1025.000000 237.291550,1025.000000 226.468658,1025.000000  z"
   id="path3" />
<path
   fill="#DCCEC0"
   opacity="1.000000"
   stroke="none"
   d=" M780.468628,1025.000000   C779.154663,1001.922241 778.283630,978.845337 777.499573,955.765503   C777.410278,953.135437 777.808716,950.488770 777.990479,947.424927   C778.000000,947.000000 777.997559,947.002441 777.997559,947.002441   C780.967468,955.908081 783.989502,964.796875 786.869873,973.731384   C787.575317,975.919495 787.817688,978.256958 788.976379,980.662964   C800.250366,931.934204 811.524414,883.205505 822.798401,834.476807   C823.457703,834.573669 824.116943,834.670532 824.776245,834.767395   C824.490540,837.846863 824.446045,840.971191 823.881958,843.998840   C818.015625,875.483154 812.393311,907.018494 806.016357,938.400024   C802.182190,957.268311 796.537537,975.775757 792.920044,994.677612   C791.413635,1002.549011 793.065674,1011.024841 793.281433,1019.225830   C794.011658,1019.472168 794.741821,1019.718506 795.472046,1019.964844   C797.623901,1017.480103 800.072632,1015.192566 801.876892,1012.476929   C810.102234,1000.097656 816.356018,986.712891 821.563110,972.820435   C822.322327,970.794861 822.825684,968.590515 823.988098,966.824768   C824.939636,965.379456 826.696472,964.464417 828.096375,963.314270   C828.718262,965.028748 830.039062,966.829346 829.840332,968.442749   C829.008667,975.196106 828.083374,981.978882 826.521729,988.592468   C823.696838,1000.556519 820.392395,1012.407288 817.144104,1024.652588   C804.979126,1025.000000 792.958191,1025.000000 780.468628,1025.000000  z"
   id="path4" />















































































































































































<path
   fill="#DCCEC0"
   opacity="1.000000"
   stroke="none"
   d=" M653.786804,853.775269   C666.125916,844.461853 678.973022,836.225952 689.985779,826.012085   C702.103760,814.773254 712.561523,801.739502 723.647705,789.402405   C724.483704,788.472046 724.561768,786.860413 724.992126,785.565491   C725.855164,786.244751 726.718201,786.924072 727.581238,787.603394   C727.042236,788.928589 726.691345,790.373291 725.936646,791.561523   C710.775391,815.429871 691.651550,835.412048 668.325073,851.534607   C648.063782,865.538635 626.380676,876.624146 603.430542,885.358276   C600.028442,886.653015 597.696533,888.569641 595.898438,891.960693   C578.901672,924.015686 561.730774,955.978821 544.474121,987.894958   C542.235046,992.036194 539.226135,995.761169 536.573792,999.678955   C536.060608,999.452515 535.547363,999.226074 535.034180,998.999695   C535.527954,997.296997 535.749573,995.451477 536.557068,993.913513   C545.996521,975.934998 555.632324,958.058899 564.998291,940.042419   C574.514343,921.737305 583.739807,903.281250 593.251648,884.973938   C594.059387,883.419250 595.875244,881.947388 597.548523,881.350708   C617.233215,874.330933 635.620483,864.696960 653.786804,853.775269  z"
   id="path180" />
<path
   fill="#DCCEC0"
   opacity="1.000000"
   stroke="none"
   d=" M318.191956,794.828430   C321.378235,798.329712 324.685333,801.729370 327.730682,805.349121   C344.075531,824.777344 363.334381,840.918335 385.302917,853.363037   C402.777008,863.261841 421.284302,871.332458 439.274933,880.330505   C440.936035,881.161316 442.689758,882.559387 443.536713,884.153015   C456.889282,909.277832 470.194550,934.428833 483.312439,959.676819   C493.058319,978.434692 502.524658,997.337830 512.093933,1016.187256   C512.728088,1017.436401 513.178467,1018.778809 513.714355,1020.077881   C513.335693,1020.291321 512.957031,1020.504822 512.578430,1020.718262   C510.482666,1017.305847 508.240723,1013.973755 506.314514,1010.468201   C492.377167,985.102661 478.442474,959.735352 464.632843,934.300232   C456.376526,919.093445 448.503815,903.675842 440.058044,888.577087   C438.700409,886.149963 435.465881,884.386780 432.719330,883.182861   C408.582947,872.602539 385.068420,860.924927 363.937134,844.968140   C347.128906,832.275818 331.752869,818.160217 320.436981,800.127808   C319.557312,798.726013 318.819397,797.235229 318.026520,795.373535   C318.037445,794.961304 318.191986,794.828430 318.191956,794.828430  z"
   id="path181" />





<path
   fill="#DCCEC0"
   opacity="1.000000"
   stroke="none"
   d=" M317.959229,795.026611   C317.750275,794.705933 317.619568,794.319885 317.488831,793.933960   C317.690369,794.101685 317.891876,794.269409 318.142700,794.632812   C318.191986,794.828430 318.037445,794.961304 317.959229,795.026611  z"
   id="path187" />


<path
   fill="#DCCEC0"
   opacity="1.000000"
   stroke="none"
   d=" M778.001221,946.998779   C778.002441,946.997559 777.643860,946.771057 777.643860,946.771057   C777.643860,946.771057 777.925293,946.788757 777.961426,946.895630   C777.997559,947.002441 778.000000,947.000000 778.001221,946.998779  z"
   id="path190" />



















































































































































































































































</g>
</svg>
