<svg xmlns="http://www.w3.org/2000/svg" viewBox="0 0 1028 1024">
<g transform="translate(0, -2)">
  <path fill="#FEFEFE" opacity="1.000000" stroke="none" d=" M672.138428,778.015869   C673.731567,777.872192 675.487610,777.214111 676.894165,777.659607   C718.126282,790.716431 759.474792,803.434265 800.458557,817.234192   C819.177551,823.537170 836.000305,833.928589 850.263489,847.907104   C860.475037,857.914978 868.612854,869.640259 874.573975,882.472290   C888.377869,912.187134 901.311768,942.305298 914.782166,972.177124   C916.464905,975.908630 915.251587,977.590698 912.191956,979.268555   C906.209656,982.549377 900.319824,985.998779 893.799805,989.717529   C870.328247,1000.837036 847.441589,1011.602539 824.591858,1022.445984   C823.556946,1022.937073 822.856323,1024.132568 822.000000,1025.000000   C812.312439,1025.000000 802.624878,1025.000000 792.470581,1024.562988   C789.165710,1003.307190 784.721802,982.890808 776.643188,963.403076   C776.156433,962.228821 775.086609,961.296326 774.288086,960.251343   C773.813110,960.454041 773.338135,960.656677 772.863159,960.859375   C776.242126,982.239563 779.621033,1003.619812 783.000000,1025.000000   C610.979126,1025.000000 438.958221,1025.000000 266.452820,1024.562988   C269.102448,1002.885437 272.236603,981.644836 275.370758,960.404297   C274.922119,960.252380 274.473450,960.100464 274.024780,959.948547   C273.122223,961.416199 271.981506,962.790344 271.361694,964.368958   C269.482391,969.155457 267.309845,973.904724 266.140717,978.877502   C262.538422,994.199463 259.349518,1009.618591 256.000000,1025.000000   C246.645767,1025.000000 237.291550,1025.000000 227.436172,1024.646973   C225.859802,1023.575317 224.859741,1022.691528 223.697937,1022.163452   C208.580307,1015.291077 193.399750,1008.555725 178.320984,1001.599609   C170.192078,997.849548 162.227676,993.742920 154.189087,989.797119   C148.192062,986.247986 142.346497,982.399475 136.142059,979.260193   C132.323761,977.328186 132.264191,975.360779 133.789719,971.874207   C144.196365,948.089844 153.849854,923.954956 164.948700,900.502197   C171.815872,885.991333 179.887970,871.847473 189.055420,858.677856   C201.559448,840.715149 219.917297,829.670105 239.664200,820.870605   C270.187103,807.269226 302.470184,798.831665 334.137970,788.604919   C346.159607,784.722656 358.450897,781.670105 370.644714,778.332275   C372.335510,777.869568 374.173187,777.943420 376.320251,778.314087   C377.432922,780.533752 378.060059,782.266052 378.919708,783.874023   C391.703186,807.786987 411.367798,824.690613 434.856049,837.189453   C467.910187,854.778381 503.338501,861.041443 540.642151,858.183228   C571.173462,855.843872 599.393311,846.940247 625.044128,830.272644   C645.346252,817.080566 662.305359,800.718872 672.138428,778.015869  M361.922180,801.744141   C361.922180,801.744141 361.591003,801.758972 361.591003,801.758972   C361.591003,801.758972 361.948517,802.041138 361.959991,802.781250   C362.700531,804.433228 363.260132,806.197876 364.208618,807.720276   C379.932770,832.959656 401.699127,851.726929 427.842651,865.267822   C467.811768,885.969604 510.402588,892.041321 554.837463,886.097778   C587.967468,881.666382 618.255676,870.071045 645.100037,849.927673   C663.175598,836.364319 678.330627,820.256409 688.528442,799.860901   C689.099731,798.718384 689.426208,797.453613 689.866638,796.245728   C680.153687,811.639893 668.608215,825.204163 654.302002,835.955139   C641.988770,845.208557 629.212036,854.172363 615.616516,861.315857   C595.003845,872.146362 572.616638,877.801147 549.335144,880.414734   C530.822815,882.492920 512.490906,882.277649 494.151672,879.746399   C470.389984,876.466736 447.738647,869.610596 426.560852,858.088867   C407.394653,847.661499 390.040161,834.987244 375.760193,818.360840   C371.115082,812.952576 366.606049,807.427307 361.922180,801.744141  M358.521301,796.989258   C358.951263,797.817871 359.381195,798.646484 359.811127,799.475098   C360.129120,799.259644 360.447113,799.044250 360.765137,798.828796   C360.141144,798.089905 359.517151,797.350952 358.521301,796.989258  z"/>
  <path fill="#D7DADE" opacity="1.000000" stroke="none" d=" M362.034790,801.955566   C366.606049,807.427307 371.115082,812.952576 375.760193,818.360840   C390.040161,834.987244 407.394653,847.661499 426.560852,858.088867   C447.738647,869.610596 470.389984,876.466736 494.151672,879.746399   C512.490906,882.277649 530.822815,882.492920 549.335144,880.414734   C572.616638,877.801147 595.003845,872.146362 615.616516,861.315857   C629.212036,854.172363 641.988770,845.208557 654.302002,835.955139   C668.608215,825.204163 680.153687,811.639893 689.866638,796.245728   C689.426208,797.453613 689.099731,798.718384 688.528442,799.860901   C678.330627,820.256409 663.175598,836.364319 645.100037,849.927673   C618.255676,870.071045 587.967468,881.666382 554.837463,886.097778   C510.402588,892.041321 467.811768,885.969604 427.842651,865.267822   C401.699127,851.726929 379.932770,832.959656 364.208618,807.720276   C363.260132,806.197876 362.700531,804.433228 361.976990,802.390991   C361.994019,802.000793 362.034790,801.955566 362.034790,801.955566  z"/>
  <path fill="#D4D7DC" opacity="1.000000" stroke="none" d=" M256.454102,1025.000000   C259.349518,1009.618591 262.538422,994.199463 266.140717,978.877502   C267.309845,973.904724 269.482391,969.155457 271.361694,964.368958   C271.981506,962.790344 273.122223,961.416199 274.024780,959.948547   C274.473450,960.100464 274.922119,960.252380 275.370758,960.404297   C272.236603,981.644836 269.102448,1002.885437 265.984131,1024.562988   C262.969391,1025.000000 259.938812,1025.000000 256.454102,1025.000000  z"/>
  <path fill="#D4D7DC" opacity="1.000000" stroke="none" d=" M783.449951,1025.000000   C779.621033,1003.619812 776.242126,982.239563 772.863159,960.859375   C773.338135,960.656677 773.813110,960.454041 774.288086,960.251343   C775.086609,961.296326 776.156433,962.228821 776.643188,963.403076   C784.721802,982.890808 789.165710,1003.307190 792.001892,1024.562988   C789.299988,1025.000000 786.599976,1025.000000 783.449951,1025.000000  z"/>
</g>
</svg>
