<?xml version="1.0" encoding="UTF-8" standalone="no"?>
<svg
   version="1.1"
   id="Layer_1"
   x="0px"
   y="0px"
   width="100%"
   viewBox="0 0 1024 1024"
   enable-background="new 0 0 1024 1024"
   xml:space="preserve"
   sodipodi:docname="17.svg"
   inkscape:version="1.4.3 (0d15f75, 2025-12-25)"
   xmlns:inkscape="http://www.inkscape.org/namespaces/inkscape"
   xmlns:sodipodi="http://sodipodi.sourceforge.net/DTD/sodipodi-0.dtd"
   xmlns="http://www.w3.org/2000/svg"
   xmlns:svg="http://www.w3.org/2000/svg"><defs
   id="defs743" /><sodipodi:namedview
   id="namedview743"
   pagecolor="#ffffff"
   bordercolor="#000000"
   borderopacity="0.25"
   inkscape:showpageshadow="2"
   inkscape:pageopacity="0.0"
   inkscape:pagecheckerboard="0"
   inkscape:deskcolor="#d1d1d1"
   inkscape:zoom="0.79589844"
   inkscape:cx="511.37178"
   inkscape:cy="612.51534"
   inkscape:window-width="1920"
   inkscape:window-height="1017"
   inkscape:window-x="-8"
   inkscape:window-y="-8"
   inkscape:window-maximized="1"
   inkscape:current-layer="Layer_1" />

<path
   fill="#F1E2C1"
   opacity="1.000000"
   stroke="none"
   d=" M756.238770,775.204529   C761.495117,777.130493 766.962463,778.623413 771.968689,781.062744   C787.703125,788.730225 802.689575,797.661438 816.294312,808.779053   C831.664307,821.339172 844.123962,836.381836 854.154236,853.432678   C868.477173,877.780945 879.316589,903.743835 887.296875,930.730469   C896.058594,960.359802 903.484863,990.384216 911.467651,1020.243225   C911.807922,1021.516174 911.893616,1022.857117 912.048950,1024.583252   C872.979126,1025.000000 833.958191,1025.000000 794.363647,1024.621826   C785.547852,989.301636 777.180420,954.398193 762.205200,921.479004   C762.349182,927.474854 763.266418,933.306152 763.946228,939.164978   C765.488647,952.458618 766.974915,965.759399 768.371704,979.069031   C769.977722,994.372681 771.462524,1009.689148 773.000000,1025.000000   C605.312439,1025.000000 437.624878,1025.000000 269.476685,1024.568115   C269.027924,1023.304810 268.972534,1022.465881 269.061768,1021.642761   C270.739380,1006.167175 272.397278,990.689270 274.138123,975.220764   C275.320923,964.710693 276.588165,954.209839 277.886993,943.713379   C278.821045,936.164673 279.869598,928.630249 280.867096,921.089417   C278.876221,922.988037 277.709351,925.124329 276.975433,927.400208   C270.260590,948.223022 263.289124,968.972107 257.091217,989.949158   C253.699814,1001.427612 251.653091,1013.303406 249.000000,1025.000000   C209.645767,1025.000000 170.291550,1025.000000 130.468658,1025.000000   C140.173981,979.731567 151.301590,934.739197 169.487076,891.854675   C178.594269,870.378418 189.085205,849.571106 203.605972,831.211365   C216.836136,814.483521 233.277542,801.207031 252.023682,791.059326   C262.802734,785.224426 274.082336,780.314148 285.635284,775.303223   C297.762787,789.829895 312.491211,799.522766 329.502869,806.230957   C353.587891,815.728271 378.495514,822.156067 403.843964,827.013000   C417.486023,829.626831 431.207672,831.825439 445.007538,834.645996   C443.639099,852.232666 441.842896,869.365112 440.759613,886.542480   C439.612213,904.735840 438.506348,922.975586 438.609558,941.188110   C438.674164,952.583069 437.522125,964.528381 443.743469,975.539795   C443.753479,982.435364 443.827026,988.896790 444.027313,995.354309   C444.149872,999.305054 445.770203,1002.226746 450.210907,1002.150269   C454.492188,1002.076660 455.997192,998.869446 455.864258,995.381714   C455.581055,987.952332 454.743500,980.544006 454.376953,972.808838   C458.271271,968.190247 458.409119,963.146118 457.752960,957.911011   C457.156464,953.152222 456.359772,948.398987 456.110260,943.619385   C454.477997,912.352112 457.605682,881.286804 460.323517,850.210632   C460.735931,845.495239 461.559387,840.815674 462.543884,836.271912   C477.641052,838.290100 492.386993,840.155884 507.132965,842.021667   C507.252258,841.336060 507.371552,840.650452 507.490845,839.964783   C492.676025,835.934326 477.861206,831.903931 462.908264,827.433838   C463.225037,819.384644 463.818054,811.779785 464.084320,804.163574   C464.250061,799.422546 460.672760,795.283081 456.699768,795.010071   C452.835236,794.744568 449.129547,797.969910 448.221649,802.572693   C447.936035,804.020874 448.148041,805.559753 447.978668,807.039551   C447.344818,812.576111 446.647400,818.105347 445.577362,823.512939   C417.887604,816.285950 390.556000,809.326294 363.313629,802.033386   C343.059937,796.611511 322.826416,791.019104 304.575775,780.156250   C300.065796,777.471863 295.504120,774.874329 290.966187,772.236816   C290.707245,770.957581 290.723358,769.536560 290.148132,768.420349   C281.246979,751.148621 291.812225,734.165466 305.189209,726.032043   C307.727448,724.488708 310.473694,723.287537 313.666718,722.163696   C319.032013,733.225708 326.358978,742.086670 335.426514,749.618164   C353.732727,764.823181 374.604462,775.300964 396.936462,783.089355   C402.430969,785.005554 407.980042,786.765381 413.504028,788.597168   C413.686188,788.165710 413.868347,787.734192 414.050507,787.302734   C412.729675,786.434998 411.435486,785.523193 410.083862,784.706299   C395.491943,775.886902 380.657074,767.443909 366.348145,758.187622   C345.704926,744.833923 326.905670,729.477722 316.171936,706.419617   C315.792877,705.166016 315.413818,703.912476 315.087921,701.978638   C316.141235,694.910706 317.141388,688.523010 318.113892,682.129150   C318.086182,682.122986 318.127228,682.161560 318.373993,681.944092   C319.020050,680.492676 319.419342,679.258850 319.970276,677.734436   C320.476074,676.658691 320.830261,675.873474 321.464966,674.897339   C326.513550,669.149536 331.281555,663.592529 336.027649,658.017517   C336.005676,657.999512 336.016632,658.055176 336.301880,657.997986   C336.851685,657.678955 337.116302,657.417053 337.254700,657.158142   C337.128510,657.161133 337.143005,657.413147 337.445068,657.326965   C338.196655,656.844543 338.646179,656.448303 339.063141,656.037842   C339.030579,656.023682 339.048767,656.092346 339.355042,656.017090   C340.468872,655.313049 341.276428,654.684326 342.049805,654.033691   C342.015594,654.011780 342.055786,654.082397 342.346985,654.043640   C343.086700,653.678467 343.535187,653.352051 344.349426,653.005859   C358.028687,645.964355 372.372284,642.005554 387.283936,638.910156   C391.744843,642.969604 395.883545,646.896667 399.639282,650.956177   C393.812134,652.399231 388.223541,653.291382 382.954712,655.110046   C372.782532,658.621277 362.847778,662.810730 360.532196,675.144104   C359.088226,682.835083 362.354034,689.462646 366.293671,695.630676   C372.754150,705.745483 381.974762,713.209839 391.634521,719.988281   C403.549011,728.348816 415.828674,736.188965 428.124542,744.533752   C434.703339,748.979065 441.132721,753.107361 447.508484,757.316895   C470.323120,772.380127 492.033844,788.776917 510.341370,809.298035   C513.927307,813.317383 517.704163,817.166443 521.024536,820.701721   C530.203430,811.279968 538.837219,802.085144 547.853638,793.282104   C553.662598,787.610596 560.033264,782.514404 566.465942,777.031982   C573.539490,771.956665 580.299316,767.009766 587.357483,761.983765   C588.455261,761.290283 589.254761,760.675964 590.371338,759.954590   C592.491150,758.601440 594.293945,757.355347 596.429688,756.013062   C602.232361,752.076843 607.702026,748.236877 613.540283,744.336060   C615.494202,743.485474 617.190002,742.859863 618.647278,741.879700   C628.684753,735.128967 638.839417,728.534729 648.631531,721.441772   C659.534973,713.543701 670.295959,705.390869 677.173889,693.330139   C684.116577,681.156128 682.791992,668.555786 673.617432,662.056641   C665.032288,655.975037 655.170288,653.366455 644.795166,651.663330   C648.795044,647.176697 652.898132,643.043823 657.377075,639.009277   C659.663818,639.633362 661.618347,640.037598 663.478577,640.704590   C675.672363,645.076538 687.845947,649.505127 700.198486,654.157043   C700.909241,654.616699 701.447510,654.834656 702.093567,655.288879   C702.667053,655.720520 703.132751,655.915894 703.740234,656.376465   C704.241028,656.808105 704.600037,656.974487 705.054688,657.378723   C705.458618,657.735840 705.766968,657.855103 706.265381,658.245361   C710.433350,662.493469 714.411194,666.470520 718.614746,670.427612   C718.840332,670.407593 718.387695,670.414917 718.538696,670.703735   C719.085815,671.487610 719.482056,671.982605 719.859741,672.637573   C719.841309,672.797546 720.095337,672.995544 720.118896,673.314331   C720.739441,674.485229 721.336304,675.337341 721.951294,676.546814   C722.761597,679.322632 723.553894,681.741089 724.403076,684.598572   C725.231201,690.655945 726.002380,696.274414 726.773560,701.892822   C726.497375,703.004333 726.221313,704.115845 725.672119,705.880981   C718.307373,724.328796 705.234192,737.347656 690.148315,748.080566   C674.260315,759.384094 657.350037,769.247925 640.946167,779.833252   C639.222534,780.945435 637.901489,782.681396 636.393677,784.127991   C639.550781,784.512756 642.046021,784.171326 644.309692,783.256775   C654.262146,779.235840 664.540222,775.788330 673.979004,770.775024   C696.312378,758.913147 718.138489,746.174133 728.133911,720.803711   C736.071655,725.343384 743.868103,729.963745 749.350647,737.695129   C756.605835,747.926086 757.242493,758.408447 751.500671,769.431519   C751.124023,770.154480 750.961304,770.988831 750.436768,772.143982   C735.054382,783.538269 718.279114,791.116577 700.296875,795.979919   C675.138245,802.784119 649.916321,809.355469 624.701538,815.950012   C615.131775,818.452759 605.506653,820.743408 595.588318,822.853516   C594.831604,816.465515 594.453674,810.349670 593.936951,804.245544   C593.473694,798.772949 589.719788,794.733887 585.515808,794.985107   C581.074280,795.250488 577.806641,799.310852 577.943298,804.921326   C578.128845,812.539856 578.589722,820.151611 578.544067,827.831909   C563.479065,831.987732 548.802368,836.078003 534.125732,840.168274   C535.385132,841.051453 536.498474,841.145691 537.591614,841.036987   C551.437805,839.659363 565.281128,838.252747 579.445129,837.123169   C580.495789,845.145020 581.317078,852.889832 581.937805,860.650696   C583.153870,875.854370 584.809448,891.050964 585.254517,906.280518   C585.704590,921.679504 585.291260,937.134521 584.497314,952.525879   C584.109192,960.050964 583.096069,967.345215 587.359131,974.539673   C586.842712,981.580994 586.290039,988.164307 586.029724,994.759216   C585.838379,999.608765 587.932068,1001.969055 591.952881,1002.057434   C595.981384,1002.146057 597.936279,999.872375 597.996948,994.865295   C598.081116,987.918396 598.096924,980.970642 598.376221,973.766785   C599.746765,970.791992 601.648438,968.143250 601.902893,965.344727   C604.924377,932.109253 602.557556,898.995178 599.381287,865.897461   C598.369385,855.353821 597.861023,844.761902 597.551208,834.149048   C611.641846,831.747498 625.325439,829.507996 638.960693,827.005859   C666.970398,821.865967 694.410706,814.667297 720.472839,802.979431   C734.581665,796.652100 746.931213,787.828247 756.238770,775.204529  M415.274292,788.485779   C415.274292,788.485779 415.363892,788.430908 415.274292,788.485779  z"
   id="path2" />
<path
   fill="#6C4B38"
   opacity="1.000000"
   stroke="none"
   d=" M249.468399,1025.000000   C251.653091,1013.303406 253.699814,1001.427612 257.091217,989.949158   C263.289124,968.972107 270.260590,948.223022 276.975433,927.400208   C277.709351,925.124329 278.876221,922.988037 280.867096,921.089417   C279.869598,928.630249 278.821045,936.164673 277.886993,943.713379   C276.588165,954.209839 275.320923,964.710693 274.138123,975.220764   C272.397278,990.689270 270.739380,1006.167175 269.061768,1021.642761   C268.972534,1022.465881 269.027924,1023.304810 269.007996,1024.568115   C262.645599,1025.000000 256.291199,1025.000000 249.468399,1025.000000  z"
   id="path3" />
<path
   fill="#6C4B38"
   opacity="1.000000"
   stroke="none"
   d=" M773.468506,1025.000000   C771.462524,1009.689148 769.977722,994.372681 768.371704,979.069031   C766.974915,965.759399 765.488647,952.458618 763.946228,939.164978   C763.266418,933.306152 762.349182,927.474854 762.205200,921.479004   C777.180420,954.398193 785.547852,989.301636 793.894958,1024.621826   C787.312378,1025.000000 780.624695,1025.000000 773.468506,1025.000000  z"
   id="path4" />

<path
   fill="#6C4C39"
   opacity="1.000000"
   stroke="none"
   d=" M290.779846,772.501099   C295.504120,774.874329 300.065796,777.471863 304.575775,780.156250   C322.826416,791.019104 343.059937,796.611511 363.313629,802.033386   C390.556000,809.326294 417.887604,816.285950 445.588806,823.906372   C445.628937,827.686523 445.261139,830.949036 444.893372,834.211426   C431.207672,831.825439 417.486023,829.626831 403.843964,827.013000   C378.495514,822.156067 353.587891,815.728271 329.502869,806.230957   C312.491211,799.522766 297.762787,789.829895 286.005890,775.299561   C287.449707,774.241943 289.021576,773.503662 290.779846,772.501099  z"
   id="path6" />
<path
   fill="#6C4B38"
   opacity="1.000000"
   stroke="none"
   d=" M755.963989,774.948914   C746.931213,787.828247 734.581665,796.652100 720.472839,802.979431   C694.410706,814.667297 666.970398,821.865967 638.960693,827.005859   C625.325439,829.507996 611.641846,831.747498 597.364868,833.769958   C596.468628,829.999573 596.187683,826.565125 595.906738,823.130737   C605.506653,820.743408 615.131775,818.452759 624.701538,815.950012   C649.916321,809.355469 675.138245,802.784119 700.296875,795.979919   C718.279114,791.116577 735.054382,783.538269 750.549072,772.491211   C752.512268,773.208374 754.100769,773.950867 755.963989,774.948914  z"
   id="path7" />
<path
   fill="#6D4D39"
   opacity="1.000000"
   stroke="none"
   d=" M315.952148,706.810913   C326.905670,729.477722 345.704926,744.833923 366.348145,758.187622   C380.657074,767.443909 395.491943,775.886902 410.083862,784.706299   C411.435486,785.523193 412.729675,786.434998 414.050507,787.302734   C413.868347,787.734192 413.686188,788.165710 413.504028,788.597168   C407.980042,786.765381 402.430969,785.005554 396.936462,783.089355   C374.604462,775.300964 353.732727,764.823181 335.426514,749.618164   C326.358978,742.086670 319.032013,733.225708 314.011353,722.070557   C314.452972,716.895630 315.092682,712.048889 315.952148,706.810913  z"
   id="path8" />
<path
   fill="#6C4C39"
   opacity="1.000000"
   stroke="none"
   d=" M728.075623,720.393433   C718.138489,746.174133 696.312378,758.913147 673.979004,770.775024   C664.540222,775.788330 654.262146,779.235840 644.309692,783.256775   C642.046021,784.171326 639.550781,784.512756 636.393677,784.127991   C637.901489,782.681396 639.222534,780.945435 640.946167,779.833252   C657.350037,769.247925 674.260315,759.384094 690.148315,748.080566   C705.234192,737.347656 718.307373,724.328796 725.662842,706.316406   C726.623596,710.726562 727.320435,715.354919 728.075623,720.393433  z"
   id="path9" />





















































































<path
   fill="#6C4A37"
   opacity="1.000000"
   stroke="none"
   d=" M399.639282,650.956177   C400.466095,650.865784 400.909943,650.907776 401.858948,651.261780   C406.895905,655.076721 411.427673,658.579773 415.959442,662.082764   C416.117554,662.350342 416.317108,662.582275 416.933228,663.189941   C418.673340,664.788574 419.991638,666.035400 421.412811,667.151184   C424.772400,669.788879 428.180939,672.364197 431.677185,675.412781   C431.907990,679.167603 432.031342,682.474426 432.091736,686.247925   C432.314850,691.662476 433.159790,696.653992 432.775970,701.549194   C431.846771,713.399475 430.344879,725.204773 428.923523,737.398926   C428.498962,739.931091 428.224731,742.092529 427.950500,744.254028   C415.828674,736.188965 403.549011,728.348816 391.634521,719.988281   C381.974762,713.209839 372.754150,705.745483 366.293671,695.630676   C362.354034,689.462646 359.088226,682.835083 360.532196,675.144104   C362.847778,662.810730 372.782532,658.621277 382.954712,655.110046   C388.223541,653.291382 393.812134,652.399231 399.639282,650.956177  z"
   id="path95" />
<path
   fill="#6B4A37"
   opacity="1.000000"
   stroke="none"
   d=" M644.898438,652.017029   C655.170288,653.366455 665.032288,655.975037 673.617432,662.056641   C682.791992,668.555786 684.116577,681.156128 677.173889,693.330139   C670.295959,705.390869 659.534973,713.543701 648.631531,721.441772   C638.839417,728.534729 628.684753,735.128967 618.647278,741.879700   C617.190002,742.859863 615.494202,743.485474 613.506958,744.148315   C613.105225,744.021545 612.971130,743.664673 612.976440,743.251099   C611.883423,734.455933 609.996948,726.086731 609.864624,717.689941   C609.645630,703.793518 610.556946,689.879211 611.002075,675.985352   C611.012146,675.998230 610.980042,676.004456 611.189697,675.852295   C611.595093,675.416321 611.790771,675.132446 612.225281,674.621948   C619.118652,669.837341 625.782043,665.292297 632.424255,660.716492   C636.598816,657.840637 640.741516,654.918457 644.898438,652.017029  z"
   id="path96" />



<path
   fill="#366938"
   opacity="1.000000"
   stroke="none"
   d=" M595.588318,822.853516   C596.187683,826.565125 596.468628,829.999573 596.935913,833.812988   C597.861023,844.761902 598.369385,855.353821 599.381287,865.897461   C602.557556,898.995178 604.924377,932.109253 601.902893,965.344727   C601.648438,968.143250 599.746765,970.791992 597.986511,973.861267   C594.057800,974.170349 590.752991,974.128479 587.448181,974.086670   C583.096069,967.345215 584.109192,960.050964 584.497314,952.525879   C585.291260,937.134521 585.704590,921.679504 585.254517,906.280518   C584.809448,891.050964 583.153870,875.854370 581.937805,860.650696   C581.317078,852.889832 580.495789,845.145020 579.428833,836.674988   C579.039185,833.226807 578.985840,830.496521 578.932495,827.766296   C578.589722,820.151611 578.128845,812.539856 577.943298,804.921326   C577.806641,799.310852 581.074280,795.250488 585.515808,794.985107   C589.719788,794.733887 593.473694,798.772949 593.936951,804.245544   C594.453674,810.349670 594.831604,816.465515 595.588318,822.853516  z"
   id="path100" />
<path
   fill="#366938"
   opacity="1.000000"
   stroke="none"
   d=" M445.007507,834.645996   C445.261139,830.949036 445.628937,827.686523 445.985291,824.030701   C446.647400,818.105347 447.344818,812.576111 447.978668,807.039551   C448.148041,805.559753 447.936035,804.020874 448.221649,802.572693   C449.129547,797.969910 452.835236,794.744568 456.699768,795.010071   C460.672760,795.283081 464.250061,799.422546 464.084320,804.163574   C463.818054,811.779785 463.225037,819.384644 462.812408,827.834351   C462.634003,831.156128 462.413330,833.637817 462.192688,836.119568   C461.559387,840.815674 460.735931,845.495239 460.323517,850.210632   C457.605682,881.286804 454.477997,912.352112 456.110260,943.619385   C456.359772,948.398987 457.156464,953.152222 457.752960,957.911011   C458.409119,963.146118 458.271271,968.190247 454.033203,972.812866   C450.250580,973.791321 447.055481,974.447571 443.860413,975.103882   C437.522125,964.528381 438.674164,952.583069 438.609558,941.188110   C438.506348,922.975586 439.612213,904.735840 440.759613,886.542480   C441.842896,869.365112 443.639099,852.232666 445.007507,834.645996  z"
   id="path101" />

<path
   fill="#07451A"
   opacity="1.000000"
   stroke="none"
   d=" M443.743439,975.539734   C447.055481,974.447571 450.250580,973.791321 453.789398,973.131104   C454.743500,980.544006 455.581055,987.952332 455.864258,995.381714   C455.997192,998.869446 454.492188,1002.076660 450.210907,1002.150269   C445.770203,1002.226746 444.149872,999.305054 444.027313,995.354309   C443.827026,988.896790 443.753479,982.435364 443.743439,975.539734  z"
   id="path103" />
<path
   fill="#07451A"
   opacity="1.000000"
   stroke="none"
   d=" M587.359131,974.539673   C590.752991,974.128479 594.057800,974.170349 597.752319,974.117737   C598.096924,980.970642 598.081116,987.918396 597.996948,994.865295   C597.936279,999.872375 595.981384,1002.146057 591.952881,1002.057434   C587.932068,1001.969055 585.838379,999.608765 586.029724,994.759216   C586.290039,988.164307 586.842712,981.580994 587.359131,974.539673  z"
   id="path104" />
<path
   fill="#6D4D39"
   opacity="1.000000"
   stroke="none"
   d=" M462.543884,836.271912   C462.413330,833.637817 462.634003,831.156128 462.950562,828.273926   C477.861206,831.903931 492.676025,835.934326 507.490845,839.964783   C507.371552,840.650452 507.252258,841.336060 507.132965,842.021667   C492.386993,840.155884 477.641052,838.290100 462.543884,836.271912  z"
   id="path105" />
<path
   fill="#6D4D39"
   opacity="1.000000"
   stroke="none"
   d=" M578.544067,827.831909   C578.985840,830.496521 579.039185,833.226807 579.108887,836.405212   C565.281128,838.252747 551.437805,839.659363 537.591614,841.036987   C536.498474,841.145691 535.385132,841.051453 534.125732,840.168274   C548.802368,836.078003 563.479065,831.987732 578.544067,827.831909  z"
   id="path106" />















<path
   fill="#6D4D39"
   opacity="1.000000"
   stroke="none"
   d=" M415.319092,788.458374   C415.363892,788.430908 415.274292,788.485779 415.319092,788.458374  z"
   id="path122" />

























































































































































































<path
   fill="#9B442B"
   opacity="1.000000"
   stroke="none"
   d=" M403.019684,629.252075   C403.876984,629.753601 404.767212,630.613403 405.812134,631.740356   C404.995453,631.208496 404.024017,630.409485 403.019684,629.252075  z"
   id="path308" />
<path
   fill="#9B442B"
   opacity="1.000000"
   stroke="none"
   d=" M410.097778,637.124146   C410.799347,637.493958 411.504944,638.222839 412.244446,639.242859   C411.552795,638.850403 410.827271,638.166809 410.097778,637.124146  z"
   id="path309" />


<path
   fill="#672016"
   opacity="1.000000"
   stroke="none"
   d=" M611.189697,675.852295   C611.175781,675.723145 611.371582,675.441895 611.776855,675.004639   C611.790771,675.132446 611.595093,675.416321 611.189697,675.852295  z"
   id="path312" />











































































































































































































































<path
   fill="#B97452"
   opacity="1.000000"
   stroke="none"
   d=" M567.151733,748.651672   C568.076599,748.370422 569.135742,748.344604 570.584595,748.402954   C569.744934,748.627136 568.515442,748.767151 567.151733,748.651672  z"
   id="path548" />

<path
   fill="#B97452"
   opacity="1.000000"
   stroke="none"
   d=" M574.139221,748.701599   C574.763000,748.402161 575.504883,748.337219 576.615479,748.337891   C576.075195,748.581055 575.166260,748.758606 574.139221,748.701599  z"
   id="path550" />
<path
   fill="#B97452"
   opacity="1.000000"
   stroke="none"
   d=" M581.126709,748.619019   C581.758667,748.318420 582.504333,748.264221 583.622009,748.262085   C583.076111,748.497864 582.158264,748.681580 581.126709,748.619019  z"
   id="path551" />
































































































































































































</svg>
