<?xml version="1.0" encoding="UTF-8" standalone="no"?>
<svg
   version="1.1"
   id="Layer_1"
   x="0px"
   y="0px"
   width="100%"
   viewBox="0 0 1024 1024"
   enable-background="new 0 0 1024 1024"
   xml:space="preserve"
   sodipodi:docname="15 (1).svg"
   inkscape:version="1.4.3 (0d15f75, 2025-12-25)"
   xmlns:inkscape="http://www.inkscape.org/namespaces/inkscape"
   xmlns:sodipodi="http://sodipodi.sourceforge.net/DTD/sodipodi-0.dtd"
   xmlns="http://www.w3.org/2000/svg"
   xmlns:svg="http://www.w3.org/2000/svg"><defs
   id="defs157" /><sodipodi:namedview
   id="namedview157"
   pagecolor="#ffffff"
   bordercolor="#000000"
   borderopacity="0.25"
   inkscape:showpageshadow="2"
   inkscape:pageopacity="0.0"
   inkscape:pagecheckerboard="0"
   inkscape:deskcolor="#d1d1d1"
   inkscape:zoom="0.79589844"
   inkscape:cx="511.37178"
   inkscape:cy="512"
   inkscape:window-width="1920"
   inkscape:window-height="1017"
   inkscape:window-x="-8"
   inkscape:window-y="-8"
   inkscape:window-maximized="1"
   inkscape:current-layer="Layer_1" />

<g transform="translate(0, 17) translate(512, 512) scale(1.02) translate(-512, -512)">
<path
   fill="#FBF7F3"
   opacity="1.000000"
   stroke="none"
   d=" M416.998566,694.187012   C417.349365,693.755493 417.700165,693.323975 418.481750,692.499512   C424.211304,690.446594 429.510101,688.786621 434.838257,687.640625   C434.855713,691.438660 434.843750,694.722717 434.534424,698.100037   C433.853119,698.877686 433.469208,699.562195 432.810944,700.465393   C426.641571,703.292664 420.726105,705.856323 414.860535,708.529541   C412.118591,709.779236 411.321381,711.882751 412.779968,714.634277   C416.797943,722.213684 420.832703,729.784180 424.964172,737.678467   C436.473907,756.815247 450.853485,773.168396 467.621490,787.247925   C476.760925,794.921936 484.324554,803.142212 487.898224,814.799927   C490.575012,823.532104 493.945679,832.055847 497.123962,840.629211   C505.161346,862.309631 513.474548,883.873413 525.006592,904.401794   C529.778198,912.770935 534.202637,920.975403 539.300110,928.737976   C542.557373,933.698303 544.068054,938.691406 544.032166,944.610474   C543.869751,971.406067 543.984802,998.203308 544.000000,1025.000000   C530.645752,1025.000000 517.291565,1025.000000 503.468018,1024.531372   C503.048523,1010.701782 503.098297,997.340759 503.488007,983.839966   C504.377441,980.117554 505.287903,976.539551 505.333099,972.950623   C505.357880,970.982849 503.922668,968.996643 503.118713,966.549744   C503.072632,964.750732 503.092957,963.418762 503.028534,962.090942   C502.457306,950.314514 504.269562,938.632812 498.148376,927.134949   C483.861389,900.298767 470.807373,872.806458 457.209869,845.601929   C456.714569,844.611023 455.754822,843.852295 454.965179,842.888428   C454.918884,842.791504 454.643402,842.790161 454.643402,842.790161   C454.643402,842.790161 454.982880,843.012451 454.988953,843.388184   C455.491302,845.162781 455.858795,846.624207 456.502777,847.951477   C468.685150,873.058838 481.019684,898.093445 493.021484,923.286621   C495.900909,929.330994 499.507538,935.843140 499.677673,942.222900   C500.413025,969.798523 499.997070,997.404846 500.000000,1025.000000   C419.645782,1025.000000 339.291534,1025.000000 258.448639,1024.562622   C256.975403,1005.712891 256.078583,987.295105 254.944611,968.891968   C254.661102,964.291199 253.997116,959.639343 252.855652,955.177917   C245.599564,926.818237 238.423553,898.433228 230.685837,870.203369   C225.855789,852.581726 220.141617,835.200195 214.677948,817.756714   C213.906265,815.293091 212.302170,813.090149 211.083359,810.766541   C222.693817,844.261108 225.944260,879.444519 234.127167,913.484802   C238.806595,932.950806 246.989456,1011.064270 245.144562,1017.623901   C232.125000,993.269531 219.102814,968.916565 206.076889,944.556641   C206.076889,946.100037 205.856476,947.786865 206.110840,949.398682   C208.777420,966.295715 211.443726,983.193604 214.273972,1000.063721   C215.673431,1008.405334 217.413849,1016.689697 219.000000,1025.000000   C191.645767,1025.000000 164.291550,1025.000000 136.468658,1025.000000   C137.991745,1011.731384 139.221481,998.293335 142.125381,985.227478   C149.363998,952.657898 156.745102,920.093933 165.265884,887.843994   C171.434601,864.496277 180.360931,842.036621 194.322922,821.952332   C202.195602,810.627502 213.349945,803.942932 226.133972,799.946167   C252.157166,791.810303 278.355011,784.232544 304.371216,776.075073   C323.400604,770.108398 342.254883,763.583313 361.547424,757.711121   C362.279022,761.414185 362.519928,764.734009 363.041962,768.009033   C367.948608,798.791443 377.016296,828.245728 391.003448,856.166870   C393.108459,860.368896 395.129822,861.250977 399.421936,858.887939   C417.945587,848.689148 436.372498,838.377991 452.173218,824.088196   C454.706085,821.797546 456.997650,821.825745 459.845612,823.317078   C466.927887,827.025879 474.090576,830.582153 481.247803,834.145752   C482.576538,834.807312 484.030609,835.217041 485.426849,835.742981   C485.730316,835.381226 486.033813,835.019470 486.337280,834.657715   C479.654541,822.083557 473.616699,809.103882 466.056396,797.081543   C461.226776,789.401550 453.716248,790.912231 449.177643,799.125732   C447.909729,801.420227 446.430206,803.657227 444.717590,805.634644   C440.718628,810.251770 436.424713,814.613464 432.425598,819.230469   C427.759247,824.617798 423.708893,830.610901 418.613007,835.535950   C411.825684,842.095947 404.287842,847.879517 396.733368,853.997681   C395.943390,853.999146 395.492432,853.999573 394.874023,853.687866   C385.401306,833.493652 377.358612,813.128601 372.012085,791.806213   C369.036560,779.939697 366.609009,767.935913 363.934509,755.993958   C365.297699,753.619324 366.365234,751.004089 368.070923,748.908203   C381.353546,732.587219 394.759033,716.366272 408.848083,700.031616   C413.401489,699.776001 416.617004,698.808472 416.998566,694.187012  M453.083221,840.199890   C453.083221,840.199890 453.348175,840.206604 453.348175,840.206604   C453.348175,840.206604 453.004883,839.996033 453.003510,839.346680   C452.674683,838.585693 452.345856,837.824707 451.899872,836.359192   C451.003754,835.337646 450.138123,834.283081 449.144135,833.367859   C449.076660,833.305725 447.465668,834.493530 447.557434,834.757019   C448.016937,836.076416 448.655487,837.406250 449.544342,838.470886   C449.951294,838.958252 451.077942,838.844727 452.196594,839.397522   C452.463226,839.599976 452.729858,839.802429 453.083221,840.199890  M511.887054,943.663452   C510.499420,949.261841 512.190186,953.421509 516.838989,955.846252   C520.602112,957.809082 525.622375,956.857239 528.776733,953.582764   C532.224487,950.003906 532.670166,945.379700 529.964600,941.260620   C525.849548,934.995911 517.713196,935.778198 511.887054,943.663452  M531.516113,1013.589050   C531.689209,1012.444092 532.014404,1011.298523 532.009705,1010.154297   C531.986694,1004.565247 527.263489,999.983215 521.768250,1000.127625   C515.622620,1000.289062 511.591095,1004.823181 512.019958,1010.995361   C512.364319,1015.951660 515.410522,1018.350342 519.858032,1019.413208   C524.919067,1020.622681 528.567505,1018.581360 531.516113,1013.589050  M537.574463,972.694763   C538.531372,972.416870 539.488281,972.138916 540.445129,971.860962   C540.076355,971.076538 539.707520,970.292053 539.338623,969.507568   C538.660278,970.374939 537.981934,971.242310 537.574463,972.694763  z"
   id="path2" />
<path
   fill="#FBF7F3"
   opacity="1.000000"
   stroke="none"
   d=" M684.908997,757.801514   C701.353455,763.184204 717.728271,768.792175 734.257996,773.898865   C762.073059,782.492126 789.886108,791.121033 817.890442,799.063538   C840.280762,805.413818 853.703430,820.564941 863.215027,840.818481   C880.119873,876.814941 889.518677,915.065308 897.850769,953.627258   C902.690063,976.024475 906.596191,998.623413 910.893250,1021.137207   C911.078186,1022.106384 910.971802,1023.131226 911.000610,1024.565063   C883.645752,1025.000000 856.291565,1025.000000 828.454285,1024.570312   C828.019104,1022.976440 827.933167,1021.788452 828.134766,1020.651367   C831.266479,1002.987976 834.562561,985.352478 837.535095,967.662537   C838.770569,960.310486 839.333618,952.845337 840.360718,944.081421   C826.856995,969.864197 814.108154,994.205627 801.359375,1018.547058   C800.950989,1018.476013 800.542603,1018.405029 800.134277,1018.334045   C806.294678,948.619080 816.360779,879.547546 835.050598,811.788757   C833.599304,814.108154 832.077209,816.468079 831.201233,819.047302   C827.672607,829.436157 823.859680,839.763611 821.032166,850.348816   C812.790100,881.204651 805.000793,912.181213 796.964294,943.092285   C795.126526,950.160828 791.741150,957.071289 791.261108,964.202148   C789.899658,984.427185 789.673340,1004.728638 789.000000,1025.000000   C708.645752,1025.000000 628.291565,1025.000000 547.477417,1024.531494   C547.014404,997.772034 547.248230,971.477600 546.850220,945.192749   C546.743835,938.164124 548.829834,932.211426 551.906006,926.315369   C562.597351,905.823730 573.498901,885.440063 584.010620,864.857056   C589.676086,853.763489 594.710999,842.347961 600.381348,831.084106   C602.273560,832.027100 603.812256,832.967896 605.356567,833.899231   C619.280151,842.296387 633.172485,850.745972 647.151306,859.050110   C650.656128,861.132202 653.548706,860.145386 655.275513,856.309448   C656.572876,853.427551 657.862061,850.541748 659.188538,847.673218   C672.424072,819.049683 679.903015,788.779724 684.908997,757.801514  M836.462524,809.506470   C836.462524,809.506470 836.516602,809.481384 836.462524,809.506470  z"
   id="path3" />
<path
   fill="#D3D7DC"
   opacity="1.000000"
   stroke="none"
   d=" M789.468628,1025.000000   C789.673340,1004.728638 789.899658,984.427185 791.261108,964.202148   C791.741150,957.071289 795.126526,950.160828 796.964294,943.092285   C805.000793,912.181213 812.790100,881.204651 821.032166,850.348816   C823.859680,839.763611 827.672607,829.436157 831.201233,819.047302   C832.077209,816.468079 833.599304,814.108154 835.050598,811.788757   C816.360779,879.547546 806.294678,948.619080 800.134277,1018.334045   C800.542603,1018.405029 800.950989,1018.476013 801.359375,1018.547058   C814.108154,994.205627 826.856995,969.864197 840.360718,944.081421   C839.333618,952.845337 838.770569,960.310486 837.535095,967.662537   C834.562561,985.352478 831.266479,1002.987976 828.134766,1020.651367   C827.933167,1021.788452 828.019104,1022.976440 827.985596,1024.570312   C815.312439,1025.000000 802.624878,1025.000000 789.468628,1025.000000  z"
   id="path4" />
<path
   fill="#D0D5D9"
   opacity="1.000000"
   stroke="none"
   d=" M219.468658,1025.000000   C217.413849,1016.689697 215.673431,1008.405334 214.273972,1000.063721   C211.443726,983.193604 208.777420,966.295715 206.110840,949.398682   C205.856476,947.786865 206.076889,946.100037 206.076889,944.556641   C219.102814,968.916565 232.125000,993.269531 245.144562,1017.623901   C246.989456,1011.064270 238.806595,932.950806 234.127167,913.484802   C225.944260,879.444519 222.693817,844.261108 211.083359,810.766541   C212.302170,813.090149 213.906265,815.293091 214.677948,817.756714   C220.141617,835.200195 225.855789,852.581726 230.685837,870.203369   C238.423553,898.433228 245.599564,926.818237 252.855652,955.177917   C253.997116,959.639343 254.661102,964.291199 254.944611,968.891968   C256.078583,987.295105 256.975403,1005.712891 257.979980,1024.562622   C245.312439,1025.000000 232.624878,1025.000000 219.468658,1025.000000  z"
   id="path5" />
<path
   fill="#D9DADB"
   opacity="1.000000"
   stroke="none"
   d=" M600.030334,831.077637   C594.710999,842.347961 589.676086,853.763489 584.010620,864.857056   C573.498901,885.440063 562.597351,905.823730 551.906006,926.315369   C548.829834,932.211426 546.743835,938.164124 546.850220,945.192749   C547.248230,971.477600 547.014404,997.772034 547.008789,1024.531494   C546.250000,1025.000000 545.500000,1025.000000 544.375000,1025.000000   C543.984802,998.203308 543.869751,971.406067 544.032166,944.610474   C544.068054,938.691406 542.557373,933.698303 539.300110,928.737976   C534.202637,920.975403 529.778198,912.770935 525.257874,904.300415   C525.896423,903.549927 526.345764,903.252686 527.073486,903.168579   C533.171021,913.039673 538.990112,922.697632 545.272705,933.124939   C563.546448,898.086243 581.301147,864.042725 599.249634,830.147949   C599.686523,830.521423 599.882141,830.781738 600.030334,831.077637  z"
   id="path6" />
<path
   fill="#D9DADB"
   opacity="1.000000"
   stroke="none"
   d=" M500.375000,1025.000000   C499.997070,997.404846 500.413025,969.798523 499.677673,942.222900   C499.507538,935.843140 495.900909,929.330994 493.021484,923.286621   C481.019684,898.093445 468.685150,873.058838 456.502777,847.951477   C455.858795,846.624207 455.491302,845.162781 454.997070,843.382080   C454.999115,843.000366 455.011475,842.985352 455.011475,842.985352   C455.754822,843.852295 456.714569,844.611023 457.209869,845.601929   C470.807373,872.806458 483.861389,900.298767 498.148376,927.134949   C504.269562,938.632812 502.457306,950.314514 503.028534,962.090942   C503.092957,963.418762 503.072632,964.750732 503.082642,967.013672   C503.098480,973.290955 503.123260,978.635376 503.148071,983.979797   C503.098297,997.340759 503.048523,1010.701782 502.999390,1024.531372   C502.250000,1025.000000 501.500000,1025.000000 500.375000,1025.000000  z"
   id="path7" />






<path
   fill="#FBF7F2"
   opacity="1.000000"
   stroke="none"
   d=" M599.055847,829.999207   C581.301147,864.042725 563.546448,898.086243 545.272705,933.124939   C538.990112,922.697632 533.171021,913.039673 527.118896,902.785034   C536.383667,875.780396 546.202148,849.481750 555.252563,822.921387   C560.261597,808.221130 567.556091,795.768066 580.166382,786.133118   C587.297058,780.684814 592.843811,773.163391 599.422852,766.385681   C601.149292,764.391357 602.606567,762.623291 603.956299,760.776611   C609.665649,752.965088 615.342896,745.130127 621.299744,737.063904   C625.386963,729.668945 629.199829,722.510254 633.028625,715.360107   C634.911255,711.844299 633.935486,709.316345 630.338501,707.828796   C623.921021,705.174927 617.468201,702.606323 610.974487,699.533447   C610.970825,695.107056 611.022888,691.149353 611.476562,687.292358   C617.231140,689.099731 622.584106,690.806519 627.937134,692.513306   C628.548462,693.445984 628.940857,694.777100 629.804138,695.251526   C642.863525,702.429321 650.443237,714.981567 659.759277,725.789856   C666.774719,733.928955 673.419800,742.392334 680.063538,750.842041   C681.185913,752.269409 681.466248,754.358826 682.066284,756.940430   C675.591492,791.552612 665.328735,824.114624 650.503174,855.709412   C643.760254,849.374756 636.935242,843.746826 631.049011,837.266235   C619.536316,824.591064 608.424255,811.544006 597.384705,798.449951   C589.748047,789.392212 585.503052,789.219482 578.201416,798.392334   C577.890564,798.782837 577.530884,799.156738 577.315369,799.597717   C571.359863,811.783752 565.420105,823.977539 559.105957,836.932983   C560.851685,836.234375 561.901855,835.925659 562.845398,835.418579   C569.591675,831.793823 576.262939,828.025574 583.062073,824.503967   C590.506104,820.648376 594.640076,822.151917 599.055847,829.999207  z"
   id="path14" />



<path
   fill="#CBD1D6"
   opacity="1.000000"
   stroke="none"
   d=" M599.249634,830.147949   C594.640076,822.151917 590.506104,820.648376 583.062073,824.503967   C576.262939,828.025574 569.591675,831.793823 562.845398,835.418579   C561.901855,835.925659 560.851685,836.234375 559.105957,836.932983   C565.420105,823.977539 571.359863,811.783752 577.315369,799.597717   C577.530884,799.156738 577.890564,798.782837 578.201416,798.392334   C585.503052,789.219482 589.748047,789.392212 597.384705,798.449951   C608.424255,811.544006 619.536316,824.591064 631.049011,837.266235   C636.935242,843.746826 643.760254,849.374756 650.503174,855.709412   C665.328735,824.114624 675.591492,791.552612 682.079712,757.333130   C682.928101,757.095337 683.693604,757.262878 684.684082,757.615967   C679.903015,788.779724 672.424072,819.049683 659.188538,847.673218   C657.862061,850.541748 656.572876,853.427551 655.275513,856.309448   C653.548706,860.145386 650.656128,861.132202 647.151306,859.050110   C633.172485,850.745972 619.280151,842.296387 605.356567,833.899231   C603.812256,832.967896 602.273560,832.027100 600.381348,831.084106   C599.882141,830.781738 599.686523,830.521423 599.249634,830.147949  z"
   id="path18" />
<path
   fill="#CBD1D6"
   opacity="1.000000"
   stroke="none"
   d=" M397.072388,853.996582   C404.287842,847.879517 411.825684,842.095947 418.613007,835.535950   C423.708893,830.610901 427.759247,824.617798 432.425598,819.230469   C436.424713,814.613464 440.718628,810.251770 444.717590,805.634644   C446.430206,803.657227 447.909729,801.420227 449.177643,799.125732   C453.716248,790.912231 461.226776,789.401550 466.056396,797.081543   C473.616699,809.103882 479.654541,822.083557 486.337280,834.657715   C486.033813,835.019470 485.730316,835.381226 485.426849,835.742981   C484.030609,835.217041 482.576538,834.807312 481.247803,834.145752   C474.090576,830.582153 466.927887,827.025879 459.845612,823.317078   C456.997650,821.825745 454.706085,821.797546 452.173218,824.088196   C436.372498,838.377991 417.945587,848.689148 399.421936,858.887939   C395.129822,861.250977 393.108459,860.368896 391.003448,856.166870   C377.016296,828.245728 367.948608,798.791443 363.041962,768.009033   C362.519928,764.734009 362.279022,761.414185 361.898499,757.696289   C362.367950,756.892761 362.846588,756.508057 363.629883,756.058716   C366.609009,767.935913 369.036560,779.939697 372.012085,791.806213   C377.358612,813.128601 385.401306,833.493652 394.899841,853.931030   C395.752869,854.323059 396.412628,854.159790 397.072388,853.996582  z"
   id="path19" />









<path
   fill="#FBF7F3"
   opacity="1.000000"
   stroke="none"
   d=" M416.684143,694.293213   C416.617004,698.808472 413.401489,699.776001 409.155731,699.923279   C411.284424,698.064941 413.827057,696.232178 416.684143,694.293213  z"
   id="path29" />





































<path
   fill="#A3B2BE"
   opacity="1.000000"
   stroke="none"
   d=" M434.731903,699.987366   C435.154175,713.161682 432.150299,725.464966 425.116119,737.083435   C420.832703,729.784180 416.797943,722.213684 412.779968,714.634277   C411.321381,711.882751 412.118591,709.779236 414.860535,708.529541   C420.726105,705.856323 426.641571,703.292664 433.086212,700.421631   C434.001190,700.101868 434.366547,700.044617 434.731903,699.987366  z"
   id="path67" />
<path
   fill="#C6C3C1"
   opacity="1.000000"
   stroke="none"
   d=" M512.045105,943.315857   C517.713196,935.778198 525.849548,934.995911 529.964600,941.260620   C532.670166,945.379700 532.224487,950.003906 528.776733,953.582764   C525.622375,956.857239 520.602112,957.809082 516.838989,955.846252   C512.190186,953.421509 510.499420,949.261841 512.045105,943.315857  z"
   id="path68" />
<path
   fill="#C6C3C1"
   opacity="1.000000"
   stroke="none"
   d=" M531.348999,1013.947388   C528.567505,1018.581360 524.919067,1020.622681 519.858032,1019.413208   C515.410522,1018.350342 512.364319,1015.951660 512.019958,1010.995361   C511.591095,1004.823181 515.622620,1000.289062 521.768250,1000.127625   C527.263489,999.983215 531.986694,1004.565247 532.009705,1010.154297   C532.014404,1011.298523 531.689209,1012.444092 531.348999,1013.947388  z"
   id="path69" />
<path
   fill="#FBF7F3"
   opacity="1.000000"
   stroke="none"
   d=" M503.488007,983.839966   C503.123260,978.635376 503.098480,973.290955 503.109741,967.482666   C503.922668,968.996643 505.357880,970.982849 505.333099,972.950623   C505.287903,976.539551 504.377441,980.117554 503.488007,983.839966  z"
   id="path70" />
<path
   fill="#FBF7F3"
   opacity="1.000000"
   stroke="none"
   d=" M451.878204,839.003784   C451.077942,838.844727 449.951294,838.958252 449.544342,838.470886   C448.655487,837.406250 448.016937,836.076416 447.557434,834.757019   C447.465668,834.493530 449.076660,833.305725 449.144135,833.367859   C450.138123,834.283081 451.003754,835.337646 451.949463,837.034668   C451.958771,838.141418 451.918488,838.572571 451.878204,839.003784  z"
   id="path71" />
<path
   fill="#FBF7F3"
   opacity="1.000000"
   stroke="none"
   d=" M537.438965,972.402222   C537.981934,971.242310 538.660278,970.374939 539.338623,969.507568   C539.707520,970.292053 540.076355,971.076538 540.445129,971.860962   C539.488281,972.138916 538.531372,972.416870 537.438965,972.402222  z"
   id="path72" />
<path
   fill="#FBF7F3"
   opacity="1.000000"
   stroke="none"
   d=" M434.805359,699.661194   C434.366547,700.044617 434.001190,700.101868 433.360565,700.202881   C433.469208,699.562195 433.853119,698.877686 434.534424,698.100037   C434.847473,698.449585 434.863129,698.892273 434.805359,699.661194  z"
   id="path73" />
<path
   fill="#D9DADB"
   opacity="1.000000"
   stroke="none"
   d=" M452.037415,839.200684   C451.918488,838.572571 451.958771,838.141418 452.008026,837.386963   C452.345856,837.824707 452.674683,838.585693 453.001770,839.673340   C453.000000,840.000000 452.996460,840.004883 452.996460,840.004883   C452.729858,839.802429 452.463226,839.599976 452.037415,839.200684  z"
   id="path74" />
<path
   fill="#FBF7F3"
   opacity="1.000000"
   stroke="none"
   d=" M396.733368,853.997681   C396.412628,854.159790 395.752869,854.323059 395.067291,854.243164   C395.492432,853.999573 395.943390,853.999146 396.733368,853.997681  z"
   id="path75" />
<path
   fill="#D9DADB"
   opacity="1.000000"
   stroke="none"
   d=" M453.002441,839.998047   C453.004883,839.996033 453.348175,840.206604 453.348175,840.206604   C453.348175,840.206604 453.083221,840.199890 453.039856,840.102417   C452.996460,840.004883 453.000000,840.000000 453.002441,839.998047  z"
   id="path76" />
<path
   fill="#D9DADB"
   opacity="1.000000"
   stroke="none"
   d=" M454.990997,843.006409   C454.982880,843.012451 454.643402,842.790161 454.643402,842.790161   C454.643402,842.790161 454.918884,842.791504 454.965179,842.888428   C455.011475,842.985352 454.999115,843.000366 454.990997,843.006409  z"
   id="path77" />
<path
   fill="#D3D7DC"
   opacity="1.000000"
   stroke="none"
   d=" M836.489563,809.493896   C836.516602,809.481384 836.462524,809.506470 836.489563,809.493896  z"
   id="path78" />













































<path
   fill="#A3B2BE"
   opacity="1.000000"
   stroke="none"
   d=" M621.299744,737.063904   C618.675415,732.990295 616.318848,728.676880 613.741577,724.127930   C612.644714,716.232178 611.768494,708.571960 610.961304,700.456909   C617.468201,702.606323 623.921021,705.174927 630.338501,707.828796   C633.935486,709.316345 634.911255,711.844299 633.028625,715.360107   C629.199829,722.510254 625.386963,729.668945 621.299744,737.063904  z"
   id="path124" />






























</g>
</svg>
