<?xml version="1.0" encoding="UTF-8" standalone="no"?>
<svg
   version="1.1"
   id="Layer_1"
   x="0px"
   y="0px"
   width="100%"
   viewBox="0 0 1024 1024"
   enable-background="new 0 0 1024 1024"
   xml:space="preserve"
   xmlns="http://www.w3.org/2000/svg"
   xmlns:svg="http://www.w3.org/2000/svg">
  <path
     fill="#2D395B"
     opacity="1.000000"
     stroke="none"
     d="M613.147583,190.568359 C603.279846,187.990143 593.289551,185.064163 582.905396,181.998871 C584.577576,173.559158 588.048828,165.941452 593.899414,159.616837 C601.794495,151.082153 613.056213,150.577606 620.697571,157.885513 C628.005127,164.874237 625.239319,176.391785 617.943726,183.816437 C616.071106,185.722183 614.652283,188.073792 613.147583,190.568359 z"
     id="path-artist-hat-top" />
  <path
     fill="#444C70"
     opacity="1.000000"
     stroke="none"
     d="M731.728760,255.861130 C738.329895,263.477722 745.154419,270.607422 750.767456,278.589142 C759.034119,290.344269 763.503601,303.296600 759.275269,317.983093 C756.606873,327.251160 749.997375,332.366486 741.251709,334.840729 C736.682678,336.133331 731.789917,336.281403 726.614929,336.999268 C709.682068,333.624695 693.194702,330.112701 676.669250,326.789612 C651.726440,321.773834 626.769287,316.826935 601.794922,311.970978 C583.793518,308.470856 565.779968,305.021027 547.724304,301.816132 C530.167908,298.699829 512.559570,295.871185 494.958679,293.010834 C468.068115,288.640778 441.124207,284.581268 414.290863,279.887360 C406.364655,278.500854 398.734711,275.420776 390.620300,273.056885 C382.757019,269.317474 376.461823,264.155670 371.112610,257.006653 C370.550262,256.334198 370.285980,256.136597 370.021698,255.938965 C370.021698,255.938965 370.079254,255.984207 370.107483,255.960449 C356.268646,228.181931 372.936188,204.062637 393.353363,193.745667 C414.604706,183.007202 437.329712,177.856705 460.709320,174.936340 C500.810211,169.927307 540.423767,173.447205 579.750305,181.856476 C580.392151,181.993744 581.073303,181.947662 582.517700,182.062653 C593.289551,185.064163 603.279846,187.990143 613.270142,190.916122 C628.930725,196.765030 644.941223,201.838287 660.146179,208.697159 C673.393982,214.673111 685.733032,222.663834 698.809937,229.876495 C709.901001,238.577530 720.655701,247.166397 731.728760,255.861130 z"
     id="path-artist-hat-body" />
  <path
     fill="#2D3A5B"
     opacity="1.000000"
     stroke="none"
     d="M435.151855,308.118225 C426.084015,305.782562 417.437988,303.407257 408.795593,301.018646 C407.674988,300.708954 406.563171,300.359955 405.464417,299.979645 C389.107422,294.318176 386.990692,290.708801 390.542694,273.477539 C398.734711,275.420776 406.364655,278.500854 414.290863,279.887360 C441.124207,284.581268 468.068115,288.640778 494.958679,293.010834 C512.559570,295.871185 530.167908,298.699829 547.724304,301.816132 C565.779968,305.021027 583.793518,308.470856 601.794922,311.970978 C626.769287,316.826935 651.726440,321.773834 676.669250,326.789612 C693.194702,330.112701 709.682068,333.624695 726.136475,337.421082 C725.670837,339.452972 725.255249,341.115845 724.839600,342.778687 C721.049744,349.110779 714.558716,349.999115 708.331787,349.823639 C696.220764,349.482330 684.108276,348.527069 672.044556,347.337585 C656.860168,345.840332 641.707520,343.982758 626.571350,342.044769 C608.819092,339.771851 591.039001,337.615143 573.380127,334.738434 C549.542175,330.855133 525.756226,326.602203 502.044861,322.007874 C479.822540,317.702026 457.726410,312.744904 435.151855,308.118225 z"
     id="path-artist-hat-brim" />
  <g id="artist-palette" transform="translate(0,-34)">
    <path
       fill="#DDA874"
       opacity="1.000000"
       stroke="none"
       d="M750.823425,726.034119 C776.840515,729.416260 801.348572,737.276489 823.671753,751.223938 C844.258423,764.086609 857.026794,782.374084 860.686401,806.616638 C860.919678,808.162231 860.402283,809.821106 859.788696,812.055115 C858.373840,826.259827 855.136292,839.216553 848.308899,851.077271 C837.163757,870.439087 820.717224,884.416687 802.258911,896.448486 C783.132812,908.915588 762.318054,917.369873 740.612549,924.077393 C718.621155,930.873291 696.101074,934.645935 673.232056,935.830750 C656.165039,936.714966 639.093201,935.942139 622.068542,933.233826 C598.419983,929.471863 576.276306,922.130554 556.620422,908.313293 C543.165527,898.855103 532.086487,887.391846 528.842041,870.319275 C528.752869,869.850159 527.915955,869.523132 527.427734,869.129822 C523.734924,842.155090 537.371338,819.385559 563.142090,809.007751 C574.251831,804.533936 585.875610,803.092102 597.629272,801.881165 C604.042358,801.220581 610.581604,800.566467 616.722412,798.752930 C627.227783,795.650391 629.426697,788.475159 622.510620,779.983948 C611.322510,766.247681 615.581787,753.181763 628.750427,744.437866 C642.597473,735.243591 658.336426,730.876221 674.402649,728.106750 C685.777405,726.145935 697.433289,725.815918 709.884949,724.814331 C719.502808,725.233826 728.197632,725.652771 736.896790,725.937439 C741.535095,726.089294 746.180969,726.009460 750.823425,726.034119 M665.938660,781.638794 C667.970398,783.479980 669.749390,785.764526 672.075012,787.090149 C686.960510,795.575623 713.195496,790.414307 722.867310,774.761658 C725.952026,767.285645 723.097961,759.161072 715.414978,755.906921 C701.112976,749.849426 686.680054,750.121338 672.792908,757.252747 C665.315979,761.092407 660.943176,767.375183 662.187805,776.216309 C662.428223,777.923645 664.527527,779.369324 665.938660,781.638794 M665.053040,904.532837 C672.907471,895.886658 672.603516,887.369141 664.167969,879.732910 C651.543823,868.305054 625.715027,870.695312 615.520996,884.234741 C609.804749,891.827087 611.159851,901.367432 618.907349,907.123779 C630.488037,915.728271 654.776917,915.608643 665.053040,904.532837 M724.272705,906.989258 C733.399353,906.169373 741.748596,903.329346 748.891113,897.423401 C757.476746,890.324280 760.025879,877.192810 747.472534,869.624084 C740.122314,865.192444 732.284119,864.194458 724.065063,866.061401 C714.584839,868.214905 706.167236,872.209839 700.784485,880.854919 C695.391724,889.516174 697.757446,899.238708 707.110229,903.370850 C712.087341,905.569885 717.912476,905.849854 724.272705,906.989258 M814.272156,777.511047 C807.744202,764.726807 789.257996,757.989197 774.168762,762.830078 C766.015198,765.445984 760.300781,770.884949 759.377686,779.236694 C758.575317,786.495728 763.249268,791.799866 769.371643,795.765076 C779.152405,802.099487 789.736145,803.704529 800.752686,800.771667 C811.295898,797.964722 819.389099,788.567383 814.272156,777.511047 M568.436523,836.844299 C565.238098,839.457458 561.689270,841.745911 558.908569,844.746155 C551.372498,852.877075 553.737915,864.152588 563.450195,869.318909 C569.566162,872.572144 576.032410,872.537109 582.418091,871.827332 C592.346863,870.723755 600.826721,866.320068 607.077698,858.294128 C613.069824,850.600586 611.412109,840.367493 602.886353,835.622803 C591.631042,829.359131 580.217773,830.749695 568.436523,836.844299 M770.928955,857.408081 C773.034607,858.980835 774.923767,861.094360 777.281250,862.037720 C791.691467,867.804077 809.653687,862.071167 818.513245,850.541077 C825.390991,841.590332 822.307434,831.160034 812.125916,826.041565 C800.187622,820.039917 780.794922,825.304688 772.761108,836.219788 C767.876526,842.856262 765.895447,849.346802 770.928955,857.408081 z"
       id="path-artist-palette-base" />
  <path
     fill="#AB784A"
     opacity="1.000000"
     stroke="none"
     d="M527.393555,869.517700 C527.915955,869.523132 528.752869,869.850159 528.842041,870.319275 C532.086487,887.391846 543.165527,898.855103 556.620422,908.313293 C576.276306,922.130554 598.419983,929.471863 622.068542,933.233826 C639.093201,935.942139 656.165039,936.714966 673.232056,935.830750 C696.101074,934.645935 718.621155,930.873291 740.612549,924.077393 C762.318054,917.369873 783.132812,908.915588 802.258911,896.448486 C820.717224,884.416687 837.163757,870.439087 848.308899,851.077271 C855.136292,839.216553 858.373840,826.259827 859.625610,812.423279 C864.248291,839.681213 852.925110,861.604065 835.085938,881.097839 C831.405212,885.119995 827.130371,888.598572 822.643799,892.694336 C799.160706,910.967346 773.782898,924.427246 745.774902,932.440735 C730.552307,936.796265 714.932739,939.764526 699.110291,943.243958 C694.825195,943.523438 690.922058,943.917419 687.018860,944.311462 C684.288147,944.537476 681.557495,944.763489 677.979736,944.986145 C675.396606,945.135071 673.660583,945.287415 671.924500,945.439819 C669.222656,945.533875 666.520874,945.627930 663.089905,945.589417 C660.546875,945.566833 658.732910,945.676758 656.919006,945.786743 C653.249817,945.574219 649.580566,945.361694 645.064636,945.069214 C643.148560,944.992920 642.079285,944.996643 641.009949,945.000366 C639.257446,944.747314 637.504883,944.494324 635.052490,944.154297 C633.901184,944.098389 633.449829,944.129517 632.998474,944.160583 C632.252930,944.068420 631.507446,943.976318 630.096802,943.675110 C627.955688,943.353821 626.479736,943.241638 625.003723,943.129395 C624.562073,943.058655 624.120483,942.987915 623.040283,942.703857 C619.269287,942.025330 616.136902,941.560120 613.004517,941.094849 C612.380676,940.947815 611.756897,940.800720 610.550537,940.437622 C609.314636,940.163879 608.661194,940.106140 608.007812,940.048462 C591.326843,935.899292 575.236206,930.268433 560.725647,920.815918 C544.756042,910.412964 532.421021,897.230835 528.532898,877.779297 C528.013367,875.180359 527.744385,872.531433 527.393555,869.517700 z"
     id="path-artist-palette-shadow" />
  <path fill="#AE7B4C" opacity="1.000000" stroke="none" d="M722.485168,774.840088 C717.308289,764.233826 703.248047,761.279419 694.072510,762.336914 C687.697327,763.071655 681.368408,765.578918 675.417542,768.199585 C670.482300,770.373108 666.928772,774.488037 665.854065,780.568970 C664.527527,779.369324 662.428223,777.923645 662.187805,776.216309 C660.943176,767.375183 665.315979,761.092407 672.792908,757.252747 C686.680054,750.121338 701.112976,749.849426 715.414978,755.906921 C723.097961,759.161072 725.952026,767.285645 722.485168,774.840088 z" id="path-artist-palette-hole-shadow" />
  <path fill="#FEFDFB" opacity="1.000000" stroke="none" d="M722.103027,774.918579 C713.195496,790.414307 686.960510,795.575623 672.075012,787.090149 C669.749390,785.764526 667.970398,783.479980 665.938721,780.920532 C666.928772,774.488037 670.482300,770.373108 675.417542,768.199585 C681.368408,765.578918 687.697327,763.071655 694.072510,762.336914 C703.248047,761.279419 717.308289,764.233826 722.103027,774.918579 z" id="path-artist-palette-hole" />
  <path fill="#DB5347" opacity="1.000000" stroke="none" d="M814.457031,777.855896 C819.389099,788.567383 811.295898,797.964722 800.752686,800.771667 C789.736145,803.704529 779.152405,802.099487 769.371643,795.765076 C763.249268,791.799866 758.575317,786.495728 759.377686,779.236694 C760.300781,770.884949 766.015198,765.445984 774.168762,762.830078 C789.257996,757.989197 807.744202,764.726807 814.457031,777.855896 z" id="path-artist-paint-red" />
  <path fill="#F4C948" opacity="1.000000" stroke="none" d="M770.694763,857.110352 C765.895447,849.346802 767.876526,842.856262 772.761108,836.219788 C780.794922,825.304688 800.187622,820.039917 812.125916,826.041565 C822.307434,831.160034 825.390991,841.590332 818.513245,850.541077 C809.653687,862.071167 791.691467,867.804077 777.281250,862.037720 C774.923767,861.094360 773.034607,858.980835 770.694763,857.110352 z" id="path-artist-paint-yellow" />
  <path fill="#76A74E" opacity="1.000000" stroke="none" d="M723.813721,906.992676 C717.912476,905.849854 712.087341,905.569885 707.110229,903.370850 C697.757446,899.238708 695.391724,889.516174 700.784485,880.854919 C706.167236,872.209839 714.584839,868.214905 724.065063,866.061401 C732.284119,864.194458 740.122314,865.192444 747.472534,869.624084 C760.025879,877.192810 757.476746,890.324280 748.891113,897.423401 C741.748596,903.329346 733.399353,906.169373 723.813721,906.992676 z" id="path-artist-paint-green" />
  <path fill="#4F78AB" opacity="1.000000" stroke="none" d="M664.797974,904.787720 C654.776917,915.608643 630.488037,915.728271 618.907349,907.123779 C611.159851,901.367432 609.804749,891.827087 615.520996,884.234741 C625.715027,870.695312 651.543823,868.305054 664.167969,879.732910 C672.603516,887.369141 672.907471,895.886658 664.797974,904.787720 z" id="path-artist-paint-blue" />
    <path fill="#90629E" opacity="1.000000" stroke="none" d="M568.761841,836.664673 C580.217773,830.749695 591.631042,829.359131 602.886353,835.622803 C611.412109,840.367493 613.069824,850.600586 607.077698,858.294128 C600.826721,866.320068 592.346863,870.723755 582.418091,871.827332 C576.032410,872.537109 569.566162,872.572144 563.450195,869.318909 C553.737915,864.152588 551.372498,852.877075 558.908569,844.746155 C561.689270,841.745911 565.238098,839.457458 568.761841,836.664673 z" id="path-artist-paint-purple" />
  </g>
  <g id="artist-paw-brush" transform="translate(20,-30)">
    <path fill="#E59754" opacity="1.000000" stroke="none" d="M331.559998,651.200378 C334.484863,651.046082 336.988464,650.786377 339.463165,650.953735 C346.415375,651.423828 349.902466,656.646057 345.986694,662.310364 C340.711945,669.940491 340.043518,675.733887 345.847961,683.906921 C352.208618,692.863159 346.477966,701.518738 335.404877,700.781433 C323.501068,699.988892 312.528717,697.183350 307.128235,684.152954 C305.910492,681.214722 300.766113,679.597168 297.134247,678.076233 C294.790833,677.094788 291.895050,677.496521 289.272430,677.106323 C279.122498,675.595947 272.167572,665.489929 274.416138,655.607117 C276.704559,645.549072 285.963257,640.502563 296.427032,643.885803 C299.710388,644.947388 303.125763,646.293823 305.814240,648.372009 C313.783081,654.531860 322.152466,654.979675 331.559998,651.200378 z" id="path-artist-splat" />
    <path fill="#5E5245" opacity="1.000000" stroke="none" d="M427.863647,804.026123 C428.016876,805.002808 427.940369,806.092285 428.356689,806.939697 C440.707825,832.079590 434.255096,854.084167 416.694366,873.842407 C410.649811,880.643433 403.366302,886.334717 396.774292,892.663696 C395.048523,894.320618 393.792572,896.467102 391.738953,898.692383 C388.494995,900.114807 385.687378,900.977844 383.196533,902.396851 C372.993317,908.209473 362.886658,914.191589 352.744507,920.111328 C339.184265,926.306030 325.700775,932.681213 311.985809,938.511902 C309.783630,939.448120 306.059174,938.699524 303.955292,937.325623 C302.475494,936.359314 301.542603,932.651611 302.197601,930.824829 C302.936798,928.763245 305.465973,926.809631 307.668213,925.889160 C329.280579,916.855347 350.423248,906.917114 370.362213,894.546692 C385.736237,885.008362 399.792542,873.930725 410.878876,859.469727 C418.905792,848.999268 422.995941,837.368530 420.251923,824.034912 C416.798218,807.252869 404.450500,796.679382 387.377716,794.959045 C367.053894,792.911194 348.245117,798.657166 329.624298,805.473328 C315.003723,810.825195 300.511139,816.526855 285.962280,822.074768 C285.187653,822.370117 284.434631,822.732117 283.644379,822.974731 C279.301636,824.307922 275.504028,822.706177 274.356171,818.825562 C273.101349,814.583191 274.966644,811.612183 278.900665,810.112793 C292.365326,804.980896 305.736176,799.542786 319.414215,795.047119 C333.703613,790.350403 348.117615,785.620178 362.840302,782.801575 C372.401428,780.971069 382.612640,782.539490 392.532593,782.575867 C393.823456,782.580627 395.114532,782.530457 396.982910,782.439331 C399.167328,783.463684 400.634216,784.946106 402.404816,785.579041 C411.491974,788.827515 419.118683,793.921082 424.677887,801.960449 C425.343506,802.923035 426.782898,803.350586 427.863647,804.026123 z"/>
    <path fill="#8A6645" opacity="1.000000" stroke="none" d="M352.799744,920.500488 C362.886658,914.191589 372.993317,908.209473 383.196533,902.396851 C385.687378,900.977844 388.494995,900.114807 391.554932,898.984497 C384.332123,915.544312 376.880157,932.196960 368.968018,948.628052 C367.069305,952.571045 364.114258,956.318848 360.812653,959.203735 C354.988342,964.293213 347.721130,961.385498 347.895782,953.713745 C348.093994,945.007568 350.091675,936.337952 351.385773,927.664185 C351.725983,925.383728 352.357300,923.146667 352.799744,920.500488 z"/>
    <path fill="#896644" opacity="1.000000" stroke="none" d="M405.881714,760.280518 C413.076904,762.189819 420.119049,764.419189 427.154907,766.668091 C430.611084,767.772827 434.055695,768.913696 437.922302,770.060547 C434.953918,781.172119 431.568817,792.261414 428.023682,803.688354 C426.782898,803.350586 425.343506,802.923035 424.677887,801.960449 C419.118683,793.921082 411.491974,788.827515 402.404816,785.579041 C400.634216,784.946106 399.167328,783.463684 397.272369,782.187866 C399.898285,774.871399 402.812134,767.740051 405.881714,760.280518 z"/>
    <path fill="#9FA9AD" opacity="1.000000" stroke="none" d="M421.630646,728.132996 C430.062256,730.516235 438.228577,733.118103 446.762238,735.883606 C444.363464,747.218323 441.597321,758.389343 438.168365,769.799316 C434.055695,768.913696 430.611084,767.772827 427.154907,766.668091 C420.119049,764.419189 413.076904,762.189819 406.037415,759.952332 C411.146729,749.418762 416.256042,738.885193 421.630646,728.132996 z"/>
    <path fill="#DEBD89" opacity="1.000000" stroke="none" d="M477.060822,701.034546 C476.028595,717.648743 464.720276,731.152283 447.130920,735.807861 C438.228577,733.118103 430.062256,730.516235 421.895935,727.914368 C417.615509,721.267212 414.815918,714.195374 414.950348,706.093933 C415.094574,697.399780 417.268738,689.402039 422.635132,682.380371 C424.954590,684.683167 426.456665,687.699341 428.842377,688.799805 C439.484955,693.708679 449.359192,691.975403 458.385986,683.898743 C464.145599,682.612671 463.186615,686.962524 464.013763,689.870544 C465.027374,693.434021 463.543152,698.336243 468.742737,699.751343 C471.432587,700.483398 474.282990,700.625732 477.060822,701.034546 z"/>
    <path fill="#CD6E3B" opacity="1.000000" stroke="none" d="M430.668213,672.083496 C433.762665,671.098450 436.508362,669.908081 439.356537,669.562744 C440.701782,669.399719 443.307129,670.621521 443.526794,671.616516 C445.194214,679.169556 450.355103,682.474548 457.690125,683.985352 C449.359192,691.975403 439.484955,693.708679 428.842377,688.799805 C426.456665,687.699341 424.954590,684.683167 422.924622,682.194580 C425.322845,678.635071 427.842163,675.429810 430.668213,672.083496 z"/>
    <path fill="#BC5A5F" opacity="1.000000" stroke="none" d="M448.427856,658.009399 C452.577850,657.591797 454.888519,659.627014 456.454681,662.902039 C458.026550,666.188965 459.578339,669.494019 461.341583,672.678894 C464.171356,677.790527 467.317505,682.546387 473.443481,684.438599 C475.207855,684.983582 476.602112,686.726685 478.495697,687.994873 C478.362854,692.156921 477.900391,696.244568 477.249390,700.683411 C474.282990,700.625732 471.432587,700.483398 468.742737,699.751343 C463.543152,698.336243 465.027374,693.434021 464.013763,689.870544 C463.186615,686.962524 464.145599,682.612671 458.004974,683.839478 C450.355103,682.474548 445.194214,679.169556 443.526794,671.616516 C443.307129,670.621521 440.701782,669.399719 439.356537,669.562744 C436.508362,669.908081 433.762665,671.098450 430.974945,671.942322 C436.692871,667.342957 442.410767,662.743652 448.427856,658.009399 z"/>
    <path fill="#A1648B" opacity="1.000000" stroke="none" d="M448.727081,657.874573 C454.345612,652.027466 456.091797,644.792969 455.770477,636.949890 C466.499969,637.598938 479.775299,666.827148 478.577454,687.541504 C476.602112,686.726685 475.207855,684.983582 473.443481,684.438599 C467.317505,682.546387 464.171356,677.790527 461.341583,672.678894 C459.578339,669.494019 458.026550,666.188965 456.454681,662.902039 C454.888519,659.627014 452.577850,657.591797 448.727081,657.874573 z"/>
  </g>
</svg>
