<?xml version="1.0" encoding="UTF-8"?>
<svg xmlns="http://www.w3.org/2000/svg" viewBox="0 0 985 958">
  <g id="bow-tie-01">
    <path fill="#E75E5D" opacity="1.000000" stroke="none" d="M488.130829,788.525330 C467.067108,804.561890 443.723175,814.623413 416.898590,814.935486 C405.945557,815.062988 397.934082,809.676453 392.853668,799.912292 C387.735565,790.075623 386.139648,779.403809 385.507141,768.567017 C384.614441,753.273376 383.848419,737.967896 387.847321,722.890503 C391.863861,707.746521 400.680634,700.565796 416.230957,700.844849 C435.885132,701.197510 453.086273,709.061768 469.195587,719.514404 C475.034180,723.302795 480.239685,728.066772 485.602600,732.898743 C481.701416,741.710327 477.931671,750.008789 473.974365,758.720093 C471.653320,757.974304 468.569885,756.742371 465.371948,756.011047 C460.230896,754.835388 455.028809,753.409729 449.822662,753.279297 C447.606049,753.223633 444.157623,755.719299 443.326141,757.856079 C442.061768,761.105286 445.007843,763.160583 448.108612,764.182617 C449.051727,764.493530 450.003540,764.815552 450.976868,764.991272 C458.458466,766.341919 465.975769,767.519714 473.407166,769.102539 C474.868713,769.413879 476.593292,770.999939 477.191406,772.421143 C479.772827,778.555054 480.998047,785.505737 488.130829,788.525330 z"/>
    <path fill="#D13A47" opacity="1.000000" stroke="none" d="M488.926025,735.600830 C488.954834,736.697449 489.065338,737.623230 488.720428,738.325317 C480.756805,754.535339 482.764557,770.481384 489.938507,786.675232 C489.532990,787.431824 489.087677,787.822754 488.386597,788.369507 C480.998047,785.505737 479.772827,778.555054 477.191406,772.421143 C476.593292,770.999939 474.868713,769.413879 473.407166,769.102539 C465.975769,767.519714 458.458466,766.341919 450.976868,764.991272 C450.003540,764.815552 449.051727,764.493530 448.108612,764.182617 C445.007843,763.160583 442.061768,761.105286 443.326141,757.856079 C444.157623,755.719299 447.606049,753.223633 449.822662,753.279297 C455.028809,753.409729 460.230896,754.835388 465.371948,756.011047 C468.569885,756.742371 471.653320,757.974304 473.974365,758.720093 C477.931671,750.008789 481.701416,741.710327 485.737793,733.205322 C486.934784,733.774536 487.865173,734.550232 488.926025,735.600830 z"/>
    <path fill="#E75E5C" opacity="1.000000" stroke="none" d="M489.056488,735.875854 C498.302765,728.025269 509.250336,726.955566 520.716064,727.911011 C527.568237,728.481995 533.496948,731.083557 538.765137,736.397217 C539.406738,737.846436 539.628662,738.819153 540.102661,739.647644 C544.184570,746.782471 545.022461,754.710693 544.693542,762.575684 C544.336426,771.113708 542.582886,779.536682 538.001587,787.049072 C526.203430,798.488403 503.365021,798.670532 490.211578,786.868652 C482.764557,770.481384 480.756805,754.535339 488.720428,738.325317 C489.065338,737.623230 488.954834,736.697449 489.056488,735.875854 z"/>
    <path fill="#D03A47" opacity="1.000000" stroke="none" d="M538.230225,787.175659 C542.582886,779.536682 544.336426,771.113708 544.693542,762.575684 C545.022461,754.710693 544.184570,746.782471 540.102661,739.647644 C539.628662,738.819153 539.406738,737.846436 539.062805,736.578613 C539.810364,735.412048 540.563171,734.607422 541.593811,733.619019 C550.328186,739.680969 551.038513,749.281555 552.532593,758.800598 C559.463989,757.003113 566.136047,755.200378 572.851501,753.577515 C574.759277,753.116455 576.795471,753.015564 578.769409,753.038269 C582.143738,753.077026 585.343689,754.022583 585.861328,757.871399 C586.417419,762.006836 583.264526,764.034668 579.941528,764.717773 C571.681091,766.415894 563.285889,767.457947 555.023865,769.149353 C553.486572,769.464050 551.784912,771.339050 551.074707,772.908264 C548.483032,778.635071 548.107666,785.793762 540.165405,788.080933 C539.342712,787.842651 538.900757,787.572449 538.230225,787.175659 z"/>
    <path fill="#E75F5D" opacity="1.000000" stroke="none" d="M541.871704,733.435120 C562.617310,714.240723 586.073975,701.068848 615.214233,700.879761 C626.638977,700.805603 634.830078,706.427856 638.550659,717.063477 C641.046753,724.198730 642.570496,731.842651 643.335205,739.380127 C644.955505,755.351562 644.097961,771.344971 640.451233,787.005310 C634.961365,810.580872 623.613098,818.230469 599.467957,814.423767 C577.549438,810.968018 557.789673,802.142273 540.324585,788.384216 C548.107666,785.793762 548.483032,778.635071 551.074707,772.908264 C551.784912,771.339050 553.486572,769.464050 555.023865,769.149353 C563.285889,767.457947 571.681091,766.415894 579.941528,764.717773 C583.264526,764.034668 586.417419,762.006836 585.861328,757.871399 C585.343689,754.022583 582.143738,753.077026 578.769409,753.038269 C576.795471,753.015564 574.759277,753.116455 572.851501,753.577515 C566.136047,755.200378 559.463989,757.003113 552.532593,758.800598 C551.038513,749.281555 550.328186,739.680969 541.871704,733.435120 z"/>
  </g>
</svg>
