<?xml version="1.0" encoding="UTF-8"?>
<svg xmlns="http://www.w3.org/2000/svg" viewBox="0 0 985 958">
  <g id="headphones-01">
    <path fill="#433A36" opacity="1.000000" stroke="none" d="M191.024231,603.176758 C185.543030,601.366882 181.376343,598.378601 181.247864,591.263672 C181.371628,579.252869 181.374313,567.968689 181.095154,556.691467 C180.514999,533.253296 179.844757,509.816986 179.097885,486.383545 C178.531387,468.609009 177.646042,450.843964 177.162277,433.067627 C176.596558,412.280365 176.369858,391.484039 175.866928,370.694763 C175.739471,365.426422 177.906799,362.343231 182.946777,360.707062 C187.755905,359.145844 192.374374,356.997375 197.539246,355.111053 C201.320938,355.084442 204.650177,354.871155 207.957382,355.054932 C222.258301,355.849640 227.504105,359.480316 227.796616,374.456024 C228.117416,390.879761 228.710648,407.298370 229.229752,423.717804 C229.297028,425.846069 229.630325,427.965912 229.785797,430.549011 C229.936615,437.070312 230.142044,443.132263 230.347458,449.194244 C231.688736,487.288269 233.029999,525.382263 234.536041,564.320801 C234.755844,574.956238 234.810867,584.747314 234.865875,594.538330 C231.382401,596.788818 227.898911,599.039246 223.705139,601.524170 C212.337967,602.231323 201.681107,602.704041 191.024231,603.176758 z" id="headphones-01-left-cup"/>
    <path fill="#46A9A0" opacity="1.000000" stroke="none" d="M305.061279,162.927063 C298.042145,168.430954 290.644135,173.959686 283.148834,179.353210 C262.855988,193.955688 244.519867,210.631454 227.755188,229.233612 C213.451126,245.105469 201.456924,262.534546 189.922897,280.374847 C182.931076,291.189514 183.251328,292.344391 193.879395,299.700378 C200.373779,304.195312 206.682968,308.957855 213.240921,313.947449 C209.563919,323.287476 205.654266,332.252441 201.908020,341.285217 C200.131958,345.567596 198.668030,349.979431 197.069672,354.719849 C192.374374,356.997375 187.755905,359.145844 182.946777,360.707062 C177.906799,362.343231 175.739471,365.426422 175.866928,370.694763 C176.369858,391.484039 176.596558,412.280365 177.162277,433.067627 C177.646042,450.843964 178.531387,468.609009 179.097885,486.383545 C179.844757,509.816986 180.514999,533.253296 181.095154,556.691467 C181.374313,567.968689 181.371628,579.252869 181.242630,590.888184 C173.825241,590.465271 166.493546,590.867310 160.051666,586.415283 C154.120087,582.315857 149.366638,577.623962 147.899429,570.264771 C147.719147,569.360535 146.948486,568.574036 146.256699,567.006653 C145.379181,560.701599 144.342972,555.139709 144.074905,549.541138 C142.926422,525.555969 141.910202,501.563354 141.034760,477.566589 C140.509018,463.155396 140.053574,448.730988 140.081085,434.313477 C140.105423,421.557648 140.841721,408.803162 141.263687,396.048096 C142.098679,393.818420 143.239868,391.652954 143.722656,389.349457 C150.916214,355.027802 162.315445,322.185638 178.911911,291.284821 C186.734085,276.720795 195.499908,262.663910 203.816055,248.364395 C205.058701,246.227707 206.179916,244.020401 207.900925,241.568222 C225.993591,219.125473 246.275818,199.815750 269.135925,183.199310 C275.975769,178.920120 282.716339,174.469986 289.689636,170.420578 C294.505920,167.623734 299.643829,165.380722 305.061279,162.927063 z" id="headphones-01-band-left"/>
    <path fill="#443A37" opacity="1.000000" stroke="none" d="M140.863617,396.023651 C140.841721,408.803162 140.105423,421.557648 140.081085,434.313477 C140.053574,448.730988 140.509018,463.155396 141.034760,477.566589 C141.910202,501.563354 142.926422,525.555969 144.074905,549.541138 C144.342972,555.139709 145.379181,560.701599 146.060699,566.717834 C135.951263,565.434814 129.399429,558.803467 123.954124,550.845581 C115.972427,539.181030 112.238297,525.796692 110.217796,512.130371 C108.338631,499.420044 106.975090,486.458862 107.243210,473.647003 C107.634033,454.972290 109.869308,436.334290 118.098221,419.122131 C122.938393,408.998108 128.512711,399.352661 140.863617,396.023651 z" id="headphones-01-left-cushion"/>
    <path fill="#443A36" opacity="1.000000" stroke="none" d="M793.857910,301.238464 C787.623901,293.096985 781.389893,284.955505 774.891846,276.611084 C774.627747,276.408112 774.551270,276.406067 774.499512,276.285706 C774.447815,276.165344 774.252441,276.002258 774.252441,276.002258 C772.692383,273.455963 771.132263,270.909668 769.288452,268.183105 C769.004700,268.002869 769.000000,267.999207 768.940491,267.737732 C768.601196,267.272522 768.321472,267.068756 768.041687,266.864990 C754.293396,248.376328 738.142334,232.269547 719.386047,217.846573 C707.260193,209.360489 695.616150,201.295380 683.972168,193.230270 C657.182312,176.985062 628.130737,166.413910 597.820251,159.080994 C567.143677,151.659515 535.982605,148.321732 504.446503,149.123474 C464.848450,150.130157 426.186615,156.492172 388.666046,169.617935 C368.044708,176.831848 348.454834,186.084763 328.925934,197.169815 C327.045288,198.233994 325.716888,198.938110 324.510345,199.810745 C312.971954,208.155640 301.454193,216.529037 289.590698,224.949295 C268.529602,241.242508 250.838516,260.306488 236.038589,282.066589 C228.666656,292.668182 221.294739,303.269806 213.499054,313.735809 C206.682968,308.957855 200.373779,304.195312 193.879395,299.700378 C183.251328,292.344391 182.931076,291.189514 189.922897,280.374847 C201.456924,262.534546 213.451126,245.105469 227.755188,229.233612 C244.519867,210.631454 262.855988,193.955688 283.148834,179.353210 C290.644135,173.959686 298.042145,168.430954 305.484528,162.963898 C332.514374,146.444199 361.383606,134.124908 391.690857,125.034988 C415.011963,118.040390 438.720642,112.347076 462.922150,110.358047 C486.743317,108.400261 510.816437,107.357544 534.669678,108.404114 C579.227295,110.359093 622.455505,119.657486 663.809143,136.895889 C688.449219,147.167175 711.337952,160.496216 733.158691,175.766647 C734.784424,176.904419 736.506104,177.905075 738.672485,179.320480 C753.428955,192.613190 767.696228,205.554901 781.975342,218.889709 C782.678101,219.845718 783.368958,220.408615 784.028442,220.961136 C783.997009,220.950760 784.026001,220.891235 783.992554,221.263153 C784.532593,222.776169 784.961975,224.021667 785.701477,225.042618 C796.188721,239.522110 806.663940,254.011032 817.269409,268.403809 C820.550842,272.857147 819.918945,276.208496 815.871704,279.909668 C808.334900,286.801819 801.174805,294.105865 793.857910,301.238464 z" id="headphones-01-frame"/>
    <path fill="#46A9A0" opacity="1.000000" stroke="none" d="M793.911560,301.585388 C801.174805,294.105865 808.334900,286.801819 815.871704,279.909668 C819.918945,276.208496 820.550842,272.857147 817.269409,268.403809 C806.663940,254.011032 796.188721,239.522110 785.701477,225.042618 C784.961975,224.021667 784.532593,222.776169 784.333435,221.071228 C786.650330,222.004272 788.735962,223.350189 790.505859,225.029083 C794.348938,228.674591 798.030823,232.490158 801.778564,236.236206 C808.324707,245.589081 815.189270,254.737564 821.351807,264.336731 C834.805969,285.293671 844.693115,307.934814 852.028076,331.712189 C855.719360,343.677948 859.497559,355.616974 863.178284,367.585999 C863.850464,369.771515 864.241821,372.043396 864.730835,374.959534 C864.431458,378.079346 863.838989,380.529663 863.947632,382.948425 C864.861145,403.283356 865.937988,423.610840 866.895020,443.943939 C867.618896,459.321442 868.343506,474.700195 868.875427,490.085052 C869.380371,504.687897 869.493530,519.304871 870.066101,533.904419 C870.317078,540.305176 871.281555,546.677979 871.922058,553.063477 C867.682312,565.766968 857.759399,571.893311 845.762695,575.533997 C842.484863,576.528687 839.101135,577.174194 835.356689,577.957886 C833.885437,547.174866 832.767822,516.415649 831.779541,485.652374 C831.027344,462.237274 830.683655,438.806671 829.703979,415.401978 C828.856689,395.157013 827.322754,374.941437 826.191711,354.707306 C825.788086,347.487396 821.240662,343.977051 815.293457,341.232697 C813.122131,340.230743 811.433594,338.182678 809.291748,336.373444 C804.027527,324.734131 798.996399,313.333221 793.911560,301.585388 z" id="headphones-01-band-right"/>
    <path fill="#443A37" opacity="1.000000" stroke="none" d="M834.947449,577.935791 C833.989563,579.984009 833.031677,582.032227 831.685120,584.592773 C825.898071,586.107056 820.521301,587.790833 815.096680,587.962097 C805.285156,588.271729 795.247253,589.007507 786.033813,583.466187 C784.898376,580.049255 783.321411,577.028259 782.991089,573.876587 C782.021240,564.622742 781.546753,555.316956 780.878296,546.031555 C780.090759,521.398682 779.456665,496.759735 778.472595,472.134735 C777.481873,447.342743 776.148193,422.564423 774.955078,397.780579 C774.298706,384.145172 773.597656,370.511841 772.978943,356.874756 C772.873657,354.555237 773.082825,352.221466 773.585327,349.300903 C778.124451,346.291351 781.959717,342.915955 786.389587,341.691345 C792.524902,339.995270 799.094543,339.764954 805.505127,339.227234 C807.769348,339.037292 809.505798,339.070862 809.291748,336.373413 C811.433594,338.182678 813.122131,340.230743 815.293457,341.232697 C821.240662,343.977051 825.788086,347.487396 826.191711,354.707306 C827.322754,374.941437 828.856689,395.157013 829.703979,415.401978 C830.683655,438.806671 831.027344,462.237274 831.779541,485.652374 C832.767822,516.415649 833.885437,547.174866 834.947449,577.935791 z" id="headphones-01-right-cup"/>
    <path fill="#433A36" opacity="1.000000" stroke="none" d="M872.263306,552.964722 C871.281555,546.677979 870.317078,540.305176 870.066101,533.904419 C869.493530,519.304871 869.380371,504.687897 868.875427,490.085052 C868.343506,474.700195 867.618896,459.321442 866.895020,443.943939 C865.937988,423.610840 864.861145,403.283356 863.947632,382.948425 C863.838989,380.529663 864.431458,378.079346 864.883057,375.322479 C875.548157,379.382721 882.229675,387.785828 887.909302,397.060364 C897.063721,412.008820 900.690125,428.733521 902.950684,445.848755 C905.245422,463.223083 905.135437,480.595642 903.012268,497.974792 C901.396667,511.199738 897.651245,523.740295 891.282898,535.490356 C886.991943,543.407532 879.933594,548.261169 872.263306,552.964722 z" id="headphones-01-right-cushion"/>
  </g>
</svg>
