<?xml version="1.0" encoding="UTF-8"?>
<svg xmlns="http://www.w3.org/2000/svg" viewBox="0 0 985 958">
  <g id="paws-mug-01">
    <path fill="#4e4b48" opacity="1" stroke="none" d="m 348.10815,773.05566 c 7.95429,-0.007 15.90857,-0.0142 24.64725,0.23194 11.2526,2.04852 21.7208,3.84387 32.189,5.63916 15.38849,6.44641 25.2792,18.27508 30.55896,33.55707 9.05297,26.20349 7.3063,51.50994 -8.86286,74.90484 -0.5451,0.7887 -1.44974,1.3288 -2.38824,2.24304 -21.1388,20.01252 -47.02472,28.21814 -74.72409,32.19422 -23.11524,3.31805 -51.40317,8.47923 -75.00026,6.05493 -49.32483,-5.06749 -61.15299,-19.85819 -74.25117,-43.25089 -2.91147,-5.19974 -5.87486,-20.06164 -7.05711,-35.27072 2.12967,-11.42102 3.73946,-22.73877 6.88398,-33.61273 2.4562,-8.49377 6.81779,-16.43652 11.10052,-24.7384 20.3772,1.51617 39.89005,0.41967 59.18811,-3.12958 16.38669,-3.01379 32.59372,-6.99255 48.94571,-10.21185 9.52356,-1.87488 19.17584,-3.09583 28.7702,-4.61103 z" id="paws-mug-01-left-paw"/>
    <path xmlns="http://www.w3.org/2000/svg" fill="#63AC54" opacity="1.000000" stroke="none" d=" M665.212524,894.794678   C660.615173,898.264893 656.331055,902.286072 651.365601,905.108704   C631.317871,916.505005 609.337524,922.284912 586.780212,925.899231   C565.220459,929.353760 543.466919,930.519653 521.636597,929.704468   C499.639984,928.883118 477.884155,926.445862 456.996002,918.973328   C442.436249,913.764709 429.979156,906.039673 424.397675,889.955139   C425.190765,888.717468 426.095398,888.177368 426.640503,887.388672   C442.809662,863.993774 444.556335,838.687317 435.503357,812.483826   C430.223602,797.201843 420.332886,785.373169 404.973755,778.471619   C404.601562,771.547241 404.295990,765.069336 403.710327,758.616821   C403.604370,757.450012 402.559509,755.670532 401.591583,755.385742   C389.128967,751.719116 375.315674,760.301514 372.433075,773.033081   C364.016724,773.041504 356.062439,773.048584 348.082642,772.625244   C348.276855,757.921692 353.918182,746.671326 366.399719,739.207642   C367.370087,738.627441 368.212341,737.832947 369.456055,737.051880   C375.196075,734.530518 380.594208,732.095276 386.390411,729.675964   C392.137756,728.907410 397.487000,728.122925 403.046112,727.307678   C402.539795,719.093079 403.461884,711.466248 409.979126,706.145264   C407.853607,714.491272 408.928741,722.321472 415.735931,726.775635   C425.218140,732.980225 435.306732,738.962769 445.977966,742.498169   C467.967224,749.783203 491.158905,751.272583 514.141602,751.710632   C531.484070,752.041138 548.909424,750.428589 566.230103,748.908386   C589.748108,746.844238 612.581238,741.611023 634.704956,733.061707   C646.630310,728.453430 656.761780,721.761414 665.209656,712.303040   C668.882568,708.190674 669.291687,699.960388 665.881348,695.821655   C665.812866,695.677307 665.809570,695.357605 665.777100,695.057678   C665.433105,694.532471 665.121582,694.307190 664.545715,693.892944   C663.189148,691.757324 662.096985,689.810547 661.361206,687.923340   C670.321594,692.011047 675.045166,698.761230 675.991150,708.209656   C676.251953,710.814392 676.687256,713.401733 677.028198,716.438965   C677.385071,720.594421 677.756226,724.307922 678.069946,728.480835   C678.679626,746.424194 679.346863,763.908142 679.750244,781.600220   C664.179321,787.942200 652.437622,798.200134 645.995728,813.385559   C636.080505,836.758667 638.739929,867.979492 659.120667,887.748047   C661.340881,889.901428 663.190796,892.436584 665.212524,894.794678  z" id="paws-mug-01-mug-main"/>
    <path xmlns="http://www.w3.org/2000/svg" fill="#94BE61" opacity="1.000000" stroke="none" d=" M412.462067,705.499817   C411.174286,716.282349 416.661072,724.017761 427.470551,726.422607   C429.214844,727.686218 430.417480,728.844910 431.853790,729.425598   C454.504303,738.583923 478.413239,741.941162 502.503845,742.687073   C522.911072,743.318909 543.442139,742.405457 563.821350,740.879578   C590.938965,738.849182 617.365234,733.037415 642.387024,721.966736   C646.415283,720.184448 650.036621,717.482300 653.846069,715.205322   C660.812317,711.012695 666.665588,706.090576 665.921265,696.395752   C669.291687,699.960388 668.882568,708.190674 665.209656,712.303040   C656.761780,721.761414 646.630310,728.453430 634.704956,733.061707   C612.581238,741.611023 589.748108,746.844238 566.230103,748.908386   C548.909424,750.428589 531.484070,752.041138 514.141602,751.710632   C491.158905,751.272583 467.967224,749.783203 445.977966,742.498169   C435.306732,738.962769 425.218140,732.980225 415.735931,726.775635   C408.928741,722.321472 407.853607,714.491272 409.979126,706.145264   C409.953491,705.398499 410.084656,705.172180 410.865265,705.006226   C411.589783,704.995239 411.798523,705.001221 412.116638,705.134399   C412.226013,705.261536 412.462067,705.499817 412.462067,705.499817  z" id="paws-mug-01-mug-highlight"/>
    <path xmlns="http://www.w3.org/2000/svg" fill="#7C3D24" opacity="1.000000" stroke="none" d=" M653.553101,715.031799   C650.036621,717.482300 646.415283,720.184448 642.387024,721.966736   C617.365234,733.037415 590.938965,738.849182 563.821350,740.879578   C543.442139,742.405457 522.911072,743.318909 502.503845,742.687073   C478.413239,741.941162 454.504303,738.583923 431.853790,729.425598   C430.417480,728.844910 429.214844,727.686218 427.846252,726.438232   C445.258911,711.472534 466.187103,704.334351 487.820251,699.347656   C529.324036,689.780396 571.124390,688.651978 613.005310,697.125183   C627.688965,700.095886 641.308777,705.617920 653.553101,715.031799  z" id="paws-mug-01-coffee"/>
    <path xmlns="http://www.w3.org/2000/svg" fill="#E2D3CC" opacity="1.000000" stroke="none" d=" M415.009064,701.971863   C417.702240,699.626221 420.073975,696.685913 423.139435,695.029114   C447.679260,681.766174 474.054901,674.122620 501.538361,669.977478   C522.442749,666.824646 543.488098,665.165039 564.578552,666.170471   C590.279480,667.395569 615.879333,670.025330 640.369690,678.722900   C647.364807,681.207214 654.084290,684.467712 660.967529,687.618042   C662.096985,689.810547 663.189148,691.757324 664.656555,694.146484   C665.291016,694.845093 665.550293,695.101379 665.809570,695.357605   C665.809570,695.357605 665.812866,695.677307 665.852783,696.251404   C666.665588,706.090576 660.812317,711.012695 653.553101,715.031799   C641.308777,705.617920 627.688965,700.095886 613.005310,697.125183   C571.124390,688.651978 529.324036,689.780396 487.820251,699.347656   C466.187103,704.334351 445.258911,711.472534 427.413269,726.064331   C416.661072,724.017761 411.174286,716.282349 412.732849,705.344360   C413.672119,704.116577 414.340607,703.044250 415.009064,701.971863  z" id="paws-mug-01-milk-foam"/>
    <path xmlns="http://www.w3.org/2000/svg" fill="#4e4b48" opacity="1" stroke="none" d="m 665.56995,894.68799 c -2.37915,-2.25141 -4.22907,-4.78656 -6.44928,-6.93994 -20.38074,-19.76856 -23.04016,-50.98938 -13.12494,-74.36249 6.44189,-15.18543 18.18359,-25.44336 34.15271,-31.86615 12.67706,-3.86194 24.99884,-6.02912 37.46466,-4.90558 15.67126,1.41248 31.24213,3.92084 46.86688,5.8714 18.79895,2.3468 37.61603,4.21545 56.52069,1.03918 0.70435,0.64161 1.62744,1.15711 2.08075,1.94342 8.83844,15.33368 15.59619,31.4491 18.46924,49.39936 -0.67798,1.7984 -1.33893,3.57751 -2.57764,4.74243 -18.80302,34.26599 -45.7252,56.67844 -101.6076,71.08325 -5.36819,1.38376 -11.71625,1.97736 -17.58197,1.69495 -19.24836,-0.92682 -37.22882,-6.05878 -52.93207,-17.76703 -0.20428,-0.15235 -0.61145,-0.0324 -1.28143,0.0672 z" id="paws-mug-01-right-paw" transform="translate(-42,0)"/>
  </g>
</svg>
