<?xml version="1.0" encoding="UTF-8" standalone="no"?>
<svg
   version="1.1"
   id="Layer_1"
   x="0px"
   y="0px"
   width="100%"
   viewBox="0 0 1024 1024"
   enable-background="new 0 0 1024 1024"
   xml:space="preserve"
   xmlns="http://www.w3.org/2000/svg"
   xmlns:svg="http://www.w3.org/2000/svg"><defs
   id="defs484" />

<path
   fill="#2E3337"
   opacity="1.000000"
   stroke="none"
   d=" M813.289795,491.205719   C818.649536,496.117615 820.639893,505.193634 817.205811,510.302246   C783.663391,516.687866 750.093872,515.841370 715.802979,513.781250   C712.782043,531.050964 706.070496,546.690125 694.886230,560.598938   C694.924500,560.981323 694.995972,560.903137 694.647156,560.895142   C694.011414,561.249512 693.724548,561.611816 693.165771,562.124023   C685.620361,570.156067 676.683350,575.579834 666.950562,579.827515   C641.734314,588.023804 618.104492,584.892029 596.517212,569.352966   C577.609314,555.742676 567.716614,536.513794 565.199890,513.836975   C563.874084,501.890228 564.965576,489.675232 564.965576,477.366333   C515.342529,458.959930 467.287872,437.168304 419.834839,412.456390   C404.483154,403.962769 389.559570,396.046936 374.857605,387.739075   C364.361176,381.807709 354.162262,375.349854 343.876678,368.731873   C344.828247,366.972382 345.495483,364.705566 346.678680,364.393158   C353.252991,362.657410 359.952606,361.396210 366.891663,360.202209   C379.711243,367.638794 392.165802,374.995056 404.816071,381.997772   C412.641998,386.329865 420.765564,390.124359 428.957428,394.452759   C474.220673,417.997314 520.201843,439.193085 567.716553,456.994385   C572.099121,458.636322 575.917114,459.756592 580.177429,456.571350   C581.868408,455.307159 584.595886,454.950653 586.839417,454.984100   C598.951843,455.164612 611.146240,454.804810 623.153015,456.104248   C649.973267,459.006866 675.831299,465.968231 700.511841,477.026794   C707.101074,479.979187 712.242065,484.361084 715.199646,491.193726   C715.742004,492.446625 717.796448,493.741974 719.211975,493.811218   C732.174500,494.445465 745.176392,495.546478 758.115540,495.082764   C776.529663,494.422852 794.900452,492.556610 813.289795,491.205719  z"
   id="path345" />

<path
   fill="#413C36"
   opacity="1.000000"
   stroke="none"
   d=" M222.074280,394.030762   C209.461639,383.056976 196.765823,372.176544 184.281845,361.058258   C179.962448,357.211426 176.169220,352.773773 172.052612,347.838196   C171.987106,345.571014 172.013031,344.071655 172.020859,342.572205   C172.117249,324.100464 179.613129,314.559875 197.812897,310.931793   C207.053665,309.089600 216.473358,307.819458 225.873016,307.165100   C247.823517,305.637115 267.467194,297.579803 285.998657,286.497284   C308.267303,273.179779 324.405945,253.975815 337.150299,231.653137   C341.644592,223.781097 346.480560,216.104141 350.865662,208.827438   C360.794556,213.868591 370.004852,218.544861 379.215149,223.221146   C379.659363,222.780151 380.103546,222.339157 380.547760,221.898148   C377.071350,215.828018 373.594910,209.757874 369.987549,203.459045   C372.025238,202.602768 373.799866,201.857040 376.017365,200.925201   C373.726715,196.965393 371.630829,193.244781 369.438629,189.581802   C367.506500,186.353333 367.559967,183.494263 370.079559,180.452347   C374.105194,175.592270 377.714111,170.388153 381.713226,165.504761   C402.469574,140.158844 427.810364,121.629669 459.786316,112.819122   C463.901184,111.685326 465.303894,112.418755 466.164062,116.578285   C468.167755,126.266869 472.883667,134.617264 480.330841,141.216736   C492.936829,152.387787 507.828857,156.357498 524.263428,153.868195   C536.426392,152.025879 546.855774,146.654129 554.946472,136.905090   C560.982910,129.631378 563.763367,121.141945 565.538269,112.274940   C566.406128,112.161118 566.899658,112.036713 567.390442,112.046654   C568.051392,112.060020 568.731812,112.094749 569.366882,112.261200   C598.487305,119.893112 622.714111,135.520813 643.476562,157.075302   C649.818604,163.659225 651.860901,170.667511 648.924683,179.265778   C648.610291,180.186386 648.653381,181.950974 649.206299,182.324768   C652.075562,184.264786 651.003845,186.509232 650.253235,188.942825   C648.739868,193.849472 647.208252,198.766434 646.104370,203.771790   C645.841492,204.963791 647.232727,206.520584 647.863098,207.909576   C649.184631,207.220963 650.718262,206.768494 651.792236,205.804169   C657.390320,200.777588 662.871460,195.620773 668.785706,190.146072   C670.544250,192.579620 672.000305,194.356033 673.199158,196.291763   C682.126709,210.705963 691.038086,225.130447 699.887878,239.592499   C713.925842,262.532776 732.184814,280.975739 756.823669,292.389160   C763.523987,295.492920 770.718506,297.529785 777.769287,300.086426   C777.906677,301.785309 777.389038,304.107635 778.318970,305.316071   C781.670410,309.671326 779.859009,313.802277 778.522217,318.047424   C777.924438,319.945740 777.089539,321.788727 776.693604,323.724579   C776.419922,325.062469 776.713745,326.516418 776.754028,327.918518   C778.274902,327.707031 780.099243,327.956085 781.256897,327.193359   C784.132751,325.298615 786.704407,322.942230 789.398254,320.771301   C789.540100,321.150085 789.682007,321.528839 789.823853,321.907623   C791.071228,321.606445 792.831299,321.723663 793.477417,320.931824   C796.306458,317.465332 799.329163,313.990631 801.287598,310.027679   C803.163452,306.231812 805.687805,305.588715 809.267822,306.144165   C817.771057,307.463379 826.294067,308.661407 834.782349,310.069550   C847.280823,312.142975 856.548950,320.884735 858.638672,333.036682   C859.420959,337.585480 859.083374,342.326874 859.256348,346.980408   C857.637146,349.250732 856.375427,351.924072 854.341919,353.726959   C839.414490,366.962036 824.332520,380.022888 808.828857,393.505676   C807.909668,394.244720 807.460938,394.616699 807.012207,394.988708   C807.012207,394.988678 806.994751,394.992249 806.739624,395.069122   C806.289307,395.419281 806.094055,395.692596 805.898804,395.965881   C805.898804,395.965881 805.967407,395.932159 805.603821,395.979156   C798.906677,400.060852 792.573059,404.095551 785.808594,408.088379   C782.477539,407.078766 779.253845,406.629852 776.730957,405.056976   C762.946167,396.463135 749.646240,387.047729 735.570435,378.977264   C722.530762,371.500824 709.017639,364.669342 695.180603,358.811340   C678.700562,351.834381 661.890869,345.422760 644.791443,340.175842   C623.268982,333.571716 601.426086,327.870544 578.853699,325.773590   C562.384827,324.243683 545.953552,322.145447 529.454163,321.168732   C519.551331,320.582520 509.531982,321.397522 499.596344,322.056183   C482.252350,323.205902 464.669617,323.292664 447.665131,326.422729   C423.112488,330.942230 398.696228,336.806763 374.773010,343.944855   C356.545990,349.383392 339.107880,357.527679 321.441315,364.767181   C299.650940,373.696564 280.149628,386.768433 260.240540,399.100464   C254.892899,402.412872 250.798599,408.115051 243.332352,408.112976   C236.024826,403.365417 229.049561,398.698090 222.074280,394.030762  M492.050598,235.712509   C493.041992,237.168198 494.811951,238.590714 494.875610,240.085892   C495.051331,244.211777 495.749237,248.335754 499.977661,249.352402   C502.557800,249.972733 505.740479,248.086990 508.822296,247.282532   C510.466675,248.426880 512.909912,251.419952 515.486328,251.539398   C517.841064,251.648590 520.340027,248.648300 523.053467,246.832245   C524.048767,247.502167 525.752258,249.357788 527.796082,249.879242   C532.274536,251.021851 535.688354,247.259583 535.844604,240.963165   C535.915894,238.091782 536.801514,236.584610 539.438232,235.307373   C550.202759,230.092987 555.755615,218.546875 553.507935,206.756470   C550.416809,190.542114 540.751404,180.134140 524.807495,176.664780   C509.186005,173.265549 495.058258,176.830673 484.201233,189.455383   C471.981750,203.664337 475.473236,229.603394 492.050598,235.712509  M509.179749,265.348053   C503.068207,262.788239 496.898651,260.356750 490.862457,257.630157   C485.528625,255.220856 479.751526,253.525421 478.290314,246.262177   C477.594604,242.803802 473.864349,241.326096 470.169128,242.148514   C466.323029,243.004517 465.674011,245.933548 465.824921,249.467468   C465.878723,250.727386 465.076691,252.427017 464.097351,253.250717   C461.380280,255.536011 458.935028,257.902954 460.829987,261.655457   C462.722321,265.402771 465.950928,266.511200 470.071106,265.219849   C472.241577,264.539581 474.835876,263.401917 476.745514,264.012817   C484.957367,266.639771 492.986328,269.838470 501.081909,272.828918   C495.066162,276.037720 489.217041,277.879059 483.592865,280.253357   C479.210114,282.103577 475.379822,283.586761 470.638763,280.626160   C467.215332,278.488342 462.700531,280.626343 460.922852,284.130493   C458.850433,288.215607 461.079163,290.522705 464.208618,292.814972   C465.291077,293.607880 465.928436,295.673492 465.923767,297.155090   C465.911896,300.907623 466.891815,303.738586 470.888672,304.672821   C474.746002,305.574493 478.821808,302.834839 479.753387,297.846802   C480.415161,294.303589 482.373779,292.764038 485.283142,291.545959   C494.454590,287.705933 503.557831,283.698486 512.788818,280.009399   C514.385376,279.371399 516.687134,279.441711 518.303589,280.086304   C526.772034,283.463501 535.079407,287.243652 543.537842,290.647491   C547.447693,292.220917 550.290710,294.107605 551.192078,298.751495   C551.997070,302.898804 555.146240,305.387115 559.663269,304.630646   C564.375366,303.841522 564.748962,300.026489 564.755127,296.201508   C564.756409,295.410309 564.556213,294.618744 564.638367,295.224579   C567.046509,292.021271 569.680542,289.967285 570.258667,287.442535   C571.413391,282.399323 565.629028,278.780731 560.032166,280.600952   C557.882568,281.300049 555.388916,283.052734 553.635071,282.494324   C545.680542,279.961578 537.934143,276.775146 529.122314,273.450195   C533.339111,271.729828 536.454590,270.173279 539.739746,269.176178   C547.239868,266.899841 554.142700,261.470215 562.942383,265.444946   C564.367981,266.088867 568.299988,263.207397 569.721802,261.060394   C570.545898,259.816010 569.352478,255.775040 567.867004,254.774811   C565.033142,252.866714 564.903748,250.916168 564.722595,247.916092   C564.600342,245.892380 562.334412,243.124817 560.348877,242.274490   C556.583191,240.661789 552.249939,243.563080 551.246277,248.431824   C550.418945,252.444992 548.076843,254.283890 544.715210,255.701859   C536.931335,258.985138 529.068604,262.119476 521.479492,265.811005   C517.351257,267.819061 513.713318,267.928070 509.179749,265.348053  z"
   id="path461" />

<path
   fill="#cc9f42"
   opacity="1"
   stroke="none"
   d="m 859.604,346.98737 c -0.52063,-4.6605 -0.18304,-9.40189 -0.96533,-13.95069 -2.08972,-12.15195 -11.35785,-20.89371 -23.85632,-22.96713 -8.48828,-1.40814 -17.01129,-2.60617 -25.51453,-3.92539 -3.58001,-0.55545 -6.10437,0.0876 -7.98022,3.88352 -1.95844,3.96295 -4.98114,7.43765 -7.81018,10.90414 -0.64612,0.79184 -2.40619,0.67462 -3.65357,0.9758 -0.14184,-0.37878 -0.28375,-0.75754 -0.4256,-1.13632 -2.69384,2.17093 -5.2655,4.52731 -8.14135,6.42206 -1.15766,0.76272 -2.982,0.51367 -4.50287,0.72516 -0.0403,-1.4021 -0.33411,-2.85605 -0.0604,-4.19394 0.39594,-1.93585 1.23084,-3.77884 1.82862,-5.67716 1.33679,-4.24514 3.14819,-8.37609 -0.20325,-12.73135 -0.92993,-1.20843 -0.41229,-3.53076 -0.54968,-5.22964 -7.05078,-2.55665 -14.2453,-4.59351 -20.94562,-7.69727 -24.63886,-11.41342 -42.89783,-29.85638 -56.93579,-52.79666 -8.84979,-14.46205 -17.76117,-28.88654 -26.68872,-43.30074 -1.19885,-1.93573 -2.65491,-3.71214 -4.41345,-6.14569 -5.91425,5.4747 -11.39539,10.63152 -16.99347,15.6581 -1.07398,0.96432 -2.60761,1.41679 -3.92914,2.10541 -0.63037,-1.389 -2.02161,-2.94579 -1.75873,-4.13779 1.10388,-5.00536 2.6355,-9.92232 4.14887,-14.82897 0.7506,-2.43359 1.82232,-4.67803 -1.04694,-6.61805 -0.55292,-0.3738 -0.59601,-2.13838 -0.28162,-3.05899 2.93622,-8.59827 0.89392,-15.60656 -5.44812,-22.19048 -20.76245,-21.55449 -44.98926,-37.18219 -74.10968,-44.8141 -0.63507,-0.16645 -1.31549,-0.20118 -1.97644,-0.21455 -0.49078,-0.01 -0.98431,0.11447 -1.85217,0.22829 -1.7749,8.86701 -4.55536,17.35644 -10.5918,24.63015 -8.0907,9.74904 -18.52008,15.12079 -30.68304,16.9631 -16.43457,2.48931 -31.3266,-1.4804 -43.93259,-12.65145 -7.44717,-6.59948 -12.16309,-14.94987 -14.16678,-24.63846 -0.86017,-4.15952 -2.26288,-4.89295 -6.37774,-3.75916 -31.97596,8.81055 -57.31675,27.33972 -78.07309,52.68564 -3.99912,4.88339 -7.60804,10.08751 -11.63367,14.94759 -2.51959,3.04191 -2.57306,5.90098 -0.64093,9.12945 2.1922,3.66298 4.28809,7.38359 6.57873,11.3434 -2.21749,0.93184 -3.99212,1.67757 -6.02981,2.53384 3.60736,6.29883 7.0838,12.36898 10.56021,18.43911 -0.44421,0.44101 -0.8884,0.882 -1.33261,1.323 -9.2103,-4.67629 -18.42059,-9.35256 -28.34949,-14.39371 -4.3851,7.2767 -9.22107,14.95366 -13.71536,22.8257 -12.74436,22.32267 -28.883,41.52664 -51.15164,54.84414 -18.53147,11.08252 -38.17514,19.13983 -60.12564,20.66782 -9.39966,0.65436 -18.81936,1.9245 -28.06012,3.76669 -18.19977,3.62808 -25.69565,13.16867 -25.79204,31.64041 -0.008,1.49946 -0.0337,2.99881 -0.11313,4.95594 -6.47775,1.28177 -8.66061,-3.73127 -11.00354,-7.94587 -8.22028,-14.7872 -0.79311,-32.34152 11.98852,-40.29891 11.54168,-7.18543 24.06009,-8.80982 36.91471,-10.35291 10.87173,-3.31877 21.61582,-4.12945 32.05028,-6.2854 7.29362,-3.07724 14.98538,-5.26016 22.13818,-8.61203 37.57359,-17.60706 39.3057,-32.55835 50.39298,-47.06949 5.77073,-7.5528 10.19191,-14.85134 14.95878,-23.50805 4.67697,-8.49345 9.2104,-13.93731 14.01082,-21.19471 4.18533,-6.32747 9.11642,-12.59465 13.54791,-18.72868 2.7377,-3.78948 5.46903,-7.03479 8.63822,-10.56467 5.01535,-5.5861 9.15136,-12.05339 14.60684,-17.12964 6.95968,-6.47589 14.61331,-12.29591 22.42865,-17.73674 7.6691,-5.33899 15.56097,-10.61999 24.00906,-14.50393 8.36179,-3.844257 17.58881,-5.772075 26.34589,-8.801769 7.16769,-2.479789 14.49017,-3.853683 22.01193,-4.687492 5.93225,-0.657623 7.22849,-0.185936 8.42419,5.623222 0.96549,4.690689 1.77848,9.414839 2.56607,14.139659 1.73783,10.4251 7.81116,17.32524 17.50092,20.96455 3.95264,1.48454 8.18735,2.41513 12.37717,3.00615 3.14325,0.44339 6.70996,1.13046 8.99127,-2.50348 0.43652,-0.6954 1.71948,-1.13478 2.64807,-1.20335 9.43915,-0.69695 12.99811,-7.92119 15.49378,-15.16574 2.25897,-6.55728 2.92193,-13.69193 3.9981,-20.617137 0.51483,-3.312844 2.03022,-4.829758 5.29322,-4.334816 10.12127,1.535202 20.3424,2.640861 30.32049,4.839912 16.67255,3.674393 31.4588,12.109501 45.33423,21.491801 9.38251,6.34424 16.96314,15.3517 25.35785,23.15918 2.5437,2.3657 5.38947,4.47039 7.61084,7.1045 3.651,4.32932 6.90668,8.99207 10.32629,13.51632 1.69782,2.24632 3.43567,4.46418 5.07611,6.75181 7.97876,11.12634 16.19404,22.0958 23.80024,33.472 5.1582,7.7148 9.3988,16.03952 14.14727,24.03354 2.2771,3.83357 4.78028,7.53288 7.62787,11.7554 8.95532,10.63436 17.62232,20.63649 29.33582,27.36656 3.85089,2.21259 8.01501,4.01706 11.49981,6.70356 9.88483,7.62033 21.34681,9.91797 33.33893,10.78387 7.9737,1.99735 15.91626,4.13077 23.92859,5.95886 10.91309,2.49002 22.12793,3.96753 32.74298,7.35385 8.29859,2.64737 16.03528,7.42817 19.59027,16.35111 5.67792,14.25165 -0.30456,29.81732 -12.67334,36.32819 z"
   id="path463" />

<path
   fill="#E6AC76"
   opacity="1.000000"
   stroke="none"
   d=" M807.325684,394.946136   C807.460938,394.616699 807.909668,394.244720 808.643433,393.772156   C808.498718,394.082245 808.068970,394.492920 807.325684,394.946136  z"
   id="path468" />
<path
   fill="#E6AC76"
   opacity="1.000000"
   stroke="none"
   d=" M806.126953,395.864471   C806.094055,395.692596 806.289307,395.419281 806.734863,395.076874   C806.857300,395.328003 806.647278,395.579773 806.126953,395.864471  z"
   id="path469" />

<path
   fill="#5E3C1D"
   opacity="1.000000"
   stroke="none"
   d=" M249.408325,411.362610   C247.395432,410.537476 245.753006,409.635498 243.887604,408.463379   C250.798599,408.115051 254.892899,402.412872 260.240540,399.100464   C280.149628,386.768433 299.650940,373.696564 321.441315,364.767181   C339.107880,357.527679 356.545990,349.383392 374.773010,343.944855   C398.696228,336.806763 423.112488,330.942230 447.665131,326.422729   C464.669617,323.292664 482.252350,323.205902 499.596344,322.056183   C509.531982,321.397522 519.551331,320.582520 529.454163,321.168732   C545.953552,322.145447 562.384827,324.243683 578.853699,325.773590   C601.426086,327.870544 623.268982,333.571716 644.791443,340.175842   C661.890869,345.422760 678.700562,351.834381 695.180603,358.811340   C709.017639,364.669342 722.530762,371.500824 735.570435,378.977264   C749.646240,387.047729 762.946167,396.463135 776.730957,405.056976   C779.253845,406.629852 782.477539,407.078766 785.808594,408.088379   C783.687805,409.203369 781.136108,410.276489 778.252563,411.406982   C739.012390,384.845795 695.871765,368.002594 650.552612,356.091766   C589.386597,340.016022 527.335083,335.331085 464.431793,341.234955   C457.476288,341.887787 450.545898,342.808563 442.805542,343.706726   C439.690735,344.219360 437.374237,344.630341 434.663513,345.024841   C433.499054,345.152527 432.728821,345.296692 431.569824,345.412476   C427.754028,345.947632 424.297180,346.372650 420.905457,347.100800   C410.755920,349.279724 400.631836,351.577179 390.385681,353.750854   C390.273560,353.673370 390.034668,353.804657 389.663391,353.810547   C388.159729,354.171417 387.027313,354.526367 385.940247,354.900238   C385.985565,354.919189 385.943787,354.830292 385.531433,354.823181   C382.103729,355.554840 379.088348,356.293579 375.696991,357.019653   C374.854675,357.171265 374.388336,357.335571 373.572815,357.521301   C371.018860,358.352692 368.814087,359.162659 366.609314,359.972595   C359.952606,361.396210 353.252991,362.657410 346.678680,364.393158   C345.495483,364.705566 344.828247,366.972382 343.876678,368.731873   C341.468231,369.006683 338.867737,368.175171 336.779541,368.874084   C309.907379,377.868530 284.448273,389.892395 260.472473,405.033325   C256.983246,407.236786 253.347000,409.207367 249.408325,411.362610  z"
   id="path472" />

<path
   fill="#EBD7B5"
   opacity="1.000000"
   stroke="none"
   d=" M491.717621,235.512573   C475.473236,229.603394 471.981750,203.664337 484.201233,189.455383   C495.058258,176.830673 509.186005,173.265549 524.807495,176.664780   C540.751404,180.134140 550.416809,190.542114 553.507935,206.756470   C555.755615,218.546875 550.202759,230.092987 539.438232,235.307373   C536.801514,236.584610 535.915894,238.091782 535.844604,240.963165   C535.688354,247.259583 532.274536,251.021851 527.796082,249.879242   C525.752258,249.357788 524.048767,247.502167 523.053467,246.832245   C520.340027,248.648300 517.841064,251.648590 515.486328,251.539398   C512.909912,251.419952 510.466675,248.426880 508.822296,247.282532   C505.740479,248.086990 502.557800,249.972733 499.977661,249.352402   C495.749237,248.335754 495.051331,244.211777 494.875610,240.085892   C494.811951,238.590714 493.041992,237.168198 491.717621,235.512573  M542.260925,216.339203   C541.772766,209.680710 538.558044,205.550461 533.324585,204.857986   C527.866211,204.135727 522.786194,207.751907 521.930603,212.968735   C520.983459,218.743591 524.427551,223.984253 530.146729,225.470871   C535.590820,226.885971 540.170898,223.720459 542.260925,216.339203  M490.854706,208.401749   C487.186401,214.282822 487.127014,218.694290 490.666138,222.406265   C494.613647,226.546616 500.749573,226.910416 504.965393,223.254044   C509.244049,219.543167 509.764862,213.068970 506.151489,208.510880   C502.399200,203.777588 496.998810,203.527054 490.854706,208.401749  M515.472961,232.741364   C516.636597,232.251724 518.842773,231.415298 518.812073,231.322952   C517.944458,228.714920 516.851379,226.181931 515.240173,222.299408   C513.166138,225.607651 511.712402,227.250687 511.028503,229.168289   C509.870026,232.416412 510.920593,234.079605 515.472961,232.741364  z"
   id="path476" />
<path
   fill="#E9D5B3"
   opacity="1.000000"
   stroke="none"
   d=" M509.514954,265.537231   C513.713318,267.928070 517.351257,267.819061 521.479492,265.811005   C529.068604,262.119476 536.931335,258.985138 544.715210,255.701859   C548.076843,254.283890 550.418945,252.444992 551.246277,248.431824   C552.249939,243.563080 556.583191,240.661789 560.348877,242.274490   C562.334412,243.124817 564.600342,245.892380 564.722595,247.916092   C564.903748,250.916168 565.033142,252.866714 567.867004,254.774811   C569.352478,255.775040 570.545898,259.816010 569.721802,261.060394   C568.299988,263.207397 564.367981,266.088867 562.942383,265.444946   C554.142700,261.470215 547.239868,266.899841 539.739746,269.176178   C536.454590,270.173279 533.339111,271.729828 529.122314,273.450195   C537.934143,276.775146 545.680542,279.961578 553.635071,282.494324   C555.388916,283.052734 557.882568,281.300049 560.032166,280.600952   C565.629028,278.780731 571.413391,282.399323 570.258667,287.442535   C569.680542,289.967285 567.046509,292.021271 564.638367,295.224579   C564.556213,294.618744 564.756409,295.410309 564.755127,296.201508   C564.748962,300.026489 564.375366,303.841522 559.663269,304.630646   C555.146240,305.387115 551.997070,302.898804 551.192078,298.751495   C550.290710,294.107605 547.447693,292.220917 543.537842,290.647491   C535.079407,287.243652 526.772034,283.463501 518.303589,280.086304   C516.687134,279.441711 514.385376,279.371399 512.788818,280.009399   C503.557831,283.698486 494.454590,287.705933 485.283142,291.545959   C482.373779,292.764038 480.415161,294.303589 479.753387,297.846802   C478.821808,302.834839 474.746002,305.574493 470.888672,304.672821   C466.891815,303.738586 465.911896,300.907623 465.923767,297.155090   C465.928436,295.673492 465.291077,293.607880 464.208618,292.814972   C461.079163,290.522705 458.850433,288.215607 460.922852,284.130493   C462.700531,280.626343 467.215332,278.488342 470.638763,280.626160   C475.379822,283.586761 479.210114,282.103577 483.592865,280.253357   C489.217041,277.879059 495.066162,276.037720 501.081909,272.828918   C492.986328,269.838470 484.957367,266.639771 476.745514,264.012817   C474.835876,263.401917 472.241577,264.539581 470.071106,265.219849   C465.950928,266.511200 462.722321,265.402771 460.829987,261.655457   C458.935028,257.902954 461.380280,255.536011 464.097351,253.250717   C465.076691,252.427017 465.878723,250.727386 465.824921,249.467468   C465.674011,245.933548 466.323029,243.004517 470.169128,242.148514   C473.864349,241.326096 477.594604,242.803802 478.290314,246.262177   C479.751526,253.525421 485.528625,255.220856 490.862457,257.630157   C496.898651,260.356750 503.068207,262.788239 509.514954,265.537231  z"
   id="path477" />

<path
   fill="#CF9C6B"
   opacity="1.000000"
   stroke="none"
   d=" M431.569824,345.412445   C428.125244,346.404755 424.322662,347.521118 420.452484,348.302490   C410.789764,350.253235 401.096375,352.051666 390.956543,353.869812   C400.631836,351.577179 410.755920,349.279724 420.905457,347.100800   C424.297180,346.372650 427.754028,345.947632 431.569824,345.412445  z"
   id="path479" />
<path
   fill="#CF9C6B"
   opacity="1.000000"
   stroke="none"
   d=" M385.531433,354.823181   C382.804047,355.722870 379.664337,356.615448 376.298798,357.270142   C379.088348,356.293579 382.103729,355.554840 385.531433,354.823181  z"
   id="path480" />
<path
   fill="#CF9C6B"
   opacity="1.000000"
   stroke="none"
   d=" M389.663391,353.810547   C388.910370,354.188110 387.786102,354.571533 386.278381,354.918152   C387.027313,354.526367 388.159729,354.171417 389.663391,353.810547  z"
   id="path481" />
<path
   fill="#453E34"
   opacity="1.000000"
   stroke="none"
   d=" M542.213013,216.751816   C540.170898,223.720459 535.590820,226.885971 530.146729,225.470871   C524.427551,223.984253 520.983459,218.743591 521.930603,212.968735   C522.786194,207.751907 527.866211,204.135727 533.324585,204.857986   C538.558044,205.550461 541.772766,209.680710 542.213013,216.751816  z"
   id="path482" />
<path
   fill="#453E34"
   opacity="1.000000"
   stroke="none"
   d=" M491.109589,208.113342   C496.998810,203.527054 502.399200,203.777588 506.151489,208.510880   C509.764862,213.068970 509.244049,219.543167 504.965393,223.254044   C500.749573,226.910416 494.613647,226.546616 490.666138,222.406265   C487.127014,218.694290 487.186401,214.282822 491.109589,208.113342  z"
   id="path483" />
<path
   fill="#504837"
   opacity="1.000000"
   stroke="none"
   d=" M515.052063,232.743774   C510.920593,234.079605 509.870026,232.416412 511.028503,229.168289   C511.712402,227.250687 513.166138,225.607651 515.240173,222.299408   C516.851379,226.181931 517.944458,228.714920 518.812073,231.322952   C518.842773,231.415298 516.636597,232.251724 515.052063,232.743774  z"
   id="path484" />
</svg>
