<?xml version="1.0" encoding="UTF-8"?>
<svg xmlns="http://www.w3.org/2000/svg" viewBox="0 0 985 958">
  <g id="striped-beanie-01" transform="translate(14, -35) rotate(6.5, 600, 285)">
    <path
      id="striped-beanie-01-stripe-a"
      fill="#8D96C9"
      opacity="1.000000"
      stroke="none"
      d=" M797.968872,392.963165   C799.661316,406.665710 801.366333,420.366760 803.038696,434.071747   C803.550781,438.268402 801.901733,441.497894 798.078247,443.955719   C790.822144,438.388702 784.053833,432.537201 776.995300,427.059723   C743.542358,401.100159 706.609070,381.144012 667.859558,364.423401   C626.617004,346.627075 583.980957,333.499023 539.638000,325.820282   C507.270447,320.215302 474.753357,317.501587 441.052917,318.094482   C439.043762,318.143311 437.916504,318.199310 436.351074,318.138000   C425.009186,318.578827 414.076447,318.811676 403.209381,319.781158   C390.857117,320.883087 378.567169,322.674469 366.242950,324.104218   C360.117798,324.814789 355.193542,322.917847 351.841888,317.417053   C350.962646,315.973969 349.407928,314.942444 348.139709,313.572510   C348.115997,313.423065 348.032501,313.132172 348.182526,312.797119   C349.234833,310.227997 350.377197,308.058289 350.996399,305.748352   C353.268188,297.273590 357.364746,289.920105 364.067780,283.842133   C364.553864,283.497223 364.776245,283.225037 364.993530,282.980164   C364.988403,283.007538 364.943237,282.974976 365.380585,283.018829   C375.033264,281.996704 384.232941,280.762177 393.467529,279.903046   C408.490326,278.505371 423.515350,276.735992 438.576508,276.233368   C465.170135,275.345825 491.698151,276.902557 518.161011,279.911377   C544.367676,282.891083 570.225098,287.611481 595.656921,294.516083   C634.017151,304.930664 671.284058,318.326111 706.783081,336.372223   C733.774231,350.093353 759.734192,365.522797 784.322754,383.222260   C788.858521,386.487213 793.419495,389.717102 797.968872,392.963165  z"
    />
    <path
      id="striped-beanie-01-stripe-b"
      fill="#DBE3EF"
      opacity="1.000000"
      stroke="none"
      d=" M387.606354,248.002655   C396.794464,246.836609 405.636993,245.717667 414.486938,244.661011   C419.577393,244.053238 424.671326,243.178131 429.778534,243.058914   C450.054535,242.585663 470.381256,241.367599 490.605530,242.280075   C521.018921,243.652252 551.102966,248.146576 580.781250,255.331131   C623.524109,265.678375 664.614929,280.410950 703.559143,300.843842   C729.471008,314.439056 753.816833,330.499115 776.112305,349.544006   C780.521606,353.310425 784.867493,357.151031 789.573059,361.027893   C792.602234,371.444366 795.300964,381.790405 797.984253,392.549805   C793.419495,389.717102 788.858521,386.487213 784.322754,383.222260   C759.734192,365.522797 733.774231,350.093353 706.783081,336.372223   C671.284058,318.326111 634.017151,304.930664 595.656921,294.516083   C570.225098,287.611481 544.367676,282.891083 518.161011,279.911377   C491.698151,276.902557 465.170135,275.345825 438.576508,276.233368   C423.515350,276.735992 408.490326,278.505371 393.467529,279.903046   C384.232941,280.762177 375.033264,281.996704 365.380585,283.018829   C367.289337,278.503448 369.602295,274.014069 371.999207,269.569946   C372.859283,267.975220 373.921692,266.489624 374.955872,264.632050   C379.101257,258.898529 383.182556,253.487198 387.606354,248.002655  z"
    />
    <path
      id="striped-beanie-01-body"
      fill="#8D97CA"
      opacity="1.000000"
      stroke="none"
      d=" M387.948822,247.929428   C395.092224,238.639435 402.197876,229.320023 409.397858,220.074112   C412.235870,216.429672 415.284424,212.949249 418.944427,209.208282   C427.575531,208.370148 435.495087,207.220551 443.423859,207.153152   C474.961426,206.885025 506.436676,206.763397 537.808960,211.782333   C564.830200,216.105194 591.485779,221.531052 617.554565,229.833939   C669.591919,246.407806 717.382385,271.316803 761.676941,303.118591   C765.812317,306.087646 770.108887,308.832092 774.330627,311.680786   C774.625732,310.506256 774.456360,310.044281 774.190247,309.647186   C763.634521,293.896088 749.921143,281.136414 735.587769,268.972687   C710.784912,247.924225 683.622009,230.395950 654.587158,215.872650   C621.365723,199.255219 586.344788,187.636185 550.048279,179.769012   C528.332825,175.062256 506.470215,171.654602 484.225708,170.910004   C478.427429,170.715912 472.643158,170.102112 466.852448,169.681061   C472.042755,166.043594 476.983337,161.964157 482.475372,158.860641   C493.933777,152.385590 505.683594,146.426178 518.077637,140.131622   C536.226135,143.213104 553.797302,145.645096 570.954590,149.790405   C602.504517,157.413025 632.766968,168.978134 661.088745,184.813583   C680.439758,195.633270 698.831665,208.180710 717.533752,220.141037   C722.799744,223.508682 727.647095,227.530853 732.751526,231.496185   C733.098389,231.924850 733.380127,232.110138 733.661926,232.295410   C733.481506,231.830750 733.301086,231.366089 733.061829,230.551208   C731.258850,227.188904 729.651489,224.087326 727.748718,221.179077   C714.185303,200.449036 697.300781,182.860428 678.100281,167.213425   C659.979736,152.446503 640.663330,139.767197 619.563599,129.776474   C612.405457,126.387085 605.177246,123.145958 597.981018,119.837112   C604.518616,119.211487 611.080994,117.872253 617.588989,118.098503   C634.799866,118.696793 651.987122,119.973061 669.782959,121.296204   C723.370300,155.523911 755.184082,204.487473 772.068298,264.330322   C772.591064,262.790039 772.973389,261.229736 772.930115,259.681335   C772.712036,251.889450 772.469727,244.096268 772.076172,236.311630   C770.935486,213.751495 765.210876,192.251572 756.814819,171.394547   C754.046509,164.517670 751.135071,157.698364 748.289062,150.852737   C757.676270,157.532806 767.268311,163.947983 776.376282,170.989197   C782.121826,175.430923 787.143799,180.808701 792.774170,186.331085   C794.065918,194.920547 795.141357,202.937744 796.068176,210.972061   C798.347839,230.733719 796.799133,250.384842 793.369873,269.839081   C791.225281,282.005280 787.829041,293.950867 784.845459,306.048950   C784.799927,306.070984 784.903442,306.039520 785.356567,306.023163   C786.150391,305.821075 786.675171,305.692871 787.027222,305.373932   C806.522766,287.713989 816.958313,265.207367 822.097900,239.852539   C822.903076,235.880280 823.947937,231.956589 824.881958,228.010437   C826.695801,230.283081 828.878052,232.353256 830.258240,234.864288   C835.561951,244.513260 840.608643,254.303482 845.643555,264.598145   C837.848511,290.467163 822.825684,310.539124 801.570496,325.984314   C796.282104,329.827148 790.337708,332.767181 784.694824,336.122162   C784.868835,338.486389 784.728271,340.926758 785.278625,343.199860   C786.669067,348.942596 788.370422,354.610077 789.594971,360.632568   C784.867493,357.151031 780.521606,353.310425 776.112305,349.544006   C753.816833,330.499115 729.471008,314.439056 703.559143,300.843842   C664.614929,280.410950 623.524109,265.678375 580.781250,255.331131   C551.102966,248.146576 521.018921,243.652252 490.605530,242.280075   C470.381256,241.367599 450.054535,242.585663 429.778534,243.058914   C424.671326,243.178131 419.577393,244.053238 414.486938,244.661011   C405.636993,245.717667 396.794464,246.836609 387.948822,247.929428  z"
    />
    <path
      id="striped-beanie-01-crown-fill"
      fill="#DBE3EF"
      opacity="1.000000"
      stroke="none"
      d=" M466.476868,169.746826   C472.643158,170.102112 478.427429,170.715912 484.225708,170.910004   C506.470215,171.654602 528.332825,175.062256 550.048279,179.769012   C586.344788,187.636185 621.365723,199.255219 654.587158,215.872650   C683.622009,230.395950 710.784912,247.924225 735.587769,268.972687   C749.921143,281.136414 763.634521,293.896088 774.190247,309.647186   C774.456360,310.044281 774.625732,310.506256 774.330627,311.680786   C770.108887,308.832092 765.812317,306.087646 761.676941,303.118591   C717.382385,271.316803 669.591919,246.407806 617.554565,229.833939   C591.485779,221.531052 564.830200,216.105194 537.808960,211.782333   C506.436676,206.763397 474.961426,206.885025 443.423859,207.153152   C435.495087,207.220551 427.575531,208.370148 419.201477,209.011551   C427.465424,200.655777 436.015930,192.129944 444.960083,184.039276   C449.718872,179.734573 455.088959,176.084595 460.333008,172.349533   C462.008240,171.156326 464.164948,170.639114 466.476868,169.746826  z"
    />
    <path
      id="striped-beanie-01-crown-band"
      fill="#DAE2EF"
      opacity="1.000000"
      stroke="none"
      d=" M732.686462,231.252792   C727.647095,227.530853 722.799744,223.508682 717.533752,220.141037   C698.831665,208.180710 680.439758,195.633270 661.088745,184.813583   C632.766968,168.978134 602.504517,157.413025 570.954590,149.790405   C553.797302,145.645096 536.226135,143.213104 518.409302,140.003601   C527.628052,136.346146 537.054138,131.830490 546.982544,129.241852   C562.090332,125.302773 577.540344,122.669189 592.864746,119.579193   C594.239075,119.302078 595.757935,119.741623 597.595337,119.842712   C605.177246,123.145958 612.405457,126.387085 619.563599,129.776474   C640.663330,139.767197 659.979736,152.446503 678.100281,167.213425   C697.300781,182.860428 714.185303,200.449036 727.748718,221.179077   C729.651489,224.087326 731.258850,227.188904 732.954346,230.640411   C732.905762,231.079865 732.686462,231.252792 732.686462,231.252792  z"
    />
    <path
      id="striped-beanie-01-crown-back"
      fill="#DAE2EF"
      opacity="1.000000"
      stroke="none"
      d=" M747.999268,150.670227   C751.135071,157.698364 754.046509,164.517670 756.814819,171.394547   C765.210876,192.251572 770.935486,213.751495 772.076172,236.311630   C772.469727,244.096268 772.712036,251.889450 772.930115,259.681335   C772.973389,261.229736 772.591064,262.790039 772.068298,264.330322   C755.184082,204.487473 723.370300,155.523911 670.217896,121.324585   C684.577148,122.543991 698.577393,126.237610 712.026672,131.793701   C721.789307,135.826828 731.354858,140.362213 740.856201,144.986069   C743.424744,146.236053 745.440125,148.622772 747.999268,150.670227  z"
    />
    <path
      id="striped-beanie-01-detail-1"
      fill="#DAE2EF"
      opacity="1.000000"
      stroke="none"
      d=" M784.994385,305.995453   C787.829041,293.950867 791.225281,282.005280 793.369873,269.839081   C796.799133,250.384842 798.347839,230.733719 796.068176,210.972061   C795.141357,202.937744 794.065918,194.920547 793.073608,186.492310   C801.456543,195.810822 810.011658,205.380325 818.089783,215.336761   C820.923889,218.829956 822.586731,223.273422 824.833252,227.646698   C823.947937,231.956589 822.903076,235.880280 822.097900,239.852539   C816.958313,265.207367 806.522766,287.713989 787.027222,305.373932   C786.675171,305.692871 786.150391,305.821075 785.353149,306.019287   C785.000061,306.000275 784.994385,305.995453 784.994385,305.995453  z"
    />
    <path
      id="striped-beanie-01-detail-2"
      fill="#DAE2EF"
      opacity="1.000000"
      stroke="none"
      d=" M784.928467,336.388306   C790.337708,332.767181 796.282104,329.827148 801.570496,325.984314   C822.825684,310.539124 837.848511,290.467163 845.826843,264.882080   C851.009644,276.425354 855.901489,288.241821 860.472717,300.558289   C859.076782,302.510315 857.976746,303.944794 856.929810,305.417145   C842.995422,325.014130 826.537781,341.444397 802.725891,348.658142   C798.802307,345.908356 794.893555,343.137054 790.948853,340.417999   C789.054993,339.112579 787.093201,337.905884 784.928467,336.388306  z"
    />
    <path
      id="striped-beanie-01-side-shade"
      fill="#8E98CA"
      opacity="1.000000"
      stroke="none"
      d=" M802.872620,348.924622   C826.537781,341.444397 842.995422,325.014130 856.929810,305.417145   C857.976746,303.944794 859.076782,302.510315 860.463928,300.951141   C864.197754,311.830872 867.619812,322.817719 870.981445,334.555603   C868.270996,338.656158 866.002136,342.417999 862.903748,345.282593   C850.701904,356.563660 836.451416,363.825073 819.814270,365.999512   C814.216003,360.396729 808.617676,354.793945 802.872620,348.924622  z"
    />
    <path
      id="striped-beanie-01-detail-3"
      fill="#DAE2EF"
      opacity="1.000000"
      stroke="none"
      d=" M819.943726,366.319183   C836.451416,363.825073 850.701904,356.563660 862.903748,345.282593   C866.002136,342.417999 868.270996,338.656158 870.964722,334.927856   C872.023804,337.230347 873.333557,339.840759 873.998596,342.606293   C875.878540,350.423584 877.494202,358.304443 878.886841,366.716980   C873.127686,371.516815 868.081543,376.434937 862.158875,379.819244   C855.832947,383.433899 848.679810,385.600708 841.887756,388.399597   C837.803406,384.311859 833.723694,380.219574 829.633362,376.137817   C826.453491,372.964630 823.260437,369.804657 819.943726,366.319183  z"
    />
    <path
      id="striped-beanie-01-ear-patch"
      fill="#8E98CA"
      opacity="1.000000"
      stroke="none"
      d=" M842.076111,388.653809   C848.679810,385.600708 855.832947,383.433899 862.158875,379.819244   C868.081543,376.434937 873.127686,371.516815 878.881104,367.150085   C881.152771,378.368866 883.103027,389.711273 885.060669,401.482788   C876.126526,402.067108 868.073853,404.954468 860.324585,409.913025   C854.071899,402.954926 848.168213,395.931458 842.076111,388.653809  z"
    />
    <path
      id="striped-beanie-01-pom"
      fill="#DAE2EF"
      opacity="1.000000"
      stroke="none"
      d=" M885.068054,401.911865   C899.535522,403.728027 912.072571,409.190613 919.685852,422.273895   C928.636169,437.655090 927.982910,453.010071 917.348633,467.461212   C907.423340,480.948853 893.488647,484.924561 877.646423,482.295380   C860.121826,479.387085 849.414795,468.505981 845.036865,451.497986   C841.396118,437.353668 846.387634,425.467804 855.555969,414.902740   C856.861755,413.398102 858.313171,412.019806 860.185425,410.215332   C868.073853,404.954468 876.126526,402.067108 885.068054,401.911865  z"
    />
  </g>
</svg>
