<svg xmlns="http://www.w3.org/2000/svg" viewBox="0 0 1024 1024">
  <g transform="translate(525, 440) scale(0.99) translate(-525, -440) translate(-10, 0)">
    <path fill="#674232" opacity="1.000000" stroke="none" d=" M418.546448,435.204041   C408.338959,437.466797 399.566101,441.595215 392.341034,448.708954   C389.519867,451.486572 386.164886,452.558380 382.954956,449.917511   C379.742889,447.274902 379.724823,443.035126 382.355682,440.529724   C387.936035,435.215454 393.680145,429.533966 400.420135,426.073792   C424.166534,413.883057 451.921478,419.898651 469.186707,440.141296   C470.787689,442.018341 472.728302,444.168732 473.063232,446.408722   C473.417969,448.781097 472.772125,452.224335 471.177307,453.657288   C470.030212,454.687927 466.104401,453.922974 464.293701,452.681702   C458.164795,448.480316 452.711639,443.263641 446.467621,439.267090   C438.082764,433.900238 428.584869,433.512848 418.546448,435.204041  z"/>
  </g>
  <g transform="translate(525, 440) scale(0.99) translate(-525, -440)">
    <path fill="#674232" opacity="1.000000" stroke="none" d=" M576.350830,452.516907   C574.035522,448.578308 575.463379,445.484894 577.635376,442.531891   C587.152344,429.592682 600.219360,422.651245 615.868164,420.483673   C633.430054,418.051117 648.723145,423.592773 661.994446,434.911926   C664.420593,436.981232 666.644226,439.975250 667.504700,442.962097   C668.124146,445.112274 667.041748,448.814484 665.369812,450.219696   C664.083069,451.301086 660.314819,450.569275 658.314819,449.452881   C651.835022,445.835846 646.088623,440.575165 639.289246,437.922974   C619.559021,430.227081 602.591614,435.198547 586.239075,451.230530   C583.177612,454.231934 580.498413,456.478394 576.350830,452.516907  z"/>
  </g>
</svg>
