<svg xmlns="http://www.w3.org/2000/svg" viewBox="0 0 1024 1024">
  <g transform="translate(512, 420) scale(0.9) translate(-512, -420) translate(15, 30)">
    <!-- left eye -->
    <g transform="rotate(-8, 395, 420)">
      <path fill="#da795c" opacity="1" stroke="none" d="m 339.17999,409.19145 c 0.83789,-2.75018 2.10842,-7.64242 3.71185,-9.57118 10.05347,-12.0933 22.58704,-15.1803 36.71067,-18.67401 15.82306,-3.91416 30.72482,-1.20447 45.13687,5.25067 8.90854,3.99014 16.53332,10.07043 22.22043,18.03979 3.61621,5.06745 6.34335,10.7847 9.26422,16.31873 0.52414,0.99307 0.0492,2.51343 -0.39819,3.94632 -2.54163,-1.96823 -4.63523,-4.10675 -6.75959,-6.21433 -21.29922,-21.13131 -46.12307,-26.5118 -74.76498,-17.83291 -11.41684,3.45947 -22.49146,10.529 -35.12128,8.73692 z"/>
      <path fill="#39231B" opacity="1.000000" stroke="none" d=" M339.157684,408.440552   C351.809814,409.872986 362.884430,403.914001 374.301270,400.454529   C402.943176,391.775635 427.767029,397.156128 449.066254,418.287445   C451.190613,420.395020 453.284210,422.533539 455.672791,424.831360   C457.725769,430.983734 457.229370,432.003143 451.209167,433.380127   C445.071533,428.627319 439.523834,424.030579 433.976105,419.433807   C422.719818,407.201263 398.266602,404.320435 385.871368,412.573242   C376.201080,416.269531 367.172394,419.788971 358.143738,423.308380   C348.412964,422.684540 342.264709,417.991882 339.157684,408.440552  z"/>
      <path fill="#452822" opacity="1" stroke="none" d="m 425.78564,448.59796 c -5.70074,1.37225 -10.23402,2.68554 -16.01261,3.22671 -3.56958,0.33429 -8.45479,-0.85534 -12.73488,-1.86611 -0.49168,-0.0944 -0.99974,-0.23404 -1.1489,-0.27779 -2.05441,-1.94782 -4.3121,-3.2909 -5.87506,-5.20206 -7.8913,-9.64923 -8.2814,-22.35379 -3.74084,-33.83938 11.99328,-8.31787 36.4465,-4.99282 47.58728,7.69214 1.21658,6.58649 1.22384,14.2929 -1.45789,20.00195 -1.71542,3.65182 -4.37869,6.85842 -6.61707,10.26455 z"/>
      <path fill="#fce5d5" opacity="1" stroke="none" d="m 358.40955,423.47644 c 8.76284,-3.68747 18.49864,-8.09079 27.92921,-11.54513 -3.89889,11.30871 -4.2159,22.89816 3.6754,32.54739 1.56296,1.91116 3.90309,3.31504 6.0009,5.23286 -10.31318,-1.33121 -18.31364,-7.71602 -25.94289,-14.33876 -4.10171,-3.56061 -7.61694,-7.7969 -11.66262,-11.89636 z"/>
      <path fill="#fce5d5" opacity="1" stroke="none" d="m 433.50704,419.00235 c 5.66324,4.14435 11.56449,9.62497 17.34901,14.42954 -0.54358,1.52722 -1.00202,3.43701 -2.15808,4.06744 -6.14795,3.35269 -12.45258,6.42203 -18.74869,9.49579 -1.22659,0.59875 -2.65552,0.78308 -4.07739,1.38073 2.15213,-3.18402 4.8154,-6.39062 6.53082,-10.04244 2.68173,-5.70905 2.32092,-12.74458 1.10433,-19.33106 z"/>
    </g>
    <!-- right eye (mirrored) -->
    <g transform="translate(1024, 0) scale(-1, 1) translate(5, 0) rotate(-8, 395, 420)">
      <path fill="#da795c" opacity="1" stroke="none" d="m 339.17999,409.19145 c 0.83789,-2.75018 2.10842,-7.64242 3.71185,-9.57118 10.05347,-12.0933 22.58704,-15.1803 36.71067,-18.67401 15.82306,-3.91416 30.72482,-1.20447 45.13687,5.25067 8.90854,3.99014 16.53332,10.07043 22.22043,18.03979 3.61621,5.06745 6.34335,10.7847 9.26422,16.31873 0.52414,0.99307 0.0492,2.51343 -0.39819,3.94632 -2.54163,-1.96823 -4.63523,-4.10675 -6.75959,-6.21433 -21.29922,-21.13131 -46.12307,-26.5118 -74.76498,-17.83291 -11.41684,3.45947 -22.49146,10.529 -35.12128,8.73692 z"/>
      <path fill="#39231B" opacity="1.000000" stroke="none" d=" M339.157684,408.440552   C351.809814,409.872986 362.884430,403.914001 374.301270,400.454529   C402.943176,391.775635 427.767029,397.156128 449.066254,418.287445   C451.190613,420.395020 453.284210,422.533539 455.672791,424.831360   C457.725769,430.983734 457.229370,432.003143 451.209167,433.380127   C445.071533,428.627319 439.523834,424.030579 433.976105,419.433807   C422.719818,407.201263 398.266602,404.320435 385.871368,412.573242   C376.201080,416.269531 367.172394,419.788971 358.143738,423.308380   C348.412964,422.684540 342.264709,417.991882 339.157684,408.440552  z"/>
      <path fill="#452822" opacity="1" stroke="none" d="m 425.78564,448.59796 c -5.70074,1.37225 -10.23402,2.68554 -16.01261,3.22671 -3.56958,0.33429 -8.45479,-0.85534 -12.73488,-1.86611 -0.49168,-0.0944 -0.99974,-0.23404 -1.1489,-0.27779 -2.05441,-1.94782 -4.3121,-3.2909 -5.87506,-5.20206 -7.8913,-9.64923 -8.2814,-22.35379 -3.74084,-33.83938 11.99328,-8.31787 36.4465,-4.99282 47.58728,7.69214 1.21658,6.58649 1.22384,14.2929 -1.45789,20.00195 -1.71542,3.65182 -4.37869,6.85842 -6.61707,10.26455 z"/>
      <path fill="#fce5d5" opacity="1" stroke="none" d="m 358.40955,423.47644 c 8.76284,-3.68747 18.49864,-8.09079 27.92921,-11.54513 -3.89889,11.30871 -4.2159,22.89816 3.6754,32.54739 1.56296,1.91116 3.90309,3.31504 6.0009,5.23286 -10.31318,-1.33121 -18.31364,-7.71602 -25.94289,-14.33876 -4.10171,-3.56061 -7.61694,-7.7969 -11.66262,-11.89636 z"/>
      <path fill="#fce5d5" opacity="1" stroke="none" d="m 433.50704,419.00235 c 5.66324,4.14435 11.56449,9.62497 17.34901,14.42954 -0.54358,1.52722 -1.00202,3.43701 -2.15808,4.06744 -6.14795,3.35269 -12.45258,6.42203 -18.74869,9.49579 -1.22659,0.59875 -2.65552,0.78308 -4.07739,1.38073 2.15213,-3.18402 4.8154,-6.39062 6.53082,-10.04244 2.68173,-5.70905 2.32092,-12.74458 1.10433,-19.33106 z"/>
    </g>
  </g>
</svg>
