<?xml version="1.0" encoding="UTF-8" standalone="no"?>
<svg
   version="1.1"
   viewBox="0 0 1028 1024"
   width="1028"
   height="1024"
   id="svg10"
   xmlns="http://www.w3.org/2000/svg"
   xmlns:svg="http://www.w3.org/2000/svg">
  <defs
     id="defs10" />
  <path
     transform="translate(515,128)"
     d="m 0,0 h 19 l 23,2 23,4 20,6 24,10 15,8 19,13 11,9 12,11 7,8 13,18 10,18 10,23 6,19 5,20 4,29 1,8 v 36 l -3,32 v 11 l 1,9 h 12 l 9,4 8,6 8,9 4,8 4,14 v 19 l -4,16 -6,14 -10,13 -7,8 -13,9 -13,6 -17,4 -4,9 -10,25 -7,14 -10,15 -9,12 -19,19 -22,18 -11,8 -2,4 -1,12 v 27 l 2,16 4,11 6,9 9,8 17,9 37,13 21,6 43,13 33,11 22,9 19,10 14,10 4,3 v 2 h 2 l 7,8 10,15 9,19 10,30 7,31 6,36 5,34 v 6 h -757 v -10 l 6,-42 9,-45 6,-22 6,-17 8,-16 8,-14 4,-6 h 2 l 2,-4 7,-7 14,-10 22,-12 26,-10 24,-8 30,-9 15,-5 26,-7 29,-10 17,-8 12,-9 7,-10 5,-15 2,-13 v -18 l -2,-22 -4,-5 -15,-11 -11,-9 -17,-16 -7,-8 -8,-10 -10,-15 -10,-19 -11,-30 -18,-4 -16,-8 -9,-6 -4,-4 -9,-11 -8,-13 -6,-18 -1,-4 v -19 l 3,-14 6,-11 10,-11 9,-5 6,-2 13,-1 1,-2 -4,-36 -1,-14 v -36 l 3,-27 5,-24 9,-27 8,-19 10,-17 11,-16 9,-10 4,-5 8,-7 13,-11 14,-9 14,-8 14,-7 21,-8 24,-6 24,-3 z"
     fill="#ecab81"
     id="path2" />
  <path
     transform="translate(614,673)"
     d="M 3.6653154,-1.1105481 1,42 3,58 5,65 7.6653154,69.77789 -7,72 -24,74 h -30 l -26,-4 -13,-4 -21,-8 -12,-6 -5,-3 -18,-12 c -11.2989,-7.179227 -22.7844,-15.48106 -34.73877,-24.741417 l -0.20469,-10.4256719 6.55477,2.9444726 L -156,16 l 25,10 19,5 11,2 h 22 l 15,-3 15,-4 13,-5 16,-8 C -11.250974,10.073582 -4.9563862,1.5529309 3.6653154,-1.1105481 Z"
     fill="#dc8565"
     id="path3" />
  <path
     transform="translate(314,442)"
     d="m 0,0 h 6 l 1,1 4,31 6,42 -5.554767,0.333671 L 1,71 l -9,-6 -4,-3 -4,-7 -5,-10 -1,-4 V 24 L -17,13 -7,2 Z"
     fill="#dc8565"
     id="path4" />
  <path
     transform="translate(730,445)"
     d="m 0,0 7,1 6,4 6,8 3,5 1,7 V 37 L 18,50 9,60 4,64 c -5.7615177,1.686887 -10.8713521,7 -17,7 l 2,-12 4,-22 6,-35 z"
     fill="#dc8565"
     id="path5" />
  <path
     transform="translate(345,826)"
     d="m0 0 9 1 20 4 25 4 40 5 18 4 9 6 2 2v4l-11-2-9-3-42-6-23-4-18-4-11-4-8-5z"
     fill="#DC8565"
     id="path6" />
  <path
     transform="translate(699,826)"
     d="m0 0v3l-10 5-20 6-26 5-39 5-15 3-8 3h-3l1-5 8-6 10-3 19-3 48-6 29-6z"
     fill="#DC8565"
     id="path7" />
  <path
     transform="translate(274,958)"
     d="m0 0 3 1-4 16-2 16-3 17-3 16h-10l4-22 2-6 2-10 3-10 3-7 3-8z"
     fill="#DC8565"
     id="path8" />
  <path
     transform="translate(770,958)"
     d="m0 0 3 1 2 9 2 1 3 10v3l2 1 4 17 4 20v4h-10l-5-36-3-17-2-12z"
     fill="#DC8565"
     id="path9" />
  <path
     transform="translate(546,857)"
     d="m0 0h2l-2 6-8 7-8 3h-11l-10-4-8-9 1-2 13 4 13 1 12-3z"
     fill="#DC8565"
     id="path10" />
</svg>
