<?xml version="1.0" encoding="UTF-8"?>
<svg version="1.1" viewBox="0 0 1024 1024" width="1024" height="1024" xmlns="http://www.w3.org/2000/svg">
<g transform="translate(512, 512) scale(1.14) translate(-512, -547)">
<path transform="translate(0)" d="m0 0h1024v1024h-1024z" fill="none"/>
<path transform="translate(528,123)" d="m0 0h1l2 15 4 7 10 6 38 10 16 6 16 9 12 11 6 8h3l-4-13-6-11-7-9-3-3 11 3 10 6 7 6 7 10 4 10 1 4v14l-1 5h2l8-16 2-10-1-11 4 1 1 4 5 10 2 12-3 14-6 9h12l14 3 10 5 9 7v2h-21l-2 1 12 9 8 9 7 14 2 8-1 4-9-10-4-3-2 2 6 12 2 10v15l-1 5h-2l-1-2-3 49-4 38-6 42-3 4-6-2-1-59-4-2-17-16-9-12-6-13-4-16-2-9-10 10-8 5-1-2 4-15v-16l-4-10-8-7-9-3-6-1h-17l-30 5-36 9-17 1-8-1-7 8-7 14v13l2 4 7 3h8l-3 3-9 2-8-2-8-6 1 8 6 7 3 3h-7l-8-4-7-6-5-8-3-10v-21l1-5-9 9-13 10-14 8-16 6-5 1-3 18-5 13-7 11-15 15-1 59-3 1-5-1-5-18-7-34-5-32-3-38-8-7-5-8-2-7 8 4 10 2-5-5-5-4-7-11-4-11 5 1h9l15-2-8-11-5-10-3-11v-18l6 2h17l9-2v-2l-6-12-2-12 1-8 2-1 4 9 1 4 4 2v-14l3-12 7-14 7-9h2l2 8 5 6 9 4 4 1h11l1-14 4-12 9-12 8-7 5-3 2 9 4 6 6 5 11 5 19 5 1-2-4-8-2-8v-11l2-6 2 4 6 10 11 7 5 2 1-10 7-10 8-6z" fill="#0F1011"/>
<path transform="translate(434,189)" d="m0 0h1l3 20 4 11 7 10 6 4v2l-9 1h-13l-14-3-10-4 2 3 5 5 9 6 13 4 6 1-4 3-11 3h-9l-13-4-11-8-5-7-4-13v-14l4-13 1-2h2l8 16 9 8 10 6 7 3-1-5v-14l4-13z" fill="#29292C"/>
<path transform="translate(447,178)" d="m0 0 5 2 15 8 15 4 6 1 36 2-4 4-10 5-10 2-13 1 9 4 10 2 22 1 17 3 12 5 10 7 8 8 8 12-1 2-6-8-8-7-10-6-10-4-16-3-37-1-13-4-11-7-10-8-9-12-4-8z" fill="#29292C"/>
<path transform="translate(498,271)" d="m0 0h13l14 3 9 4v1l-17 1-8 3-16 12-10 8-7 9-7 14-3 9-4 3-3-7v-18l3-12 6-10 8-9 11-7z" fill="#29292C"/>
<path transform="translate(535,172)" d="m0 0h18l15 5 10 6 8 7 9 13 4 11 2 10v11h-1l-3-12-6-12-6-8 5 13 1 9-3-4-7-10-8-9-10-7-13-6-15-4-9-1h-15v-2l17-8z" fill="#28282B"/>
<path transform="translate(517,241)" d="m0 0 14 1 13 4 9 5 7 6 7 11 3 10 1 8-1 2-11 1-3-9-5-8-7-7-16-8-12-3-7-1h-30l4-3 14-6 9-2z" fill="#28282B"/>
<path transform="translate(368,245)" d="m0 0 4 2 8 7 14 7 11 3 8 1h29l14-1-3 3-11 5-12 4-6 1-16 1 13 2h18l-2 2-9 3-5 1h-11l-11-2-11-6-10-9-8-11-4-11z" fill="#29292C"/>
<path transform="translate(663,255)" d="m0 0 9 1 9 5 8 8 6 10 4 12 1 5v11l-2 10h-1l-4-20-4-9-1-2-5 19-5 8-1-2 2-10v-13l-4-15-5-9-7-8z" fill="#29292C"/>
<path transform="translate(628,274)" d="m0 0 14 2 8 5 6 7 3 8v7l-4 8-6 3-1 2h-2v-10l-4-13-5-9-5-5-4-3z" fill="#29292C"/>
<path transform="translate(412,307)" d="m0 0 3 1-10 5-8 2h-10l-10-5 2-1h22z" fill="#29292C"/>
<path transform="translate(436,138)" d="m0 0 2 1-14 14v-3l8-9z" fill="#212123"/>
<path transform="translate(518,128)" d="m0 0 2 1-11 11v-3l6-7z" fill="#202022"/>
</g>
</svg>
