<svg xmlns="http://www.w3.org/2000/svg" viewBox="0 0 1024 1024">
  <g transform="translate(512, 270) scale(1.12) translate(-512, -270) translate(0, -30)">
    <path fill="#B8833C" opacity="1.000000" stroke="none" d=" M327.124023,314.478668   C336.685791,309.913513 346.007843,305.330322 355.712555,301.798553   C362.929169,299.172241 370.641663,297.908539 378.537445,296.039368   C377.576752,309.898407 376.322174,323.768524 374.747223,337.602234   C374.457489,340.147156 373.078705,342.654907 371.845947,344.991699   C363.005341,361.750122 357.023926,379.365814 355.761078,398.548401   C350.203156,397.442017 344.922699,396.390869 339.369019,395.151733   C332.573303,368.657043 328.818878,341.933777 327.124023,314.478668  z"/>
    <path fill="#D7A557" opacity="1.000000" stroke="none" d=" M401.088135,258.792908   C387.676270,267.265167 380.933380,279.782104 378.565857,295.626465   C370.641663,297.908539 362.929169,299.172241 355.712555,301.798553   C346.007843,305.330322 336.685791,309.913513 327.199493,314.045410   C325.036652,291.345001 324.684509,268.640930 332.736328,246.951691   C341.054382,224.545166 357.627502,210.930450 381.462280,206.154755   C381.418762,216.437744 384.698181,225.546951 388.340698,234.314331   C391.857147,242.778259 396.782013,250.657059 401.088135,258.792908  z"/>
    <path fill="#BE8B40" opacity="1.000000" stroke="none" d=" M401.432007,258.832825   C396.782013,250.657059 391.857147,242.778259 388.340698,234.314331   C384.698181,225.546951 381.418762,216.437744 381.864532,206.108383   C382.941925,205.301346 384.071869,204.978378 385.560425,204.623444   C388.582001,221.858902 394.663605,237.725571 405.172852,251.800064   C405.948608,252.839005 406.370056,254.142548 406.995636,255.682220   C405.282013,256.985168 403.528961,257.928955 401.432007,258.832825  z"/>
    <path fill="#D6A456" opacity="1.000000" stroke="none" d=" M653.321655,297.006592   C646.496277,298.838348 639.698486,300.781525 632.839600,302.478058   C619.627380,305.746124 606.280762,305.417633 592.817871,304.207306   C565.832458,301.781250 541.720398,290.758057 517.571167,279.750946   C501.754517,272.541779 486.181366,264.743652 470.105438,258.172516   C451.290436,250.481796 431.761658,247.882416 411.794800,253.980240   C410.383728,254.411163 409.063293,255.138840 407.328461,255.525818   C406.370056,254.142548 405.948608,252.839005 405.172852,251.800064   C394.663605,237.725571 388.582001,221.858902 385.919037,204.591476   C388.468567,197.755966 390.619446,190.738724 393.638397,184.117218   C405.165070,158.835495 426.086456,145.109711 451.990540,138.091599   C481.619354,130.064316 511.296783,131.528015 540.956604,138.386826   C568.961060,144.862854 594.441101,157.642700 620.257385,169.625732   C635.774780,176.828354 651.827515,182.316757 669.121338,182.641617   C680.922058,182.863281 692.208191,180.187363 703.731079,173.635803   C706.087402,182.057831 708.762878,189.889160 710.423706,197.930054   C713.541321,213.023926 715.415710,228.301773 709.908020,243.266296   C707.856995,248.838959 704.646729,253.984955 701.561951,259.735199   C697.710999,264.318481 694.630859,268.877167 690.742310,272.588928   C681.380798,281.524872 670.781494,288.815460 659.087158,294.441406   C657.192444,295.352905 655.244812,296.154297 653.321655,297.006592  z"/>
    <path fill="#B8833B" opacity="1.000000" stroke="none" d=" M653.255859,297.444641   C655.244812,296.154297 657.192444,295.352905 659.087158,294.441406   C670.781494,288.815460 681.380798,281.524872 690.742310,272.588928   C694.630859,268.877167 697.710999,264.318481 701.484985,260.093048   C705.456848,284.848206 705.162964,309.769867 702.242859,334.526001   C699.934509,354.096100 695.800781,373.450867 692.348999,393.290222   C687.856079,395.358704 683.491882,397.038300 678.452576,398.977661   C677.289795,392.824219 676.222534,386.917175 675.051270,381.030792   C672.469604,368.055481 667.456055,356.071075 661.105835,344.463806   C658.578552,339.844330 657.537109,334.202271 656.745239,328.887756   C655.213135,318.604431 654.337708,308.223267 653.255859,297.444641  z"/>
  </g>
</svg>
