<?xml version="1.0" encoding="UTF-8"?>
<svg version="1.1" viewBox="0 0 1024 1024" width="1024" height="1024" xmlns="http://www.w3.org/2000/svg">
<g transform="translate(509, 512) scale(1.15) translate(-512, -547)">
<path transform="translate(0)" d="m0 0h1024v1024h-1024z" fill="none"/>
<path transform="translate(501,128)" d="m0 0 9 2 11 6 8 7 7 11 2 5 9-7 12-5 4-1h18l15 4 10 6 10 9 6 10 1 3 10 3h15l4-2 2-5-1-9-1-5 5 2 7 8 3 10-2 8-5 7h-2l1 2 8 2h13l11-4 6-7 3-3v9l-4 11-6 5h-2v2l6 1 9 7 7 7 7 11 5 13 2 11v7l4 1 6-4 4-8 2 2v7l-4 11-5 6-5 4 8 6 7 3h14l-6 9-8 7-7 3h-5l7 9 5 12 1 6v13l-2 7h-1l-2-9-3-4v-2l-6-2-1 11-3 9-5 7 6 4 6 2h8l4-1-3 5-5 5-8 4h-4l1 11-4 11-4 4-9-1-4-1-6 42-2 1-11-3-1-58-10-5-6-8-4-10-2-12v-5l-9-1-10-4-8-7-6-7-5-13-1-5v-13l1-4h-13l-10-3-5 5-5 3-8 1 2-5 4-9-12-2h-14l-9 3 1 5 2 7v17l-4 13-6 10-9 8-10 5-11 3h-14l-3-2 12-5 8-7 6-12 1-4v-10l-4-10-3-1v7l-5 12-8 10-8 7-10 6-15 5h-17l-4-2 12-5 8-6 2-2 1-4-9 5-11 5-19 2-9 10-6 3-4 1h-10l5-5 3-5-14 4h-7-4l-2 7-3 16-4 8-5 4-6 2h-7l1 27v30l-1 1-11 1-1-1-5-37-1-3-11 1-5-5-3-7-1-10-10-3-9-8v-2l5 1h12l-6-8-2-4v-9l-9-3-7-6-4-8-1-6 8 5h13l5-2 1-5-10-6-7-10-3-11v-8l3-12-8 4h-2l-2 4-2 5-1 7-2-3-1-3v-12l4-14 6-10 7-7 6-3-5-7-4-13v-12l2-2 4 10 5 4 8 3h14l5-1-1-4-5-5-4-8-1-4v-8h2l5 6 10 4h12l-3-3-8-5-6-7-3-7v-14l2-3 4 9 6 5 5 2h13l10-5 10-6 5-2h3l-6-8-2-7 1-9 5-10 7-8 12-7 6-2h4v2l-8 7-4 9v9l4 6 8 4 6-8 10-7 12-4 5-1h13l-3-3-16-5v-1l6-1h20l16 3 17 7 7 5 3 1-5-15-6-9-1-3-4-2z" fill="#131215"/>
<path transform="translate(686,276)" d="m0 0h9l9 3 7 6 5 10v6l-2-3v-2h-2v-2h-2l-4-4-4-2h-8l6 5 5 7 1 3v7l-6 7h5l6 7 4 6 1 3v7l-4 10-8 9-3 1h-11l-6-4-4-6 1-8 4 2 6 4 6-1 2-3v-9l-5-14-1-1-1-16-3-6-5-5-1 5-6 7-10 6-10 1-9-2-8-6-3-5-4-1v7l3 10 5 7 9 5 8 3h21l-4 5-10 4h-17l-10-5-7-8-4-10v-11l3-7 3-5 4-1 11 6 4 1h7l8-4 5-6 6-8 3-3z" fill="#2C2B2E"/>
<path transform="translate(494,197)" d="m0 0h13l-3 2-9 4-8 6-9 12-5 13-2 9 8-11 8-7 10-5 4-1h17l4 2v1l-11 1-12 5-8 6-8 9-11 17-9 8-16 5 6 4 10 3-4 3-10 3h-20l-11-4-10-6-8-10-3-7v-10l2 2 5 9 8 5 4 1h13l11-3 7-6 4-8 6-20 6-11 6-7 9-7 12-6z" fill="#2B2A2D"/>
<path transform="translate(475,175)" d="m0 0h15l11 3 6 4 5 5-2 1-7-2h-15l-12 3-12 6-11 9-11 13-15 22-7 6-7 2h-8v-3l6-4 5-16 6-12 8-10 10-10 10-7 14-7z" fill="#2C2B2E"/>
<path transform="translate(580,213)" d="m0 0h6l8 10-1 2 6 3 7 6 7 10 4 12v17l-3 8-3 2-3-17-6-12-10-9-8-4-13-3h-20l-11 3-9 7-1 5 9-1 11 1v1l-11 1-8 4-2-1-2-3 1-8 6-10 4-5 13-9 9-3h16l11 2-7-8z" fill="#2C2B2E"/>
<path transform="translate(516,229)" d="m0 0 13 1 4 2-3 2-8 5-8 9-4 9-1 5v20l3 12 2 10h-2l-3-6-4-5-5-13-2-11v-9l5-14-5 4-8 13-3 9-2 20-3 10-4 6-2 1 2-11 1-24 2-14 6-12 9-10 12-7z" fill="#2C2B2E"/>
<path transform="translate(378,314)" d="m0 0 1 2-6 10-6 5-8 4-6 1 5 2 7-1 6-3 5-6 4-1-2 10-5 6-11 8-16 7-12 6-1-3 4-17-5 6-10 5h-3v-3l5-5 6-9 4-3v-8l-1-7 5 2 6 2h15l10-4 8-5z" fill="#2C2B2E"/>
<path transform="translate(559,190)" d="m0 0h15l12 3 11 6 8 7 5 7 4 11-1 3-9-8-21-9-7 1-7-3-6-1h-13l-13 4-8 4 1-5 6-8 11-8 7-3z" fill="#2B2A2D"/>
<path transform="translate(661,218)" d="m0 0 6 1 9 6 7 8 4 9v13l-6 10-5 4-4 6-7 5-13 4-13-1-9-6-4-5-3-12 9 6 8 4 6 1h9l10-3 5-3-2-2 5-10v-10l-4-12-7-11z" fill="#2C2B2E"/>
<path transform="translate(327,281)" d="m0 0 7 6 8 4 10 2 9-1 13-5 6-5h2l-2 6-8 9 10-3 12-7 1 2-8 10-9 7-13 4h-8l-9-2-10-5-7-7-4-10z" fill="#2C2B2E"/>
<path transform="translate(629,197)" d="m0 0 5 2 10 7 7 6 5 8 3 11v7l-3 8-5 4-7 2h-6v-3l3-5 1-6v-8l-3-15-5-10z" fill="#2C2B2E"/>
<path transform="translate(536,280)" d="m0 0 2 2 3 12 4 12v23l-4 13-8 11-5 3 2-5 4-9 1-5v-13l-4-16v-9l2-12z" fill="#2C2B2E"/>
<path transform="translate(569,156)" d="m0 0h9l11 3 9 5 5 5 5 8 3 9-1 9-3-2-4-8-9-10-9-6-8-3-18-1 3-7z" fill="#2C2B2E"/>
<path transform="translate(462,319)" d="m0 0 2 1v6l-4 6-8 5-5 2-6 1h-13l-12-4-13-9v-2l6 1 8 3h21l13-4z" fill="#2C2B2E"/>
<path transform="translate(672,357)" d="m0 0 9 6 9 4 8 1 9 16 6 7-10-1-11-4-9-6-9-11-3-10z" fill="#2C2B2E"/>
<path transform="translate(421,192)" d="m0 0 2 1-5 8-9 17-7 9-11 5h-13l-7-2 1-2 13-5 9-6 10-9 9-10z" fill="#2C2B2E"/>
<path transform="translate(457,288)" d="m0 0v3l-6 8-11 7-11 4h-14l-8-4-6-8 2-1 13 3h9l14-3 16-8z" fill="#2C2B2E"/>
<path transform="translate(371,248)" d="m0 0v3l-7 10-5 4-7 3h-9l-8-4-4-6v-1h22l12-5z" fill="#2C2B2E"/>
<path transform="translate(490,306)" d="m0 0h2l3 8 1 1v9l-4 13-4 6-7 7-1-3 1-6-2-1 7-11 3-16z" fill="#2C2B2E"/>
<path transform="translate(714,313)" d="m0 0 8 2 6 4v2h2l5 6v3h2l3 11v3l-3-1-8-10-10-9-2-1v-2l-2-1v-3z" fill="#2C2B2E"/>
<path transform="translate(381,345)" d="m0 0 1 2-4 8-3 10v15l-4-2-5-8v-10l7-8z" fill="#2C2B2E"/>
<path transform="translate(592,263)" d="m0 0 5 4 3 7 1 11-3 7-5 5-2-1 1-5 2-7v-12l-3-8z" fill="#2C2B2E"/>
<path transform="translate(540,260)" d="m0 0h11l2 2-1 3-11 2-7 4-5 4 1-7 3-5z" fill="#2C2B2E"/>
<path transform="translate(354,378)" d="m0 0 5 5 7 4h7l-2 4-3 3-4 1-5-2-4-6z" fill="#2C2B2E"/>
<path transform="translate(712,250)" d="m0 0h2l5 10 1 10-6-2-2-2-1-6v-9z"/>
<path transform="translate(528,250)" d="m0 0 2 1v2l9-1 11 1v1l-11 1-8 4-2-1-2-3z" fill="#2A292C"/>
<path transform="translate(580,213)" d="m0 0h6l8 10v1h-6l-8-10z" fill="#2B2A2D"/>
<path transform="translate(516,278)" d="m0 0 4 3 3 3 1 6-4 1-4-9z" fill="#2B2A2D"/>
</g>
</svg>
