<svg xmlns="http://www.w3.org/2000/svg" viewBox="0 0 1024 1024">
  <g transform="translate(512, 320) scale(1.15) translate(-512, -320) translate(-6, -45)">
  <path fill="#0A0F14" opacity="1.000000" stroke="none" d=" M324.476898,455.848785   C319.313446,446.527557 318.728058,436.876312 322.962677,426.611450   C309.477600,421.327454 299.708496,412.822388 297.319458,398.215485   C295.034027,384.242126 299.496368,372.287720 310.099670,362.285400   C294.836243,350.440948 289.929321,334.794220 292.623535,316.770203   C295.334869,298.631470 305.451355,285.717285 322.910706,278.371643   C316.846588,264.197510 316.303040,250.218872 325.585358,237.486115   C334.872681,224.746429 348.154083,220.636566 363.907745,222.526108   C365.415283,203.470490 373.899567,188.443649 390.311707,179.033218   C406.518433,169.740585 423.493713,169.045929 440.868652,178.455948   C450.340851,158.550720 465.764252,146.169785 487.790039,143.397659   C509.848022,140.621475 528.068176,147.959885 541.917725,166.393265   C559.730591,152.249802 579.698059,145.744186 602.061523,151.746613   C624.442261,157.753693 639.371277,172.239075 646.183655,195.223755   C666.076782,189.370178 684.074890,192.197662 699.166565,206.658752   C713.890564,220.767456 718.107544,238.571320 715.898315,258.783386   C735.328613,263.315918 748.450806,275.200134 754.875000,293.784180   C761.263367,312.264954 758.575562,329.551758 745.257507,345.224121   C757.256775,353.665863 762.928650,365.151428 762.016785,379.812897   C761.062256,395.159363 751.393677,403.888519 738.955994,410.492554   C746.361450,427.744385 744.873596,443.080139 729.728516,456.128571   C724.640808,454.727051 720.270813,452.114746 715.693726,451.679260   C706.647766,450.818695 702.944153,452.540894 703.044678,461.330627   C703.108276,466.889709 702.481140,472.456696 702.034119,478.396301   C701.651611,481.183746 701.398743,483.595062 701.020508,486.337830   C700.798279,488.036560 700.701477,489.403839 700.466370,491.120728   C700.223267,491.959686 700.118530,492.449005 699.672241,493.022797   C696.010742,492.059937 692.690613,491.012665 689.263550,489.509155   C688.806641,470.611481 688.343933,452.170776 688.214844,433.727722   C688.192627,430.550720 687.432678,428.438690 684.957825,426.544495   C678.193542,421.367218 673.743530,414.562958 670.599060,406.633545   C665.442871,393.631226 665.240173,380.221802 666.562134,366.216919   C650.852905,368.796295 636.648621,366.243103 624.630737,355.372192   C624.606079,355.300751 624.456787,355.324738 624.244995,355.173462   C623.692871,354.946777 623.352661,354.871338 623.025818,354.875244   C623.039246,354.954559 623.197632,354.925995 623.098877,354.658630   C622.690918,354.184601 622.381836,353.977966 622.076416,353.828064   C622.080078,353.884857 622.193298,353.873444 622.143799,353.516968   C619.136108,347.876556 616.177979,342.592590 613.076843,337.053345   C610.238647,337.729553 607.234131,338.564240 604.180725,339.140198   C600.973206,339.745178 597.718872,340.102325 594.479370,340.568573   C596.281677,349.177460 598.950317,351.870239 616.865173,363.166473   C616.348938,364.107605 615.821594,365.068909 614.885620,365.999512   C611.618713,366.825928 608.760437,367.683075 605.635742,368.607483   C574.682861,369.984283 553.111511,357.707611 543.895386,326.801392   C527.214661,340.325195 508.779785,348.219818 487.484802,345.789703   C466.385590,343.381958 449.099548,333.121918 435.526886,315.705048   C432.082550,344.091400 416.125031,364.952026 383.725342,366.455261   C383.725342,373.076416 384.062622,379.701141 383.658844,386.280365   C382.654114,402.651428 377.607513,417.218079 364.099854,427.806061   C363.024689,428.648834 362.234497,430.542023 362.225281,431.953064   C362.116089,448.615723 362.181152,465.279541 362.133942,482.317566   C362.162994,483.184540 362.258484,483.677002 362.323914,484.572510   C362.220642,486.319489 362.147400,487.663391 361.729065,489.097748   C357.401886,493.725677 354.789825,494.321320 350.167877,491.307068   C349.696381,486.291351 349.246948,481.709473 348.855225,476.667969   C348.602814,470.915314 348.268127,465.623596 347.989105,460.328918   C347.651031,453.913971 345.645905,451.529175 339.149536,452.128174   C334.186493,452.585754 329.362671,454.553070 324.476898,455.848785  z"/>
  </g>
</svg>
