<?xml version="1.0" encoding="UTF-8"?>
<svg version="1.1" viewBox="0 0 1024 1024" width="1024" height="1024" xmlns="http://www.w3.org/2000/svg">
<g transform="translate(517, 540) scale(1.26) translate(-512, -547)">
<path transform="translate(0)" d="m0 0h1024v1024h-1024z" fill="none"/>
<path transform="translate(508,108)" d="m0 0h10l12 3 10 5 10 9 4 5 5 10 2 9v11l-4 12-6 11 16 5 19 8 10 6 10 8 6 8 4 6 14 8 8 7 6 10 3 16 6 8 7 14 5 15 4 20 1 11v60l-4 52-1 7-10-2 1-32v-24l-9-13-11-21-5-7v-45l-12-2-9-3-22-11-8 4-8 2-12-1-10 4-16 2h-15l2 5 9 6-3 1h-9l-7-3-6-7-1-5-7 2-13 1-14-3-6-2h-12l-10-3-7-3-10 6-12 6-19 5v41l-2 5-9 14-9 17-6 9 1 33v22l-9 3-1-1-2-24-3-53v-41l4-27 4-14 5-13 6-11 4-5 2-12 5-10 8-9 5-2v-2l10-5 6-10 4-5 13-9 17-9 23-7h2v-3l-2-2-3-6-2-5-2-8v-14l3-9 6-10 5-6 10-7 10-4z" fill="#432015"/>
<path transform="translate(450,204)" d="m0 0 2 2 2 19 4 16 7 16 8 10 6 7 11 8 10 5 4 1h8l6-3 5-4 5-10 2-13 2 3 1 5v14l-4 9-1 2 5-2 8-7 5-9 3-8 3-19h1l2 13v8l-3 11-4 8-3 4 10-5 5-4 8-12 2-7h2l-2 16-5 10-1 1 6-1 11-8 6-9 3-9 1-12 2 3v19l-3 9-4 6 12-6 8-8 7-11 4-10 1-16 2-8-3-1 1-2 12 7 8 7 6 10 3 16 6 8 7 14 5 15 4 20 1 11v60l-4 52-1 7-10-2 1-32v-24l-9-13-11-21-5-7v-45l-12-2-9-3-22-11-8 4-8 2-12-1-10 4-16 2h-15l2 5 9 6-3 1h-9l-7-3-6-7-1-5-7 2-13 1-14-3-6-2h-12l-10-3-7-3-4 1-6 2-4 2-6-1-12-5-9-7-8-11-3-9 3-1h3l2 2 5 9 7 6 13 5h6l-12-9-7-10-2-5v-24l2-3 3-2 1 17 5 16 7 10 7 6 9 4 15 4-10-6-8-7-8-11-5-12-1-5v-16l3-10 3-6h1l2 20 5 15 7 11 12 12 8 4-11-17-3-9-1-6v-22l3-12z" fill="#250F08"/>
<path transform="translate(647,271)" d="m0 0 4 2 6 7 7 18 5 24 1 11v60l-4 52-1 7-10-2 1-32v-24l-9-13-11-21-5-7v-45l-12-2-9-3-16-8 4-1 3 2h8l8-2 12-5 9-7 8-9z" fill="#411F14"/>
<path transform="translate(510,109)" d="m0 0 16 2 16 8 9 9 6 12 2 8v12l-4 12-5 5-7-6-13-5-8-1h-23l-13 4-7 4h-2l-1 3-5-1-4-7-2-7v-15l5-14 2-5 5-3 9-8 12-5z" fill="#432015"/>
<path transform="translate(508,108)" d="m0 0h10l12 3 10 5 10 9 4 5 5 10 2 9v11l-4 12-6 11 16 5 17 7v2l-9-3-13-5-15-4-4-2-20-4h-24l-20 4-4 1v-2l-5-2-2-6-3-4-2-10v-14l3-9 5-8v3l-5 14v15l4 11 2 3h4l4-4 11-5 8-2h23l12 2 12 6 5 4 4-6 3-10v-12l-4-13-6-9-9-8-13-6-16-2-12 2-12 5-10 9h-3l4-5 10-7 10-4z" fill="#230E07"/>
<path transform="translate(492,205)" d="m0 0 1 3-1 8v11l3 15 4 10 3 6-1 4-7-1-5-5-5-12v-19l4-13z" fill="#250F08"/>
<path transform="translate(523,195)" d="m0 0 4 2 6 4 6 7 4 9 2 14-1 11-3 5-4 1-1-24-4-15-7-11z" fill="#250F08"/>
<path transform="translate(573,201)" d="m0 0 4 4 6 11 2 10v9l-3 8-5 4-4 1 1-5 3-13v-14l-3-11z" fill="#250F08"/>
<path transform="translate(359,304)" d="m0 0h1l-1 10-2 16-1 15v18l2 39 3 43v6l7-2v-11h1v12l-9 3-1-1-2-24-3-53v-41l4-27z" fill="#281109"/>
<path transform="translate(508,108)" d="m0 0h10l12 3 10 5 10 9v3l-8-8-16-8-16-2-12 2-12 5-10 9h-3l4-5 10-7 10-4z" fill="#251009"/>
<path transform="translate(383,243)" d="m0 0 2 1-5 13-1 9-4 2 2-4 2-12z" fill="#230E08"/>
<path transform="translate(481,300)" d="m0 0h11l-2 1v2l-9-1z" fill="#391A11"/>
</g>
</svg>
