<svg version="1.1" viewBox="0 0 1024 1024" width="1024" height="1024" xmlns="http://www.w3.org/2000/svg">
<g transform="translate(507, 512) scale(1.14) translate(-512, -547)">
<path transform="translate(0)" d="m0 0h1024v1024h-1024z" fill="none"/>
<path transform="translate(463,97)" d="m0 0 4 2 7 7 7 14 3 11v10l10-8 15-8 11-3 6-1h13l16 3 15 6 12 6 15 10 8 7 4 4h2l-1-9-6-11-9-8-9-5v-1h8l14 4 10 5 10 8 7 11 4 11v14l-4 13 8-4 3-1 2-4 3-8 1-17 3 3 6 13 2 8v12l-1 6 9-3 8-7 3-5 1-5v-8l-4-13 1-2 9 7 7 7 7 11 4 11 1 4v11l-3 10 7-6 4-8 1-5 3 3 3 8 1 12-3 10-6 8v9l-1 4 6-1 9-8 7-15 3 4 2 6 1 7v9l-3 11-7 14-8 8h-2l1 3 7 1 10-5 5-5v8l-4 12-6 7 10-4h2l-1 5-5 9-7 7-5 3h-2l2 9 3 16 2 4-5-1-3-1v-2h-2l-2 18-7 44-2 4-10 3-1 1-2 24-1 14-3 1-7-2-1-32-1-13-3-6-5-6-4-11-2-9-8-7-3-2 2 6-9-2-9-6-7-7-7-14-2-8v-7h-2v2l-9 7-9 4-12 1-10-4-8-9-2-4 1-3 4 2h10l7-4 4-5 3-8v-7l-8 5h-9l-5-2h-8l-10-3-9-6-5 1-10 5-11 2h-12l-15-3-19-7-9-4h-15l-10 3-8 5-7 8-4 8-1 4v16l3 10-5-3-7-8-3-7-7 4-8 5-7 2h-11l-10-5 2 9 6 8 7 4 3 2-5 3h-11l1 7v14l-4 16-7 10-5 4-2 24-1 21-10 3-1-4-2-36-8-4-1-2-3-30v-12l-8 4-1-3 2-20 2-10-8-1-10-5-6-5-2-4 6 1h16l6-1v-2h-7l-10-3-10-7-7-11v-2l5 1h11l7-2v-3l2-1-10-6-8-9-5-10-2-8v-16l7 14 8 7 2 1-6-11-2-6v-14l4-12 8-11 4-3 1 15 4 10 5 6 3 1-1-5-4-10-2-10v-9l3-14 7-13 9-10 9-8h2l-5 15v16l3 6v2l3-1-1-13 2-11 7-14 10-13 4-8 1-11 5 5 4 10 1 10 8-7 10-7 11-5 27-8 8-5 5-8 2-7v-8z" fill="#0E0D0F"/>
<path transform="translate(679,154)" d="m0 0 7 4 10 10 7 11 4 11 1 4v11l-3 10 7-6 4-8 1-5 3 3 3 8 1 12-3 10-6 8v9l-1 4 6-1 9-8 7-15 3 4 2 6 1 7v9l-3 11-7 14-8 8h-2l1 3 7 1 10-5 5-5v8l-4 12-6 7 10-4h2l-1 5-5 9-7 7-5 3h-2l2 9 3 16 2 4-5-1-3-1v-2h-2l-2 18-7 44-2 4-10 3-1 1-2 24-1 14-3 1-7-2-1-32-1-13-3-6-5-6-4-11-2-9-8-7-3-2 2 6-9-2-9-6-7-7-7-14-2-8v-7h-2v2l-9 7-9 4-12 1-10-4-6-6 1-2 4 3 10-1 10-6 6-7 5-12v-20l-4-11-7-8-9-4-5-2-1-2 2-1h10l13 4 7 7 2 4h2l-1-5-3-6h3l1-2 4 3v2l6 2 9 7 1 2-1-5-8-7-11-6 1-2h8l9 4 4 1-5-5-12-5-16-3h-10l-10 2-9 8-2 5-6 3-2 4v13l4 9 1 2-6-1-5-4-5-10v-12l4-12 10-13 11-9 10-6 16-7 2-1-17 2-17 4-12 5-12 9-7 10-2 7v12l3 12 3 9-5-3-7-8-8-16-2-7v-14l3-14 6-12 8-9 15-10 21-10 6-2v-2l-19 5-2-1 9-8 11-5 16-5 10-5 6-5 3 2-5 10-5 6-14 10-12 6 11-1 12-3 9-4h6l1-2 9-3 4-2 2-4 3-8 1-17 3 3 6 13 2 8v12l-1 6 9-3 8-7 3-5 1-5v-8l-4-13z" fill="#2B2424"/>
<path transform="translate(736,226)" d="m0 0 3 4 2 6 1 7v9l-3 11-7 14-8 8h-2l1 3 7 1 10-5 5-5v8l-4 12-6 7 10-4h2l-1 5-5 9-7 7-5 3h-2l2 9 3 16 2 4-5-1-3-1v-2h-2l-2 18-7 44-2 4-10 3-1 1-2 24-1 14-3 1-7-2-1-32-1-13-3-6-5-6-4-11-2-9-8-7-3-2v-2l-2-1v-2l-3-10 4 2 9 3h16l9-3 8-4 1-2-5 1h-15l-15-3-13-5-11-6-6-7-4-8-2-9 2-12 3 4 11 18 7 8 9 6 10 3h16l13-4 3-2h-12l-18-4-14-7-10-10-4-8 1-2 3 5 11 7 9 4h12l15-4 8-4-2 4-10 7-2 1-1 4 11-2 11-7 6-10 4-15-5 2-4 3-15 5-12 1-12-3-10-9-2-4 10 3 5 1h9l9-3 7-6 4-7-13 6h-16l-9-4-10-7-1-2 5 1 11 3h24l12-3 10-5 8-8 6-13-1-5-3-2 2-6z" fill="#0E0E10"/>
<path transform="translate(526,121)" d="m0 0h13l16 3 15 6 4 3h-2v3l-4-2-1-1h-7l-5-1h-19l-11 2-12 5-14 10-7 7-7 10-8 14-3 10v3l10-16 11-12 7-7 11-8 14-8 13-5 4-1 19-1v2h9l3 1 1 4-17 1-17 6-17 9-14 11-7 7-8 14-2 7v18l4 12 6 10 12 12 7 6 7 10 3 9-4-1-7-9-7-7-12-8-10-10-6-12-3-11-2-17-1 8v21l6 21 8 18 3 4-1 2-7-7-7-11-6-14-1-4 2 17 4 12 12 16 8 11-1 2-11-8-10-9-10-11-9-15-5-15-2-13v-14l3-17 6-16 9-15 9-14 1-3 1-14h1v10l10-8 15-8 11-3z" fill="#2B2424"/>
<path transform="translate(457,130)" d="m0 0 2 2-7 10-10 7-9 5 4 1 12-5 11-6 5-5 4-7 4 1v6l-6 9-4 5-20 14-9 8-9 14-4 11-1 15 4 16 6 10 11 11 14 10v1h-7l-15-6-11-8-11-14-7-15-3-11-1-8v-9l3-14v-2l-5 7-3 10v18l5 16 7 12 7 9 10 10 14 8 17 6-2 2-16 3-9 1h-15l-10-2 7 8 12 6 6 1v2l-11-1-11-3-10-7-5-4-8-10-4-10 1-3 6 7 14 7 20 4 9-1-16-7-10-8-8-8-8-13-5-14-1-5v-22l4-15 7-14 2-3h-1v-8h1v6l8-7 10-7 11-5 27-8z" fill="#2B2424"/>
<path transform="translate(679,154)" d="m0 0 7 4 10 10 7 11 4 11 1 4v11l-3 10 7-6 4-8 1-5 3 3 3 8 1 12-3 10-6 8v9l-1 4 5-1 3 2-8 4-4 1-7 3-5 1h-17v-2l10-4 11-8 3-4 2-8-5 5-12 7-9 3-6 1h-17l-31-5-15-1 4-3 10-5 10-2h15l19 3 10 3-5-5-11-5-18-4-17-2 2-2 26-9 12-6 10-8 4-5-1-2h-5l3-4 3-11v-8l-4-13z" fill="#0E0E10"/>
<path transform="translate(339,188)" d="m0 0 1 2-1 4 6 4 3 7 2 9 4 7 3 2 2 5 3 3-1 7 1 17v10l3 14 4 10 8 9 12 6 12 2-2 3-5 1h-12l-11-4-9-7-6-7-3-7 3 9 5 9 8 9 7 5 9 3v1l-9-1-12-6-8-7-8-11-5-12-2-10v-16l1-10-4-2-4-8-4-16v-9l3-14z" fill="#2B2424"/>
<path transform="translate(454,284)" d="m0 0 9 1 5 3 2 3 7 1v1l-15 1-10 3-8 5-7 8-4 8-1 4v16l3 10-5-3-7-8-3-7-7 4-8 5-7 2h-11l-9-4-1-7 13-3 11-4 12-7 7-6 8-12 9-8 8-4z" fill="#2A2424"/>
<path transform="translate(558,151)" d="m0 0h21l14 3 5 2-4 2-13 4-14 7-11 9-7 7-10 15-5 13-3 19h-1l-1-5v-18l3-15 8-15 4-5 11-8 12-5 9-2v-2l-16 4-19 9-11 9-8 14-1 2h-2v3h-2v-14l4-9 10-11 11-7 11-5z" fill="#2C2525"/>
<path transform="translate(536,131)" d="m0 0h21l3 1h8l3 5h-8v-2l-19 2-15 5-13 7-11 8-10 9-7 7-10 15-4 7h-1l1-9 5-12 9-14 11-12 14-10 12-5z" fill="#0D0D0F"/>
<path transform="translate(346,314)" d="m0 0 8 1 3 3-5 7v15l3 10 1 4-5-2-7-8-2-5 1-12-10 2v-2l2-1-2-1 1-4 7-5z" fill="#2C2525"/>
<path transform="translate(446,175)" d="m0 0h3l-1 8-5 14-1 6v16l1 10-3-1-5-11-2-10v-12l4-10 6-8z" fill="#2C2525"/>
<path transform="translate(652,155)" d="m0 0 3 3 6 13 2 8v12l-1 6h-2l-2-4-6-5v-2h-2l-1-2-2-1 3-8 1-3z" fill="#141214"/>
<path transform="translate(646,198)" d="m0 0h2v2l-11 7-17 6-27 5-6 1 4-3 29-9 14-4z" fill="#0D0D0F"/>
<path transform="translate(363,370)" d="m0 0 6 4 3 5v10l-3 10-5 5 2-12v-8l-2-10z" fill="#2C2525"/>
<path transform="translate(317,254)" d="m0 0 5 5 11 8 1 6-9-1-5-4-4-10z" fill="#2C2525"/>
<path transform="translate(513,274)" d="m0 0 4 3v2l4 2 8 5 6 4 3 4v2l-4 1-13-10-7-8z" fill="#2C2525"/>
<path transform="translate(701,197)" d="m0 0 2 3-2 9-3 5-8 7-3-1 4-5 7-17z" fill="#2C2525"/>
<path transform="translate(334,200)" d="m0 0 2 1v17l-1 6 1 1v6l-5-3-1-6v-9l1-7 2-1z" fill="#121112"/>
<path transform="translate(599,289)" d="m0 0 2 3-6 9-6 3-4-3 2-5 9-5z" fill="#2C2525"/>
<path transform="translate(357,339)" d="m0 0 3 3 6 9 6 5-2 1-7-3-5-6z" fill="#2C2525"/>
<path transform="translate(589,308)" d="m0 0h10l2 2-2 1h-9l-3-2z" fill="#241F1F"/>
<path transform="translate(578,328)" d="m0 0 5 2 10 1v1h-12l1 4-3-3z" fill="#2C2525"/>
</g>
</svg>
