<svg xmlns="http://www.w3.org/2000/svg" viewBox="0 0 1024 1024">
  <path fill="#6A4532" opacity="1.000000" stroke="none" d=" M317.961060,445.982819   C316.596558,437.211395 315.232056,428.439972 313.785919,419.233215   C312.597870,407.767181 311.483917,396.737183 310.387512,385.705505   C309.584991,377.630920 308.510986,369.569855 308.077698,361.474945   C307.198669,345.052734 306.147736,328.612946 306.106384,312.178070   C306.013367,275.217468 315.079010,240.600555 334.579803,209.006714   C352.861847,179.387375 378.554169,158.069107 409.692810,143.070786   C431.807953,132.418777 455.080170,125.665031 479.354187,121.835640   C497.523315,118.969330 515.768738,118.143478 533.974731,119.171410   C581.447266,121.851768 625.405457,135.565765 663.883606,164.196457   C690.498962,184.000336 708.583435,210.380875 719.938660,241.383469   C727.007202,260.682068 731.943909,280.582245 731.916138,301.226501   C731.889648,320.949829 731.026978,340.688721 729.946533,360.388672   C729.085510,376.089355 727.349487,391.742249 725.987976,407.415131   C725.687500,410.874237 725.328247,414.328278 725.029785,418.194214   C723.372437,427.782532 721.681396,436.961273 719.840332,446.886414   C718.185486,450.984894 716.680725,454.337006 715.175903,457.689117   C713.426697,433.816864 711.767334,409.937225 709.815125,386.081573   C709.569397,383.078308 708.217102,379.938904 706.632141,377.312408   C700.716797,367.510101 694.814941,357.668488 688.257263,348.296967   C684.456726,342.865509 682.896057,337.055481 681.955200,330.766998   C678.426392,307.180542 674.807312,283.607574 671.201416,260.032715   C670.704407,256.782928 670.090576,253.550980 669.418762,249.662140   C662.469238,250.607925 655.785645,251.422195 649.133301,252.440567   C628.485901,255.601349 607.853210,258.858612 587.209290,262.042267   C568.202454,264.973480 549.147095,267.616516 530.194336,270.860748   C520.139893,272.581818 510.389801,271.328705 500.555878,269.784393   C482.063446,266.880219 463.575317,263.948486 445.076660,261.084656   C428.536011,258.523926 411.985931,256.023621 395.435394,253.527390   C386.936279,252.245499 378.427032,251.030701 369.180389,249.676941   C367.426727,259.501984 365.571350,268.876038 364.107330,278.310822   C361.007660,298.286194 358.190063,318.305542 355.039948,338.272675   C354.620087,340.933685 353.245972,343.588623 351.784912,345.914124   C347.190613,353.226593 342.586151,360.555450 337.532196,367.550385   C331.609100,375.748260 328.769104,384.702606 328.151093,394.773346   C327.113251,411.684723 325.507233,428.562500 324.024872,445.444305   C323.678864,449.384491 322.869965,453.284027 321.851196,457.357697   C320.272614,453.669678 319.116852,449.826263 317.961060,445.982819  z"/>
</svg>
