<?xml version="1.0" encoding="UTF-8"?>
<svg xmlns="http://www.w3.org/2000/svg" viewBox="0 0 1024 1024" width="1024" height="1024">
  <path
     id="path2"
     fill="#35312D"
     stroke="none"
     d=" M841.986694,668.008240   C854.808960,687.046082 868.415894,705.612000 880.230286,725.256042   C891.787598,744.472778 901.517395,764.788757 912.271790,784.869629   C911.917419,786.584839 911.611328,788.244873 910.724915,789.492798   C863.933044,855.373108 804.472778,906.588318 732.474976,943.250549   C731.026184,943.988342 729.376953,944.332520 727.367920,944.517822   C726.125366,943.600525 725.396729,942.907104 724.538086,942.468201   C683.259705,921.366028 639.973145,906.122375 594.281372,897.930237   C552.412415,890.423462 510.301147,888.406250 467.874573,891.806213   C420.929962,895.568298 375.446747,905.586365 331.784576,923.243774   C315.933258,929.654236 300.593994,937.330994 285.021118,944.430054   C275.346954,939.310791 265.423981,934.608276 256.039032,929.004517   C194.935715,892.519775 144.279068,844.848328 103.988403,786.177551   C103.251076,785.103821 102.714355,783.892334 102.059494,782.390625   C111.335365,764.450867 119.790138,746.348083 130.151947,729.412170   C142.874725,708.617249 157.190689,688.797180 171.263809,668.286011   C172.161545,668.703430 172.707809,669.346558 173.051804,670.083923   C196.445404,720.235718 235.145294,755.088928 283.543121,780.018921   C332.325256,805.146851 384.751190,817.458679 438.989868,822.873718   C483.375336,827.304932 527.788513,827.471680 572.219177,823.145996   C630.250305,817.496216 686.021729,803.920776 737.477722,775.651611   C781.634094,751.392822 816.771301,718.087036 838.850708,672.092285   C839.577637,670.578125 840.927307,669.362854 841.986694,668.008240  z" />
  <path
     id="path3"
     fill="#FEFEFE"
     stroke="none"
     d=" M285.125336,944.740112   C300.593994,937.330994 315.933258,929.654236 331.784576,923.243774   C375.446747,905.586365 420.929962,895.568298 467.874573,891.806213   C510.301147,888.406250 552.412415,890.423462 594.281372,897.930237   C639.973145,906.122375 683.259705,921.366028 724.538086,942.468201   C725.396729,942.907104 726.125366,943.600525 726.996704,944.508728   C716.876099,949.897461 707.006592,955.840454 696.400757,959.822327   C674.655640,967.986694 652.772827,976.003174 630.455322,982.353760   C613.174255,987.271057 595.196533,989.851013 577.438416,992.955139   C549.868408,997.774170 521.958679,999.088074 494.098297,997.760620   C472.157867,996.715332 450.137177,994.624939 428.485718,991.003967   C406.319733,987.296814 384.405914,981.733582 362.677582,975.883789   C348.808472,972.149963 335.319397,966.813416 321.950256,961.469116   C309.510132,956.496216 297.454468,950.561584 285.125336,944.740112  z" />
  <path
     id="path4"
     fill="#fefefe"
     stroke="none"
     d="m 841.96265,667.6134 c -1.03534,1.74945 -2.38501,2.96472 -3.11194,4.47888 -22.07941,45.99476 -57.21662,79.30054 -101.37299,103.55933 -51.45599,28.26917 -107.22741,41.84461 -165.25854,47.49439 -44.43067,4.32568 -88.84384,4.15893 -133.22931,-0.27228 -54.23868,-5.41504 -106.66461,-17.72687 -155.44675,-42.8548 -48.39783,-24.92999 -87.09772,-59.7832 -110.49132,-109.935 -0.34399,-0.73736 -0.89026,-1.38049 -1.69554,-2.12811 -2.50653,-6.32245 -4.68811,-12.57465 -6.80743,-18.84802 -6.29586,-18.63605 -9.96698,-37.77319 -11.648,-57.38172 -3.19255,-37.24011 1.6308,-73.49237 12.32984,-109.14672 8.513,-28.36942 20.38949,-55.17167 36.44496,-80.09458 0.89651,-1.39166 1.52366,-2.95685 2.63977,-4.9249 6.62689,-9.27798 12.63536,-18.26751 19.19685,-26.83343 31.32982,-40.90082 70.2087,-72.87463 115.52941,-97.18121 2.25619,-1.21003 4.21164,-2.9809 6.30709,-4.49063 5.81775,-2.32715 11.74149,-4.42212 17.43531,-7.02088 27.35598,-12.48581 56.05041,-20.56511 85.55426,-25.81181 27.11032,-4.82105 54.59472,-5.67171 81.9292,-3.94098 42.37805,2.68326 83.12494,12.90272 121.83197,30.71623 4.80401,2.21085 9.77343,4.06214 15.11474,6.41654 1.67493,1.15057 2.84265,2.0747 4.13593,2.76288 51.5567,27.43316 94.78747,64.3561 128.27759,112.40853 3.02105,4.33472 6.2185,8.54657 9.33404,12.81546 3.17108,5.78882 6.3067,11.59738 9.51929,17.36313 18.2641,32.7797 31.3952,67.37458 37.64624,104.51145 3.28729,19.52996 5.44293,39.15136 4.73724,58.92425 -1.04266,29.21613 -6.35907,57.64136 -17.79937,84.73126 -0.56903,1.34754 -0.75971,2.85492 -1.10254,4.68274 M 570.26038,510.14526 c 5.61438,20.16541 14.61926,38.57758 28.87445,54.06946 22.07562,23.99085 48.35742,39.39002 82.05481,39.19489 55.57489,-0.32184 93.46197,-48.99396 79.78576,-102.56043 -6.21179,-24.33032 -19.75097,-44.2319 -37.7937,-61.1828 -22.16247,-20.82147 -47.46539,-35.14279 -78.66028,-37.20218 -36.3905,-2.40243 -66.34906,18.8223 -75.71197,54.04325 -4.71735,17.74557 -2.97351,35.31964 1.45093,53.63781 m -154.08597,51.52179 c 22.66366,-28.04266 33.7698,-59.74499 29.79468,-95.98309 -3.80869,-34.72089 -30.8089,-60.35706 -65.65671,-62.96054 -21.49378,-1.60584 -41.26492,3.88998 -59.73032,14.4722 -30.76318,17.62991 -54.42932,41.86383 -66.13664,75.82693 -10.82269,31.3967 -6.38573,60.7172 17.24199,85.22293 22.54284,23.38062 50.806,29.34235 81.77777,23.12989 25.50348,-5.11554 45.44586,-19.83838 62.70923,-39.70832 m -81.29737,90.34674 c 0.39515,-1.94323 1.02442,-3.87176 1.14771,-5.83209 0.83002,-13.19794 -7.06607,-21.12323 -17.43146,-26.72974 -15.76755,-8.5285 -32.77829,-10.02197 -50.32724,-7.06646 -10.2095,1.71948 -19.4247,5.63049 -27.66391,11.84063 -10.93805,8.24445 -14.02128,21.74 -6.41479,32.54877 3.40533,4.83893 8.45668,9.17035 13.70565,11.94532 19.84614,10.49182 40.80509,11.20507 61.82209,4.09124 10.48138,-3.54785 20.11438,-9.00146 25.16195,-20.79767 m 396.52872,-40.97308 c -11.04504,0.18469 -22.10095,1.08734 -32.02832,6.17828 -6.10199,3.12934 -12.20325,7.0987 -16.85113,12.0542 -10.3938,11.08155 -6.98047,26.88398 7.40466,36.66028 15.37457,10.44867 32.69824,12.54895 50.67432,10.62769 10.35797,-1.107 20.13964,-4.26477 28.88244,-10.21039 17.5379,-11.9267 18.07007,-30.50629 1.26532,-43.27838 -11.37536,-8.64563 -24.65179,-11.06562 -39.34729,-12.03168 M 463.49261,544.20386 c -2.60437,5.03619 -2.4841,10.17584 -0.81304,15.47455 2.46121,7.80432 7.59918,13.55127 13.91613,18.36804 26.55664,20.24981 53.06934,10.08124 68.76154,-10.25006 11.06341,-14.33411 5.40051,-29.46222 -11.96845,-34.22779 -0.7998,-0.21942 -1.60406,-0.43023 -2.41656,-0.59454 -15.01233,-3.03778 -30.11185,-2.85583 -45.17343,-0.7132 -8.4921,1.20807 -16.6351,3.62439 -22.30619,11.943" />
  <path
     id="path5"
     fill="#35312E"
     stroke="none"
     d=" M345.115845,268.777588   C343.253296,270.564331 341.297852,272.335205 339.041656,273.545227   C293.720947,297.851807 254.842072,329.825623 223.512253,370.726440   C216.950760,379.292358 210.942291,388.281891 204.354828,397.223267   C169.372818,371.522217 155.347290,331.478790 166.947693,291.496918   C187.248032,221.529938 272.315125,196.059357 325.984711,244.253204   C333.490051,250.992767 338.641785,260.353302 345.115845,268.777588  z" />
  <path
     id="path6"
     fill="#34312D"
     stroke="none"
     d=" M809.242371,397.185638   C805.846252,393.131683 802.648804,388.919830 799.627747,384.585114   C766.137634,336.532684 722.906860,299.609741 671.350159,272.176575   C670.056885,271.488403 668.889160,270.564270 667.575562,269.387238   C686.339661,232.343475 728.196472,213.671432 769.695862,221.170349   C809.074768,228.286087 842.032166,262.262726 848.039917,302.722382   C853.809692,341.578918 840.719788,373.056763 809.242371,397.185638  z" />
  <path
     id="path7"
     fill="#35302d"
     stroke="none"
     d="m 570.15906,509.74853 c -4.32312,-17.92144 -6.06696,-35.49551 -1.34961,-53.24108 9.36291,-35.22095 39.32147,-56.44568 75.71197,-54.04325 31.19489,2.05939 56.49781,16.38071 78.66028,37.20218 18.04273,16.9509 31.58191,36.85248 37.7937,61.1828 13.67621,53.56647 -24.21087,102.23859 -79.78576,102.56043 -33.69739,0.19513 -59.97919,-15.20404 -82.05481,-39.19489 -14.25519,-15.49188 -23.26007,-33.90405 -28.97577,-54.46619" />
  <path
     id="path8"
     fill="#35302d"
     stroke="none"
     d="m 415.95032,561.94122 c -17.03928,19.59577 -36.98166,34.31861 -62.48514,39.43415 -30.97177,6.21246 -59.23493,0.25073 -81.77777,-23.12989 -23.62772,-24.50573 -28.06468,-53.82623 -17.24199,-85.22293 11.70732,-33.9631 35.37346,-58.19702 66.13664,-75.82693 18.4654,-10.58222 38.23654,-16.07804 59.73032,-14.4722 34.84781,2.60348 61.84802,28.23965 65.65671,62.96054 3.97512,36.2381 -7.13102,67.94043 -30.01877,96.25726" />
  <path
     id="path9"
     fill="#F7B9B3"
     stroke="none"
     d=" M334.729645,652.382446   C329.829468,663.809998 320.196472,669.263611 309.715088,672.811462   C288.698090,679.925293 267.739136,679.212036 247.893005,668.720215   C242.644028,665.945251 237.592682,661.613831 234.187347,656.774902   C226.580856,645.966125 229.664093,632.470581 240.602142,624.226135   C248.841354,618.015991 258.056549,614.104980 268.266052,612.385498   C285.815002,609.429993 302.825745,610.923462 318.593292,619.451965   C328.958679,625.058472 336.854767,632.983765 336.024750,646.181702   C335.901459,648.142029 335.272186,650.070557 334.729645,652.382446  z" />
  <path
     id="path10"
     fill="#F7B9B3"
     stroke="none"
     d=" M731.875000,611.044434   C746.101257,612.006775 759.377686,614.426758 770.753052,623.072388   C787.557800,635.844482 787.025635,654.424072 769.487732,666.350769   C760.744934,672.296387 750.963257,675.454163 740.605286,676.561157   C722.629211,678.482422 705.305542,676.382141 689.930969,665.933472   C675.545837,656.157166 672.132507,640.354736 682.526306,629.273193   C687.174194,624.317688 693.275452,620.348328 699.377441,617.218994   C709.304810,612.128052 720.360718,611.225403 731.875000,611.044434  z" />
  <path
     id="path11"
     fill="#36312E"
     stroke="none"
     d=" M463.684998,543.883362   C469.163696,535.885254 477.306702,533.468933 485.798798,532.260864   C500.860382,530.118225 515.959900,529.936279 530.972229,532.974060   C531.784729,533.138367 532.588989,533.349182 533.388794,533.568604   C550.757751,538.334167 556.420654,553.462280 545.357239,567.796387   C529.665039,588.127686 503.152344,598.296265 476.595703,578.046448   C470.278748,573.229675 465.140778,567.482727 462.679565,559.678406   C461.008514,554.379700 460.888245,549.240051 463.684998,543.883362  z" />
</svg>
