<?xml version="1.0" encoding="UTF-8"?>
<svg xmlns="http://www.w3.org/2000/svg" viewBox="0 0 985 958">
  <g id="sclera-02" transform="translate(-12,-57)">
    <path
      id="sclera-02-left-eye"
      fill="#504035"
      opacity="1.000000"
      stroke="none"
      d=" M333.848846,552.856812   C322.463593,528.625793 333.776947,504.255890 349.234009,493.816223   C377.155212,474.958160 418.628357,489.832733 425.250092,521.156433   C433.619568,560.747986 403.032959,582.834412 373.635406,579.541504   C371.004669,579.246826 368.410889,578.621948 365.070190,578.019043   C350.891846,573.545471 340.851837,565.050903 333.848846,552.856812  M408.203888,521.561523   C409.739838,512.563049 403.592316,505.126709 394.812378,505.362427   C388.677399,505.527130 382.958801,510.665375 382.170349,516.721558   C381.418945,522.492920 385.275757,528.101135 391.241638,529.912292   C398.357880,532.072693 404.777130,529.162048 408.203888,521.561523  M362.010559,546.072632   C363.077301,550.410522 366.281281,552.883301 370.288086,552.533447   C373.195190,552.279541 376.567322,550.432373 378.549713,548.230957   C381.118683,545.378113 380.214600,541.565063 377.828064,538.607544   C375.319244,535.498413 371.880524,534.263794 368.026062,535.561707   C363.496826,537.086975 361.639862,540.565796 362.010559,546.072632  z"
    />
    <path
      id="sclera-02-left-highlight-1"
      fill="#F7F6F4"
      opacity="1.000000"
      stroke="none"
      d=" M408.105225,521.936157   C404.777130,529.162048 398.357880,532.072693 391.241638,529.912292   C385.275757,528.101135 381.418945,522.492920 382.170349,516.721558   C382.958801,510.665375 388.677399,505.527130 394.812378,505.362427   C403.592316,505.126709 409.739838,512.563049 408.105225,521.936157  z"
    />
    <path
      id="sclera-02-left-highlight-2"
      fill="#F7F6F4"
      opacity="1.000000"
      stroke="none"
      d=" M361.973145,545.666870   C361.639862,540.565796 363.496826,537.086975 368.026062,535.561707   C371.880524,534.263794 375.319244,535.498413 377.828064,538.607544   C380.214600,541.565063 381.118683,545.378113 378.549713,548.230957   C376.567322,550.432373 373.195190,552.279541 370.288086,552.533447   C366.281281,552.883301 363.077301,550.410522 361.973145,545.666870  z"
    />
    <path
      id="sclera-02-right-eye"
      fill="#4F3F33"
      opacity="1.000000"
      stroke="none"
      d=" M626.000000,580.002319   C615.920349,578.345215 606.324768,575.734558 598.068481,569.100220   C582.150879,556.309631 575.909790,536.644104 582.244568,517.774597   C588.733093,498.446838 605.914307,486.026672 626.424988,485.836670   C649.831970,485.619843 668.293091,497.864258 675.570679,518.510193   C676.337341,520.685364 676.728088,522.993103 677.427185,525.861206   C677.723267,526.982971 677.885437,527.482849 678.047729,527.982788   C678.024109,531.682251 678.000488,535.381775 677.892090,539.896973   C676.197021,545.805420 674.586609,550.898071 672.705688,556.192627   C669.278564,560.224060 666.497681,564.457886 662.894043,567.806335   C652.534424,577.432373 639.790955,580.443787 626.000000,580.002319  M637.507019,528.090393   C646.528870,534.324036 657.678101,530.666199 658.900269,521.071716   C659.663452,515.079834 656.131958,509.494232 650.030945,507.043488   C644.592468,504.858978 638.525757,506.777679 635.159058,511.747162   C631.740234,516.793518 632.358765,522.218811 637.507019,528.090393  M613.126221,539.820312   C613.003662,540.472351 612.882751,541.124695 612.758362,541.776367   C611.938904,546.070007 613.483521,549.268188 617.408813,551.116028   C621.494019,553.039185 625.295471,552.281860 628.230103,548.891724   C631.091431,545.586243 630.838501,541.788757 628.637939,538.263123   C625.066833,532.541748 618.249573,532.994751 613.126221,539.820312  z"
    />
    <path
      id="sclera-02-right-highlight-1"
      fill="#F7F6F4"
      opacity="1.000000"
      stroke="none"
      d=" M637.234863,527.829102   C632.358765,522.218811 631.740234,516.793518 635.159058,511.747162   C638.525757,506.777679 644.592468,504.858978 650.030945,507.043488   C656.131958,509.494232 659.663452,515.079834 658.900269,521.071716   C657.678101,530.666199 646.528870,534.324036 637.234863,527.829102  z"
    />
    <path
      id="sclera-02-right-highlight-2"
      fill="#F9F3EF"
      opacity="1.000000"
      stroke="none"
      d=" M613.284485,539.477478   C618.249573,532.994751 625.066833,532.541748 628.637939,538.263123   C630.838501,541.788757 631.091431,545.586243 628.230103,548.891724   C625.295471,552.281860 621.494019,553.039185 617.408813,551.116028   C613.483521,549.268188 611.938904,546.070007 612.758362,541.776367   C612.882751,541.124695 613.003662,540.472351 613.284485,539.477478  z"
    />
  </g>
</svg>
