<?xml version="1.0" encoding="UTF-8"?>
<svg xmlns="http://www.w3.org/2000/svg" viewBox="0 0 985 958">
  <g id="sclera-05" transform="translate(-10,-22) translate(492,510) scale(0.92) translate(-492,-510)">
    <path
      id="sclera-05-shape"
      fill="#362F2E"
      opacity="1.000000"
      stroke="none"
      d="M406.042480,515.573547 C392.613434,532.624573 374.590302,539.488525 353.192078,540.698975 C340.079498,540.192078 328.195190,537.610718 317.323059,530.470520 C309.314331,525.394226 303.910980,518.372437 299.090149,510.809265 C297.808258,506.013977 295.781281,501.265747 295.474792,496.408905 C295.219086,492.356567 296.201111,487.749084 298.142792,484.216125 C299.285645,482.136597 303.501038,480.531525 306.090393,480.830109 C308.320099,481.087219 311.228485,483.972931 312.081085,486.331207 C319.981537,508.183655 340.441742,519.466492 363.344696,514.480774 C371.271057,512.755249 378.653168,510.073486 384.934265,504.869598 C390.492493,500.264618 394.490784,494.532196 394.985718,487.182648 C395.312988,482.322327 396.960480,479.200287 401.983276,478.514771 C406.531555,477.894043 411.656677,480.537628 412.362823,485.143951 C413.196716,490.583649 413.341095,496.419800 412.257935,501.775330 C411.305481,506.484344 408.247711,510.767548 406.042480,515.573547 z"
    />
    <path
      id="sclera-05-shape-right"
      fill="#362F2E"
      opacity="1.000000"
      stroke="none"
      d="M608.977112,507.050751 C606.890686,500.475800 604.665833,493.939545 602.807983,487.300598 C602.297485,485.476501 602.590637,483.278076 603.027344,481.368561 C604.021423,477.021301 606.298889,473.657257 611.232849,473.273041 C615.849548,472.913544 618.501648,475.733063 619.584045,479.680878 C623.414612,493.651794 633.202209,501.154510 646.404724,505.166595 C661.672485,509.806244 676.369080,508.754303 689.754639,499.711243 C697.393066,494.550781 703.008240,487.741089 703.110718,477.583099 C703.130432,475.622711 705.345642,472.325775 706.972046,472.037537 C709.899780,471.518677 713.630005,472.006195 716.156982,473.521179 C720.667114,476.225067 720.647400,481.383270 720.521667,486.071869 C720.260559,495.801849 717.309631,504.636993 710.766113,512.780396 C707.084839,516.297058 704.075989,519.741577 700.433594,522.275452 C687.383911,531.353638 672.790833,534.787537 656.587158,533.091675 C637.367554,529.949768 620.399719,523.543396 608.977112,507.050751 z"
    />
  </g>
</svg>
