<?xml version="1.0" encoding="UTF-8"?>
<svg xmlns="http://www.w3.org/2000/svg" viewBox="0 0 985 958">
  <g id="sclera-04" transform="translate(-10,-44) translate(492,520) rotate(2) scale(0.95) translate(-492,-520)">
    <path
      id="sclera-04-left-eye"
      fill="#483D3B"
      opacity="1.000000"
      stroke="none"
      d="M316.675812,530.711914 C336.732147,497.493500 382.115234,487.801575 410.902161,514.489929 C414.280914,517.622375 417.125427,521.392395 419.876923,525.118408 C421.680389,527.560608 422.871002,530.581482 420.299622,533.305481 C417.704102,536.055054 415.023773,534.440125 412.108490,533.343689 C402.388611,529.687988 392.779205,524.946472 382.685242,523.245728 C363.041748,519.935974 346.631927,527.964783 332.690918,541.508850 C330.784515,543.360962 329.195007,545.538696 327.293427,547.396423 C323.855011,550.755310 319.043610,551.468872 315.440369,549.266174 C311.071259,546.595215 311.580597,542.691101 313.032776,538.734314 C314.000214,536.098267 315.317993,533.590881 316.675812,530.711914 z"
    />
    <path
      id="sclera-04-right-eye"
      transform="translate(0,14)"
      fill="#483D3B"
      opacity="1.000000"
      stroke="none"
      d="M614.666992,516.637756 C612.680298,518.190186 611.144470,520.097412 609.210571,520.677612 C606.761719,521.412231 603.348145,522.046509 601.560913,520.875977 C600.155823,519.955750 599.554382,515.780090 600.404297,513.844604 C602.516846,509.033447 605.158997,504.265045 608.473633,500.201538 C634.566711,468.213379 685.977295,471.113007 708.425354,505.708160 C709.685486,507.650269 710.811646,509.713501 711.725281,511.838501 C713.266113,515.422058 713.629822,519.147217 710.278625,521.875549 C707.013000,524.534180 703.286926,524.677673 699.658630,522.263062 C698.555542,521.528931 697.420166,520.824097 696.406189,519.978088 C669.605286,497.618195 643.540039,496.467773 614.666992,516.637756 z"
    />
  </g>
</svg>
