<?xml version="1.0" encoding="UTF-8"?>
<svg xmlns="http://www.w3.org/2000/svg" viewBox="0 0 985 958">
  <g id="sclera-03" transform="translate(-10,-48)">
    <path
      id="sclera-03-left-eye"
      fill="#514445"
      opacity="1.000000"
      stroke="none"
      d=" M344.170563,512.553711   C341.104950,510.378235 339.019623,507.616241 340.215149,503.698914   C341.443329,499.674469 344.787354,498.175995 348.682648,497.921234   C374.096558,496.259033 396.872009,503.365417 416.741028,519.195374   C422.288605,523.615234 427.092285,529.020569 431.929138,534.258362   C434.286407,536.811096 436.281342,540.054016 433.908356,543.715393   C431.395142,547.593079 427.565521,547.596619 423.677673,546.425049   C404.792786,540.734192 385.946594,541.511841 367.230103,546.997070   C361.529419,548.667725 356.223572,551.701538 350.511505,553.311035   C347.469330,554.168152 343.587128,554.183960 340.733612,553.006042   C337.475586,551.661133 337.188080,548.101074 339.260590,544.283447   C342.291473,541.834412 344.776520,539.571655 347.659943,538.077881   C359.072601,532.165649 371.400604,529.107056 384.463196,527.067871   C389.439972,527.125732 393.953857,527.125732 398.467743,527.125732   C398.556610,526.643616 398.645477,526.161438 398.734344,525.679321   C394.799652,523.674683 390.864990,521.670044 386.621033,519.425964   C379.861145,517.302002 373.516846,514.715088 366.931885,513.718750   C359.457153,512.587769 351.767029,512.880127 344.170563,512.553711  z"
    />
    <path
      id="sclera-03-right-eye"
      fill="#504444"
      opacity="1.000000"
      stroke="none"
      d=" M685.043457,543.879272   C686.835205,547.228699 686.442017,550.279419 683.710510,552.940552   C680.882568,555.695557 677.685669,555.330444 674.472168,553.793701   C661.776794,547.722717 648.661072,542.528870 634.437195,542.802002   C623.041626,543.020874 611.656616,544.784973 600.313904,546.231689   C596.328064,546.740112 592.600525,547.465881 590.095825,543.527893   C587.504089,539.453247 589.913025,536.149963 592.402222,533.205139   C605.571899,517.625000 622.294678,507.655060 641.745483,501.847565   C652.726013,498.569061 663.826782,497.008820 675.241821,497.929626   C683.095215,498.563141 685.903564,503.011810 682.607483,510.512878   C679.385864,513.712646 676.018494,514.399414 672.264526,513.925232   C661.475525,512.562500 651.059021,513.997620 640.665649,518.195068   C635.216980,520.769104 630.127625,523.342896 624.904053,525.984558   C633.308167,526.746704 641.118530,527.455017 649.225342,528.388367   C662.223267,531.698914 674.639771,535.447266 685.043457,543.879272  z"
    />
  </g>
</svg>
