<?xml version="1.0" encoding="UTF-8"?>
<svg xmlns="http://www.w3.org/2000/svg" viewBox="0 0 985 958">
  <g id="sclera-01">
    <path
      id="sclera-01-left-eye"
      fill="#5A5148"
      opacity="1.000000"
      stroke="none"
      d=" M363.462860,524.707520   C342.754700,521.211243 328.460754,510.239624 323.229462,490.146210   C315.012878,458.586243 340.857849,430.374268 374.421326,433.395905   C399.533722,435.656708 418.533112,456.256714 417.746094,480.370605   C416.944305,504.936401 397.085052,524.063660 371.401245,524.954163   C368.909760,525.040527 366.408234,524.836426 363.462860,524.707520  M379.001404,455.345856   C370.839447,459.835388 370.209808,473.356171 380.610077,477.948395   C385.811920,480.245239 392.302490,478.384796 395.800232,473.764313   C399.130005,469.365601 399.105164,462.800598 395.742096,458.416412   C391.918457,453.431824 386.624573,452.300720 379.001404,455.345856  z"
    />
    <path
      id="sclera-01-left-highlight"
      fill="#F9F8F7"
      opacity="1.000000"
      stroke="none"
      d=" M379.331482,455.163239   C386.624573,452.300720 391.918457,453.431824 395.742096,458.416412   C399.105164,462.800598 399.130005,469.365601 395.800232,473.764313   C392.302490,478.384796 385.811920,480.245239 380.610077,477.948395   C370.209808,473.356171 370.839447,459.835388 379.331482,455.163239  z"
    />
    <path
      id="sclera-01-right-eye"
      fill="#584F46"
      opacity="1.000000"
      stroke="none"
      d=" M633.808105,436.162048   C663.685242,448.597412 673.941711,482.659607 654.951721,506.621826   C641.963440,523.010986 624.285339,528.178101 604.425049,523.527344   C585.666992,519.134705 572.603882,507.345428 568.751709,487.916901   C562.526062,456.517426 588.602295,430.110199 621.787964,433.405579   C625.719788,433.796021 629.557068,435.138580 633.808105,436.162048  M621.910217,458.525177   C618.414612,463.603455 618.334839,468.782074 621.809082,473.827942   C624.613586,477.901001 628.819336,479.387695 633.566711,478.730896   C638.910400,477.991638 642.729431,475.060638 644.390625,469.731201   C646.039185,464.441986 643.770935,458.402191 639.038513,455.406433   C633.633728,451.985016 627.929993,452.847565 621.910217,458.525177  z"
    />
    <path
      id="sclera-01-right-highlight"
      fill="#F9F7F6"
      opacity="1.000000"
      stroke="none"
      d=" M622.133911,458.227112   C627.929993,452.847565 633.633728,451.985016 639.038513,455.406433   C643.770935,458.402191 646.039185,464.441986 644.390625,469.731201   C642.729431,475.060638 638.910400,477.991638 633.566711,478.730896   C628.819336,479.387695 624.613586,477.901001 621.809082,473.827942   C618.334839,468.782074 618.414612,463.603455 622.133911,458.227112  z"
    />
  </g>
</svg>
