<?xml version="1.0" encoding="UTF-8"?>
<svg xmlns="http://www.w3.org/2000/svg" viewBox="0 0 985 958">
  <g id="sclera-06">
    <path
      id="sclera-06-left-eye"
      fill="#5A5148"
      opacity="1.000000"
      stroke="none"
      d="M363.462860,524.707520 C342.754700,521.211243 328.460754,510.239624 323.229462,490.146210 C315.012878,458.586243 340.857849,430.374268 374.421326,433.395905 C399.533722,435.656708 418.533112,456.256714 417.746094,480.370605 C416.944305,504.936401 397.085052,524.063660 371.401245,524.954163 C368.909760,525.040527 366.408234,524.836426 363.462860,524.707520 M379.001404,455.345856 C370.839447,459.835388 370.209808,473.356171 380.610077,477.948395 C385.811920,480.245239 392.302490,478.384796 395.800232,473.764313 C399.130005,469.365601 399.105164,462.800598 395.742096,458.416412 C391.918457,453.431824 386.624573,452.300720 379.001404,455.345856 z"
    />
    <path
      id="sclera-06-left-highlight"
      fill="#F9F8F7"
      opacity="1.000000"
      stroke="none"
      d="M379.331482,455.163239 C386.624573,452.300720 391.918457,453.431824 395.742096,458.416412 C399.105164,462.800598 399.130005,469.365601 395.800232,473.764313 C392.302490,478.384796 385.811920,480.245239 380.610077,477.948395 C370.209808,473.356171 370.839447,459.835388 379.331482,455.163239 z"
    />
    <path
      id="sclera-06-right-eye-wink"
      transform="translate(-10,-48)"
      fill="#504444"
      opacity="1.000000"
      stroke="none"
      d="M685.043457,543.879272 C686.835205,547.228699 686.442017,550.279419 683.710510,552.940552 C680.882568,555.695557 677.685669,555.330444 674.472168,553.793701 C661.776794,547.722717 648.661072,542.528870 634.437195,542.802002 C623.041626,543.020874 611.656616,544.784973 600.313904,546.231689 C596.328064,546.740112 592.600525,547.465881 590.095825,543.527893 C587.504089,539.453247 589.913025,536.149963 592.402222,533.205139 C605.571899,517.625000 622.294678,507.655060 641.745483,501.847565 C652.726013,498.569061 663.826782,497.008820 675.241821,497.929626 C683.095215,498.563141 685.903564,503.011810 682.607483,510.512878 C679.385864,513.712646 676.018494,514.399414 672.264526,513.925232 C661.475525,512.562500 651.059021,513.997620 640.665649,518.195068 C635.216980,520.769104 630.127625,523.342896 624.904053,525.984558 C633.308167,526.746704 641.118530,527.455017 649.225342,528.388367 C662.223267,531.698914 674.639771,535.447266 685.043457,543.879272 z"
    />
  </g>
</svg>
