<?xml version="1.0" encoding="UTF-8"?>
<svg xmlns="http://www.w3.org/2000/svg" viewBox="0 0 1024 1024">
  <g id="brow-01">
    <g id="brow-01-right" transform="translate(20, 0)">
      <path
        id="brow-01-right-path"
        fill="#F0DEBA"
        opacity="1.000000"
        stroke="none"
        d=" M616.087158,497.968079   C610.816406,496.242432 605.682007,495.129974 601.165649,492.812805   C593.654419,488.959167 588.537781,482.998077 589.034790,473.853485   C589.502014,465.255890 595.145874,460.679901 602.312378,457.370331   C617.003296,450.585846 646.137390,458.218628 655.060120,471.219086   C662.491577,482.046661 658.163818,494.269928 645.483948,497.855774   C635.875732,500.572906 626.179871,500.793884 616.087158,497.968079  z"
      />
    </g>
    <g id="brow-01-left" transform="translate(1024,0) scale(-1,1) translate(20, 0)">
      <path
        id="brow-01-left-path"
        fill="#F0DEBA"
        opacity="1.000000"
        stroke="none"
        d=" M616.087158,497.968079   C610.816406,496.242432 605.682007,495.129974 601.165649,492.812805   C593.654419,488.959167 588.537781,482.998077 589.034790,473.853485   C589.502014,465.255890 595.145874,460.679901 602.312378,457.370331   C617.003296,450.585846 646.137390,458.218628 655.060120,471.219086   C662.491577,482.046661 658.163818,494.269928 645.483948,497.855774   C635.875732,500.572906 626.179871,500.793884 616.087158,497.968079  z"
      />
    </g>
  </g>
</svg>
