<?xml version="1.0" encoding="UTF-8"?>
<svg xmlns="http://www.w3.org/2000/svg" viewBox="0 0 1024 1024">
  <g id="brow-02">
    <g id="brow-02-right" transform="translate(2, 60)">
      <path
        id="brow-02-right-path"
        fill="#F2E0BD"
        opacity="1.000000"
        stroke="none"
        d=" M397.160339,401.905304   C405.617859,398.774017 413.912201,398.952789 421.895599,401.567261   C434.064178,405.552338 443.604279,413.054321 448.973755,425.021545   C454.061707,436.361328 448.604309,447.124939 436.547150,449.911621   C419.881958,453.763367 396.789246,442.291901 389.856323,426.580170   C385.847015,417.494110 387.127289,406.428741 397.160339,401.905304  z"
      />
    </g>
    <g id="brow-02-left" transform="translate(1024,0) scale(-1,1) translate(2, 60)">
      <path
        id="brow-02-left-path"
        fill="#F2E0BD"
        opacity="1.000000"
        stroke="none"
        d=" M397.160339,401.905304   C405.617859,398.774017 413.912201,398.952789 421.895599,401.567261   C434.064178,405.552338 443.604279,413.054321 448.973755,425.021545   C454.061707,436.361328 448.604309,447.124939 436.547150,449.911621   C419.881958,453.763367 396.789246,442.291901 389.856323,426.580170   C385.847015,417.494110 387.127289,406.428741 397.160339,401.905304  z"
      />
    </g>
  </g>
</svg>
