<svg xmlns="http://www.w3.org/2000/svg" viewBox="0 0 1024 1024">
  <path fill="#815643" opacity="1" stroke="none" d="m 533.28429,604.77679 c 12.23464,-2.51894 24.28586,-4.68636 35.72791,-9.99656 1.47047,-0.68245 6.28706,1.88001 6.26904,2.87805 -0.05325,2.94837 -0.96407,7.48888 -2.95813,8.49130 -5.97173,3.00174 -12.48534,5.26271 -19.02599,6.65728 -26.57763,5.66669 -53.00439,4.82234 -79.08824,-3.19667 -1.92943,-0.59320 -3.71085,-1.66904 -5.59053,-2.44689 -4.07285,-1.68551 -7.65198,-3.59587 -5.17596,-9.13176 2.41983,-5.41028 6.20634,-3.89020 10.27986,-2.40281 7.18596,2.62386 15.26654,5.11911 22.58097,7.33951 0.49007,0.14877 18.11834,5.69213 36.98108,1.80856 z"/>
</svg>
