<svg xmlns="http://www.w3.org/2000/svg" viewBox="0 0 1024 1024">
  <path fill="#C2603D" opacity="1.000000" stroke="none" d=" M484.262054,597.540405   C479.502655,595.249878 474.907318,593.441345 470.811432,590.844910   C469.567017,590.055969 468.972351,586.894348 469.435974,585.187744   C469.803009,583.836670 472.216309,582.245667 473.768951,582.193604   C476.283539,582.109436 478.857147,583.127136 481.370972,583.808350   C487.679535,585.517761 493.930084,587.458435 500.279541,588.993652   C504.262512,589.956665 508.377655,590.384460 512.441589,590.999146   C526.589172,593.138977 540.108826,590.123230 553.029602,584.909973   C559.935974,582.123413 566.219177,577.679932 572.553345,573.624573   C577.368164,570.541992 580.258606,570.110291 582.452881,573.107727   C584.747437,576.242126 583.887390,580.499695 579.850159,583.394714   C574.608826,587.153259 569.437073,591.248840 563.658142,593.976379   C537.912354,606.127869 511.476776,607.278076 484.262054,597.540405  z"/>
</svg>
