<svg xmlns="http://www.w3.org/2000/svg" viewBox="0 0 1024 1024">
  <g transform="translate(525, 587) scale(0.85) translate(-525, -587) translate(0, 15)">
    <path fill="#B85C3E" opacity="1.000000" stroke="none" d=" M514.706848,635.156372   C485.081329,632.021118 461.851776,619.245850 447.859558,592.757507   C443.026672,583.608459 439.316467,573.636658 436.661011,563.624878   C433.302948,550.964294 438.780396,543.040466 451.629608,542.178345   C464.664886,541.303650 477.852570,541.735107 490.918854,542.512939   C510.867401,543.700439 530.748901,543.903076 550.683716,542.319458   C564.763428,541.200928 578.893799,540.716980 593.003723,539.990845   C594.321899,539.922974 595.680420,540.018250 596.977905,540.262573   C612.685791,543.220215 617.134949,550.027893 612.977966,565.789612   C607.641541,586.023010 598.353149,604.082886 581.362427,617.058411   C567.168152,627.898315 551.044250,634.242371 533.021729,635.039978   C527.076416,635.303101 521.113281,635.165771 514.706848,635.156372  M477.130524,612.633728   C478.381561,613.882507 479.411438,615.680664 480.920593,616.288330   C489.018494,619.548950 497.033020,623.331177 505.451935,625.417358   C525.843811,630.470215 545.592957,627.090393 564.431152,618.405457   C567.820435,616.843079 570.344238,613.403381 573.908936,610.731812   C574.364746,610.540649 574.941467,610.467224 575.258911,610.141357   C584.646545,600.503479 594.232178,590.800293 599.893372,578.519958   C602.998840,571.783447 603.723450,563.862671 604.934326,556.380859   C605.443542,553.234497 604.379395,549.888977 599.029663,550.019409   C597.072937,549.678223 595.105103,548.990112 593.161377,549.052612   C581.395630,549.430847 569.636414,550.007202 557.873047,550.466797   C541.784424,551.095520 525.691040,552.228638 509.605194,552.140442   C490.210266,552.034119 470.821106,550.874634 450.626343,550.153931   C446.065155,550.297852 443.398346,553.038391 444.212830,557.178528   C445.767456,565.081299 447.114838,573.368591 450.646515,580.449707   C454.862701,588.903320 461.069977,596.418640 466.839691,604.017700   C469.414093,607.408325 471.532349,611.950867 477.130524,612.633728  z"/>
    <path fill="#FCF3E6" opacity="1.000000" stroke="none" d=" M599.436768,550.067017   C599.982971,556.435120 596.397095,560.886108 591.144470,562.846191   C580.019287,566.997864 568.767212,571.587158 557.155640,573.502747   C529.332397,578.092712 501.421936,577.212585 474.020264,569.872986   C468.332367,568.349487 462.912628,565.565186 457.635559,562.845337   C453.012482,560.462524 450.742310,556.289734 451.280212,550.544678   C470.821106,550.874634 490.210266,552.034119 509.605194,552.140442   C525.691040,552.228638 541.784424,551.095520 557.873047,550.466797   C569.636414,550.007202 581.395630,549.430847 593.161377,549.052612   C595.105103,548.990112 597.072937,549.678223 599.436768,550.067017  z"/>
    <path fill="#85372B" opacity="1.000000" stroke="none" d=" M599.843933,550.114624   C604.379395,549.888977 605.443542,553.234497 604.934326,556.380859   C603.723450,563.862671 602.998840,571.783447 599.893372,578.519958   C594.232178,590.800293 584.646545,600.503479 575.258911,610.141357   C574.941467,610.467224 574.364746,610.540649 573.378906,610.508301   C571.173035,608.959351 569.623596,607.419739 567.800476,606.343628   C557.161499,600.063721 545.526123,597.443970 533.273376,596.648254   C512.692688,595.311646 493.363159,598.145203 476.952545,611.951416   C471.532349,611.950867 469.414093,607.408325 466.839691,604.017700   C461.069977,596.418640 454.862701,588.903320 450.646515,580.449707   C447.114838,573.368591 445.767456,565.081299 444.212830,557.178528   C443.398346,553.038391 446.065155,550.297852 450.878662,550.536133   C450.742310,556.289734 453.012482,560.462524 457.635559,562.845337   C462.912628,565.565186 468.332367,568.349487 474.020264,569.872986   C501.421936,577.212585 529.332397,578.092712 557.155640,573.502747   C568.767212,571.587158 580.019287,566.997864 591.144470,562.846191   C596.397095,560.886108 599.982971,556.435120 599.843933,550.114624  z"/>
    <path fill="#E17362" opacity="1.000000" stroke="none" d=" M477.041534,612.292603   C493.363159,598.145203 512.692688,595.311646 533.273376,596.648254   C545.526123,597.443970 557.161499,600.063721 567.800476,606.343628   C569.623596,607.419739 571.173035,608.959351 573.058289,610.557617   C570.344238,613.403381 567.820435,616.843079 564.431152,618.405457   C545.592957,627.090393 525.843811,630.470215 505.451935,625.417358   C497.033020,623.331177 489.018494,619.548950 480.920593,616.288330   C479.411438,615.680664 478.381561,613.882507 477.041534,612.292603  z"/>
  </g>
</svg>
