<svg xmlns="http://www.w3.org/2000/svg" viewBox="0 0 1024 1024">
  <g transform="translate(517, 575) scale(0.88) translate(-517, -575) translate(10, 25)">
  <path fill="#e56f5c" opacity="1" stroke="none" d="m 449.02011,566.41113 c 6.76843,-1.23791 14.54926,-2.66241 21.30197,-3.98071 7.6344,-1.49042 15.18582,-3.63 22.88462,-4.48578 4.9194,-0.54681 10.1629,0.1991 15.03298,1.33954 3.98438,0.93304 7.5965,1.90173 11.49335,-0.0178 9.82526,-4.83972 20.0398,-3.75733 30.14838,-1.3805 10.7265,2.52198 22.41205,4.49952 33.72369,2.63489 -3.3338,2.28754 -7.74811,4.89795 -11.60339,6.14417 -28.22308,9.12347 -56.91785,14.21948 -86.68277,9.24731 -12.1174,-2.02417 -25.26785,-3.58563 -36.29883,-9.5011 z"/>
  <path fill="#B73F34" opacity="1.000000" stroke="none" d=" M449.648926,566.122559   C461.051086,572.076599 473.201538,573.888062 485.318939,575.912231   C515.083862,580.884399 543.778625,575.788391 572.001709,566.664917   C575.856995,565.418701 579.271301,562.808289 583.030029,560.527222   C585.546997,559.122009 587.832031,557.631836 590.329773,557.040527   C592.277893,556.579346 594.490601,557.235474 596.585693,557.395081   C595.680481,559.236389 595.149597,561.450562 593.778076,562.827393   C591.943787,564.668823 589.457764,565.861084 586.992798,567.556335   C577.835632,571.023621 569.054016,574.645203 560.015503,577.434509   C538.298706,584.136230 516.073425,585.005981 493.485748,583.387512   C478.061401,582.282410 463.448853,578.321716 448.421906,573.961304   C445.657318,572.463013 443.016266,571.263916 441.014496,569.384094   C439.614166,568.069092 437.897766,565.332764 438.409546,564.092041   C439.608643,561.185120 442.285004,561.875732 444.635529,563.427063   C446.120544,564.407227 447.726196,565.204590 449.648926,566.122559  z"/>
  <path fill="#e56f5c" opacity="1" stroke="none" d="m 587.23407,566.53052 c -0.70874,1.6355 -1.56665,4.82391 -2.67853,6.1112 -17.8302,20.64435 -39.86401,33.52222 -67.57904,34.23542 -21.49338,0.55304 -39.97647,-8.00074 -56.23798,-21.66864 -4.17761,-3.51136 -8.67169,-7.96741 -12.55636,-11.81507 14.89169,4.05329 29.87924,8.88898 45.30359,9.99408 22.58768,1.61847 44.81296,0.74872 66.52975,-5.953 9.03852,-2.78931 18.32013,-7.66089 27.21857,-10.90399 z"/>  </g>
</svg>
