<svg xmlns="http://www.w3.org/2000/svg" viewBox="0 0 1024 1024">
  <path fill="#A04F37" opacity="1.000000" stroke="none" d=" M462.719818,566.168945   C502.272736,573.043701 540.647644,571.195618 577.906616,556.336182   C579.913879,555.535583 581.937988,554.669739 584.037048,554.224792   C593.487366,552.221252 600.634033,558.688171 599.372009,568.294983   C597.587769,581.877686 590.281006,592.378052 580.231995,601.202759   C549.984863,627.764832 499.710541,625.691589 472.092987,605.634949   C465.009277,600.490601 459.639923,592.883667 453.894379,586.061584   C452.205139,584.055908 451.435486,580.920776 451.097351,578.197327   C449.996948,569.335388 453.285461,565.955566 462.719818,566.168945  M487.597321,591.048584   C494.281647,592.025208 500.944550,593.582947 507.655792,593.830627   C515.933594,594.136047 524.257996,593.468079 532.550781,593.011353   C546.217773,592.258545 558.831909,587.943665 570.401917,580.793823   C577.722107,576.270264 580.279053,568.977295 578.100586,559.970703   C543.674011,574.080811 507.847595,576.191711 471.613251,571.531311   C470.883667,583.201477 477.879303,587.866638 487.597321,591.048584  M535.438049,595.995850   C523.196533,597.048706 510.896545,597.674866 498.738953,599.340576   C492.955658,600.132935 486.560913,600.836548 481.435577,606.540649   C484.580811,608.146118 487.054779,609.767090 489.762238,610.735291   C515.020447,619.766846 540.037781,619.703979 564.271118,607.501770   C569.797180,604.719238 574.389221,600.039368 579.272522,596.062439   C580.121887,595.370667 580.924683,593.547180 580.580505,592.752380   C580.200317,591.874207 578.477356,591.115723 577.335999,591.111084   C573.026978,591.093628 568.674011,591.085327 564.415527,591.655701   C555.037964,592.911987 545.707825,594.522095 535.438049,595.995850  z"/>
  <path fill="#ECE5E0" opacity="1.000000" stroke="none" d=" M487.201904,590.988403   C477.879303,587.866638 470.883667,583.201477 471.613251,571.531311   C507.847595,576.191711 543.674011,574.080811 578.100586,559.970703   C580.279053,568.977295 577.722107,576.270264 570.401917,580.793823   C558.831909,587.943665 546.217773,592.258545 532.550781,593.011353   C524.257996,593.468079 515.933594,594.136047 507.655792,593.830627   C500.944550,593.582947 494.281647,592.025208 487.201904,590.988403  z"/>
  <path fill="#E07C66" opacity="1.000000" stroke="none" d=" M535.898193,595.991821   C545.707825,594.522095 555.037964,592.911987 564.415527,591.655701   C568.674011,591.085327 573.026978,591.093628 577.335999,591.111084   C578.477356,591.115723 580.200317,591.874207 580.580505,592.752380   C580.924683,593.547180 580.121887,595.370667 579.272522,596.062439   C574.389221,600.039368 569.797180,604.719238 564.271118,607.501770   C540.037781,619.703979 515.020447,619.766846 489.762238,610.735291   C487.054779,609.767090 484.580811,608.146118 481.435577,606.540649   C486.560913,600.836548 492.955658,600.132935 498.738953,599.340576   C510.896545,597.674866 523.196533,597.048706 535.898193,595.991821  z"/>
</svg>
