<?xml version="1.0" encoding="UTF-8"?>
<svg xmlns="http://www.w3.org/2000/svg" viewBox="0 0 985 958">
  <g id="mouth-05" transform="translate(-10,-16)">
    <path
      id="mouth-05-outline"
      fill="#5E4E46"
      opacity="1.000000"
      stroke="none"
      d="M490.037567,606.991638 C476.411896,609.203308 464.662476,605.729553 455.163849,595.464722 C454.372925,594.609985 453.612030,593.720520 452.908508,592.793030 C449.307831,588.045776 449.194183,583.904480 452.563782,581.332886 C455.762299,578.891846 459.139252,579.861023 463.209320,584.388062 C471.495575,593.604675 480.944031,595.841309 490.912018,591.115784 C498.654785,587.445129 502.102631,581.123718 502.603851,574.785950 C496.340088,568.261230 490.194275,563.272827 485.892822,557.016479 C480.657990,549.402588 483.714935,541.165466 492.419586,538.054382 C504.840607,533.615112 517.765076,533.813354 530.255432,537.452087 C539.986084,540.286804 543.254700,549.872681 537.400146,558.185242 C533.393921,563.873474 527.691772,568.367188 521.639526,574.522034 C522.219849,581.570740 525.611755,588.921448 534.747559,592.145325 C544.393494,595.549194 552.701721,592.708740 559.790894,585.697449 C560.852783,584.647156 561.658875,583.303894 562.815857,582.390869 C565.790833,580.043152 569.147949,578.877625 572.298279,581.790405 C575.352966,584.614685 575.047852,588.130188 572.749084,591.290344 C564.510803,602.615662 553.553223,608.464050 539.320923,607.434998 C537.493896,607.302979 535.676453,607.040039 533.194946,606.610291 C523.869324,603.325500 516.962219,597.936157 511.701630,589.905762 C506.662323,599.021240 499.125854,604.022400 490.037567,606.991638 z"
    />
    <path
      id="mouth-05-inner"
      fill="#F37A8C"
      opacity="1.000000"
      stroke="none"
      d="M490.006653,607.458252 C499.125854,604.022400 506.662323,599.021240 511.701630,589.905762 C516.962219,597.936157 523.869324,603.325500 532.771606,606.631409 C532.768311,612.449158 533.389709,618.226013 532.107605,623.543945 C529.542725,634.182556 520.980103,639.827881 510.315308,639.122070 C500.011688,638.440125 491.532135,630.707703 490.212189,620.326355 C489.693695,616.248474 490.029205,612.061951 490.006653,607.458252 z"
    />
  </g>
</svg>
