<?xml version="1.0" encoding="UTF-8"?>
<svg xmlns="http://www.w3.org/2000/svg" viewBox="0 0 985 958">
  <g id="mouth-03" transform="translate(-14,-10)">
    <path
      id="mouth-03-outline"
      fill="#31292A"
      opacity="1.000000"
      stroke="none"
      d="M451.615417,569.216675 C450.067566,564.184082 447.907013,559.231812 447.231567,554.084778 C446.896027,551.527893 448.685944,546.982300 450.598511,546.277161 C452.938049,545.414612 457.249176,546.755005 459.263824,548.665527 C472.467499,561.186340 498.478302,556.850220 506.781799,540.418884 C509.761047,534.523315 509.306488,533.319885 503.116180,531.163574 C496.277985,528.781494 490.787354,524.658081 486.840912,518.580872 C481.965851,511.073700 483.442291,503.804901 491.582550,500.398529 C507.200714,493.863007 523.084778,494.225494 538.451111,501.465118 C544.535828,504.331848 546.058228,510.394745 543.094055,516.783875 C539.580872,524.356567 533.303528,528.659607 525.598816,531.312073 C519.358948,533.460388 518.871033,534.304871 522.164795,540.157532 C528.814697,551.973755 539.669373,556.347351 552.702209,556.307495 C559.389343,556.287048 565.517517,555.273071 569.752625,548.973450 C570.828003,547.373901 574.224854,546.242859 576.176941,546.661133 C577.818359,547.012695 579.627625,549.753479 580.114136,551.742004 C581.727295,558.334717 578.626587,564.040955 575.252502,569.734741 C573.520874,569.092407 572.338867,568.424438 570.924683,567.486694 C563.695679,568.412659 556.698975,569.608337 549.410767,570.583496 C538.303894,568.729919 528.319214,565.015625 518.992859,559.204895 C517.020447,557.975952 513.158508,557.583130 511.319122,558.700806 C500.952881,565.000000 490.074554,569.550476 477.559082,570.788025 C470.756378,569.060486 464.341522,567.405457 457.823303,565.565430 C457.458771,565.577698 457.197540,565.774841 456.953827,565.969116 C456.971313,565.966187 456.959747,565.930359 456.567383,565.871826 C454.655121,566.947693 453.135284,568.082214 451.615417,569.216675 z"
    />
    <path
      id="mouth-03-inner"
      fill="#AD4C46"
      opacity="1.000000"
      stroke="none"
      d="M451.685303,569.615234 C453.135284,568.082214 454.655121,566.947693 456.586548,566.278198 C457.708466,569.786560 457.902466,573.081055 459.235077,575.821960 C462.154816,581.827332 465.543152,587.618164 469.018219,593.327271 C469.608063,594.296326 471.760590,595.054199 472.863708,594.744263 C473.801636,594.480652 474.661865,592.603271 474.876251,591.325806 C476.017822,584.523865 476.945343,577.685913 477.946960,570.860474 C490.074554,569.550476 500.952881,565.000000 511.319122,558.700806 C513.158508,557.583130 517.020447,557.975952 518.992859,559.204895 C528.319214,565.015625 538.303894,568.729919 549.433960,571.000916 C550.885986,577.910156 551.946655,584.197021 553.213318,590.442017 C553.540161,592.053772 554.513916,593.534363 555.190491,595.075195 C556.741211,594.297363 558.717346,593.881226 559.751892,592.664551 C561.757263,590.305908 563.640015,587.669861 564.841797,584.838135 C567.210876,579.256287 569.080688,573.462524 571.156982,567.756409 C572.338867,568.424438 573.520874,569.092407 575.001526,569.968140 C573.408691,588.213379 568.813538,605.333557 557.742920,620.572510 C555.093750,614.272888 552.602112,608.216858 546.757568,603.897522 C533.235535,593.904236 518.191223,591.036743 502.075989,594.382507 C491.366486,596.605957 481.633240,601.342712 475.146515,610.726257 C472.984894,613.853333 471.749268,617.620605 470.090302,621.095215 C459.725220,607.583618 456.272827,591.492432 452.998749,575.331604 C452.637451,573.548218 452.172241,571.785950 451.685303,569.615234 z"
    />
    <path
      id="mouth-03-fang-left"
      fill="#FDF8F2"
      opacity="1.000000"
      stroke="none"
      d="M477.559113,570.788025 C476.945343,577.685913 476.017822,584.523865 474.876251,591.325806 C474.661865,592.603271 473.801636,594.480652 472.863708,594.744263 C471.760590,595.054199 469.608063,594.296326 469.018219,593.327271 C465.543152,587.618164 462.154816,581.827332 459.235077,575.821960 C457.902466,573.081055 457.708466,569.786560 456.978912,566.336731 C456.959747,565.930359 456.971313,565.966187 457.206848,565.937500 C457.603790,565.856018 457.765228,565.803162 457.926636,565.750366 C464.341522,567.405457 470.756378,569.060486 477.559113,570.788025 z"
    />
    <path
      id="mouth-03-fang-right"
      fill="#FDF8F2"
      opacity="1.000000"
      stroke="none"
      d="M570.924683,567.486694 C569.080688,573.462524 567.210876,579.256287 564.841797,584.838135 C563.640015,587.669861 561.757263,590.305908 559.751892,592.664551 C558.717346,593.881226 556.741211,594.297363 555.190491,595.075195 C554.513916,593.534363 553.540161,592.053772 553.213318,590.442017 C551.946655,584.197021 550.885986,577.910156 549.725464,571.221436 C556.698975,569.608337 563.695679,568.412659 570.924683,567.486694 z"
    />
    <path
      id="mouth-03-tongue"
      fill="#FA9488"
      opacity="1.000000"
      stroke="none"
      d="M470.189117,621.402832 C471.749268,617.620605 472.984894,613.853333 475.146515,610.726257 C481.633240,601.342712 491.366486,596.605957 502.075989,594.382507 C518.191223,591.036743 533.235535,593.904236 546.757568,603.897522 C552.602112,608.216858 555.093750,614.272888 557.568848,620.869629 C537.134399,647.849487 495.684174,654.747559 470.189117,621.402832 z"
    />
  </g>
</svg>
