<?xml version="1.0" encoding="UTF-8"?>
<svg xmlns="http://www.w3.org/2000/svg" viewBox="0 0 985 958">
  <g id="mouth-02" transform="translate(-14,-40) translate(492,560) scale(0.92) translate(-492,-560)">
    <path
      id="mouth-02-outline"
      fill="#514647"
      opacity="1.000000"
      stroke="none"
      d=" M528.832520,587.420288   C548.869080,591.883606 566.448425,600.656860 579.039734,617.390076   C593.249146,636.273499 599.529724,656.897278 589.974670,679.909729   C583.668640,695.096985 571.167847,703.603149 556.155029,708.763123   C535.969543,715.701050 515.104431,717.090942 494.163391,714.242371   C483.285522,712.762573 472.187195,710.301697 462.101471,706.094971   C433.417328,694.130981 422.428070,669.179565 432.643097,639.738159   C441.866791,613.153992 461.611176,597.550476 488.203003,590.086426   C493.586273,588.575378 499.168274,587.772400 504.695282,586.635498   C504.829437,586.082153 504.962708,585.612122 505.056305,585.134277   C506.394073,578.304626 504.521515,573.695984 497.877930,569.948303   C493.111694,567.259644 489.098877,562.284729 486.208466,557.456665   C482.399109,551.093567 485.188599,543.563049 492.097961,540.901550   C504.621826,536.077454 517.568665,536.214905 530.109497,540.763367   C537.367859,543.395996 539.073730,548.997681 536.210693,557.718506   C531.420410,562.920471 527.476135,568.280151 522.279663,571.781189   C518.301697,574.461182 516.708496,576.807861 517.664734,581.249451   C518.004761,582.829041 518.028809,584.476746 518.201111,586.132019   C521.922791,586.583008 525.377625,587.001648 528.832520,587.420288  M572.832520,689.774902   C578.063721,686.829651 581.186279,682.091370 582.946655,676.638428   C589.037964,657.770081 586.026672,640.286194 573.967651,624.551941   C571.492310,621.322205 568.111023,618.786926 565.039307,615.240051   C560.492493,609.982971 555.279907,605.754456 547.920227,603.653931   C547.445312,603.202820 547.048828,602.565857 546.484131,602.327515   C529.076721,594.983398 511.139099,592.432373 492.673035,597.341309   C486.581482,598.960693 480.816406,601.808289 474.222595,604.183716   C470.466705,606.430054 466.493622,608.390503 463.029785,611.021301   C460.644318,612.833069 458.964539,615.573975 456.227661,617.929749   C454.816711,618.926514 453.037964,619.648254 452.053772,620.964233   C445.056396,630.320618 439.443451,640.243286 438.281830,652.282837   C437.115509,664.371033 439.294434,682.801575 452.432373,690.697754   C459.562042,694.459351 466.316681,699.462769 473.891510,701.750488   C496.897186,708.698486 520.424988,708.581665 543.814819,703.577026   C554.214478,701.351807 564.180115,697.547424 572.832520,689.774902  z"
    />
    <path
      id="mouth-02-inner"
      fill="#983947"
      opacity="1.000000"
      stroke="none"
      d=" M452.140625,690.121216   C439.294434,682.801575 437.115509,664.371033 438.281830,652.282837   C439.443451,640.243286 445.056396,630.320618 452.053772,620.964233   C453.037964,619.648254 454.816711,618.926514 456.911499,618.064209   C460.579956,621.764343 463.376770,625.512024 466.604034,628.842529   C469.596466,631.930725 471.468323,631.471313 472.172607,627.195862   C473.431580,619.552856 474.028412,611.800720 474.902039,604.094238   C480.816406,601.808289 486.581482,598.960693 492.673035,597.341309   C511.139099,592.432373 529.076721,594.983398 546.484131,602.327515   C547.048828,602.565857 547.445312,603.202820 548.041321,604.447937   C548.702148,612.334778 549.111694,619.441895 549.884766,626.509216   C550.051697,628.035522 551.344788,630.408752 552.447571,630.612244   C553.766602,630.855652 555.917114,629.547668 556.868286,628.281311   C559.840454,624.324341 562.417236,620.070374 565.147278,615.931519   C568.111023,618.786926 571.492310,621.322205 573.967651,624.551941   C586.026672,640.286194 589.037964,657.770081 582.946655,676.638428   C581.186279,682.091370 578.063721,686.829651 572.464600,689.578918   C567.402588,679.507874 559.498962,672.781311 549.996948,668.061829   C531.979065,659.112549 512.910095,657.774475 493.397125,661.647705   C475.595428,665.181335 460.739960,673.165710 452.140625,690.121216  z"
    />
    <path
      id="mouth-02-tongue"
      fill="#EE8E92"
      opacity="1.000000"
      stroke="none"
      d=" M452.286499,690.409485   C460.739960,673.165710 475.595428,665.181335 493.397125,661.647705   C512.910095,657.774475 531.979065,659.112549 549.996948,668.061829   C559.498962,672.781311 567.402588,679.507874 572.181152,689.747009   C564.180115,697.547424 554.214478,701.351807 543.814819,703.577026   C520.424988,708.581665 496.897186,708.698486 473.891510,701.750488   C466.316681,699.462769 459.562042,694.459351 452.286499,690.409485  z"
    />
    <path
      id="mouth-02-fang-left"
      fill="#F4EDE8"
      opacity="1.000000"
      stroke="none"
      d=" M474.562317,604.138977   C474.028412,611.800720 473.431580,619.552856 472.172607,627.195862   C471.468323,631.471313 469.596466,631.930725 466.604034,628.842529   C463.376770,625.512024 460.579956,621.764343 457.282379,618.049133   C458.964539,615.573975 460.644318,612.833069 463.029785,611.021301   C466.493622,608.390503 470.466705,606.430054 474.562317,604.138977  z"
    />
    <path
      id="mouth-02-fang-right"
      fill="#F4EDE8"
      opacity="1.000000"
      stroke="none"
      d=" M565.093262,615.585815   C562.417236,620.070374 559.840454,624.324341 556.868286,628.281311   C555.917114,629.547668 553.766602,630.855652 552.447571,630.612244   C551.344788,630.408752 550.051697,628.035522 549.884766,626.509216   C549.111694,619.441895 548.702148,612.334778 548.197571,604.800781   C555.279907,605.754456 560.492493,609.982971 565.093262,615.585815  z"
    />
  </g>
</svg>
