<?xml version="1.0" encoding="UTF-8"?>
<svg xmlns="http://www.w3.org/2000/svg" viewBox="0 0 985 958">
  <g id="mouth-01">
    <path
      id="mouth-01-shape"
      fill="#5A5046"
      opacity="1.000000"
      stroke="none"
      d=" M476.412964,503.257324   C486.835632,500.733765 496.956665,500.584839 506.977081,502.899780   C518.651794,505.596863 522.034119,515.709839 514.229675,524.825867   C511.144928,528.428955 507.238556,531.458923 503.297455,534.151428   C500.792877,535.862488 500.141541,537.424194 500.743713,540.253601   C502.448914,548.264954 506.784332,553.966003 514.803040,556.148376   C523.617432,558.547180 531.271301,556.241943 537.335510,549.305298   C541.903564,544.080078 544.962341,542.873169 547.900269,545.384216   C551.051514,548.077576 550.455444,552.001587 546.108643,557.179260   C532.885254,572.929810 509.165405,572.941589 495.812195,557.203186   C494.748505,555.949524 493.691925,554.689819 492.386108,553.141296   C486.755798,561.415527 479.507416,566.775696 469.690125,568.431519   C457.105347,570.554138 443.619904,564.717834 436.884308,553.967896   C434.880280,550.769470 434.414032,547.504883 437.749451,545.131470   C441.021912,542.802856 443.899628,544.049927 446.374207,547.091064   C453.771149,556.181763 462.184265,559.056885 471.263733,555.686218   C479.218994,552.732788 483.533905,546.791565 484.534515,538.516052   C484.673340,537.368042 483.465027,535.761108 482.456238,534.822327   C478.354614,531.005127 473.337891,527.928894 470.041168,523.540710   C463.587433,514.950439 466.129364,507.542511 476.412964,503.257324  z"
    />
  </g>
</svg>
