<?xml version="1.0" encoding="UTF-8"?>
<svg xmlns="http://www.w3.org/2000/svg" viewBox="0 0 985 958">
  <g id="mouth-04" transform="translate(-12,-20)">
    <path
      id="mouth-04-outline"
      fill="#63564C"
      opacity="1.000000"
      stroke="none"
      d="M469.399811,587.849731 C478.390228,591.951599 486.906311,591.645996 494.979095,586.681580 C497.445435,585.164917 499.658020,582.865479 501.303253,580.457520 C505.248566,574.683167 504.424500,573.404541 499.240234,569.117737 C494.577362,565.262085 490.033905,560.836670 486.793091,555.791992 C482.556274,549.196899 485.287689,541.758484 492.616394,538.987488 C505.142487,534.251221 518.153625,534.395020 530.824402,538.080139 C539.531616,540.612549 542.804504,549.206726 537.852600,556.844604 C534.535645,561.960815 529.498474,566.210632 524.533936,569.913574 C521.699524,572.027710 521.465698,573.628113 522.494446,576.354126 C525.767517,585.027100 534.575256,591.074951 544.378052,590.945740 C552.912292,590.833252 560.283142,587.793884 565.994507,581.222290 C569.464661,577.229431 572.792603,576.448730 575.779053,578.890259 C578.877625,581.423462 578.844788,585.620972 574.905701,589.275208 C570.919861,592.972961 566.653198,596.621704 561.903381,599.155884 C558.554199,600.942810 558.099792,602.920410 558.058289,606.099670 C557.792419,626.480347 546.038208,642.742737 527.679871,648.373718 C497.328369,657.683472 468.944672,636.974854 469.055908,605.448975 C469.067535,602.146790 467.947021,600.852295 465.161438,599.150574 C459.834869,595.896545 454.981537,591.790833 450.243774,587.679016 C447.415436,585.224365 446.835571,581.929199 449.704987,578.881104 C452.171478,576.260986 455.777618,576.813171 458.981964,579.667969 C462.182434,582.519348 465.681274,585.035950 469.399811,587.849731 M479.998535,619.744629 C486.376251,635.609680 502.689758,645.090149 519.337891,641.754456 C532.757507,639.065552 543.514587,632.495178 547.817871,617.507812 C548.407227,612.851562 548.996643,608.195312 549.650940,603.026062 C533.883728,603.732971 521.989746,598.456665 513.123047,585.921936 C504.668396,598.959534 491.779694,602.692810 476.181580,603.171631 C477.530701,608.950562 478.706726,613.988159 479.998535,619.744629 z"
    />
    <path
      id="mouth-04-inner"
      fill="#F3958C"
      opacity="1.000000"
      stroke="none"
      d="M547.564209,617.793457 C543.783875,616.002502 540.355835,613.730286 536.709290,611.891663 C529.888367,608.452393 522.733948,606.802734 515.076294,608.770935 C514.145020,609.010254 513.057556,609.010132 512.118042,608.793518 C499.634369,605.915283 489.341614,610.207153 480.053711,618.726929 C478.706726,613.988159 477.530701,608.950562 476.181580,603.171631 C491.779694,602.692810 504.668396,598.959534 513.123047,585.921936 C521.989746,598.456665 533.883728,603.732971 549.650940,603.026062 C548.996643,608.195312 548.407227,612.851562 547.564209,617.793457 z"
    />
    <path
      id="mouth-04-tongue"
      fill="#FDC6BE"
      opacity="1.000000"
      stroke="none"
      d="M547.310547,618.079041 C543.514587,632.495178 532.757507,639.065552 519.337891,641.754456 C502.689758,645.090149 486.376251,635.609680 480.111633,619.086304 C489.341614,610.207153 499.634369,605.915283 512.118042,608.793518 C513.057556,609.010132 514.145020,609.010254 515.076294,608.770935 C522.733948,606.802734 529.888367,608.452393 536.709290,611.891663 C540.355835,613.730286 543.783875,616.002502 547.310547,618.079041 z"
    />
  </g>
</svg>
