<svg xmlns="http://www.w3.org/2000/svg" viewBox="0 0 1028 1024">
  <!-- left earring: centered at x≈139 in original, placed at ear x≈322, y≈525 -->
  <!-- scale: target ~90px wide, original earring ~90px wide at 512vb → scale 1.0, but need to fit 1028 space -->
  <!-- translate to ear position, scale down, then offset original center -->
  <g transform="translate(322, 520) scale(0.22) translate(-139, 0)">
    <rect x="131.49" y="117.091" style="fill:#5A482E;" width="15.673" height="60.54"/>
    <path style="fill:#16786C;" d="M139.329,512c38.111,0,71.236-27.209,80.555-66.171l-0.03-0.005c0.094-0.307,0.181-0.634,0.25-0.983
      c1.469-6.508,2.231-20.1,2.273-22.076h0.004c0.741-52.511-29.738-106.898-79.544-141.938c-1.047-0.736-2.278-1.104-3.507-1.104
      c-1.231,0-2.461,0.369-3.508,1.104c-49.805,35.04-80.285,89.428-79.545,141.939h0.002c0.043,1.953,0.808,15.532,2.264,22.037
      c0,0,0.118,0.654,0.156,0.84c0.055,0.278,0.129,0.548,0.223,0.805C68.444,485.076,101.421,512,139.329,512z"/>
    <path style="fill:#EFBA50;" d="M161.793,230.129c0,12.242-10.058,22.166-22.464,22.166c-12.41,0-22.466-9.924-22.466-22.166
      c0-12.243,10.056-22.168,22.466-22.168C151.735,207.962,161.793,217.886,161.793,230.129z"/>
    <path style="fill:#EFBA50;" d="M139.329,475.001c-20.476,0-38.56-15.339-43.976-37.299c-0.019-0.083-0.04-0.164-0.059-0.245
      c-0.046-0.216-0.09-0.43-0.14-0.651c-0.556-2.68-1.252-11.355-1.389-14.859c-0.373-33.846,16.665-69.125,45.564-96.161
      c28.892,27.026,45.932,62.308,45.558,96.16c-0.133,3.392-0.787,11.622-1.345,14.624c-0.167,0.639-0.315,1.284-0.447,1.926
      C177.442,460.052,159.601,475.001,139.329,475.001z"/>
    <path style="fill:#16786C;" d="M161.793,105.71c0,12.408-10.058,22.465-22.464,22.465c-12.41,0-22.466-10.057-22.466-22.465
      c0-12.407,10.056-22.465,22.466-22.465C151.735,83.245,161.793,93.303,161.793,105.71z"/>
    <circle style="fill:#EFBA50;" cx="139.327" cy="45.15" r="45.15"/>
    <path style="fill:#FFFFFF;" d="M139.329,61.319c-8.914,0-16.167-7.253-16.167-16.167s7.252-16.167,16.167-16.167
      c8.913,0,16.167,7.252,16.167,16.167C155.495,54.065,148.242,61.319,139.329,61.319z"/>
    <path style="fill:#37C4B3;" d="M171.212,286.956c0,2.96-2.421,5.382-5.382,5.382h-53.006c-2.961,0-5.383-2.422-5.383-5.382v-32.138
      c0-2.96,2.422-5.383,5.383-5.383h53.006c2.961,0,5.382,2.423,5.382,5.383V286.956z"/>
    <path style="fill:#36E3CC;" d="M161.793,188.657c0,12.242-10.058,22.166-22.464,22.166c-12.41,0-22.466-9.924-22.466-22.166
      c0-12.244,10.056-22.168,22.466-22.168C151.735,166.49,161.793,176.413,161.793,188.657z"/>
  </g>
  <!-- right earring: centered at x≈373 in original, placed at ear x≈730, y≈525 -->
  <g transform="translate(730, 520) scale(0.22) translate(-373, 0)">
    <rect x="364.837" y="117.091" style="fill:#5A482E;" width="15.673" height="60.54"/>
    <path style="fill:#16786C;" d="M372.671,512c38.113,0,71.237-27.209,80.557-66.171c0.206-1.987,0.821-4.122,1.093-6.171
      c0.315-2.375,0.555-4.761,0.763-7.148c0.282-3.243,0.479-6.501,0.641-9.746c0.74-52.511-29.739-106.898-79.546-141.938
      c-1.046-0.736-2.277-1.104-3.507-1.104c-1.23,0-2.46,0.369-3.507,1.104c-49.804,35.04-80.285,89.428-79.546,141.939h0.002
      c0.043,1.953,0.809,15.532,2.265,22.037c0.1,0.553,0.184,1.115,0.379,1.644C301.787,485.076,334.764,512,372.671,512z"/>
    <path style="fill:#EFBA50;" d="M395.136,230.129c0,12.242-10.059,22.166-22.465,22.166c-12.408,0-22.465-9.924-22.465-22.166
      c0-12.243,10.057-22.168,22.465-22.168C385.077,207.962,395.136,217.886,395.136,230.129z"/>
    <path style="fill:#EFBA50;" d="M372.671,475.001c-20.475,0-38.559-15.339-43.973-37.299c-0.582-2.487-0.783-5.059-1.014-7.597
      c-0.246-2.714-0.468-5.434-0.575-8.158c-0.373-33.846,16.664-69.125,45.563-96.161c28.892,27.026,45.933,62.308,45.559,96.16
      c-0.133,3.392-0.788,11.622-1.344,14.624c-0.167,0.639-0.316,1.284-0.448,1.926C410.788,460.052,392.944,475.001,372.671,475.001z"/>
    <path style="fill:#16786C;" d="M395.136,105.71c0,12.408-10.059,22.465-22.465,22.465c-12.408,0-22.465-10.057-22.465-22.465
      c0-12.407,10.057-22.465,22.465-22.465C385.077,83.245,395.136,93.303,395.136,105.71z"/>
    <circle style="fill:#EFBA50;" cx="372.673" cy="45.15" r="45.15"/>
    <path style="fill:#FFFFFF;" d="M372.671,61.319c-8.913,0-16.167-7.253-16.167-16.167s7.253-16.167,16.167-16.167
      c8.914,0,16.167,7.252,16.167,16.167C388.838,54.065,381.586,61.319,372.671,61.319z"/>
    <path style="fill:#37C4B3;" d="M404.557,286.956c0,2.96-2.422,5.382-5.383,5.382h-53.006c-2.961,0-5.382-2.422-5.382-5.382v-32.138
      c0-2.96,2.421-5.383,5.382-5.383h53.006c2.961,0,5.383,2.423,5.383,5.383V286.956z"/>
    <path style="fill:#36E3CC;" d="M395.136,188.657c0,12.242-10.059,22.166-22.465,22.166c-12.408,0-22.465-9.924-22.465-22.166
      c0-12.244,10.057-22.168,22.465-22.168C385.077,166.49,395.136,176.413,395.136,188.657z"/>
  </g>
</svg>
