<?xml version="1.0" encoding="UTF-8" standalone="no"?>
<!-- Uploaded to: SVG Repo, www.svgrepo.com, Transformed by: SVG Repo Mixer Tools -->

<svg
   width="800px"
   height="800px"
   viewBox="0 0 1028 1024"
   aria-hidden="true"
   role="img"
   preserveAspectRatio="xMidYMid meet"
   fill="#000000"
   version="1.1"
   id="svg2"
   sodipodi:docname="glasses-01.svg"
   inkscape:version="1.4.3 (0d15f75, 2025-12-25)"
   xmlns:inkscape="http://www.inkscape.org/namespaces/inkscape"
   xmlns:sodipodi="http://sodipodi.sourceforge.net/DTD/sodipodi-0.dtd"
   xmlns="http://www.w3.org/2000/svg"
   xmlns:svg="http://www.w3.org/2000/svg">
  <sodipodi:namedview
     id="namedview1"
     pagecolor="#ffffff"
     bordercolor="#000000"
     borderopacity="0.25"
     inkscape:showpageshadow="2"
     inkscape:pageopacity="0.0"
     inkscape:pagecheckerboard="0"
     inkscape:deskcolor="#d1d1d1"
     inkscape:zoom="1.01875"
     inkscape:cx="400.4908"
     inkscape:cy="400"
     inkscape:window-width="1920"
     inkscape:window-height="1017"
     inkscape:window-x="-8"
     inkscape:window-y="-8"
     inkscape:window-maximized="1"
     inkscape:current-layer="svg2" />
  <defs
     id="defs2" />
  <g
     transform="translate(524, 416) scale(12.3) translate(-18, -14)"
     id="g2">
    <g
       id="SVGRepo_bgCarrier"
       stroke-width="0" />
    <g
       id="SVGRepo_tracerCarrier"
       stroke-linecap="round"
       stroke-linejoin="round" />
    <g
       id="SVGRepo_iconCarrier">
      <path
         fill="#31373D"
         fill-rule="evenodd"
         d="M35.686 11.931c-.507-.522-6.83-1.094-13.263-.369c-1.283.144-1.363.51-4.425.63c-3.061-.119-3.141-.485-4.425-.63C7.14 10.837.817 11.41.31 11.931c-.252.261-.252 2.077 0 2.338c.254.261 1.035.606 1.403 1.827c.237.787.495 5.864 2.281 7.377c1.768 1.498 7.462 1.217 9.326.262c2.536-1.298 2.892-5.785 3.292-7.639c.203-.939 1.162-1.016 1.385-1.016s1.182.077 1.385 1.016c.401 1.853.757 6.34 3.292 7.639c1.865.955 7.558 1.236 9.326-.262c1.786-1.513 2.044-6.59 2.281-7.377c.368-1.22 1.149-1.566 1.403-1.827c.254-.26.254-2.077.002-2.338zM14.644 15.699c-.098 1.255-.521 4.966-1.757 6.083c-1.376 1.243-6.25 1.568-7.79.044c-.808-.799-1.567-4.018-1.503-6.816c.038-1.679 2.274-2.02 5.462-2.02c3.148 0 5.763.468 5.588 2.709zM21.351 15.699c.098 1.255.521 4.966 1.757 6.083c1.376 1.243 6.25 1.568 7.79.044c.808-.799 1.567-4.018 1.503-6.816c-.038-1.679-2.274-2.02-5.462-2.02c-3.147 0-5.763.468-5.588 2.709z"
         id="path1" />
      <path
         d="m 21.351,15.699 c 0.098,1.255 0.521,4.966 1.757,6.083 1.376,1.243 6.25,1.568 7.79,0.044 0.808,-0.799 1.567,-4.018 1.503,-6.816 -0.038,-1.679 -2.274,-2.02 -5.462,-2.02 -3.147,0 -5.763,0.468 -5.588,2.709 z"
         id="path2"
         sodipodi:nodetypes="scccss"
         style="fill:#70687b;fill-opacity:0.4" />
      <path
         d="m 14.644,15.699 c -0.098,1.255 -0.521,4.966 -1.757,6.083 -1.376,1.243 -6.25,1.568 -7.79,0.044 -0.808,-0.799 -1.567,-4.018 -1.503,-6.816 0.038,-1.679 2.274,-2.02 5.462,-2.02 3.148,0 5.763,0.468 5.588,2.709 z"
         id="path3"
         style="fill:#70687b;fill-opacity:0.4" />
    </g>
  </g>
</svg>
