<svg xmlns="http://www.w3.org/2000/svg" viewBox="0 0 1028 1024">
  <g transform="translate(-15, 0) rotate(-3, 530, 260)">
  <path fill="#EA839E" opacity="1.000000" stroke="none" d=" M399.139313,138.092926   C403.276886,135.953735 407.414429,133.814545 411.770447,131.436127   C431.463287,122.362961 451.514221,115.283371 472.646271,111.617569   C527.784241,102.052719 581.834229,106.352036 633.248352,128.595276   C694.821960,155.233826 739.442627,200.035370 766.208069,261.794525   C775.716553,283.734589 781.293274,307.001740 782.967957,330.891235   C784.128174,347.441467 783.784668,364.099091 784.014465,380.710114   C784.044006,382.846466 783.380615,384.983459 783.214233,387.133728   C782.991089,390.017151 781.532104,391.342377 778.162476,390.706451   C777.120300,385.121857 776.458252,380.019196 776.074829,374.895691   C774.085938,348.315033 767.515198,322.825806 757.637512,298.165588   C737.728577,248.461700 704.458496,209.990616 659.278748,181.552704   C617.682556,155.370407 572.265503,142.118378 523.203491,142.196136   C508.831512,142.218903 494.307373,143.710541 480.122162,146.116135   C434.866180,153.790848 395.183319,173.546692 361.310669,204.390823   C330.990631,231.999985 310.388641,266.018372 297.929993,305.030090   C291.069946,326.511047 287.110962,348.499878 285.926941,371.277161   C281.791168,373.881836 280.031769,372.282684 279.998688,368.250946   C279.880341,353.823883 279.471313,339.382050 279.968140,324.973236   C280.298523,315.391663 281.983643,305.856812 283.288147,295.978058   C287.113281,282.384338 290.712616,269.113586 294.563904,255.638596   C295.488098,254.104141 296.210938,252.796799 296.825104,251.440277   C308.102081,226.533203 322.827423,203.925735 341.520264,183.913055   C358.463196,165.773849 378.054596,151.003967 399.139313,138.092926  z"/>
  <path fill="#B93A3C" opacity="1.000000" stroke="none" d=" M772.273438,386.220032   C769.519958,360.591339 763.556396,335.981934 755.002258,311.969574   C754.227417,309.794556 753.370728,307.648682 752.301697,305.238281   C747.925232,295.770325 743.799194,286.553375 739.351196,276.781372   C737.047913,273.131592 735.066711,270.036896 733.085510,266.942200   C728.326721,259.420349 724.102966,251.487488 718.702942,244.458282   C705.576477,227.371368 689.953674,212.788589 672.770508,199.726013   C655.044739,186.250946 635.568726,175.944427 615.191650,167.505905   C593.965149,158.715637 571.701294,153.285507 548.739807,150.914490   C527.168762,148.687057 505.695404,149.143112 484.364990,152.941696   C474.958344,154.616867 465.705658,157.156799 455.794128,159.618546   C453.800201,160.277618 452.395203,160.622269 450.990234,160.966919   C448.494263,161.813492 445.998291,162.660065 442.930481,163.788467   C441.572418,164.381882 440.786194,164.693466 440.000000,165.005066   C425.510986,169.489136 412.175903,176.374008 399.220062,184.757446   C392.310669,189.590668 385.251526,193.718582 379.001709,198.835114   C364.470215,210.731552 351.037628,223.821899 339.683258,238.857635   C323.497192,260.291595 311.272552,283.865387 304.018158,309.707367   C299.546753,325.635651 296.608368,341.994263 292.992737,358.578949   C293.003754,358.998230 293.016510,358.988922 292.815125,359.111908   C292.364777,359.436707 292.174988,359.683899 292.034882,360.417847   C292.035889,362.928406 292.046326,364.997620 292.056763,367.066833   C290.324341,368.375336 288.591888,369.683868 286.521179,371.012390   C287.110962,348.499878 291.069946,326.511047 297.929993,305.030090   C310.388641,266.018372 330.990631,231.999985 361.310669,204.390823   C395.183319,173.546692 434.866180,153.790848 480.122162,146.116135   C494.307373,143.710541 508.831512,142.218903 523.203491,142.196136   C572.265503,142.118378 617.682556,155.370407 659.278748,181.552704   C704.458496,209.990616 737.728577,248.461700 757.637512,298.165588   C767.515198,322.825806 774.085938,348.315033 776.074829,374.895691   C776.458252,380.019196 777.120300,385.121857 777.749084,390.636719   C776.070618,389.507721 774.296875,387.976135 772.273438,386.220032  z"/>  </g>
</svg>
