<svg xmlns="http://www.w3.org/2000/svg" viewBox="0 0 1028 1024">
  <g transform="translate(526, 805) scale(0.65) translate(-256, -180)">
    <path style="fill:#5A482E;" d="M404.594,90.379c-32.585,55.778-86.274,114.131-139.831,151.395c-2.465,1.72-5.398,2.629-8.48,2.629
      c-3.072,0-6.009-0.912-8.488-2.634c-57.403-39.937-111.521-99.013-143.758-156.419c-3.883,3.627-7.879,7.195-11.939,10.691
      c33.547,58.424,88.53,118.09,146.749,158.596c5.12,3.559,11.15,5.44,17.436,5.44c6.305,0,12.339-1.884,17.439-5.442
      c54.644-38.02,109.438-97.349,143.24-154.394C412.647,96.938,408.526,93.65,404.594,90.379z"/>
    <path style="fill:#53E7D3;" d="M256.284,468.671c27.017,0,50.486-19.019,57.078-46.246l-0.022-0.004
      c0.067-0.228,0.126-0.465,0.182-0.714c1.039-4.578,1.545-13.631,1.59-15.264h0.002c0.514-35.961-20.532-73.166-54.924-97.095
      c-1.166-0.812-2.537-1.217-3.906-1.217c-1.37,0-2.741,0.404-3.904,1.217c-34.392,23.929-55.44,61.135-54.926,97.096h0.003
      c0.045,1.653,0.543,10.598,1.582,15.213c0.043,0.255,0.07,0.404,0.1,0.554c0.054,0.258,0.121,0.512,0.204,0.76
      C206.112,449.907,229.452,468.671,256.284,468.671z"/>
    <circle style="fill:#37C4B3;" cx="256.283" cy="408.21" r="34.333"/>
    <g>
      <circle style="fill:#E28883;" cx="195.459" cy="209.899" r="24.873"/>
      <circle style="fill:#E28883;" cx="317.963" cy="209.899" r="24.873"/>
    </g>
    <g>
      <circle style="fill:#E3DAB3;" cx="373.029" cy="148.407" r="24.873"/>
      <circle style="fill:#E3DAB3;" cx="139.536" cy="148.407" r="24.873"/>
    </g>
    <circle style="fill:#FDF276;" cx="256.283" cy="282.927" r="34.333"/>
  </g>
</svg>
