<svg xmlns="http://www.w3.org/2000/svg" viewBox="0 0 1024 1024">
  <!-- left brow -->
  <path fill="#A13818" opacity="1.000000" stroke="none" d=" M391.698608,389.666748   C384.435394,392.409576 377.522217,394.957642 369.613800,397.872498   C370.659424,395.543488 371.132477,393.661224 372.206604,392.230225   C379.785919,382.133057 389.833221,375.793030 401.834808,371.850067   C411.642181,368.628021 421.559021,368.337250 431.669464,367.774170   C440.363037,367.290009 448.188507,369.434326 456.037262,372.258209   C462.423126,374.555756 465.406616,378.917358 464.819641,385.472412   C464.544922,388.540955 462.612488,390.531555 458.946655,389.467377   C455.660126,388.513245 452.272614,387.895233 449.009430,386.874115   C429.695526,380.830261 410.816956,383.832306 391.698608,389.666748  z"/>
  <!-- right brow (mirrored around x=514) -->
  <g transform="translate(10, 0)">
  <path fill="#A13818" opacity="1.000000" stroke="none" d=" M636.301392,389.666748   C643.564606,392.409576 650.477783,394.957642 658.386200,397.872498   C657.340576,395.543488 656.867523,393.661224 655.793396,392.230225   C648.214081,382.133057 638.166779,375.793030 626.165192,371.850067   C616.357819,368.628021 606.440979,368.337250 596.330536,367.774170   C587.636963,367.290009 579.811493,369.434326 571.962738,372.258209   C565.576874,374.555756 562.593384,378.917358 563.180359,385.472412   C563.455078,388.540955 565.387512,390.531555 569.053345,389.467377   C572.339874,388.513245 575.727386,387.895233 578.990570,386.874115   C598.304474,380.830261 617.183044,383.832306 636.301392,389.666748  z"/>
  </g>
</svg>
