<svg xmlns="http://www.w3.org/2000/svg" viewBox="0 0 1024 1024">
  <g transform="translate(0, 20)">
    <path fill="#A13818" opacity="1.000000" stroke="none" d=" M400.669739,357.654144   C415.386292,350.868500 430.361389,346.773407 446.322205,347.320740   C449.934113,347.444580 453.646454,347.995575 457.081207,349.081573   C461.409088,350.450073 463.610107,355.113007 462.722321,359.542877   C461.751648,364.386444 459.378937,366.117065 453.789185,365.961029   C427.858124,365.237122 403.805237,371.511139 381.582672,384.978424   C379.116241,386.473083 375.918030,386.760132 373.059204,387.607300   C373.948914,384.791016 374.297363,381.632446 375.823669,379.218750   C381.839447,369.705536 390.573578,363.134430 400.669739,357.654144  z"/>
  </g>
  <g transform="translate(-14, 20)">
    <path fill="#A13818" opacity="1.000000" stroke="none" d=" M663.295776,382.652802   C648.505005,373.690430 632.440491,369.559967 615.952271,367.108704   C608.606140,366.016571 601.043579,366.089478 593.584229,366.158661   C589.076294,366.200470 586.151428,364.887115 585.180969,360.341003   C584.102722,355.290070 586.363892,350.056671 591.004517,349.149353   C597.144714,347.948914 603.590515,346.884888 609.748291,347.454926   C632.645691,349.574554 653.794922,356.144318 669.449890,374.448059   C671.800476,377.196350 673.828125,380.285400 675.568176,383.456604   C676.182678,384.576691 675.491882,386.413055 675.397095,387.922363   C674.012817,387.801178 672.440613,388.058228 671.282227,387.482544   C668.613464,386.156097 666.145874,384.425049 663.295776,382.652802  z"/>
  </g>
</svg>
