<?xml version="1.0" encoding="UTF-8" standalone="no"?>
<svg
   version="1.1"
   id="Layer_1"
   x="0px"
   y="0px"
   width="100%"
   viewBox="0 0 1536 1024"
   enable-background="new 0 0 1536 1024"
   xml:space="preserve"
   xmlns="http://www.w3.org/2000/svg"
   xmlns:svg="http://www.w3.org/2000/svg"><defs
   id="defs7" />

<path
   fill="#EC2827"
   opacity="1.000000"
   stroke="none"
   d=" M205.943848,798.892334   C208.965958,791.518921 211.988083,784.145569 215.424179,776.373657   C217.243423,774.623657 218.774704,773.379456 220.032516,771.902405   C226.047745,764.838867 231.520096,757.243530 238.055267,750.706848   C251.094254,737.664978 264.150635,724.539307 278.216949,712.651794   C295.151978,698.339844 312.684174,684.629028 330.777466,671.815369   C366.923187,646.216797 405.205963,624.105957 446.183075,607.170715   C470.080688,597.294189 494.319061,587.903381 519.063599,580.497681   C552.638855,570.448914 586.723938,561.958557 621.700073,557.895813   C646.807007,554.979431 671.868164,551.596802 697.023926,549.201416   C712.522156,547.725586 728.154907,547.389587 743.736572,547.150085   C756.015137,546.961426 768.314758,547.543152 780.592957,548.065674   C801.133606,548.939819 821.674500,549.877319 842.196045,551.107849   C853.746399,551.800415 865.317627,552.701538 876.774231,554.275208   C895.589661,556.859680 914.418030,559.555176 933.061157,563.139160   C957.578430,567.852539 982.137939,572.642273 1006.277100,578.940796   C1029.188721,584.918945 1051.915649,591.982666 1074.116577,600.208252   C1100.707520,610.060303 1126.933228,621.033142 1152.784180,632.701233   C1170.474487,640.685852 1187.316895,650.571899 1204.425659,659.816406   C1227.086304,672.060974 1248.644897,686.078064 1269.062988,701.753235   C1281.012695,710.927246 1292.744873,720.458435 1303.898193,730.575134   C1314.924438,740.576599 1325.089355,751.526917 1335.653076,762.039795   C1339.348511,765.717529 1343.106445,769.332520 1346.835693,772.976196   C1349.269043,777.545715 1351.823975,782.055542 1354.102051,786.701172   C1356.458496,791.506226 1358.546143,796.442932 1360.442139,801.756226   C1359.818848,803.196838 1359.252808,804.198059 1359.231445,805.210693   C1359.096924,811.590820 1359.672363,818.045044 1358.907837,824.340576   C1357.284058,837.714722 1350.517334,848.412109 1339.576904,856.140198   C1324.757202,866.608521 1307.873901,869.135986 1290.344849,866.811340   C1270.944336,864.238525 1252.412720,857.963440 1235.414673,848.527954   C1203.948975,831.061523 1173.058228,812.557251 1141.973633,794.407104   C1114.951294,778.628906 1087.079224,764.479126 1057.878174,753.305359   C1032.973999,743.775635 1007.775940,734.811157 982.216614,727.259033   C960.851807,720.946350 938.910950,716.303955 916.975647,712.283264   C896.691833,708.565430 876.118103,706.270996 855.595032,704.065613   C838.163513,702.192505 820.628967,700.351685 803.128296,700.234009   C761.416321,699.953613 719.644165,698.594238 678.030823,703.046082   C663.079346,704.645691 647.991516,705.602783 633.247192,708.358459   C610.835144,712.547241 588.511108,717.438354 566.433228,723.130981   C530.699890,732.344604 496.276093,745.435303 462.901276,761.145630   C432.649384,775.385925 404.298737,793.016296 376.154510,810.967407   C354.594879,824.718567 333.010468,838.450378 309.695435,849.112610   C293.821045,856.372253 277.837921,863.178345 259.661957,862.117432   C242.247925,861.100952 228.301666,853.746277 218.085312,839.935181   C210.330612,829.451904 208.017593,817.130188 208.930252,804.195557   C209.099625,801.795166 209.251816,799.356628 205.943848,798.892334  z"
   id="path2" />
<path
   fill="#EC2827"
   opacity="1.000000"
   stroke="none"
   d=" M831.091797,186.949188   C845.496582,188.620712 859.939880,190.019287 874.295288,192.041473   C888.314941,194.016373 902.342590,196.162994 916.190674,199.072266   C935.541870,203.137634 954.895630,207.379166 973.948975,212.630951   C1003.076599,220.659592 1031.434692,231.041016 1058.717163,244.102768   C1074.133301,251.483414 1089.837769,258.529785 1104.362305,267.438507   C1123.236572,279.015167 1141.722656,291.454803 1159.158569,305.080627   C1175.872314,318.142059 1191.592163,332.623352 1206.727295,347.518707   C1225.097900,365.598297 1240.832764,386.032501 1255.635254,407.154388   C1271.562500,429.881439 1285.531494,453.789001 1297.209595,478.902252   C1305.610229,496.967133 1313.148682,515.512024 1319.776733,534.299561   C1326.229614,552.590515 1331.617310,571.315308 1336.377930,590.126648   C1340.119507,604.911377 1342.789307,620.036560 1344.858398,635.157837   C1347.478149,654.303345 1349.369019,673.569763 1350.878174,692.838562   C1351.873413,705.545410 1351.888672,718.348938 1351.853027,731.107788   C1351.836304,737.128174 1350.669067,743.145386 1349.659912,749.699463   C1347.259155,747.742920 1345.405518,745.069153 1343.152954,742.789673   C1331.710327,731.210327 1320.323486,719.568420 1308.616211,708.259827   C1291.988770,692.198547 1273.462036,678.496277 1254.276245,665.672485   C1245.894043,660.069824 1237.423584,654.598999 1229.391602,648.960571   C1230.204590,647.191956 1231.032349,645.515137 1230.968872,643.872803   C1230.423462,629.786194 1230.012573,615.684021 1228.973511,601.629944   C1227.973999,588.110046 1227.041382,574.506897 1224.696533,561.183716   C1221.460205,542.794312 1217.384888,524.518494 1212.845093,506.400421   C1205.441162,476.852112 1195.136963,448.271271 1181.448730,421.022400   C1175.885254,409.947296 1169.665894,399.182159 1163.339233,388.516602   C1158.952026,381.120636 1154.042236,374.014465 1149.050781,367.003052   C1144.489380,360.595581 1139.565918,354.441040 1134.687256,348.265686   C1130.649048,343.154266 1126.611938,338.023285 1122.256226,333.187561   C1119.043213,329.620422 1115.280396,326.552979 1111.828613,323.194916   C1106.551514,318.061096 1101.635254,312.504822 1096.003052,307.801880   C1090.190796,302.948578 1083.740845,298.850494 1077.506836,294.512482   C1067.052124,287.237366 1057.046021,279.132050 1045.953491,273.000153   C1026.657593,262.333618 1006.879944,252.476089 986.934692,243.062576   C961.354980,230.989792 934.577881,221.960541 907.168152,215.089737   C880.379150,208.374557 853.419861,202.255264 825.792175,199.932449   C809.137756,198.532257 792.489990,196.585785 775.804810,196.121735   C747.254456,195.327682 718.681824,195.720978 690.332397,199.973648   C673.344177,202.522018 656.282532,204.744370 639.442322,208.068253   C623.539062,211.207214 607.607910,214.735336 592.187500,219.654724   C573.408142,225.645676 554.852234,232.581345 536.758667,240.401688   C521.856079,246.842834 507.365417,254.498505 493.439941,262.861084   C480.993530,270.335388 469.501648,279.418884 457.729492,287.985931   C453.416168,291.124908 449.332703,294.636078 445.464447,298.314056   C441.756714,301.839386 438.479309,305.815491 434.985321,309.567902   C429.492767,315.466644 423.495209,320.972717 418.598907,327.328613   C413.039886,334.544830 408.381775,342.465210 403.478851,350.172882   C400.581329,354.727936 397.547699,359.270660 395.303741,364.153687   C387.757629,380.574738 379.933777,396.910889 373.389191,413.735809   C368.351196,426.687500 364.091827,440.118622 361.237335,453.704468   C356.074860,478.274933 351.517365,503.021637 348.032959,527.880554   C345.051666,549.150208 343.411499,570.649902 342.154114,592.104980   C341.258759,607.382446 341.983368,622.754822 341.792664,638.355286   C327.996796,648.288452 314.085114,657.551514 300.882263,667.733765   C289.240692,676.711853 278.281067,686.591431 267.217560,696.297791   C251.874542,709.758728 237.609909,724.272888 224.813019,740.227234   C220.623260,745.450806 215.737045,750.115784 211.169342,755.036255   C210.112762,743.583862 208.711365,732.149658 208.105316,720.673462   C207.592285,710.958679 207.558990,701.171082 208.094849,691.458740   C209.091537,673.393921 210.284973,655.322754 212.106766,637.326111   C213.501877,623.544556 215.940262,609.866089 218.003876,596.155212   C220.840942,577.305237 226.011642,559.000183 231.065384,540.666687   C237.885544,515.925232 247.046448,491.995087 257.447662,468.618073   C264.554626,452.645081 272.736328,437.035522 281.759827,422.060211   C292.067535,404.953613 303.566772,388.536743 315.088898,372.201477   C321.301178,363.394165 328.194244,354.961426 335.578491,347.110596   C347.359100,334.585632 359.246887,322.052612 372.130066,310.704529   C384.597351,299.722778 398.207214,289.999481 411.622986,280.142334   C431.938995,265.215302 454.161560,253.456284 476.865570,242.692780   C503.124420,230.243988 530.147217,219.659897 558.218628,211.953918   C573.841858,207.665146 589.415466,203.116333 605.204041,199.533310   C618.990906,196.404572 633.003296,194.169861 646.996033,192.074020   C664.031311,189.522476 681.150208,187.529694 698.882690,185.436768   C702.667603,185.709167 705.814514,186.080902 708.935669,185.927414   C720.004700,185.383087 731.057373,184.402054 742.130615,184.075974   C753.267944,183.747986 764.422363,183.991653 775.569336,184.009674   C780.891663,184.018280 786.228088,183.849091 791.533264,184.170959   C804.727051,184.971466 817.906555,186.007660 831.091797,186.949188  z"
   id="path3" />
<path
   fill="#AB0409"
   opacity="1.000000"
   stroke="none"
   d=" M205.615723,799.090698   C209.251816,799.356628 209.099625,801.795166 208.930252,804.195557   C208.017593,817.130188 210.330612,829.451904 218.085312,839.935181   C228.301666,853.746277 242.247925,861.100952 259.661957,862.117432   C277.837921,863.178345 293.821045,856.372253 309.695435,849.112610   C333.010468,838.450378 354.594879,824.718567 376.154510,810.967407   C404.298737,793.016296 432.649384,775.385925 462.901276,761.145630   C496.276093,745.435303 530.699890,732.344604 566.433228,723.130981   C588.511108,717.438354 610.835144,712.547241 633.247192,708.358459   C647.991516,705.602783 663.079346,704.645691 678.030823,703.046082   C719.644165,698.594238 761.416321,699.953613 803.128296,700.234009   C820.628967,700.351685 838.163513,702.192505 855.595032,704.065613   C876.118103,706.270996 896.691833,708.565430 916.975647,712.283264   C938.910950,716.303955 960.851807,720.946350 982.216614,727.259033   C1007.775940,734.811157 1032.973999,743.775635 1057.878174,753.305359   C1087.079224,764.479126 1114.951294,778.628906 1141.973633,794.407104   C1173.058228,812.557251 1203.948975,831.061523 1235.414673,848.527954   C1252.412720,857.963440 1270.944336,864.238525 1290.344849,866.811340   C1307.873901,869.135986 1324.757202,866.608521 1339.576904,856.140198   C1350.517334,848.412109 1357.284058,837.714722 1358.907837,824.340576   C1359.672363,818.045044 1359.096924,811.590820 1359.231445,805.210693   C1359.252808,804.198059 1359.818848,803.196838 1360.473145,802.123779   C1362.537842,808.460754 1364.497925,814.812622 1365.918701,821.282959   C1367.244019,827.318237 1369.164185,833.550293 1368.798584,839.572876   C1367.209473,865.749512 1355.714600,883.101196 1328.144775,889.885742   C1302.548950,896.184509 1277.554932,892.090698 1253.062988,883.474365   C1229.906860,875.327881 1208.780273,863.118408 1187.597900,851.012268   C1171.156860,841.616028 1154.805908,832.060486 1138.306641,822.768127   C1123.478394,814.416992 1108.690186,805.959656 1093.533569,798.237793   C1081.059082,791.882385 1068.234009,786.135437 1055.268311,780.844055   C1038.873291,774.153137 1022.365356,767.631775 1005.562927,762.075012   C986.754700,755.854797 967.636719,750.521301 948.504150,745.355042   C939.835938,743.014404 930.797302,742.061523 921.944763,740.383850   C911.485901,738.401672 901.088013,736.061340 890.586060,734.353455   C881.568604,732.887146 872.448730,732.031860 863.361694,731.017517   C854.114868,729.985474 844.855225,729.065430 835.595520,728.153809   C833.739319,727.971069 831.857300,728.062073 829.987976,728.001038   C819.897644,727.671997 809.808105,727.315308 799.717102,727.005737   C788.127930,726.650330 776.537048,726.054688 764.947693,726.073669   C751.360413,726.095947 737.760986,726.405518 724.190796,727.075012   C710.735901,727.738708 697.269592,728.631958 683.884033,730.110474   C670.059631,731.637390 656.218323,733.438049 642.578308,736.109009   C621.173157,740.300659 599.742798,744.610840 578.666321,750.171570   C551.491150,757.341248 524.882629,766.596375 499.264404,778.162720   C479.909332,786.901184 460.982758,796.719727 442.426544,807.064026   C418.879669,820.190369 395.976349,834.465942 372.650970,847.996826   C355.859406,857.737488 339.280792,868.013489 321.794922,876.346130   C300.065399,886.701050 276.940369,893.011963 252.468765,890.888306   C238.676407,889.691345 225.730774,885.055054 215.376694,875.629517   C207.212463,868.197449 202.320374,858.470825 199.963577,847.510132   C197.146347,834.408203 200.148636,821.573486 201.487473,808.685425   C201.822876,805.456543 203.972015,802.416077 205.615723,799.090698  z"
   id="path4" />
<path
   fill="#AA0409"
   opacity="1.000000"
   stroke="none"
   d=" M1228.993286,649.068359   C1237.423584,654.598999 1245.894043,660.069824 1254.276245,665.672485   C1273.462036,678.496277 1291.988770,692.198547 1308.616211,708.259827   C1320.323486,719.568420 1331.710327,731.210327 1343.152954,742.789673   C1345.405518,745.069153 1347.259155,747.742920 1349.573120,750.117493   C1349.108032,755.941284 1348.373291,761.883301 1347.620361,767.822998   C1347.438110,769.260681 1347.196655,770.690857 1346.909058,772.550293   C1343.106445,769.332520 1339.348511,765.717529 1335.653076,762.039795   C1325.089355,751.526917 1314.924438,740.576599 1303.898193,730.575134   C1292.744873,720.458435 1281.012695,710.927246 1269.062988,701.753235   C1248.644897,686.078064 1227.086304,672.060974 1204.425659,659.816406   C1187.316895,650.571899 1170.474487,640.685852 1152.784180,632.701233   C1126.933228,621.033142 1100.707520,610.060303 1074.116577,600.208252   C1051.915649,591.982666 1029.188721,584.918945 1006.277100,578.940796   C982.137939,572.642273 957.578430,567.852539 933.061157,563.139160   C914.418030,559.555176 895.589661,556.859680 876.774231,554.275208   C865.317627,552.701538 853.746399,551.800415 842.196045,551.107849   C821.674500,549.877319 801.133606,548.939819 780.592957,548.065674   C768.314758,547.543152 756.015137,546.961426 743.736572,547.150085   C728.154907,547.389587 712.522156,547.725586 697.023926,549.201416   C671.868164,551.596802 646.807007,554.979431 621.700073,557.895813   C586.723938,561.958557 552.638855,570.448914 519.063599,580.497681   C494.319061,587.903381 470.080688,597.294189 446.183075,607.170715   C405.205963,624.105957 366.923187,646.216797 330.777466,671.815369   C312.684174,684.629028 295.151978,698.339844 278.216949,712.651794   C264.150635,724.539307 251.094254,737.664978 238.055267,750.706848   C231.520096,757.243530 226.047745,764.838867 220.032516,771.902405   C218.774704,773.379456 217.243423,774.623657 215.496490,776.003235   C213.781311,769.305969 212.407806,762.580627 211.101807,755.445801   C215.737045,750.115784 220.623260,745.450806 224.813019,740.227234   C237.609909,724.272888 251.874542,709.758728 267.217560,696.297791   C278.281067,686.591431 289.240692,676.711853 300.882263,667.733765   C314.085114,657.551514 327.996796,648.288452 342.138184,638.269775   C370.932617,620.407776 400.120453,604.725159 430.828247,591.869812   C464.893127,577.609070 499.648865,565.333374 535.577148,556.889587   C560.704285,550.984192 586.175598,546.432800 611.627625,542.058167   C629.466797,538.991943 647.491882,536.838867 665.509277,535.028503   C681.322083,533.439575 697.235168,532.146484 713.112122,532.047729   C744.239380,531.854187 775.383789,532.185486 806.498962,533.073853   C826.323914,533.639893 846.122742,535.425537 865.907288,536.992676   C878.722168,538.007812 891.571350,539.093445 904.261292,541.071106   C927.528564,544.697083 950.924316,547.989990 973.836060,553.284363   C1003.246582,560.080505 1032.399658,568.148499 1061.357056,576.705688   C1094.102051,586.382263 1126.031372,598.511536 1157.162964,612.575195   C1172.131226,619.336914 1186.820679,626.733459 1201.488281,634.135925   C1210.797485,638.834167 1219.834351,644.072327 1228.993286,649.068359  z"
   id="path5" />
<path
   fill="#F25451"
   opacity="1.000000"
   stroke="none"
   d=" M831.054382,186.524292   C817.906555,186.007660 804.727051,184.971466 791.533264,184.170959   C786.228088,183.849091 780.891663,184.018280 775.569336,184.009674   C764.422363,183.991653 753.267944,183.747986 742.130615,184.075974   C731.057373,184.402054 720.004700,185.383087 708.935669,185.927414   C705.814514,186.080902 702.667603,185.709167 699.258362,185.261658   C700.290039,179.763336 700.979614,174.322891 703.025330,169.452057   C707.813904,158.050812 717.543518,151.968643 728.672546,148.030197   C746.502930,141.720215 764.881958,142.391174 783.397583,143.826279   C793.458679,144.606094 802.879211,147.272400 811.316284,152.288147   C823.878113,159.755997 830.402588,171.358795 831.054382,186.524292  z"
   id="path6" />
<path
   fill="#F25451"
   opacity="1.000000"
   stroke="none"
   d=" M1229.391602,648.960571   C1219.834351,644.072327 1210.797485,638.834167 1201.488281,634.135925   C1186.820679,626.733459 1172.131226,619.336914 1157.162964,612.575195   C1126.031372,598.511536 1094.102051,586.382263 1061.357056,576.705688   C1032.399658,568.148499 1003.246582,560.080505 973.836060,553.284363   C950.924316,547.989990 927.528564,544.697083 904.261292,541.071106   C891.571350,539.093445 878.722168,538.007812 865.907288,536.992676   C846.122742,535.425537 826.323914,533.639893 806.498962,533.073853   C775.383789,532.185486 744.239380,531.854187 713.112122,532.047729   C697.235168,532.146484 681.322083,533.439575 665.509277,535.028503   C647.491882,536.838867 629.466797,538.991943 611.627625,542.058167   C586.175598,546.432800 560.704285,550.984192 535.577148,556.889587   C499.648865,565.333374 464.893127,577.609070 430.828247,591.869812   C400.120453,604.725159 370.932617,620.407776 342.330536,637.999390   C341.983368,622.754822 341.258759,607.382446 342.154114,592.104980   C343.411499,570.649902 345.051666,549.150208 348.032959,527.880554   C351.517365,503.021637 356.074860,478.274933 361.237335,453.704468   C364.091827,440.118622 368.351196,426.687500 373.389191,413.735809   C379.933777,396.910889 387.757629,380.574738 395.303741,364.153687   C397.547699,359.270660 400.581329,354.727936 403.478851,350.172882   C408.381775,342.465210 413.039886,334.544830 418.598907,327.328613   C423.495209,320.972717 429.492767,315.466644 434.985321,309.567902   C438.479309,305.815491 441.756714,301.839386 445.464447,298.314056   C449.332703,294.636078 453.416168,291.124908 457.729492,287.985931   C469.501648,279.418884 480.993530,270.335388 493.439941,262.861084   C507.365417,254.498505 521.856079,246.842834 536.758667,240.401688   C554.852234,232.581345 573.408142,225.645676 592.187500,219.654724   C607.607910,214.735336 623.539062,211.207214 639.442322,208.068253   C656.282532,204.744370 673.344177,202.522018 690.332397,199.973648   C718.681824,195.720978 747.254456,195.327682 775.804810,196.121735   C792.489990,196.585785 809.137756,198.532257 825.792175,199.932449   C853.419861,202.255264 880.379150,208.374557 907.168152,215.089737   C934.577881,221.960541 961.354980,230.989792 986.934692,243.062576   C1006.879944,252.476089 1026.657593,262.333618 1045.953491,273.000153   C1057.046021,279.132050 1067.052124,287.237366 1077.506836,294.512482   C1083.740845,298.850494 1090.190796,302.948578 1096.003052,307.801880   C1101.635254,312.504822 1106.551514,318.061096 1111.828613,323.194916   C1115.280396,326.552979 1119.043213,329.620422 1122.256226,333.187561   C1126.611938,338.023285 1130.649048,343.154266 1134.687256,348.265686   C1139.565918,354.441040 1144.489380,360.595581 1149.050781,367.003052   C1154.042236,374.014465 1158.952026,381.120636 1163.339233,388.516602   C1169.665894,399.182159 1175.885254,409.947296 1181.448730,421.022400   C1195.136963,448.271271 1205.441162,476.852112 1212.845093,506.400421   C1217.384888,524.518494 1221.460205,542.794312 1224.696533,561.183716   C1227.041382,574.506897 1227.973999,588.110046 1228.973511,601.629944   C1230.012573,615.684021 1230.423462,629.786194 1230.968872,643.872803   C1231.032349,645.515137 1230.204590,647.191956 1229.391602,648.960571  z"
   id="path7" />
</svg>
