<?xml version="1.0" encoding="UTF-8" standalone="no"?>
<svg
   viewBox="0 0 1024 1024"
   version="1.1"
   id="svg1"
   xmlns="http://www.w3.org/2000/svg"
   xmlns:svg="http://www.w3.org/2000/svg">
  <defs
     id="defs1" />
  <path
     id="glasses-01"
     fill="#53473F"
     opacity="1.000000"
     stroke="none"
     d=" M465.942230,566.918579   C454.911987,587.882019 437.842407,601.578125 415.267609,608.250977   C385.061707,617.179504 356.767914,613.011536 330.877869,594.739258   C321.479523,588.106262 314.809906,578.972168 308.513214,569.147217   C306.009003,562.201172 303.372559,555.564331 301.591095,548.705383   C299.467651,540.529724 299.785187,540.447266 291.070160,540.110352   C278.861298,539.638367 272.648071,528.919006 278.613464,518.263611   C279.664581,516.386047 281.774963,514.834167 283.748932,513.815369   C285.748077,512.783508 288.322937,511.810883 290.406647,512.176025   C301.327454,514.089661 306.755890,508.945435 312.104706,499.671204   C322.867920,481.009003 340.369568,470.190491 360.823486,464.072906   C362.093292,463.693085 363.354309,463.283813 365.340698,462.686401   C382.773987,459.841461 399.345825,460.614624 415.788879,464.525360   C425.583679,470.088379 435.878632,474.942352 445.039154,481.404480   C455.143982,488.532715 461.525116,499.089111 466.430267,510.409119   C467.072510,511.891357 467.745514,513.360229 468.447388,514.931763   C496.877747,499.897400 525.094727,499.993164 553.035889,514.412048   C557.191345,507.250305 560.731628,499.879089 565.421509,493.331268   C575.097900,479.821594 588.429443,470.946289 604.508118,464.943604   C615.240845,463.416931 625.378967,461.720337 635.581055,461.131653   C642.300659,460.743927 649.112488,461.951935 655.882996,462.445435   C667.804260,466.212280 679.363953,470.681946 689.348755,478.531464   C699.693970,486.664215 708.263000,496.267792 713.801208,508.255249   C715.265869,511.425629 717.005249,512.114258 720.215088,512.069336   C724.993164,512.002502 729.871948,512.172180 734.541687,513.088440   C740.412537,514.240417 742.339294,517.402466 742.837646,523.275208   C743.899109,535.783203 740.950195,541.091675 722.202393,540.522278   C719.422058,550.132996 716.691528,559.571472 713.876953,569.352539   C706.536621,581.842773 697.578125,592.329285 685.205261,599.626282   C645.721802,622.911987 593.942078,614.603760 567.313599,581.667419   C563.885620,577.427429 561.034485,572.721130 557.632324,567.621216   C552.929810,555.305420 549.051697,543.520386 550.623047,530.669189   C550.750427,529.626953 549.448547,527.857178 548.362366,527.300293   C523.865051,514.741821 499.271698,514.553040 474.799500,527.304932   C473.313141,528.079468 471.858948,530.655701 471.905243,532.352173   C472.231537,544.307495 470.615204,555.857910 465.942230,566.918579  M604.895813,479.787842   C604.895813,479.787842 604.769775,479.755890 604.047180,479.747406   C594.282776,483.586761 585.788940,489.137115 579.121033,498.248413   C568.027039,512.343079 563.762573,528.233154 567.049500,545.904419   C569.480774,558.975708 575.586975,570.140930 585.918884,579.681641   C602.791565,594.542480 622.702209,600.298401 644.686951,597.728210   C662.594482,595.634705 678.737366,588.889282 691.665344,574.631165   C692.453064,573.561340 693.225952,572.480164 694.030884,571.423401   C707.627258,553.571899 708.953186,527.382751 697.755920,507.926331   C679.025330,475.380005 636.991455,466.439148 605.454773,479.081848   C605.260498,479.359772 605.066223,479.637726 604.895813,479.787842  M325.089935,505.277740   C312.693512,523.115051 312.932648,554.382324 330.130676,573.648254   C349.772583,594.629089 373.984650,601.608276 401.807129,596.364441   C417.134003,593.475769 430.831146,586.974792 441.970245,574.677185   C453.962280,560.097961 458.969421,543.391235 455.371063,524.869385   C447.553894,484.632019 405.172363,466.976013 368.236938,475.889954   C350.090057,479.751404 335.381165,488.675201 325.089935,505.277740  z" />
  <path
     style="fill:#f6d5ff;fill-opacity:0.42;stroke-width:1.25644"
     d="m 366.49224,594.98196 c -12.42111,-3.37326 -20.57581,-7.99809 -30.43094,-17.25852 -14.03375,-13.1869 -19.57766,-26.95773 -18.49526,-45.9414 0.54483,-9.55555 1.28634,-12.45703 5.2151,-20.40634 9.07913,-18.37036 25.68885,-30.64092 47.50209,-35.09255 12.89153,-2.6309 23.70444,-2.49245 35.21268,0.45086 13.37769,3.42144 24.1515,9.25225 32.47454,17.57529 12.61277,12.61277 18.30969,27.94941 17.2408,46.41388 -1.00753,17.40448 -10.8984,33.87602 -26.48159,44.10051 -16.77935,11.00932 -43.21539,15.32416 -62.23742,10.15827 z"
     id="path1" />
  <path
     style="fill:#f6d5ff;fill-opacity:0.42;stroke-width:1.25644"
     d="m 617.095,595.44785 c -25.99438,-6.2926 -47.03493,-28.83813 -49.6366,-53.18699 -1.33008,-12.44811 0.22856,-21.51935 5.58217,-32.48821 8.43096,-17.27392 23.44262,-28.53914 44.71207,-33.55332 22.70237,-5.35199 49.40481,1.2911 66.34221,16.50476 14.70118,13.20502 20.9699,28.43681 19.84232,48.21305 -0.56171,9.85143 -1.27616,12.68592 -5.19741,20.62002 -8.30192,16.7978 -25.78675,29.81923 -45.70955,34.04114 -10.59929,2.24614 -26.30668,2.18038 -35.93521,-0.15045 z"
     id="path2" />
</svg>
