<?xml version="1.0" encoding="UTF-8" standalone="no"?>
<svg
   version="1.1"
   id="Layer_1"
   x="0px"
   y="0px"
   width="100%"
   viewBox="0 0 1024 1024"
   enable-background="new 0 0 1024 1024"
   xml:space="preserve"
   xmlns="http://www.w3.org/2000/svg"
   xmlns:svg="http://www.w3.org/2000/svg"><defs
   id="defs80" />





<path
   fill="#454443"
   opacity="1"
   stroke="none"
   d="m 790.97363,457.99857 c 0.24591,0.96045 0.45032,1.93386 0.74451,2.8793 1.93176,6.20819 0.13837,11.04263 -4.80035,12.88363 -5.55555,2.07093 -10.13984,-0.36669 -12.72211,-6.85562 -9.46112,-23.77438 -21.70825,-46.00103 -37.23645,-66.34897 -17.14307,-22.46408 -37.44244,-41.49285 -61.28662,-56.85037 -19.20813,-12.37158 -39.57581,-22.21731 -61.10938,-29.5643 -9.54547,-3.25677 -19.59259,-5.03701 -29.39392,-7.5578 -1.21228,-0.3118 -2.31274,-1.05829 -4.19855,-1.6987 -17.15765,-2.3616 -33.51904,-5.55584 -50.02093,-6.67285 -23.75311,-1.60779 -47.56168,-0.46921 -71.06702,3.77786 -10.22894,1.84827 -20.30227,4.55796 -30.82339,6.79581 -0.70767,-0.0387 -1.04843,-0.035 -1.36737,0.0505 -52.51651,14.0596 -98.28659,39.13446 -134.20014,80.91577 -18.42395,21.43414 -32.93957,45.08282 -44.23289,70.89334 -1.83336,4.19009 -0.48004,6.2103 2.51431,8.75396 4.25456,3.61414 8.08171,7.73139 12.12859,11.93455 0.36456,0.78781 0.69204,1.27478 1.04147,1.72207 0.0219,-0.0396 -0.0641,-0.0111 -0.0428,0.40399 0.43265,2.51654 0.9885,4.60141 1.23194,6.72211 1.52292,13.26611 2.97613,26.54022 4.37985,40.2143 0.47937,16.81823 1.03134,33.23394 1.58334,49.64965 -0.33166,7.67798 -0.66333,15.35596 -1.02829,23.93055 -1.02075,8.12622 -1.49939,15.47216 -3.11871,22.55743 -2.24881,9.83972 -8.51224,16.2951 -18.57843,18.7243 -0.96306,0.23242 -1.78285,1.05835 -3.04829,1.52405 -3.24009,-4.4375 -6.41088,-8.62201 -8.88848,-13.18304 -3.60646,-6.63935 -9.78757,-12.15406 -9.44653,-21.05463 0.67236,-10.0166 1.98787,-19.59576 1.87948,-29.15875 -0.24447,-21.568 -0.97671,-43.13782 -1.95587,-64.68671 -0.42651,-9.3869 -1.73344,-18.75412 -3.04275,-28.07379 -0.96587,-6.87503 -4.88053,-10.63553 -10.93749,-12.01105 2.11206,-5.69339 5.4039,-10.14306 10.70258,-12.33017 3.20407,-1.32251 4.53738,-3.4501 5.49774,-6.38196 5.82806,-17.79226 14.93123,-33.9685 24.92134,-50.08605 22.34509,-34.29001 50.63425,-62.19361 84.40882,-85.08658 4.69628,-2.8064 8.91452,-5.85294 13.52194,-8.10239 14.31851,-6.99063 28.78473,-13.67889 43.19366,-20.48447 11.18613,-3.15875 22.2728,-6.7388 33.57483,-9.40655 64.08496,-15.12696 127.57993,-13.95212 190.24936,7.50567 1.2558,0.42997 2.55743,0.72571 4.49597,1.3588 10.33966,4.53848 20.16864,8.5011 29.65991,13.15292 9.02784,4.42472 17.70276,9.56946 26.69336,14.70209 11.17041,8.85932 22.47766,17.06162 33.12665,26.04428 20.61841,17.39215 37.13361,38.42917 52.21301,60.64908 1.67115,2.60855 3.34229,5.21713 5.35529,8.36725 6.70416,13.52154 13.06647,26.50152 19.42883,39.48154 z"
   id="path6"
   style="display:inline" />


<path
   fill="#575756"
   opacity="1.000000"
   stroke="none"
   d=" M201.843933,481.405762   C205.701294,480.411957 209.339905,479.657440 213.399750,478.928986   C219.987305,479.990631 223.901962,483.751129 224.867828,490.626160   C226.177139,499.945831 227.484070,509.313049 227.910583,518.699951   C228.889740,540.248840 229.621979,561.818665 229.866455,583.386658   C229.974838,592.949646 228.659332,602.528809 227.641235,612.510803   C226.181168,611.777649 225.019699,610.678589 223.968948,609.482239   C221.473663,606.641296 218.446411,605.243591 214.698486,606.278931   C208.471451,607.998962 206.405548,614.796631 209.756531,621.252563   C212.077301,625.723816 213.947662,630.428772 215.858765,635.336609   C213.069443,637.189270 210.440628,638.734619 207.811798,640.279968   C199.181656,639.501038 193.185883,634.283447 187.336227,628.185791   C183.765060,622.503967 180.191696,617.098206 177.296844,611.350769   C172.007172,600.848633 170.042923,589.413940 168.754440,577.405518   C169.063950,566.526611 168.771927,555.987976 170.016632,545.634094   C172.576813,524.337830 181.208359,505.378540 194.457352,488.561737   C196.493164,485.977692 199.218643,483.937012 201.843933,481.405762  z"
   id="path9" />










<path
   fill="#494847"
   opacity="1"
   stroke="none"
   d="m 318.58577,701.20617 c 0.81522,0.15338 2.69069,0.60865 3.43565,0.92664 6.24399,2.66504 11.59507,3.46118 17.20383,-2.51068 2.76147,-2.94025 8.42664,-4.17883 12.84799,-4.34747 14.83441,-0.56574 29.27258,1.86542 42.07404,9.92255 8.6727,5.45855 11.47625,13.91162 9.73669,23.83837 -1.60263,9.14557 -6.90439,15.29846 -15.70227,18.318 -1.71524,0.58874 -3.5498,1.03363 -5.35199,1.13293 -14.21234,0.78241 -27.85196,-1.86682 -40.67581,-7.90637 -6.00781,-2.82941 -10.3121,-7.67859 -12.45593,-14.28918 -0.4476,-1.38031 -2.20206,-2.73737 -3.66602,-3.31501 -5.10037,-2.01245 -11.1705,-4.17784 -16.4183,-6.49773 0.85861,-2.02429 2.94752,-3.00763 3.14027,-4.59772 0.55664,-4.59191 2.4267,-8.02815 5.83185,-10.67433 z"
   id="path20" />
<path
   fill="#52514E"
   opacity="1.000000"
   stroke="none"
   d=" M319.313232,701.405884   C316.180115,704.296570 313.588196,707.344116 313.031555,711.936035   C312.838806,713.526123 311.305176,714.953674 310.182739,716.744324   C291.714935,710.597168 275.566376,700.541565 260.885895,688.058899   C246.729187,676.021606 234.604385,662.152893 224.277222,646.705444   C223.831085,646.038147 223.129379,645.541626 222.283188,644.366089   C220.019501,640.854187 218.019379,637.941711 216.019257,635.029297   C213.947662,630.428772 212.077301,625.723816 209.756531,621.252563   C206.405548,614.796631 208.471451,607.998962 214.698486,606.278931   C218.446411,605.243591 221.473663,606.641296 223.968948,609.482239   C225.019699,610.678589 226.181168,611.777649 227.638016,612.955627   C227.645935,621.445984 233.827042,626.960693 237.433502,633.600037   C239.911102,638.161072 243.081894,642.345581 246.321960,646.783081   C251.462418,652.148499 256.223755,657.429321 261.422180,663.150452   C262.236389,663.749878 262.613464,663.908997 262.990540,664.068115   C262.990540,664.068115 262.926147,664.001648 262.887756,664.027039   C275.100464,677.930115 290.262390,687.809875 306.730103,695.853455   C310.741119,697.812561 314.932678,699.401978 319.313232,701.405884  z"
   id="path21" />




<path
   fill="#43423F"
   opacity="1.000000"
   stroke="none"
   d=" M215.858765,635.336609   C218.019379,637.941711 220.019501,640.854187 222.046021,644.180847   C217.548523,643.284119 213.024643,641.973206 208.156281,640.471069   C210.440628,638.734619 213.069443,637.189270 215.858765,635.336609  z"
   id="path26" />












<path
   fill="#D8A260"
   opacity="1.000000"
   stroke="none"
   d=" M263.901917,481.334625   C264.220367,481.508759 264.575928,481.983765 264.926453,482.777557   C264.593964,482.609406 264.266479,482.122437 263.901917,481.334625  z"
   id="path39" />









































</svg>
