<?xml version="1.0" encoding="UTF-8" standalone="no"?>
<svg
   version="1.1"
   id="Layer_1"
   x="0px"
   y="0px"
   width="100%"
   viewBox="0 0 1024 1024"
   enable-background="new 0 0 1024 1024"
   xml:space="preserve"
   sodipodi:docname="paw-01уу.svg"
   inkscape:version="1.4.3 (0d15f75, 2025-12-25)"
   xmlns:inkscape="http://www.inkscape.org/namespaces/inkscape"
   xmlns:sodipodi="http://sodipodi.sourceforge.net/DTD/sodipodi-0.dtd"
   xmlns="http://www.w3.org/2000/svg"
   xmlns:svg="http://www.w3.org/2000/svg"><defs
   id="defs12" /><sodipodi:namedview
   id="namedview12"
   pagecolor="#ffffff"
   bordercolor="#000000"
   borderopacity="0.25"
   inkscape:showpageshadow="2"
   inkscape:pageopacity="0.0"
   inkscape:pagecheckerboard="0"
   inkscape:deskcolor="#d1d1d1"
   inkscape:zoom="0.79589844"
   inkscape:cx="511.37178"
   inkscape:cy="512"
   inkscape:window-width="1920"
   inkscape:window-height="1017"
   inkscape:window-x="-8"
   inkscape:window-y="-8"
   inkscape:window-maximized="1"
   inkscape:current-layer="Layer_1" />

<path
   fill="#D49047"
   opacity="1.000000"
   stroke="none"
   d=" M329.000397,890.111023   C321.785309,886.360291 314.449738,882.813171 307.462372,878.677673   C306.149628,877.900757 305.359528,874.562317 305.799347,872.766052   C309.615723,857.179016 313.868866,841.699585 317.797943,826.139221   C324.272247,800.499084 330.552948,774.810120 337.007172,749.164856   C342.358154,727.903320 348.069458,706.729919 353.206085,685.417542   C359.020020,661.295105 365.113129,637.200256 369.684723,612.830811   C373.238495,593.887024 375.180389,574.585815 376.814545,555.356506   C377.883667,542.775818 377.743713,530.005493 377.047516,517.380676   C375.803314,494.819702 373.282867,472.326843 372.155396,449.762543   C371.366272,433.969391 371.098297,418.040253 372.217682,402.286987   C373.970276,377.622772 378.374268,353.318848 388.062744,330.331451   C394.426636,315.232147 402.815002,301.376221 414.102783,289.325378   C423.056854,279.766052 432.678375,270.980530 444.789978,265.843140   C452.831085,262.432312 461.554718,260.652130 469.888458,257.887695   C471.228882,257.443054 472.669617,255.853790 473.146545,254.476074   C478.062744,240.273773 485.491028,227.566086 496.385559,217.236465   C513.365540,201.137009 533.696045,192.393417 557.206238,192.109467   C566.758301,191.994110 576.418274,192.482147 585.851257,193.888870   C591.720337,194.764114 597.257751,197.870300 602.941162,199.983002   C612.442078,203.514771 619.438354,210.671402 627.281677,216.628525   C628.814941,217.793091 631.718811,218.857391 633.148560,218.182999   C644.087769,213.022903 655.937866,211.006378 667.540283,211.342163   C689.878235,211.988708 710.705383,218.652527 727.053467,234.751938   C741.865417,249.338577 750.749451,267.234955 753.033447,288.138641   C753.264465,290.252808 753.321716,292.512573 754.159363,294.393036   C754.808350,295.849854 756.428772,297.674469 757.826416,297.874573   C773.346863,300.096405 787.367371,306.006622 798.751709,316.598450   C809.447266,326.549469 816.972107,338.902496 820.995544,353.213226   C826.110657,371.407135 826.494690,389.780548 825.291809,408.567291   C824.067444,427.689056 820.138428,446.230957 815.739929,464.663239   C812.067139,480.054565 807.512024,495.379395 801.702209,510.083557   C792.564392,533.210754 782.315857,555.915405 772.004211,578.556030   C766.100098,591.519470 759.492737,604.197815 752.571472,616.654236   C743.422424,633.119934 734.206848,649.596680 724.028564,665.431519   C707.729553,690.788635 690.629089,715.630981 673.835388,740.669495   C670.821716,745.162842 666.996338,749.246948 664.749512,754.079712   C662.664368,758.564880 661.856323,763.745239 661.063843,768.711731   C658.117126,787.177979 655.415344,805.683350 652.607727,824.171875   C651.186218,833.532776 649.824646,842.903992 648.273193,852.243591   C646.605835,862.281128 644.711487,872.280640 642.989197,882.309326   C642.216370,886.809326 642.212341,891.545776 640.736084,895.783569   C639.762451,898.578186 637.235535,901.578918 634.607666,902.885132   C629.989075,905.181091 624.760132,906.249207 619.074097,907.728210   C614.508911,906.737000 613.510620,903.970520 613.944702,900.518738   C614.929504,892.686768 616.052002,884.872131 617.430481,877.020386   C618.160034,876.968201 618.577576,876.945984 619.214478,876.843872   C619.710449,876.580261 619.873657,876.324280 619.937561,875.542725   C622.017212,858.702026 623.753845,842.264709 626.229736,825.939575   C629.522461,804.228394 633.304932,782.589478 637.082703,760.955383   C637.867920,756.458374 638.546021,751.442566 640.983093,747.813965   C658.720764,721.403564 677.691711,695.790955 694.702881,668.931885   C710.844543,643.445862 725.558289,617.012329 739.966248,590.488220   C748.190308,575.348267 754.784546,559.298035 761.696716,543.475891   C774.736145,513.628479 785.100342,482.801392 792.885254,451.211792   C796.666748,435.867401 798.614075,420.052521 801.025940,404.394257   C803.578369,387.823303 801.489136,371.635681 794.937317,356.245392   C792.068420,349.506439 787.605225,343.940125 782.077942,338.544067   C776.646240,333.241272 771.034973,329.561249 764.397888,326.696045   C753.305603,321.907593 741.574951,323.200134 729.998779,323.003448   C730.000000,323.000000 729.992676,323.002441 729.984985,322.533691   C730.214417,306.110779 730.651184,290.153351 723.891174,275.080261   C714.006653,253.040115 695.930847,240.152008 671.730164,238.965073   C656.525330,238.219360 642.944885,243.053146 629.969666,250.136520   C625.791687,252.417343 623.473389,251.503418 621.032410,247.705124   C615.673279,239.366028 608.537903,232.678360 600.051575,227.608093   C582.087463,216.875137 562.772766,215.467667 542.940857,220.640213   C521.895325,226.129272 506.948456,239.196625 498.517792,259.256714   C496.305389,264.520935 495.233307,270.313934 494.072357,275.953613   C493.261993,279.890045 492.429413,282.496002 487.321808,282.199463   C482.270538,281.906250 477.000763,282.441010 472.063690,283.611511   C447.328094,289.476044 431.154663,306.075836 419.406891,327.431854   C404.550476,354.439056 397.940460,383.719604 398.130676,414.414581   C398.253021,434.155914 399.082184,453.906891 400.142548,473.624054   C401.021484,489.967438 403.509735,506.252991 403.806580,522.591064   C404.122528,539.978943 403.375580,557.457947 401.849121,574.787659   C400.271332,592.700500 398.070374,610.654114 394.580170,628.280701   C389.057953,656.169312 382.685089,683.912048 375.843506,711.511047   C367.795105,743.978394 358.780029,776.205322 350.428955,808.599609   C349.501190,812.198425 350.171234,816.209229 349.935608,820.363770   C345.487854,835.843201 341.432129,851.057373 336.829681,866.104248   C334.370422,874.144348 334.622559,883.103149 329.000397,890.111023  z"
   id="path2" />
<path
   fill="#FFEBCE"
   opacity="1.000000"
   stroke="none"
   d=" M617.118530,877.050415   C616.052002,884.872131 614.929504,892.686768 613.944702,900.518738   C613.510620,903.970520 614.508911,906.737000 618.684082,907.808838   C597.550110,916.542480 575.476990,923.031189 552.550659,925.877258   C536.312683,927.893066 519.942017,929.095032 503.593170,929.907349   C475.788086,931.288818 448.288910,928.662415 420.928253,923.298828   C396.225098,918.456177 372.289673,911.488098 349.387817,901.099670   C342.556763,898.000977 336.073669,894.135193 329.215759,890.365906   C334.622559,883.103149 334.370422,874.144348 336.829681,866.104248   C341.432129,851.057373 345.487854,835.843201 350.172852,820.341309   C350.574646,819.984070 351.042847,819.893250 351.281891,819.838379   C351.802124,819.592529 352.003235,819.338318 352.465851,818.965454   C364.655151,812.295898 373.475159,802.281128 382.225677,791.748718   C383.691315,796.927734 384.689087,801.448792 386.243469,805.769714   C392.179108,822.269958 403.391235,827.114990 419.203766,820.015442   C422.742249,818.426636 426.004852,816.223511 429.563141,814.207703   C432.882721,824.238220 437.235962,833.715515 445.957825,840.171326   C453.398376,845.678589 461.596985,850.031616 471.244965,847.220093   C482.962311,843.805420 493.109985,837.702576 500.377228,826.898987   C507.551178,842.938721 516.195740,857.281677 534.332764,861.039978   C552.518188,864.808350 566.456604,855.879578 578.424683,843.086853   C580.327698,846.337036 581.790527,849.142761 583.534668,851.761047   C591.101257,863.119812 600.081543,872.514648 614.711975,874.142334   C615.610901,874.242371 616.320740,876.041687 617.118530,877.050415  z"
   id="path3" />
<path
   fill="#F8B96E"
   opacity="1.000000"
   stroke="none"
   d=" M617.430542,877.020386   C616.320740,876.041687 615.610901,874.242371 614.711975,874.142334   C600.081543,872.514648 591.101257,863.119812 583.534668,851.761047   C581.790527,849.142761 580.327698,846.337036 578.424683,843.086853   C566.456604,855.879578 552.518188,864.808350 534.332764,861.039978   C516.195740,857.281677 507.551178,842.938721 500.377228,826.898987   C493.109985,837.702576 482.962311,843.805420 471.244965,847.220093   C461.596985,850.031616 453.398376,845.678589 445.957825,840.171326   C437.235962,833.715515 432.882721,824.238220 429.563141,814.207703   C426.004852,816.223511 422.742249,818.426636 419.203766,820.015442   C403.391235,827.114990 392.179108,822.269958 386.243469,805.769714   C384.689087,801.448792 383.691315,796.927734 382.225677,791.748718   C373.475159,802.281128 364.655151,812.295898 352.237305,819.046509   C351.371063,819.342285 351.162933,819.579102 351.042847,819.893250   C351.042847,819.893250 350.574646,819.984070 350.337433,820.006470   C350.171234,816.209229 349.501190,812.198425 350.428955,808.599609   C358.780029,776.205322 367.795105,743.978394 375.843506,711.511047   C382.685089,683.912048 389.057953,656.169312 394.580170,628.280701   C398.070374,610.654114 400.271332,592.700500 401.849121,574.787659   C403.375580,557.457947 404.122528,539.978943 403.806580,522.591064   C403.509735,506.252991 401.021484,489.967438 400.142548,473.624054   C399.082184,453.906891 398.253021,434.155914 398.130676,414.414581   C397.940460,383.719604 404.550476,354.439056 419.406891,327.431854   C431.154663,306.075836 447.328094,289.476044 472.063690,283.611511   C477.000763,282.441010 482.270538,281.906250 487.321808,282.199463   C492.429413,282.496002 493.261993,279.890045 494.072357,275.953613   C495.233307,270.313934 496.305389,264.520935 498.517792,259.256714   C506.948456,239.196625 521.895325,226.129272 542.940857,220.640213   C562.772766,215.467667 582.087463,216.875137 600.051575,227.608093   C608.537903,232.678360 615.673279,239.366028 621.032410,247.705124   C623.473389,251.503418 625.791687,252.417343 629.969666,250.136520   C642.944885,243.053146 656.525330,238.219360 671.730164,238.965073   C695.930847,240.152008 714.006653,253.040115 723.891174,275.080261   C730.651184,290.153351 730.214417,306.110779 729.704590,322.568176   C729.114319,323.373932 728.796631,323.676361 728.479004,323.978821   C728.685486,324.157471 728.891968,324.336151 729.098450,324.514832   C729.398193,324.012207 729.697876,323.509552 729.997559,323.006897   C741.574951,323.200134 753.305603,321.907593 764.397888,326.696045   C771.034973,329.561249 776.646240,333.241272 782.077942,338.544067   C787.605225,343.940125 792.068420,349.506439 794.937317,356.245392   C801.489136,371.635681 803.578369,387.823303 801.025940,404.394257   C798.614075,420.052521 796.666748,435.867401 792.885254,451.211792   C785.100342,482.801392 774.736145,513.628479 761.696716,543.475891   C754.784546,559.298035 748.190308,575.348267 739.966248,590.488220   C725.558289,617.012329 710.844543,643.445862 694.702881,668.931885   C677.691711,695.790955 658.720764,721.403564 640.983093,747.813965   C638.546021,751.442566 637.867920,756.458374 637.082703,760.955383   C633.304932,782.589478 629.522461,804.228394 626.229736,825.939575   C623.753845,842.264709 622.017212,858.702026 619.741394,875.651245   C619.285950,876.399841 619.107239,876.636719 618.995117,876.923767   C618.577576,876.945984 618.160034,876.968201 617.430542,877.020386  M565.271729,522.978088   C581.472290,519.924194 596.310242,523.627563 610.964233,530.773254   C622.940796,536.613342 635.798584,539.575867 649.500488,537.102722   C663.769714,534.527222 674.783386,527.773987 681.657043,514.737244   C688.589722,501.588409 687.536194,487.702576 684.726135,474.012207   C677.355774,438.103973 659.433533,409.187012 627.439087,389.869232   C613.062622,381.188934 597.899902,378.561493 581.591431,382.624878   C565.029663,386.751343 550.571167,395.212677 536.992371,405.101807   C518.782288,418.363770 503.162079,434.051697 494.785400,455.586365   C486.842194,476.006683 487.903107,491.841278 504.382751,505.598297   C511.222717,511.308197 519.804260,515.152588 528.005737,518.957520   C539.523376,524.300903 552.032410,523.171204 565.271729,522.978088  M588.483765,284.109711   C586.850525,282.445679 585.312805,280.673370 583.569153,279.134399   C566.223999,263.825897 546.278564,268.423615 535.782776,287.782959   C525.120422,307.449463 528.945435,326.559113 541.687378,343.732941   C548.547607,352.979370 558.535950,358.303467 570.762268,356.124573   C586.149902,353.382324 594.106018,342.399445 597.710510,328.570709   C601.797363,312.891235 598.526062,297.982452 588.483765,284.109711  M670.487671,286.792358   C660.631226,284.275696 652.519653,288.188629 645.373535,294.260345   C629.355591,307.870117 623.761108,333.706573 635.250244,353.581879   C645.918030,372.036224 665.475037,377.542267 683.080933,361.246765   C696.463196,348.860596 699.475159,332.912872 695.243225,315.626587   C691.985840,302.321014 685.524719,291.294281 670.487671,286.792358  M469.450684,406.169495   C474.541290,407.404144 479.744659,410.010529 484.700348,409.603302   C497.076965,408.586151 504.410187,400.151245 508.964203,389.361267   C516.436951,371.655975 509.584015,350.153564 494.662323,338.330505   C486.449524,331.823212 474.088684,328.820221 463.903015,335.006866   C451.926147,342.281555 446.462982,353.581451 446.161102,367.067963   C445.774506,384.338318 454.130280,397.075623 469.450684,406.169495  M701.831360,395.498108   C698.464050,402.211182 697.872498,409.339630 697.854004,416.769226   C697.829590,426.601746 705.469360,441.414307 719.082764,445.969849   C732.830872,450.570526 743.944336,445.819122 752.772095,436.344208   C762.451233,425.955505 766.808044,413.290497 764.028809,398.773712   C760.779602,381.801819 745.076416,367.879913 725.764465,374.522583   C715.100769,378.190552 707.760620,385.436249 701.831360,395.498108  z"
   id="path4" />
<path
   fill="#EFAF65"
   opacity="1.000000"
   stroke="none"
   d=" M619.214478,876.843872   C619.107239,876.636719 619.285950,876.399841 619.727478,876.104614   C619.873657,876.324280 619.710449,876.580261 619.214478,876.843872  z"
   id="path5" />
<path
   fill="#EFAF65"
   opacity="1.000000"
   stroke="none"
   d=" M351.281891,819.838379   C351.162933,819.579102 351.371063,819.342285 351.895752,819.101807   C352.003235,819.338318 351.802124,819.592529 351.281891,819.838379  z"
   id="path6" />
<path
   fill="#A57348"
   opacity="1.000000"
   stroke="none"
   d=" M564.792480,522.983765   C552.032410,523.171204 539.523376,524.300903 528.005737,518.957520   C519.804260,515.152588 511.222717,511.308197 504.382751,505.598297   C487.903107,491.841278 486.842194,476.006683 494.785400,455.586365   C503.162079,434.051697 518.782288,418.363770 536.992371,405.101807   C550.571167,395.212677 565.029663,386.751343 581.591431,382.624878   C597.899902,378.561493 613.062622,381.188934 627.439087,389.869232   C659.433533,409.187012 677.355774,438.103973 684.726135,474.012207   C687.536194,487.702576 688.589722,501.588409 681.657043,514.737244   C674.783386,527.773987 663.769714,534.527222 649.500488,537.102722   C635.798584,539.575867 622.940796,536.613342 610.964233,530.773254   C596.310242,523.627563 581.472290,519.924194 564.792480,522.983765  z"
   id="path7" />
<path
   fill="#A57348"
   opacity="1.000000"
   stroke="none"
   d=" M588.681885,284.409363   C598.526062,297.982452 601.797363,312.891235 597.710510,328.570709   C594.106018,342.399445 586.149902,353.382324 570.762268,356.124573   C558.535950,358.303467 548.547607,352.979370 541.687378,343.732941   C528.945435,326.559113 525.120422,307.449463 535.782776,287.782959   C546.278564,268.423615 566.223999,263.825897 583.569153,279.134399   C585.312805,280.673370 586.850525,282.445679 588.681885,284.409363  z"
   id="path8" />
<path
   fill="#A57348"
   opacity="1.000000"
   stroke="none"
   d=" M670.891724,286.878113   C685.524719,291.294281 691.985840,302.321014 695.243225,315.626587   C699.475159,332.912872 696.463196,348.860596 683.080933,361.246765   C665.475037,377.542267 645.918030,372.036224 635.250244,353.581879   C623.761108,333.706573 629.355591,307.870117 645.373535,294.260345   C652.519653,288.188629 660.631226,284.275696 670.891724,286.878113  z"
   id="path9" />
<path
   fill="#A57348"
   opacity="1.000000"
   stroke="none"
   d=" M469.100830,406.032684   C454.130280,397.075623 445.774506,384.338318 446.161102,367.067963   C446.462982,353.581451 451.926147,342.281555 463.903015,335.006866   C474.088684,328.820221 486.449524,331.823212 494.662323,338.330505   C509.584015,350.153564 516.436951,371.655975 508.964203,389.361267   C504.410187,400.151245 497.076965,408.586151 484.700348,409.603302   C479.744659,410.010529 474.541290,407.404144 469.100830,406.032684  z"
   id="path10" />
<path
   fill="#A57348"
   opacity="1.000000"
   stroke="none"
   d=" M701.971924,395.150116   C707.760620,385.436249 715.100769,378.190552 725.764465,374.522583   C745.076416,367.879913 760.779602,381.801819 764.028809,398.773712   C766.808044,413.290497 762.451233,425.955505 752.772095,436.344208   C743.944336,445.819122 732.830872,450.570526 719.082764,445.969849   C705.469360,441.414307 697.829590,426.601746 697.854004,416.769226   C697.872498,409.339630 698.464050,402.211182 701.971924,395.150116  z"
   id="path11" />
<path
   fill="#EFAF65"
   opacity="1.000000"
   stroke="none"
   d=" M729.998779,323.003448   C729.697876,323.509552 729.398193,324.012207 729.098450,324.514832   C728.891968,324.336151 728.685486,324.157471 728.479004,323.978821   C728.796631,323.676361 729.114319,323.373932 729.712280,323.036957   C729.992676,323.002441 730.000000,323.000000 729.998779,323.003448  z"
   id="path12" />
</svg>
