<?xml version="1.0" encoding="UTF-8"?>
<svg xmlns="http://www.w3.org/2000/svg" viewBox="0 0 1024 1024">
  <path
    id="scarf-01-main"
    fill="#DA5340"
    opacity="1.000000"
    stroke="none"
    d=" M794.867126,788.090698   C798.865601,809.394653 802.701294,830.730957 806.934570,851.988159   C808.908752,861.901184 806.151428,870.285767 800.347656,878.065125   C799.564270,879.115112 798.775574,880.161133 797.910278,881.546509   C793.883911,884.593689 790.013794,887.424805 785.975220,889.990662   C773.095154,898.173645 760.147766,906.250549 747.245483,914.398682   C746.439087,914.907898 745.796997,915.677307 744.979431,916.660767   C735.392212,920.746948 726.009277,924.798401 716.389099,928.173340   C704.380920,932.385925 692.337097,936.678589 680.015930,939.769531   C665.966003,943.294128 651.632202,945.754639 637.346252,948.244263   C629.401733,949.628784 621.303406,950.130493 612.775391,951.046753   C607.709534,951.116760 603.125000,950.927979 598.578918,951.262939   C568.186646,953.502319 537.775757,954.827759 507.307556,953.234131   C488.378052,952.244019 469.319397,952.138245 450.566681,949.715942   C420.631195,945.849243 390.772461,941.056641 361.135773,935.336731   C344.099609,932.048767 327.564667,926.163940 310.465393,921.322021   C285.555145,912.333435 261.679443,902.029968 240.099533,887.050842   C237.666183,885.361755 235.598511,883.145874 233.026886,881.041260   C231.690475,879.054199 230.688446,877.200317 229.375290,874.856873   C228.709946,873.910889 228.355713,873.454468 228.001480,872.997986   C228.001480,872.997986 228.000000,873.000000 227.943878,872.629333   C223.525787,864.276733 224.507050,856.064941 226.503128,847.662476   C229.833466,833.643372 233.340439,819.620178 232.531891,805.004089   C232.649750,804.237427 232.767624,803.470703 232.947693,801.925171   C233.647125,796.771851 234.284332,792.397278 235.261383,787.881104   C237.341583,787.837708 239.258163,787.496399 240.791504,788.111084   C247.067230,790.627014 253.215210,793.459839 259.430817,796.127930   C266.043488,798.966431 272.679413,801.750671 279.611115,804.730103   C282.121216,806.049011 284.219604,807.510681 286.546326,808.294495   C305.721008,814.753784 324.745911,821.758179 344.180573,827.325378   C390.935272,840.718567 438.721771,848.808838 487.253174,851.650635   C518.674377,853.490723 550.121460,851.961670 581.347412,847.736877   C619.273071,842.605652 656.573792,834.505859 692.710449,821.790222   C713.503662,814.473511 734.639404,807.714783 753.538757,795.134155   C756.490356,794.043457 759.043884,792.919128 761.631958,791.881104   C771.215576,788.037659 779.161194,779.270813 791.078369,782.414429   C792.430664,784.515869 793.673767,786.304749 794.907349,788.077087   C794.897949,788.060547 794.867126,788.090698 794.867126,788.090698  z"
  />
  <path
    id="scarf-01-shadow"
    fill="#A4362C"
    opacity="1.000000"
    stroke="none"
    d=" M616.389893,999.886597   C614.856262,983.864380 613.637085,967.924133 612.846191,951.507080   C621.303406,950.130493 629.401733,949.628784 637.346252,948.244263   C651.632202,945.754639 665.966003,943.294128 680.015930,939.769531   C692.337097,936.678589 704.380920,932.385925 716.389099,928.173340   C726.009277,924.798401 735.392212,920.746948 744.962891,917.355347   C747.764465,927.226440 750.483643,936.737915 753.202759,946.249390   C741.793335,952.469788 730.596497,959.124939 718.933655,964.827087   C687.249939,980.317444 654.066406,991.726990 619.143799,1000.043701   C618.311584,1000.119202 618.141907,1000.187195 617.972168,1000.255188   C617.549561,1000.159668 617.126892,1000.064087 616.389893,999.886597  z"
  />
</svg>
