<?xml version="1.0" encoding="UTF-8" standalone="no"?>
<svg
   version="1.1"
   id="Layer_1"
   x="0px"
   y="0px"
   width="100%"
   viewBox="0 0 1024 1024"
   enable-background="new 0 0 1024 1024"
   xml:space="preserve"
   xmlns="http://www.w3.org/2000/svg"
   xmlns:svg="http://www.w3.org/2000/svg"><defs
   id="defs27" />
<path
   fill="#ADD0DF"
   opacity="1.000000"
   stroke="none"
   d=" M445.000000,1025.000000   C297.015533,1025.000000 149.031052,1025.000000 1.023289,1025.000000   C1.023289,683.718018 1.023289,342.436005 1.023289,1.077000   C342.246155,1.077000 683.492371,1.077000 1024.869263,1.077000   C1024.869263,342.210327 1024.869263,683.420715 1024.869263,1025.000000   C874.972168,1025.000000 724.944031,1025.000000 574.493896,1024.684937   C574.411011,1023.396667 574.750122,1022.423462 575.530762,1021.355225   C582.848511,1020.229553 589.821350,1019.624207 596.582947,1018.088684   C617.006348,1013.450806 637.615356,1009.352905 657.663269,1003.398865   C695.134888,992.270264 730.806458,976.756958 764.567627,956.829773   C801.914917,934.786133 836.311890,909.051941 866.594299,877.937134   C871.671814,872.720032 871.214050,869.474548 864.681702,865.949829   C857.946228,862.315430 850.895386,859.246277 844.270020,855.430481   C812.083801,836.893311 777.659180,823.409424 742.969177,810.591797   C718.762634,801.647705 694.307922,793.373535 669.941040,784.865967   C658.316528,780.807373 646.638550,776.901917 634.787354,772.603394   C634.076050,771.067810 633.190002,769.880859 633.106506,768.639893   C632.352600,757.435974 631.739319,746.222717 631.299683,734.708557   C631.310547,732.259338 631.106567,730.113647 630.869080,727.573242   C630.660828,724.789551 630.486145,722.400574 630.492310,719.662109   C630.557251,715.870789 630.441345,712.429016 630.311890,708.586304   C630.533447,705.785645 630.768494,703.385803 631.227722,700.681274   C631.378418,697.910706 631.304810,695.444763 631.244385,692.610229   C631.345886,691.507629 631.434143,690.773560 631.734863,689.807617   C633.213867,688.041199 634.357300,686.382019 635.766296,684.992065   C648.076904,672.847595 660.969971,661.241577 672.635925,648.509644   C685.594727,634.366760 695.240845,617.987427 699.198792,598.880676   C702.064087,585.047974 704.537964,571.132202 707.028564,557.225159   C707.858215,552.592773 709.333984,549.744202 714.803284,548.602905   C736.568420,544.061218 754.050232,532.961731 764.184082,512.521240   C775.234070,490.232544 777.472473,467.289703 766.606873,444.218567   C758.014648,425.974396 734.591919,415.040649 715.855469,419.821960   C715.521790,419.360626 715.275818,419.154388 714.974731,418.531006   C714.304321,390.116974 713.677002,362.170715 712.978882,334.226196   C712.286865,306.526978 707.218811,279.637360 697.366333,253.737122   C683.060303,216.129761 658.231079,187.440231 622.977295,168.096695   C581.307983,145.233078 536.523315,137.951370 489.715942,144.067673   C444.075378,150.031540 403.691772,167.595947 372.867249,202.939148   C363.761169,213.380142 355.505127,225.052399 349.212891,237.363220   C332.241302,270.568207 326.958191,306.846069 325.168396,343.580780   C323.995026,367.663666 324.326721,391.820587 324.036407,415.944977   C324.003143,418.707306 323.681213,420.235199 320.097809,419.668091   C302.540985,416.889465 287.803589,422.963531 277.409943,436.769165   C265.574280,452.490265 260.774536,470.348541 266.230835,490.251831   C270.582947,506.127106 276.608978,520.849670 289.388184,531.918579   C299.691101,540.842590 311.600159,546.519897 324.987274,548.963440   C328.630554,549.628418 330.467377,551.302246 331.005463,555.041992   C332.165375,563.103149 333.864014,571.088379 334.961884,579.156494   C337.979034,601.329041 344.789032,622.037292 358.959534,639.669739   C366.973145,649.640991 375.500519,659.237549 384.296234,668.529846   C391.130585,675.750061 398.738312,682.238281 405.997498,689.473389   C406.784912,695.511475 407.577148,701.127991 408.263000,707.218628   C407.427216,725.470459 406.401215,743.243408 406.105865,761.028442   C405.977112,768.781799 402.287537,773.125916 395.667023,775.581726   C388.962128,778.068848 382.066376,780.037415 375.334045,782.455383   C353.247559,790.387756 330.965332,797.841248 309.189575,806.556335   C279.380157,818.486755 249.721161,830.863037 220.464905,844.082275   C199.405304,853.597839 179.121643,864.827820 158.464890,875.239502   C151.068756,878.967346 150.303391,882.190857 156.417831,887.881409   C163.473175,894.447632 171.043961,900.456116 178.258224,906.856384   C201.642517,927.601685 227.246368,945.276794 254.414017,960.556946   C289.009705,980.014893 325.201080,995.960022 363.659698,1006.251221   C379.685638,1010.539551 395.891693,1014.154602 412.181458,1018.244385   C412.894806,1018.313110 413.442535,1018.213318 414.390808,1018.107178   C417.190399,1018.466125 419.589478,1018.831421 422.162720,1019.368835   C422.607727,1019.745117 422.912201,1019.861694 423.672729,1019.884277   C427.726501,1020.315430 431.357849,1020.752808 435.169861,1021.361328   C435.662903,1021.642700 435.975281,1021.752930 436.656799,1021.843262   C438.009552,1021.879333 438.993195,1021.935242 440.137939,1022.173767   C440.860535,1022.283569 441.421936,1022.210754 442.347229,1022.129272   C443.434540,1022.194336 444.157959,1022.268066 444.911438,1022.671021   C444.960999,1023.666809 444.980499,1024.333374 445.000000,1025.000000  z"
   id="path1" />
<path
   fill="#F1B58E"
   opacity="1.000000"
   stroke="none"
   d=" M434.989166,1021.190308   C431.357849,1020.752808 427.726501,1020.315430 423.496216,1019.708984   C422.630676,1019.329285 422.327789,1019.214844 421.988586,1019.196655   C419.589478,1018.831421 417.190399,1018.466125 414.227966,1017.934875   C413.114990,1017.871216 412.565399,1017.973450 412.015839,1018.075806   C395.891693,1014.154602 379.685638,1010.539551 363.659698,1006.251221   C325.201080,995.960022 289.009705,980.014893 254.414017,960.556946   C227.246368,945.276794 201.642517,927.601685 178.258224,906.856384   C171.043961,900.456116 163.473175,894.447632 156.417831,887.881409   C150.303391,882.190857 151.068756,878.967346 158.464890,875.239502   C179.121643,864.827820 199.405304,853.597839 220.464905,844.082275   C249.721161,830.863037 279.380157,818.486755 309.189575,806.556335   C330.965332,797.841248 353.247559,790.387756 375.334045,782.455383   C382.066376,780.037415 388.962128,778.068848 395.667023,775.581726   C402.287537,773.125916 405.977112,768.781799 406.105865,761.028442   C406.401215,743.243408 407.427216,725.470459 408.590271,707.289185   C412.410431,709.500916 416.124451,711.787964 419.127869,714.786743   C433.679199,729.315491 449.848938,741.819702 467.672943,751.895264   C481.331177,759.615967 495.388153,766.974182 509.998901,772.592163   C536.599731,782.820496 564.386047,786.883057 593.019714,785.156433   C605.433655,784.407898 617.425110,782.376282 628.911377,777.738708   C631.208923,776.811096 632.974182,774.565186 634.984802,772.927063   C646.638550,776.901917 658.316528,780.807373 669.941040,784.865967   C694.307922,793.373535 718.762634,801.647705 742.969177,810.591797   C777.659180,823.409424 812.083801,836.893311 844.270020,855.430481   C850.895386,859.246277 857.946228,862.315430 864.681702,865.949829   C871.214050,869.474548 871.671814,872.720032 866.594299,877.937134   C836.311890,909.051941 801.914917,934.786133 764.567627,956.829773   C730.806458,976.756958 695.134888,992.270264 657.663269,1003.398865   C637.615356,1009.352905 617.006348,1013.450806 596.582947,1018.088684   C589.821350,1019.624207 582.848511,1020.229553 575.114502,1021.307068   C572.456726,1021.579834 570.648010,1021.751831 568.858276,1022.041382   C562.901855,1023.004822 556.952209,1024.010498 551.000000,1025.000000   C523.645752,1025.000000 496.291534,1025.000000 468.170105,1024.768799   C459.895721,1023.805603 452.388550,1023.073669 444.881378,1022.341736   C444.157959,1022.268066 443.434540,1022.194336 442.191833,1021.943542   C441.107330,1021.841309 440.542053,1021.916260 439.976807,1021.991150   C438.993195,1021.935242 438.009552,1021.879333 436.474731,1021.667542   C435.612061,1021.404541 435.300598,1021.297424 434.989166,1021.190308  z"
   id="path2" />
<path
   fill="#CBD4D6"
   opacity="1.000000"
   stroke="none"
   d=" M551.468628,1025.000000   C556.952209,1024.010498 562.901855,1023.004822 568.858276,1022.041382   C570.648010,1021.751831 572.456726,1021.579834 574.672974,1021.402100   C574.750122,1022.423462 574.411011,1023.396667 574.035950,1024.684937   C566.645752,1025.000000 559.291504,1025.000000 551.468628,1025.000000  z"
   id="path3" />
<path
   fill="#CBD4D6"
   opacity="1.000000"
   stroke="none"
   d=" M444.911438,1022.671021   C452.388550,1023.073669 459.895721,1023.805603 467.701447,1024.768799   C460.645752,1025.000000 453.291504,1025.000000 445.468628,1025.000000   C444.980499,1024.333374 444.960999,1023.666809 444.911438,1022.671021  z"
   id="path4" />
<path
   fill="#f1b48d"
   opacity="1"
   stroke="none"
   d="m 715.98621,420.0257 c 18.60571,-4.98505 42.02844,5.9487 50.62066,24.19287 10.8656,23.07113 8.6272,46.01397 -2.42279,68.30267 -10.13385,20.44049 -27.61566,31.53998 -49.3808,36.08166 -5.4693,1.1413 -6.94507,3.98987 -7.77472,8.62226 -2.4906,13.90704 -4.96447,27.82281 -7.82977,41.65552 -3.95794,19.10675 -13.60406,35.48608 -26.56286,49.62896 -11.66596,12.73194 -24.55903,24.33795 -36.86963,36.48243 -1.409,1.38995 -2.55243,3.04913 -4.39252,4.93176 -6.71893,4.60168 -12.9231,8.77307 -18.99829,13.12457 -15.80506,11.32068 -32.30017,21.44635 -52.14948,23.21131 -17.51062,1.55694 -35.14343,2.68048 -52.7019,2.44891 -13.01703,-0.17163 -26.2182,-1.8302 -38.94733,-4.61139 -17.2698,-3.77332 -32.11654,-13.2594 -46.38165,-23.46295 -5.39767,-3.86072 -10.79526,-7.72162 -16.19287,-11.5824 -7.26395,-6.8136 -14.87168,-13.30182 -21.70603,-20.52203 -8.79571,-9.2923 -17.32309,-18.88886 -25.3367,-28.86011 -14.1705,-17.63245 -20.9805,-38.3407 -23.99765,-60.51325 -1.09787,-8.06811 -2.79651,-16.05334 -3.95642,-24.1145 -0.53808,-3.73974 -2.37491,-5.41357 -6.01819,-6.07855 -13.38711,-2.44354 -25.29617,-8.12085 -35.59909,-17.04486 -12.7792,-11.06891 -18.80523,-25.79147 -23.15734,-41.66675 -5.4563,-19.90329 -0.65656,-37.76156 11.1791,-53.48267 10.39365,-13.80563 25.13104,-19.8797 42.68787,-17.10107 3.5834,0.56711 3.90533,-0.96078 3.9386,-3.72311 0.29031,-24.12439 -0.0414,-48.28131 1.13199,-72.3642 1.78979,-36.73471 7.0729,-73.01257 24.04449,-106.21756 6.29224,-12.31082 14.54828,-23.98308 23.65436,-34.42407 30.82452,-35.3432 71.20813,-52.90761 116.84869,-58.87148 46.80738,-6.1163 91.59204,1.16541 133.26136,24.02902 35.25378,19.34354 60.083,48.03307 74.38903,85.64043 9.85248,25.90024 14.92054,52.78986 15.61255,80.48908 0.69812,27.94451 1.32544,55.89077 2.09277,84.53598 0.37751,0.88766 0.646,1.07559 0.91456,1.26352 m 13.66369,92.177 c 3.99304,-4.14441 8.5268,-7.89817 11.86396,-12.51651 6.45086,-8.92752 7.31964,-19.40143 6.39062,-30.03598 -0.9408,-10.7696 -11.42847,-22.29367 -21.92151,-24.38739 -5.52527,-1.10248 -9.67773,1.68643 -9.91638,6.85611 -1.01557,21.99817 -1.96417,43.99942 -2.94177,66.10067 5.9364,0.88599 10.89441,-2.46917 16.52508,-6.0169 M 292.44714,463.18405 c -3.09835,8.88538 -3.77386,17.85474 -0.46817,26.80884 5.18479,14.0441 14.12961,24.1672 29.34778,27.64346 3.6033,0.82312 4.85529,-0.34839 4.60617,-4.02441 -1.37759,-20.32633 -2.68698,-40.65765 -3.89718,-60.99457 -0.32663,-5.48874 -1.35465,-6.86331 -6.87696,-6.6124 -11.06045,0.50257 -17.66528,7.26627 -22.71164,17.17908"
   id="path5" />
<path
   fill="#DE8E6F"
   opacity="1.000000"
   stroke="none"
   d=" M405.997467,689.473389   C411.399872,692.912659 416.797455,696.773560 422.195129,700.634277   C436.460236,710.837830 451.306976,720.323914 468.576782,724.097229   C481.305908,726.878418 494.507080,728.536987 507.524109,728.708618   C525.082581,728.940186 542.715393,727.816650 560.226013,726.259705   C580.075317,724.494751 596.570435,714.369080 612.375488,703.048401   C618.450684,698.696899 624.654846,694.525513 631.161255,690.155762   C631.434143,690.773560 631.345886,691.507629 631.154297,693.003662   C631.035095,696.172424 631.019287,698.579224 631.003540,700.985962   C630.768494,703.385803 630.533447,705.785645 630.210449,709.036011   C630.185486,713.261597 630.248413,716.636597 630.311401,720.011597   C630.486145,722.400574 630.660828,724.789551 630.721741,727.869629   C630.766846,730.711182 630.925781,732.861633 631.084778,735.012146   C631.739319,746.222717 632.352600,757.435974 633.106506,768.639893   C633.190002,769.880859 634.076050,771.067810 634.787354,772.603394   C632.974182,774.565186 631.208923,776.811096 628.911377,777.738708   C617.425110,782.376282 605.433655,784.407898 593.019714,785.156433   C564.386047,786.883057 536.599731,782.820496 509.998901,772.592163   C495.388153,766.974182 481.331177,759.615967 467.672943,751.895264   C449.848938,741.819702 433.679199,729.315491 419.127869,714.786743   C416.124451,711.787964 412.410431,709.500916 408.696686,706.815186   C407.577148,701.127991 406.784912,695.511475 405.997467,689.473389  z"
   id="path6" />
<path
   fill="#D6C5BB"
   opacity="1.000000"
   stroke="none"
   d=" M630.492310,719.662109   C630.248413,716.636597 630.185486,713.261597 630.223999,709.436890   C630.441345,712.429016 630.557251,715.870789 630.492310,719.662109  z"
   id="path7" />
<path
   fill="#D6C5BB"
   opacity="1.000000"
   stroke="none"
   d=" M631.227783,700.681274   C631.019287,698.579224 631.035095,696.172424 631.141052,693.372253   C631.304810,695.444763 631.378418,697.910706 631.227783,700.681274  z"
   id="path8" />
<path
   fill="#D6C5BB"
   opacity="1.000000"
   stroke="none"
   d=" M631.299683,734.708557   C630.925781,732.861633 630.766846,730.711182 630.755249,728.264343   C631.106567,730.113647 631.310547,732.259338 631.299683,734.708557  z"
   id="path9" />
<path
   fill="#CBD4D6"
   opacity="1.000000"
   stroke="none"
   d=" M412.181458,1018.244324   C412.565399,1017.973450 413.114990,1017.871216 413.827423,1017.941223   C413.442535,1018.213318 412.894806,1018.313110 412.181458,1018.244324  z"
   id="path10" />
<path
   fill="#CBD4D6"
   opacity="1.000000"
   stroke="none"
   d=" M440.137939,1022.173767   C440.542053,1021.916260 441.107330,1021.841309 441.827972,1021.952148   C441.421936,1022.210754 440.860535,1022.283569 440.137939,1022.173767  z"
   id="path11" />
<path
   fill="#D6C5BB"
   opacity="1.000000"
   stroke="none"
   d=" M715.855469,419.821960   C715.717651,419.837769 715.449158,419.649841 715.083740,419.230713   C715.275818,419.154388 715.521790,419.360626 715.855469,419.821960  z"
   id="path12" />
<path
   fill="#CBD4D6"
   opacity="1.000000"
   stroke="none"
   d=" M422.162720,1019.368774   C422.327789,1019.214844 422.630676,1019.329285 423.073761,1019.715332   C422.912201,1019.861694 422.607727,1019.745117 422.162720,1019.368774  z"
   id="path13" />
<path
   fill="#CBD4D6"
   opacity="1.000000"
   stroke="none"
   d=" M435.169861,1021.361389   C435.300598,1021.297424 435.612061,1021.404541 436.105591,1021.687378   C435.975281,1021.752930 435.662903,1021.642700 435.169861,1021.361389  z"
   id="path14" />




<path
   fill="#DC896A"
   opacity="1.000000"
   stroke="none"
   d=" M729.349365,512.406006   C724.019226,515.750427 719.061218,519.105591 713.124817,518.219604   C714.102417,496.118347 715.051025,474.117096 716.066589,452.118927   C716.305237,446.949249 720.457703,444.160339 725.982971,445.262817   C736.476013,447.356537 746.963684,458.880615 747.904480,469.650208   C748.833496,480.284760 747.964722,490.758667 741.513855,499.686188   C738.176697,504.304535 733.642944,508.058289 729.349365,512.406006  z"
   id="path19" />
<path
   fill="#DE8C6C"
   opacity="1.000000"
   stroke="none"
   d=" M292.592316,462.823425   C297.493500,453.271240 304.098328,446.507538 315.158783,446.004974   C320.681091,445.754059 321.709106,447.128632 322.035736,452.617371   C323.245941,472.954285 324.555328,493.285614 325.932922,513.611938   C326.182037,517.287964 324.930054,518.459473 321.326752,517.636353   C306.108582,514.160095 297.163757,504.036987 291.978973,489.992889   C288.673279,481.038788 289.348785,472.069427 292.592316,462.823425  z"
   id="path20" />







</svg>
