<?xml version="1.0" encoding="UTF-8" standalone="no"?>
<svg
   version="1.1"
   id="Layer_1"
   x="0px"
   y="0px"
   width="100%"
   viewBox="0 0 1024 1033"
   enable-background="new 0 0 1024 1033"
   xml:space="preserve"
   xmlns="http://www.w3.org/2000/svg"
   xmlns:svg="http://www.w3.org/2000/svg"><defs
   id="defs33" />

<path
   fill="#EEEDEC"
   opacity="1.000000"
   stroke="none"
   d=" M1.000000,1033.500000   C1.331485,1033.088501 1.596202,1033.272949 1.897075,1033.776611   C1.666667,1034.000000 1.333333,1034.000000 1.000000,1033.500000  z"
   id="path2" />
<path
   fill="#EEEDEC"
   opacity="1.000000"
   stroke="none"
   d=" M1024.500000,1034.000000   C1024.098389,1033.675171 1024.284058,1033.411621 1024.778320,1033.104736   C1025.000000,1033.333374 1025.000000,1033.666626 1024.500000,1034.000000  z"
   id="path3" />

<path
   fill="#e1a863"
   opacity="1"
   stroke="none"
   d="m 197.67921,345.9332 c 0.0602,-1.68051 0.12037,-3.36106 0.23014,-5.92188 0.42912,-8.99927 0.004,-17.25494 1.35444,-25.20895 2.88187,-16.96875 6.26404,-33.88062 10.22548,-50.63028 4.18404,-17.69097 9.91297,-34.88214 21.52341,-49.43167 9.17209,-11.49391 20.84853,-15.71846 35.35173,-12.96469 12.66129,2.40403 23.8999,7.94047 34.7081,14.59141 34.20251,21.04691 63.20313,47.97548 88.81287,78.71883 7.40695,8.89181 8.00378,9.10162 19.09393,5.74194 1.74603,-0.52893 3.50244,-1.02908 5.26929,-1.48315 25.90399,-6.65732 52.18151,-11.27192 78.91229,-12.1778 16.08823,-0.54516 32.24628,0.19464 48.34381,0.96591 11.05511,0.52973 22.16601,1.4899 33.0614,3.36539 14.51782,2.49908 28.84894,6.08078 43.26373,9.18182 3.76911,0.81086 7.0774,0.56543 9.86298,-2.81265 4.75623,-5.76797 9.45013,-11.68115 14.87164,-16.78876 15.36371,-14.47409 30.62476,-29.1175 46.79102,-42.66218 15.93018,-13.34694 33.08679,-25.17482 52.41315,-33.36891 16.97436,-7.1969 37.20599,-6.56614 47.406,7.80972 5.69794,8.03062 10.51605,17.07002 13.84027,26.33325 13.75244,38.32224 19.23285,78.21167 19.7406,118.73941 0.18396,14.68402 -1.44348,29.42432 -2.81372,44.0857 -1.66339,17.79769 -3.98034,35.5336 -5.89477,53.30911 -0.43763,4.06363 -1.50037,8.53677 -0.32874,12.19858 2.52234,7.88336 6.10089,15.45962 9.61994,22.9873 9.95245,21.28915 18.79687,43.05392 23.82592,66.00906 8.87745,38.10262 14.09262,72.80727 7.83313,111.35822 -5.42016,32.61432 -18.65527,61.88361 -38.40149,88.23517 -9.26239,12.36084 -18.99798,24.36761 -28.54919,36.51111 -2.7583,3.50695 -4.43042,6.89264 -3.04767,11.8023 5.98505,21.25025 11.82056,42.55024 17.20514,63.95929 3.47284,13.80774 6.06946,27.83582 9.05878,41.7652 -7.17174,7.18328 -44.38186,36.29853 -85.719,55.76077 -5.97,-5.99066 -5.08276,-18.61231 -11.33929,-34.0243 -9.37293,-23.08893 -19.51141,-45.87292 -29.65027,-68.64233 -4.86236,-10.91974 -5.06415,-10.60401 4.93591,-16.99726 35.29419,-22.5639 68.26111,-47.81073 95.22095,-80.37463 24.59521,-29.70782 42.90649,-62.48022 50.76111,-100.43066 2.79315,-13.49549 4.80261,-27.93726 -3.76819,-40.10272 -5.84106,-8.29084 -13.5899,-15.46125 -21.35132,-22.12427 -12.35876,-10.60974 -26.99926,-17.19696 -43.21112,-19.04499 -19.05011,-2.1715 -37.33221,2.14246 -55.24011,8.43525 -22.54639,7.92279 -43.42297,19.32751 -64.45899,30.42968 -8.49749,4.48481 -17.14856,7.23279 -27.22906,5.40161 -14.63177,-2.65789 -26.63654,-10.08081 -38.03784,-18.81659 -10.93665,-8.37975 -22.67499,-14.93835 -35.97077,-18.82269 -17.8587,-5.21722 -35.95157,-5.83209 -54.29666,-3.87012 -18.89929,2.02137 -36.24594,7.81562 -51.27621,19.87714 -9.84006,7.89649 -19.57892,16.00018 -31.76535,20.31134 -6.51734,2.30567 -13.50012,4.74976 -19.9216,2.45392 -12.45661,-4.45361 -24.79264,-9.59235 -36.483,-15.76477 -20.76371,-10.96307 -41.24704,-22.38983 -64.60215,-26.99683 -17.28805,-3.41021 -34.35113,-2.91491 -50.96222,3.68653 -17.53036,6.96686 -32.26718,17.96472 -44.57805,32.01269 -7.91877,9.0362 -12.57998,19.63538 -9.41531,32.17127 2.63672,10.44464 4.87358,21.02923 8.21584,31.24829 6.32911,19.35138 14.66069,37.88366 26.80188,54.35388 8.6607,11.74884 17.73024,23.23669 27.21969,34.32556 18.69693,21.84815 40.11832,40.70905 64.43009,56.14832 9.53412,6.05475 19.31247,11.72705 29.02252,17.50128 2.60702,1.55035 3.90494,3.19653 2.43094,6.40387 -6.5965,14.35358 -13.19409,28.71002 -19.51285,43.18695 -5.70297,13.0661 -11.42642,26.14728 -16.41208,39.49402 -3.35626,8.98474 -5.4447,18.44311 -8.10031,27.68957 -17.88824,-7.80182 -26.45934,-12.13423 -69.18868,-42.70178 -4.90675,-3.51343 -9.75531,-7.10809 -14.8126,-11.3974 0.74792,-6.61072 1.20082,-12.61407 2.68873,-18.34882 7.71439,-29.73278 15.75806,-59.38012 23.44388,-89.12011 0.55524,-2.1485 -0.14754,-5.27204 -1.44139,-7.11798 -3.03651,-4.3324 -6.7207,-8.22333 -10.2583,-12.18988 -20.59999,-23.0976 -38.06255,-48.27521 -50.74406,-76.60572 -9.46315,-21.14087 -15.2043,-43.26721 -15.59562,-66.45538 -0.20387,-12.08142 0.97065,-24.2019 1.83689,-36.28217 1.49389,-20.833 6.48625,-41.018 13.48973,-60.54754 8.01895,-22.36127 17.38038,-44.23883 25.976,-66.39734 1.90211,-4.90341 4.56372,-10.2045 4.23666,-15.14786 -0.90623,-13.69787 -3.46419,-27.2767 -4.88263,-40.95306 -1.53493,-14.79929 -2.53636,-29.65433 -3.72844,-44.48841 -0.19552,-2.43307 -0.17454,-4.88357 -0.25363,-7.32602 0.0132,-6.65536 0.0264,-13.31076 0.0826,-20.80956 -0.028,-1.63181 -0.099,-2.4202 -0.16994,-3.20859 m 49.37371,-39.26123 c -1.0183,8.71173 -2.60662,17.4028 -2.9238,26.13998 -0.49915,13.74927 -1.05423,27.60745 0.11317,41.27441 1.12032,13.11582 4.02605,26.13034 6.88402,39.02607 1.55142,7.00045 3.91568,7.30481 8.91516,2.2012 11.96179,-12.21112 23.39142,-24.98697 35.8934,-36.6127 11.51658,-10.70941 23.79279,-20.69593 36.39435,-30.11826 12.68048,-9.48126 13.3591,-10.67343 4.48215,-23.90109 -0.18527,-0.27612 -0.38287,-0.54492 -0.58844,-0.80637 -8.61117,-10.95135 -16.62921,-22.44543 -26.00583,-32.69687 -9.14129,-9.99414 -19.29281,-19.17401 -29.72592,-27.83822 -6.96002,-5.77994 -15.08517,-4.43033 -20.74188,2.74319 -3.31345,4.20188 -6.107,9.25379 -7.57465,14.37073 -2.36545,8.24716 -3.44244,16.86383 -5.12173,26.21793 m 454.48657,-4.59757 c -6.93231,9.52393 -14.20819,18.82144 -20.68353,28.64655 -4.81049,7.29907 -4.04608,9.1925 2.77575,14.37658 1.84888,1.405 3.86316,2.59665 5.67896,4.04041 12.07312,9.59936 24.76581,18.54309 35.99237,29.05112 12.97272,12.14251 24.75177,25.57641 36.79767,38.68075 2.66919,2.90369 4.03668,2.10242 5.59491,-0.49157 0.66577,-1.10837 0.98443,-2.45499 1.3139,-3.73133 5.29443,-20.51294 6.24091,-41.38718 6.17151,-62.49261 -0.0598,-18.18634 -1.80688,-36.13428 -4.22015,-54.0839 -1.38056,-10.26818 -3.29145,-20.32714 -9.37995,-29.10125 -5.104,-7.35535 -10.56939,-9.29627 -18.30298,-4.86084 -5.55255,3.18457 -10.80719,7.2453 -15.34399,11.76843 -8.94379,8.91675 -17.29669,18.42618 -26.39447,28.19766"
   id="path5" />
<path
   fill="#f0dfbb"
   opacity="1"
   stroke="none"
   d="m 297.20044,965.31207 c 2.45517,-9.52771 4.54361,-18.98608 7.89987,-27.97082 4.98566,-13.34674 10.70911,-26.42792 16.41208,-39.49402 6.31876,-14.47693 12.91635,-28.83337 19.51285,-43.18695 1.474,-3.20734 0.17608,-4.85352 -2.43094,-6.40387 -9.71005,-5.77423 -19.4884,-11.44653 -29.02252,-17.50128 -24.31177,-15.43927 -45.73316,-34.30017 -64.43009,-56.14832 -9.48945,-11.08887 -18.55899,-22.57672 -27.21969,-34.32556 -12.14119,-16.47022 -20.47277,-35.0025 -26.80188,-54.35388 -3.34226,-10.21906 -5.57912,-20.80365 -8.21584,-31.24829 -3.16467,-12.53589 1.49654,-23.13507 9.41531,-32.17127 12.31087,-14.04797 27.04769,-25.04583 44.57805,-32.01269 16.61109,-6.60144 33.67417,-7.09674 50.96222,-3.68653 23.35511,4.607 43.83844,16.03376 64.60215,26.99683 11.69036,6.17242 24.02639,11.31116 36.483,15.76477 6.42148,2.29584 13.40426,-0.14825 19.9216,-2.45392 12.18643,-4.31116 21.92529,-12.41485 31.76535,-20.31134 15.03027,-12.06152 32.37692,-17.85577 51.27621,-19.87714 18.34509,-1.96197 36.43796,-1.3471 54.29666,3.87012 13.29578,3.88434 25.03412,10.44294 35.97077,18.82269 11.4013,8.73578 23.40607,16.1587 38.03784,18.81659 10.0805,1.83118 18.73157,-0.9168 27.22906,-5.40161 21.03602,-11.10217 41.9126,-22.50689 64.45899,-30.42968 17.9079,-6.29279 36.19,-10.60675 55.24011,-8.43525 16.21186,1.84803 30.85236,8.43525 43.21112,19.04499 7.76142,6.66302 15.51026,13.83343 21.35132,22.12427 8.5708,12.16546 6.56134,26.60723 3.76819,40.10272 -7.85462,37.95044 -26.1659,70.72284 -50.76111,100.43066 -26.95984,32.5639 -59.92676,57.81073 -95.22095,80.37463 -10.00006,6.39325 -9.79827,6.07752 -4.93591,16.99726 10.13886,22.76941 20.27734,45.5534 29.65027,68.64233 6.85799,16.89359 6.6961,23.14936 12.23421,33.61302 -16.51892,7.32385 -34.04775,15.50234 -51.17531,22.15932 -26.17115,10.17206 -53.37116,16.98355 -80.96832,21.95305 -13.64533,2.4572 -27.48621,4.0255 -41.3042,5.2649 -10.88947,0.9768 -21.87702,1.0023 -32.82508,1.1445 -12.08316,0.1571 -24.21237,0.5943 -36.24838,-0.1997 -28.77374,-1.8982 -57.26068,-5.9085 -85.2868,-13.0112 -32.13337,-8.14349 -63.25419,-18.9928 -93.0752,-33.51098 -2.68372,-1.30652 -5.43475,-2.47474 -8.35501,-3.98835 M 274.87268,672.92419 c 1.66199,0.0903 3.33426,0.0922 4.98438,0.28437 18.76745,2.18609 36.27026,-0.99622 50.74453,-13.79071 8.98401,-7.94153 13.08362,-19.74292 5.34714,-30.78522 -3.93597,-5.61786 -9.90775,-10.42938 -15.96191,-13.80963 -11.35218,-6.33832 -23.93012,-8.03015 -37.02967,-7.04724 -12.41644,0.93164 -23.89621,4.17016 -34.0442,11.32794 -15.94429,11.24603 -16.65474,30.52154 -1.21225,42.23663 7.89708,5.99097 16.93019,9.05146 27.17198,11.58386 m 431.26123,-4.39648 c 11.21149,4.51813 23.00232,5.52081 34.78076,4.28357 13.74158,-1.44336 26.53736,-5.57037 36.36396,-16.38745 8.84124,-9.73255 9.02105,-23.18494 -0.0291,-32.74091 -9.27173,-9.78991 -21.02099,-14.11334 -34.03381,-15.87207 -18.88086,-2.55194 -36.32977,0.73761 -51.72247,12.49439 -12.16907,9.29455 -13.77558,25.96435 -2.82483,36.5581 4.77484,4.61927 11.13311,7.60181 17.46551,11.66437 z"
   id="path6" />








<path
   fill="#FDF2DA"
   opacity="1.000000"
   stroke="none"
   d=" M793.379700,925.013184   C793.791443,924.348633 794.560364,923.683228 795.639526,922.960571   C795.212097,923.606323 794.474487,924.309265 793.379700,925.013184  z"
   id="path15" />






<path
   fill="#D1D4C6"
   opacity="1.000000"
   stroke="none"
   d=" M197.384766,346.012756   C197.750198,346.721588 197.821182,347.509979 197.780609,348.683197   C197.476166,348.076111 197.283249,347.084198 197.384766,346.012756  z"
   id="path22" />
<path
   fill="#F1E0BD"
   opacity="1.000000"
   stroke="none"
   d=" M247.081924,306.225220   C248.732208,297.317871 249.809204,288.701202 252.174652,280.454041   C253.642303,275.337097 256.435852,270.285187 259.749298,266.083313   C265.406006,258.909790 273.531158,257.560181 280.491180,263.340118   C290.924286,272.004333 301.075806,281.184204 310.217102,291.178345   C319.593719,301.429779 327.611755,312.923859 336.222931,323.875214   C336.428497,324.136658 336.626099,324.405457 336.811371,324.681580   C345.688324,337.909241 345.009705,339.101410 332.329224,348.582672   C319.727661,358.005005 307.451447,367.991516 295.934875,378.700928   C283.432892,390.326660 272.003265,403.102509 260.041473,415.313629   C255.041992,420.417236 252.677734,420.112885 251.126312,413.112427   C248.268341,400.216705 245.362610,387.202179 244.242294,374.086365   C243.074890,360.419403 243.629974,346.561218 244.129120,332.811951   C244.446304,324.074768 246.034622,315.383698 247.081924,306.225220  z"
   id="path23" />
<path
   fill="#F1E0BC"
   opacity="1.000000"
   stroke="none"
   d=" M701.789734,301.820801   C710.637268,292.302917 718.990173,282.793488 727.933960,273.876740   C732.470764,269.353607 737.725403,265.292877 743.277954,262.108307   C751.011536,257.672882 756.476929,259.613800 761.580933,266.969147   C767.669434,275.743256 769.580322,285.802216 770.960876,296.070404   C773.374146,314.020020 775.121216,331.967957 775.181030,350.154297   C775.250427,371.259735 774.303955,392.133972 769.009521,412.646912   C768.680054,413.923248 768.361389,415.269867 767.695618,416.378235   C766.137390,418.972229 764.769897,419.773499 762.100708,416.869812   C750.054810,403.765472 738.275757,390.331573 725.303040,378.189056   C714.076477,367.681030 701.383789,358.737305 689.310669,349.137939   C687.494873,347.694183 685.480591,346.502533 683.631714,345.097534   C676.809875,339.913452 676.045471,338.020020 680.855957,330.720947   C687.331299,320.895844 694.607178,311.598328 701.789734,301.820801  z"
   id="path24" />





<path
   fill="#E4988B"
   opacity="1.000000"
   stroke="none"
   d=" M274.444122,672.862427   C264.630890,670.391785 255.597778,667.331299 247.700699,661.340332   C232.258209,649.625244 232.968658,630.349731 248.912949,619.103699   C259.060944,611.945923 270.540710,608.707397 282.957153,607.775757   C296.056702,606.792847 308.634644,608.484680 319.986816,614.822998   C326.040985,618.203247 332.012756,623.014771 335.948730,628.632629   C343.685211,639.674927 339.585602,651.476318 330.601593,659.417847   C316.127319,672.212341 298.624512,675.394653 279.857056,673.208557   C278.206940,673.016357 276.534668,673.014465 274.444122,672.862427  z"
   id="path30" />
<path
   fill="#E5978B"
   opacity="1.000000"
   stroke="none"
   d=" M705.787292,668.359314   C699.801514,664.465149 693.443237,661.482605 688.668396,656.863342   C677.717651,646.269592 679.324158,629.599792 691.493225,620.305237   C706.885925,608.548462 724.334839,605.258911 743.215698,607.810852   C756.228516,609.569580 767.977783,613.893005 777.249512,623.682922   C786.299683,633.238892 786.119873,646.691284 777.278625,656.423828   C767.452026,667.240906 754.656250,671.367920 740.914673,672.811279   C729.136230,674.048523 717.345398,673.045837 705.787292,668.359314  z"
   id="path31" />


</svg>
