<?xml version="1.0" encoding="UTF-8"?>
<svg xmlns="http://www.w3.org/2000/svg" viewBox="0 0 1024 1024">
  <g id="sclera-02" transform="translate(0, 48)">
    <g id="sclera-02-left">
      <path
        id="sclera-02-left-accent"
        fill="#634731"
        opacity="1.000000"
        stroke="none"
        d=" M409.163605,513.776855   C393.558838,504.577545 377.978943,504.721313 362.055786,511.882050   C359.406219,513.073547 356.355072,513.986694 353.494507,513.973206   C346.410309,513.939880 341.519836,506.803223 343.411652,499.972229   C346.221222,489.827362 354.039703,484.617371 363.121826,481.812317   C386.440643,474.610199 412.688019,478.629059 430.468903,498.297302   C438.329315,506.992126 435.128265,517.634338 423.885590,520.500427   C422.501312,520.853333 420.647278,520.498718 419.346741,519.824341   C415.956360,518.066284 412.752533,515.948364 409.163605,513.776855  z"
      />
    </g>
    <g id="sclera-02-right">
      <g id="sclera-02-right-accent" transform="translate(1024,0) scale(-1,1)">
        <path
          id="sclera-02-right-accent-path"
          fill="#634731"
          opacity="1.000000"
          stroke="none"
          d=" M409.163605,513.776855   C393.558838,504.577545 377.978943,504.721313 362.055786,511.882050   C359.406219,513.073547 356.355072,513.986694 353.494507,513.973206   C346.410309,513.939880 341.519836,506.803223 343.411652,499.972229   C346.221222,489.827362 354.039703,484.617371 363.121826,481.812317   C386.440643,474.610199 412.688019,478.629059 430.468903,498.297302   C438.329315,506.992126 435.128265,517.634338 423.885590,520.500427   C422.501312,520.853333 420.647278,520.498718 419.346741,519.824341   C415.956360,518.066284 412.752533,515.948364 409.163605,513.776855  z"
        />
      </g>
    </g>
  </g>
</svg>
