<?xml version="1.0" encoding="UTF-8"?>
<svg xmlns="http://www.w3.org/2000/svg" viewBox="0 0 1024 1024">
  <g id="sclera-01">
    <g id="sclera-01-left">
      <path
        id="sclera-01-left-eye"
        fill="#5A4332"
        opacity="1.000000"
        stroke="none"
        d=" M366.450134,590.714478   C354.937653,583.160217 348.918762,572.858826 350.323181,559.407043   C351.844452,544.835876 359.964325,534.140869 374.188171,530.802979   C392.791290,526.437439 409.724792,533.777832 414.981964,554.944763   C419.653534,573.754028 406.718353,592.390381 387.941101,594.903870   C380.581390,595.889038 373.352356,594.750977 366.450134,590.714478  M365.817963,552.635742   C368.088959,557.532776 371.187408,559.191406 375.542694,557.841553   C379.049744,556.754578 381.576080,552.175659 380.598358,548.678467   C379.503113,544.760986 375.507446,542.313782 371.349182,543.013672   C367.436829,543.672180 365.291962,546.971008 365.817963,552.635742  z"
      />
      <path
        id="sclera-01-left-highlight"
        fill="#A98C77"
        opacity="1.000000"
        stroke="none"
        d=" M365.690125,552.274780   C365.291962,546.971008 367.436829,543.672180 371.349182,543.013672   C375.507446,542.313782 379.503113,544.760986 380.598358,548.678467   C381.576080,552.175659 379.049744,556.754578 375.542694,557.841553   C371.187408,559.191406 368.088959,557.532776 365.690125,552.274780  z"
      />
    </g>
    <g id="sclera-01-right">
      <path
        id="sclera-01-right-eye"
        fill="#5A4232"
        opacity="1.000000"
        stroke="none"
        d=" M654.963745,533.917358   C671.790466,545.725464 672.796387,567.419189 663.296448,580.345703   C655.506653,590.945190 644.767212,595.599487 632.058289,593.693298   C618.333740,591.634644 608.753723,583.491333 605.072876,569.809326   C600.261719,551.925415 610.803833,533.640991 628.864929,529.546509   C637.562805,527.574646 646.770874,527.958923 654.963745,533.917358  M623.356995,556.698975   C624.332764,556.837158 625.309265,557.099121 626.284119,557.092834   C631.492249,557.059448 634.354309,554.097778 634.094055,549.095642   C633.846802,544.343262 630.096008,541.027832 625.291504,542.186401   C623.089172,542.717407 620.568481,544.719910 619.544556,546.740479   C617.652771,550.473572 619.476379,553.756409 623.356995,556.698975  z"
      />
      <path
        id="sclera-01-right-highlight"
        fill="#A88D77"
        opacity="1.000000"
        stroke="none"
        d=" M623.041016,556.440674   C619.476379,553.756409 617.652771,550.473572 619.544556,546.740479   C620.568481,544.719910 623.089172,542.717407 625.291504,542.186401   C630.096008,541.027832 633.846802,544.343262 634.094055,549.095642   C634.354309,554.097778 631.492249,557.059448 626.284119,557.092834   C625.309265,557.099121 624.332764,556.837158 623.041016,556.440674  z"
      />
    </g>
  </g>
</svg>
