<svg xmlns="http://www.w3.org/2000/svg" viewBox="0 0 1024 1024">
  <path fill="#EC917D" opacity="1.000000" stroke="none" d=" M360.705566,504.886597   C367.014954,494.843506 376.846832,490.884918 387.303070,489.376709   C399.672821,487.592468 411.822998,489.295349 422.586273,496.724335   C436.626282,506.414978 436.588531,521.785461 422.388397,531.374695   C405.690277,542.650818 380.591583,541.578979 365.150452,528.288879   C358.988464,522.985229 354.538635,515.289734 360.705566,504.886597  z"/>
  <path fill="#EC917C" opacity="1.000000" stroke="none" d=" M617.085083,495.975067   C635.296082,486.138916 653.122498,485.810913 670.234741,497.248505   C684.228027,506.601410 683.076050,523.035034 668.663147,531.763123   C651.486694,542.164734 627.711243,540.886841 613.805481,529.642334   C602.659607,520.629578 602.275269,506.802917 613.014771,499.419678   C614.372864,498.486023 615.517517,497.241974 617.085083,495.975067  z"/>
</svg>
